<svg xmlns="http://www.w3.org/2000/svg" width="512" height="512" viewBox="0 0 512 512" style="">
  <defs id="_U9gGkPZqXxGt42VZuinBm" transform="matrix(1.0652244091033936, 0, 0, 1.0652244091033936, -102.59400939941406, 118.24373626708984)" />
  <path id="_DTInp0Q6grW1HI-qkhO5b" fill="#ff7817" transform="matrix(2.879845142364502, 0, 0, 1.4336090087890625, 3.01039719581604, -16.28129005432129)" data-type="rect" data-x="0" data-y="84.525" data-width="176.742" data-height="7.219" d="M0 84.525H176.742 V91.744 H0 Z" />
  <g transform="matrix(1, 0, 0, 1, 58.60797882080078, -7.585713863372803)">
    <g transform="matrix(1.1186623573303223, 0, 0, 1.1186623573303223, -52.00000762939453, 96.02082061767578)">
      <path d="M82.503,20.416c-3.647-1.304-7.382-2.262-11.158-3.045c2.067-2.386,4.677-4.241,6.892-6.49   c0.754-0.765,0.506-2.391-0.685-2.592C72.363,7.41,67.169,7.88,61.942,7.924c-0.14,0.001-0.28,0.007-0.42,0.008   c0.184-1.691,0.064-3.32-0.878-4.668c-0.396-0.564-1.048-0.927-1.752-0.713c-4.271,1.298-8.502,2.74-12.658,4.361   c-0.775-0.663-1.576-1.298-2.43-1.878c-0.44-0.298-1.124-0.278-1.566,0c-4.307,2.707-8.237,5.862-12.351,8.837   c-4.313,3.12-8.781,6.016-13.083,9.153c-0.355,0.259-0.55,0.594-0.627,0.945c-0.45,0.224-0.779,0.661-0.76,1.324   c0.197,7.193,1.016,14.354,0.775,21.557c-0.042,1.254,1.249,1.746,2.25,1.365c1.647,2.552,2.766,5.406,4.312,8.022   c0.002,0.008,0.005,0.012,0.007,0.02c0.022,0.069,0.053,0.131,0.081,0.194c0.005,0.058,0.015,0.111,0.019,0.169   c0.043,0.526,0.297,0.909,0.639,1.157c-0.033,1.151,0.176,2.461,0.413,3.7c0.58,3.021-1.335,9.043,3.795,8.292   c0.37-0.054,0.576-0.268,0.646-0.527c0.656,3.259,1.785,6.352,3.142,9.424c1.829,4.138,4.604,8.082,5.965,12.399   c0.661,2.094,1.258,3.901,3.456,4.662c2.818,0.975,6.331,0.679,9.243,0.486c2.239-0.147,4.139-0.507,5.871-2.007   c2.239-1.939,3.39-5.137,4.466-7.805c1.35-3.342,2.696-6.529,4.422-9.705c1.544-2.843,2.815-5.665,3.334-8.752   c0.809,0.092,1.457-0.016,2.258-0.244c0.424-0.118,0.648-0.476,0.683-0.896c0.252-3.059,1.648-11.512-2.97-12.063   c1.02-5.26,4.059-9.979,6.524-14.72c0.41-0.401,0.709-0.949,0.835-1.65c2.731-5.527,5.988-10.798,7.571-16.811   C83.289,21.042,82.984,20.587,82.503,20.416z M69.771,61.468c-0.222-0.53-0.48-1.045-0.772-1.543   c-0.607-1.034-2.216-0.099-1.607,0.939c0.534,0.909,0.927,1.846,1.147,2.88c0.122,0.571,0.613,0.744,1.055,0.637   c-0.064,0.646-0.133,1.229-0.186,1.697c-0.308,0.06-0.624,0.06-0.943,0.027c0.025-0.383,0.041-0.768,0.04-1.161   c0-1.2-1.86-1.2-1.86,0c0.007,6.574-4.265,11.655-6.604,17.517c-1.882,4.712-3.343,11.22-9.225,11.837   c-2.411,0.255-4.868,0.229-7.28,0.021c-1.182-0.102-2.64-0.234-3.359-1.309c-0.737-1.1-0.804-2.542-1.367-3.721   c-3.439-7.195-7.942-14.218-8.972-22.276c-0.15-1.173-2.013-1.188-1.861,0c0.061,0.473,0.134,0.939,0.215,1.403   c-0.199-0.296-0.542-0.504-0.98-0.44c-1.114,0.163-1.426-0.963-1.466-2.278c0.152-0.107,0.275-0.272,0.336-0.507   c0.427-1.645,1.019-3.215,1.768-4.739c0.526-1.074-1.079-2.017-1.608-0.938c-0.206,0.418-0.402,0.841-0.588,1.268   c-0.172-0.775-0.368-1.635-0.424-2.399c0.967-0.139,1.794-1.074,1.222-2.088c0.217-0.021,0.467-0.014,0.76,0.035   c0.521,0.088,0.907-0.216,1.076-0.599c0.072-0.065,0.138-0.144,0.182-0.242c0.286-0.649,0.542-1.309,0.772-1.972   c0.099-0.145,0.182-0.312,0.231-0.516c0.054-0.221,0.099-0.44,0.15-0.661c0.686-2.275,1.099-4.618,1.393-6.983   c0.184-0.778,0.387-1.552,0.589-2.326c4.185-2.814,5.645-7.612,5.883-12.589c3.768-0.229,7.57,0.003,11.335,0.152   c2.92,0.115,5.779,0.158,8.688-0.122c2.099-0.201,8.554-1.519,8.948,1.895c0.18,1.549,0.182,3.164,0.132,4.786   c-0.01,0.271-0.021,0.542-0.028,0.813c-0.068,1.659-0.173,3.315-0.195,4.909c-0.058,4.186-0.13,8.371-0.137,12.557   c-0.001,0.433,0.3,0.73,0.657,0.854c0.148,0.177,0.377,0.296,0.687,0.283C69.384,56.507,69.797,58.921,69.771,61.468z" transform="matrix(1, 0, 0, 1, 8.881784197001252e-15, 1.4210854715202004e-14)" />
      <path d="M47.104,40.854c-3.236-0.199-6.477-0.206-9.718-0.207c-1.2,0-1.2,1.861,0,1.861   c3.242,0,6.482,0.008,9.718,0.207C48.304,42.788,48.295,40.927,47.104,40.854z" transform="matrix(1, 0, 0, 1, 0, 0)" />
      <path d="M62.199,40.854H51.653c-1.2,0-1.2,1.861,0,1.861h10.546C63.399,42.714,63.399,40.854,62.199,40.854z" transform="matrix(1, 0, 0, 1, 0, 0)" />
      <path d="M46.938,49.505c0.483-0.186,0.782-0.615,0.65-1.144c-0.758-3.059-4.839-2.19-7.1-1.925   c-1.177,0.138-1.191,2.001,0,1.861c0.759-0.089,2.58-0.517,3.885-0.364c-0.163,0.381-0.088,0.833,0.4,1.064   C45.593,49.386,45.954,49.883,46.938,49.505z" transform="matrix(1, 0, 0, 1, 0, 0)" />
      <path d="M52.895,46.436c-1.2,0.017-1.201,1.877,0,1.861c0.668-0.009,3.396-0.389,5.177-0.267   c-0.202,0.473-0.068,1.096,0.571,1.268c0.756,0.203,1.394,0.203,2.148,0c0.51-0.136,0.759-0.651,0.651-1.144   C60.78,45.135,54.974,46.407,52.895,46.436z" transform="matrix(1, 0, 0, 1, 0, 0)" />
      <path d="M47.27,70.804c2.436,0.736,4.774,0.925,6.427-1.256c0.727-0.957-0.892-1.882-1.607-0.939   c-0.909,1.199-2.318,0.977-3.584,0.621c0.511-6.404,1.726-12.734,1.803-19.173c0.015-1.201-1.846-1.2-1.861,0   c-0.08,6.667-1.387,13.213-1.86,19.851C46.557,70.323,46.895,70.688,47.27,70.804z" transform="matrix(1, 0, 0, 1, 0, 0)" />
      <path d="M57.198,73.384c-2.64,2.999-8.375-0.323-11.748-0.273c-1.199,0.02-1.201,1.88,0,1.861   c3.101-0.045,7.134,2.024,10.353,1.324c-0.129,0.266-0.263,0.53-0.404,0.792c-0.574,1.054,1.033,1.993,1.606,0.938   c0.622-1.141,1.102-2.342,1.655-3.515C59.085,73.612,57.941,72.539,57.198,73.384z" transform="matrix(1, 0, 0, 1, 0, 0)" />
      <path d="M49.379,89.241c-0.986,0-1.969,0.016-2.936,0.24c-1.167,0.273-0.672,2.067,0.495,1.794   c0.801-0.188,1.623-0.173,2.44-0.173C50.58,91.103,50.58,89.241,49.379,89.241z" transform="matrix(1, 0, 0, 1, 0, 0)" />
    </g>
    <path transform="matrix(1.2026480436325073, 0, 0, 1.2026480436325073, -60.82904815673828, 182.2738494873047)" data-type="polygon" d="M21.681 34.87L37.446 49.443L37.451 44.487L29.451 35.361L39.253 26.016L39.253 100L44.265 100L50.181 55.314L57.396 99.703L61.709 99.703L61.81 26.413L71.928 34.991L63.202 44.525L63.202 49.558L79.049 34.885L61.44 17.959L39.02 17.959Z" />
  </g>
  <g transform="matrix(1.1490497589111328, 0, 0, 1.1490497589111328, 79.78807067871094, 105.9493637084961)">
    <path d="M50.473,27.594c1.286,0,1.006,2.235,2.236,4.526c1.229,2.29,3.127,3.771,7.22,3.239c4.092-0.53,4.846-3.184,4.846-3.184   s1.341-3.966,1.675-4.833c0.337-0.866,0.895-0.698,0.895-0.838l0.364-2.262c0,0-7.375-1.9-15.559,0.418   c0,0-1.173,0.335-1.677,0.335h-0.946c-0.503,0-1.676-0.335-1.676-0.335c-8.185-2.318-15.56-0.418-15.56-0.418l0.364,2.262   c0,0.14,0.558-0.028,0.895,0.838c0.334,0.866,1.675,4.833,1.675,4.833s0.754,2.654,4.846,3.184c4.092,0.532,5.991-0.949,7.22-3.239   c1.229-2.291,0.95-4.526,2.236-4.526H50.473z" transform="matrix(1, 0, 0, 1, 0, 0)" />
    <path fill-rule="evenodd" clip-rule="evenodd" d="M31.912,38.311c-0.166,0.019-0.323,0.108-0.476-0.099    c-0.056-0.076-0.303-0.013-0.522-0.013c0.171-0.091,0.313-0.167,0.427-0.226C31.539,38.089,31.726,38.2,31.912,38.311    L31.912,38.311z" transform="matrix(1, 0, 0, 1, 0, 0)" />
    <path fill="none" transform="matrix(1, 0, 0, 1, 0, 0)" data-type="rect" data-x="31.912" data-y="38.309" data-width="0" data-height="0" d="M31.912 38.309H31.912 V38.309 H31.912 Z" />
    <path fill="none" transform="matrix(1, 0, 0, 1, 0, 0)" data-type="polygon" d="M67.672 37.602L67.671 37.594L67.671 37.594Z" />
    <path transform="matrix(1, 0, 0, 1, 0, 0)" data-type="polygon" d="M67.678 37.596L67.671 37.594L67.672 37.602Z" />
    <path d="M29.146,52.218c0.101,0.187,0.202,0.375,0.31,0.574C29.348,52.594,29.248,52.405,29.146,52.218L29.146,52.218z" transform="matrix(1, 0, 0, 1, 0, 0)" />
    <path d="M32.349,37.821c-0.096,0.106-0.186,0.208-0.273,0.307C32.163,38.029,32.253,37.927,32.349,37.821z" transform="matrix(1, 0, 0, 1, 0, 0)" />
    <path transform="matrix(1, 0, 0, 1, 0, 0)" data-type="rect" data-x="31.912" data-y="38.309" data-width="0" data-height="0" d="M31.912 38.309H31.912 V38.309 H31.912 Z" />
    <path transform="matrix(1, 0, 0, 1, 0, 0)" data-type="polygon" d="M31.912 38.311L31.913 38.311L31.912 38.31Z" />
    <path d="M31.907,38.291c0.003,0.006,0.003,0.012,0.005,0.019l0,0C31.91,38.302,31.91,38.296,31.907,38.291z" transform="matrix(1, 0, 0, 1, 0, 0)" />
    <path d="M32.052,36.712c-0.084-0.021-0.146-0.119-0.271-0.316l0,0C31.905,36.594,31.968,36.692,32.052,36.712z" transform="matrix(1, 0, 0, 1, 0, 0)" />
    <path d="M67.671,37.594c-0.015-0.1-0.029-0.201-0.046-0.309C67.642,37.393,67.656,37.494,67.671,37.594L67.671,37.594z" transform="matrix(1, 0, 0, 1, 0, 0)" />
    <path transform="matrix(1, 0, 0, 1, 0, 0)" data-type="polygon" d="M31.912 38.31L31.912 38.311L31.912 38.31Z" />
    <path transform="matrix(1, 0, 0, 1, 0, 0)" data-type="polygon" d="M31.912 38.31L31.913 38.311L31.912 38.309Z" />
    <path fill-rule="evenodd" clip-rule="evenodd" d="M66.616,33.796c0.036,0.243,0.058,0.386,0.079,0.529    c0.03,0.002,0.062,0.003,0.093,0.004c0.039-0.189,0.078-0.379,0.116-0.57c0.026,0.001,0.053,0.003,0.078,0.005    c-0.009,0.174,0.022,0.364-0.037,0.519c-0.059,0.147-0.212,0.259-0.387,0.458C66.579,34.405,66.594,34.151,66.616,33.796z" transform="matrix(1, 0, 0, 1, 0, 0)" />
    <path fill-rule="evenodd" clip-rule="evenodd" d="M68.188,38.276c-0.216-0.137-0.434-0.272-0.648-0.408    c0.047-0.091,0.092-0.182,0.138-0.272l-0.006,0.006C67.843,37.827,68.016,38.051,68.188,38.276z" transform="matrix(1, 0, 0, 1, 0, 0)" />
    <path fill="none" d="M28.818,55.886c0.147-0.133,0.233-0.212,0.323-0.294c-0.105-0.075-0.192-0.136-0.394-0.279    C28.772,55.52,28.793,55.679,28.818,55.886z" transform="matrix(1, 0, 0, 1, 0, 0)" />
    <path fill="none" d="M37.352,42.803c-0.025,0.003-0.049,0.006-0.074,0.008c0.022,0.252,0.045,0.504,0.067,0.756    c0.022,0.01,0.044,0.02,0.066,0.028c0.049-0.249,0.099-0.497,0.161-0.815c-0.091,0.108-0.129,0.152-0.179,0.212    C37.374,42.909,37.363,42.856,37.352,42.803z" transform="matrix(1, 0, 0, 1, 0, 0)" />
    <path fill="none" d="M29.193,56.795c-0.025,0.091,0.008,0.199,0.018,0.32c0.101-0.075,0.227-0.168,0.399-0.296    c-0.092-0.093-0.172-0.173-0.251-0.252C29.302,56.641,29.216,56.709,29.193,56.795z" transform="matrix(1, 0, 0, 1, 0, 0)" />
    <path fill="none" transform="matrix(1, 0, 0, 1, 0, 0)" data-type="polygon" d="M51.431 72.011L51.431 72.011L51.431 72.011Z" />
    <path fill="none" transform="matrix(1, 0, 0, 1, 0, 0)" data-type="rect" data-x="35.733" data-y="67.664" data-width="0" data-height="0" d="M35.733 67.664H35.733 V67.664 H35.733 Z" />
    <path fill="none" transform="matrix(1, 0, 0, 1, 0, 0)" data-type="rect" data-x="58.294" data-y="71.732" data-width="0" data-height="0" d="M58.294 71.732H58.294 V71.732 H58.294 Z" />
    <path d="M47.792,72.104l-0.011-0.013c-0.003,0-0.005,0.001-0.008,0.002C47.778,72.096,47.786,72.099,47.792,72.104z" transform="matrix(1, 0, 0, 1, 0, 0)" />
    <path d="M51.447,72.095c0,0.003,0,0.005,0,0.007C51.447,72.1,51.447,72.098,51.447,72.095z" transform="matrix(1, 0, 0, 1, 0, 0)" />
    <path d="M52.791,72.537c-0.019,0.009-0.04,0.024-0.047,0.018C52.75,72.561,52.772,72.546,52.791,72.537z" transform="matrix(1, 0, 0, 1, 0, 0)" />
    <path d="M35.521,67.287c-0.002-0.009-0.002-0.019-0.002-0.029C35.518,67.268,35.519,67.278,35.521,67.287z" transform="matrix(1, 0, 0, 1, 0, 0)" />
    <path d="M31.336,64.573c-0.018-0.007-0.036-0.015-0.052-0.025C31.301,64.558,31.319,64.566,31.336,64.573z" transform="matrix(1, 0, 0, 1, 0, 0)" />
    <path d="M35.539,67.331c-0.007-0.012-0.012-0.023-0.015-0.035C35.527,67.308,35.532,67.319,35.539,67.331z" transform="matrix(1, 0, 0, 1, 0, 0)" />
    <path d="M31.272,64.54c-0.013-0.008-0.024-0.015-0.036-0.023C31.248,64.524,31.259,64.531,31.272,64.54z" transform="matrix(1, 0, 0, 1, 0, 0)" />
    <path d="M51.441,72.159c-0.002,0.006-0.008,0.011-0.012,0.015C51.433,72.169,51.438,72.165,51.441,72.159z" transform="matrix(1, 0, 0, 1, 0, 0)" />
    <path d="M35.716,67.705c-0.008,0.015-0.018,0.03-0.031,0.045C35.699,67.734,35.709,67.719,35.716,67.705z" transform="matrix(1, 0, 0, 1, 0, 0)" />
    <path d="M35.562,67.157c0.01-0.011,0.021-0.021,0.034-0.032C35.583,67.136,35.572,67.146,35.562,67.157z" transform="matrix(1, 0, 0, 1, 0, 0)" />
    <path d="M35.532,67.202c0.005-0.01,0.011-0.019,0.018-0.029C35.542,67.183,35.537,67.192,35.532,67.202z" transform="matrix(1, 0, 0, 1, 0, 0)" />
    <path d="M50.843,72.481c-0.036-0.017-0.071-0.035-0.105-0.056C50.772,72.446,50.807,72.464,50.843,72.481z" transform="matrix(1, 0, 0, 1, 0, 0)" />
    <path d="M61.904,70.143c-0.033,0.036-0.071,0.075-0.113,0.123C61.833,70.218,61.871,70.179,61.904,70.143z" transform="matrix(1, 0, 0, 1, 0, 0)" />
    <path d="M27.839,58.298c-0.137-0.162-0.273-0.323-0.419-0.499C27.566,57.975,27.702,58.136,27.839,58.298z" transform="matrix(1, 0, 0, 1, 0, 0)" />
    <path d="M35.519,67.245c0.001-0.009,0.003-0.019,0.007-0.028C35.521,67.226,35.52,67.235,35.519,67.245z" transform="matrix(1, 0, 0, 1, 0, 0)" />
    <path d="M66.349,67.894c0.002-0.012,0.003-0.024,0.004-0.036c-0.004,0.009-0.009,0.019-0.014,0.028L66.349,67.894z" transform="matrix(1, 0, 0, 1, 0, 0)" />
    <path d="M35.613,67.109c0.021-0.017,0.045-0.033,0.073-0.051C35.658,67.076,35.634,67.093,35.613,67.109z" transform="matrix(1, 0, 0, 1, 0, 0)" />
    <path d="M51.441,72.054c0.001,0.004,0.001,0.009,0.002,0.013C51.442,72.063,51.442,72.059,51.441,72.054z" transform="matrix(1, 0, 0, 1, 0, 0)" />
    <path d="M51.447,72.13c0,0.004-0.001,0.008-0.003,0.011C51.446,72.138,51.447,72.134,51.447,72.13z" transform="matrix(1, 0, 0, 1, 0, 0)" />
    <path d="M51.438,72.039c-0.002-0.009-0.003-0.018-0.006-0.027l0,0C51.434,72.021,51.435,72.029,51.438,72.039z" transform="matrix(1, 0, 0, 1, 0, 0)" />
    <path d="M30.549,64.123L30.549,64.123c0.359-0.117,0.472,0.222,0.681,0.387C31.021,64.345,30.908,64.006,30.549,64.123z" transform="matrix(1, 0, 0, 1, 0, 0)" />
    <path d="M58.294,71.732c0.045,0.004,0.092,0.009,0.139,0.012C58.386,71.741,58.339,71.737,58.294,71.732L58.294,71.732z" transform="matrix(1, 0, 0, 1, 0, 0)" />
    <path d="M35.54,67.332c0.061,0.107,0.227,0.201,0.193,0.332C35.767,67.533,35.602,67.439,35.54,67.332z" transform="matrix(1, 0, 0, 1, 0, 0)" />
    <path transform="matrix(1, 0, 0, 1, 0, 0)" data-type="polygon" d="M63.567 68.958L63.56 68.963L63.56 68.965Z" />
    <path d="M57.989,72.042c0.103-0.104,0.204-0.207,0.305-0.31l0,0C58.192,71.835,58.092,71.938,57.989,72.042z" transform="matrix(1, 0, 0, 1, 0, 0)" />
    <path transform="matrix(1, 0, 0, 1, 0, 0)" data-type="polygon" d="M51.177 72.624L51.177 72.624L51.179 72.622L51.167 72.617L51.167 72.619Z" />
    <path transform="matrix(1, 0, 0, 1, 0, 0)" data-type="polygon" d="M74.468 59.996L74.476 60L74.468 59.996Z" />
    <path d="M51.289,72.19c0.07,0.014,0.111,0.008,0.134-0.01C51.4,72.199,51.359,72.204,51.289,72.19z" transform="matrix(1, 0, 0, 1, 0, 0)" />
    <path transform="matrix(1, 0, 0, 1, 0, 0)" data-type="polygon" d="M51.167 72.619L51.171 72.628L51.167 72.619Z" />
    <path d="M74.484,59.992L74.484,59.992L74.484,59.992c-0.005,0-0.011,0.001-0.016,0.003v0    C74.473,59.994,74.479,59.993,74.484,59.992z" transform="matrix(1, 0, 0, 1, 0, 0)" />
    <path transform="matrix(1, 0, 0, 1, 0, 0)" data-type="rect" data-x="51.431" data-y="72.011" data-width="0.001" data-height="0" d="M51.431 72.011H51.431999999999995 V72.011 H51.431 Z" />
    <path transform="matrix(1, 0, 0, 1, 0, 0)" data-type="polygon" d="M35.733 67.664L35.733 67.664L35.733 67.664Z" />
    <path d="M35.733,67.664c0.066-0.121,0.128-0.231,0.188-0.339C35.862,67.432,35.799,67.544,35.733,67.664L35.733,67.664z" transform="matrix(1, 0, 0, 1, 0, 0)" />
    <path d="M30.872,63.814c-0.111,0.105-0.219,0.208-0.326,0.31c0.001,0,0.002,0,0.002-0.001    C30.654,64.021,30.762,63.919,30.872,63.814z" transform="matrix(1, 0, 0, 1, 0, 0)" />
    <path transform="matrix(1, 0, 0, 1, 0, 0)" data-type="rect" data-x="61.997" data-y="70.034" data-width="0.003" data-height="0.012" d="M61.997 70.034H62 V70.046 H61.997 Z" />
    <path transform="matrix(1, 0, 0, 1, 0, 0)" data-type="polygon" d="M61.996 70.043L61.996 70.044L61.996 70.043Z" />
    <path transform="matrix(1, 0, 0, 1, 0, 0)" data-type="rect" data-x="74.468" data-y="59.995" data-width="0" data-height="0" d="M74.468 59.995H74.468 V59.995 H74.468 Z" />
    <path d="M66.339,67.885c0.005-0.009,0.01-0.019,0.014-0.028v0C66.349,67.866,66.345,67.875,66.339,67.885z" transform="matrix(1, 0, 0, 1, 0, 0)" />
    <path transform="matrix(1, 0, 0, 1, 0, 0)" data-type="rect" data-x="52.792" data-y="72.524" data-width="0" data-height="0.011" d="M52.792 72.524H52.792 V72.535 H52.792 Z" />
    <path transform="matrix(1, 0, 0, 1, 0, 0)" data-type="polygon" d="M52.795 72.534L52.796 72.533L52.795 72.534Z" />
    <path transform="matrix(1, 0, 0, 1, 0, 0)" data-type="polygon" d="M61.996 70.044L62.001 70.037L61.996 70.043Z" />
    <path d="M74.468,59.996c0.003,0.001,0.005,0.003,0.008,0.004l0.008-0.008l0,0C74.479,59.993,74.473,59.994,74.468,59.996z" transform="matrix(1, 0, 0, 1, 0, 0)" />
    <path transform="matrix(1, 0, 0, 1, 0, 0)" data-type="polygon" d="M27.872 58.337L27.876 58.344L27.872 58.337Z" />
    <path transform="matrix(1, 0, 0, 1, 0, 0)" data-type="polygon" d="M30.546 64.124L30.539 64.126L30.543 64.128Z" />
    <path transform="matrix(1, 0, 0, 1, 0, 0)" data-type="polygon" d="M51.167 72.619L51.171 72.628L51.177 72.624L51.177 72.624Z" />
    <path transform="matrix(1, 0, 0, 1, 0, 0)" data-type="polygon" d="M47.772 72.093L47.78 72.091L47.772 72.093Z" />
    <path transform="matrix(1, 0, 0, 1, 0, 0)" data-type="rect" data-x="61.996" data-y="70.043" data-width="0" data-height="0" d="M61.996 70.043H61.996 V70.043 H61.996 Z" />
    <path transform="matrix(1, 0, 0, 1, 0, 0)" data-type="rect" data-x="30.548" data-y="64.122" data-width="0" data-height="0.003" d="M30.548 64.122H30.548 V64.125 H30.548 Z" />
    <path transform="matrix(1, 0, 0, 1, 0, 0)" data-type="rect" data-x="51.167" data-y="72.617" data-width="0" data-height="0.002" d="M51.167 72.617H51.167 V72.619 H51.167 Z" />
    <path transform="matrix(1, 0, 0, 1, 0, 0)" data-type="polygon" d="M27.872 58.335L27.872 58.336L27.87 58.334L27.872 58.336L27.872 58.337Z" />
    <path d="M35.686,67.75c0.013-0.016,0.023-0.031,0.031-0.045c0.008-0.014,0.013-0.028,0.017-0.041l0,0    C35.716,67.693,35.702,67.72,35.686,67.75z" transform="matrix(1, 0, 0, 1, 0, 0)" />
    <path fill-rule="evenodd" clip-rule="evenodd" d="M47.786,71.662c0.124-0.017,0.246-0.035,0.369-0.052    c-0.029,0.089-0.057,0.177-0.095,0.297c0.024,0-0.021,0-0.078,0c0.034,0.156,0.065,0.302,0.089,0.411    c-0.083-0.065-0.186-0.146-0.29-0.228l0.011,0.013c0.025-0.066,0.049-0.129,0.074-0.195    C47.576,71.913,47.848,71.732,47.786,71.662z" transform="matrix(1, 0, 0, 1, 0, 0)" />
    <path fill-rule="evenodd" clip-rule="evenodd" d="M61.996,70.044c0.045,0.001,0.121-0.015,0.13,0.004    c0.118,0.234,0.345,0.275,0.561,0.351c0.05,0.018,0.067,0.13,0.11,0.221c-0.14-0.028-0.241-0.05-0.419-0.086    c-0.084-0.113-0.229-0.306-0.374-0.499C62.003,70.035,61.996,70.044,61.996,70.044z" transform="matrix(1, 0, 0, 1, 0, 0)" />
    <path fill-rule="evenodd" clip-rule="evenodd" d="M31.236,65.285c-0.033-0.318-0.226-0.437-0.516-0.429    c0.083-0.198,0.083-0.198,0.328-0.105C31.282,64.84,31.357,65.015,31.236,65.285z" transform="matrix(1, 0, 0, 1, 0, 0)" />
    <path fill-rule="evenodd" clip-rule="evenodd" d="M74.476,60c0.105,0.073,0.209,0.147,0.365,0.257    c-0.146,0.067-0.253,0.116-0.381,0.173c0.022,0.089,0.049,0.197,0.077,0.304c-0.159-0.051-0.159-0.051-0.051-0.742    C74.485,59.991,74.476,60,74.476,60z" transform="matrix(1, 0, 0, 1, 0, 0)" />
    <path fill-rule="evenodd" clip-rule="evenodd" d="M51.171,72.628c0.101,0.08,0.086,0.349,0.343,0.186    c-0.009,0.137-0.018,0.262-0.026,0.385c-0.026,0.008-0.053,0.014-0.08,0.022c-0.116-0.181-0.356-0.301-0.231-0.599    C51.179,72.622,51.171,72.628,51.171,72.628z" transform="matrix(1, 0, 0, 1, 0, 0)" />
    <path fill-rule="evenodd" clip-rule="evenodd" d="M52.436,72.384c0.141,0.235,0.279,0.468,0.419,0.702    C52.658,72.891,52.264,72.828,52.436,72.384z" transform="matrix(1, 0, 0, 1, 0, 0)" />
    <path fill-rule="evenodd" clip-rule="evenodd" d="M73.942,61.734c0.111,0.195,0.223,0.39,0.297,0.52    c-0.35-0.086-0.37-0.104-0.396-0.42C73.876,61.8,73.909,61.767,73.942,61.734z" transform="matrix(1, 0, 0, 1, 0, 0)" />
    <path fill-rule="evenodd" clip-rule="evenodd" d="M66.339,67.885c0.038,0.054,0.075,0.108,0.112,0.163    c-0.008,0.016-0.018,0.032-0.026,0.047c-0.167-0.104-0.332-0.208-0.498-0.312c0.017-0.055,0.066-0.135,0.046-0.163    c-0.092-0.123-0.09-0.194,0.076-0.22l-0.013-0.005c0.104,0.166,0.208,0.333,0.312,0.499L66.339,67.885z" transform="matrix(1, 0, 0, 1, 0, 0)" />
    <path fill-rule="evenodd" clip-rule="evenodd" d="M30.539,64.126c-0.019,0.135-0.038,0.27-0.059,0.404    c-0.015-0.007-0.031-0.013-0.046-0.019c-0.071-0.278-0.141-0.555-0.209-0.833c0.032-0.006,0.064-0.013,0.097-0.019    c0.028,0.149,0.05,0.3,0.088,0.446c0.004,0.018,0.087,0.017,0.133,0.024C30.543,64.128,30.539,64.126,30.539,64.126z" transform="matrix(1, 0, 0, 1, 0, 0)" />
    <path fill="none" d="M49.529,71.69c0.2,0.066,0.191,0.487,0.587,0.268c-0.195-0.123-0.369-0.232-0.542-0.341    C49.559,71.642,49.544,71.666,49.529,71.69z" transform="matrix(1, 0, 0, 1, 0, 0)" />
    <path fill="none" d="M52.766,71.638c-0.052-0.036-0.128-0.038-0.193-0.055c0.004-0.016,0.006-0.031,0.01-0.046    c0.064,0.002,0.13,0.006,0.194,0.009c0.015-0.03,0.029-0.06,0.043-0.089c-0.081-0.037-0.178-0.12-0.24-0.1    c-0.075,0.025-0.12,0.139-0.178,0.214c0.148,0.098,0.297,0.196,0.445,0.294C52.849,71.746,52.819,71.676,52.766,71.638z" transform="matrix(1, 0, 0, 1, 0, 0)" />
    <path fill="none" d="M54.99,72.125c0.219-0.01,0.369-0.017,0.6-0.027c-0.165-0.149-0.272-0.247-0.378-0.345    C55.149,71.856,55.094,71.949,54.99,72.125z" transform="matrix(1, 0, 0, 1, 0, 0)" />
    <path fill="none" d="M52.64,71.95c-0.023,0.009-0.048,0.019-0.073,0.027c0.076,0.181,0.15,0.363,0.225,0.544    c0.086-0.083,0.17-0.167,0.261-0.254C52.888,72.14,52.765,72.045,52.64,71.95z" transform="matrix(1, 0, 0, 1, 0, 0)" />
    <path fill="none" d="M28.441,58.48c-0.034-0.102-0.065-0.191-0.102-0.299c-0.168,0.06-0.313,0.11-0.459,0.162    c0.079,0.066,0.161,0.132,0.25,0.206C28.22,58.528,28.324,58.505,28.441,58.48z" transform="matrix(1, 0, 0, 1, 0, 0)" />
    <path fill="none" d="M50.686,71.728c0.099,0.039,0.199,0.076,0.297,0.117c0.078,0.032,0.151,0.074,0.23,0.104    c0.07,0.027,0.145,0.042,0.218,0.063c-0.226-0.14-0.452-0.279-0.678-0.419C50.73,71.637,50.708,71.683,50.686,71.728z" transform="matrix(1, 0, 0, 1, 0, 0)" />
    <path fill="none" d="M58.374,70.938c-0.026-0.032-0.121-0.04-0.165-0.019c-0.042,0.021-0.081,0.096-0.079,0.145    c0.009,0.223,0.034,0.445,0.054,0.678c0.025-0.004,0.068-0.011,0.113-0.019c0.065-0.179,0.146-0.355,0.186-0.541    C58.499,71.11,58.429,71.008,58.374,70.938z" transform="matrix(1, 0, 0, 1, 0, 0)" />
    <path fill="none" d="M63.243,68.481c0.055,0.21,0.105,0.402,0.154,0.59c0.045-0.029,0.103-0.067,0.162-0.106    C63.435,68.825,63.577,68.523,63.243,68.481z" transform="matrix(1, 0, 0, 1, 0, 0)" />
    <path fill="none" transform="matrix(1, 0, 0, 1, 0, 0)" data-type="polygon" d="M63.559 68.966L63.56 68.964L63.559 68.965Z" />
    <path fill="none" d="M39.129,69.46c0.102,0.02,0.198,0.039,0.283,0.055c0.024-0.103,0.048-0.212,0.074-0.323    c-0.018-0.018-0.035-0.036-0.053-0.053C39.329,69.242,38.998,69.099,39.129,69.46z" transform="matrix(1, 0, 0, 1, 0, 0)" />
    <path fill="none" d="M40.58,70.146c0.256-0.274,0.26-0.395,0.069-0.493c0.053-0.107,0.106-0.213,0.164-0.328    C40.388,69.503,40.465,69.806,40.58,70.146z" transform="matrix(1, 0, 0, 1, 0, 0)" />
    <path fill="none" d="M42.022,69.74c-0.058,0.204-0.013,0.403,0.175,0.533c0.109-0.198,0.208-0.377,0.311-0.563    C42.412,69.619,42.058,69.614,42.022,69.74z" transform="matrix(1, 0, 0, 1, 0, 0)" />
    <path fill="none" d="M33.657,65.184c0.317-0.026,0.518-0.231,0.559-0.522c-0.095-0.018-0.19-0.038-0.291-0.058    C33.835,64.797,33.753,64.975,33.657,65.184z" transform="matrix(1, 0, 0, 1, 0, 0)" />
    <path fill="none" d="M33.437,65.878c0.128,0.02,0.229,0.038,0.339,0.055c0.059-0.124,0.11-0.236,0.162-0.35    c-0.02-0.016-0.039-0.032-0.058-0.049C33.74,65.643,33.599,65.752,33.437,65.878z" transform="matrix(1, 0, 0, 1, 0, 0)" />
    <path fill="none" d="M30.625,61.519c-0.085,0.166-0.135,0.262-0.185,0.359c0.025-0.004,0.049-0.008,0.074-0.013    c0.028,0.1,0.057,0.2,0.083,0.292C30.943,61.972,30.591,61.781,30.625,61.519z" transform="matrix(1, 0, 0, 1, 0, 0)" />
    <path fill="none" d="M35.151,65.657c-0.035-0.029-0.07-0.059-0.105-0.089c0.036-0.104,0.073-0.208,0.109-0.314    c-0.027-0.007-0.053-0.014-0.081-0.021c-0.028,0.1-0.076,0.201-0.079,0.303c-0.003,0.107,0.038,0.215,0.06,0.323    c0.083-0.096,0.169-0.187,0.246-0.287c0.024-0.031,0.021-0.083,0.03-0.124c-0.03-0.023-0.06-0.046-0.09-0.069    C35.212,65.472,35.182,65.564,35.151,65.657z" transform="matrix(1, 0, 0, 1, 0, 0)" />
    <path fill="none" d="M43.254,70.372c0.039,0.023,0.077,0.047,0.114,0.072c0.098-0.096,0.195-0.192,0.319-0.314    c-0.164-0.057-0.248-0.086-0.363-0.126C43.301,70.124,43.278,70.247,43.254,70.372z" transform="matrix(1, 0, 0, 1, 0, 0)" />
    <path fill="none" d="M59.659,70.09c0.058-0.061,0.115-0.122,0.205-0.218c-0.458,0.074-0.524,0.206-0.325,0.536    c0.034-0.056,0.07-0.111,0.12-0.189c0.028,0.139,0.05,0.244,0.088,0.425C60.021,70.241,59.991,70.144,59.659,70.09z" transform="matrix(1, 0, 0, 1, 0, 0)" />
    <path fill="none" d="M60.229,69.549c-0.059,0.357-0.119,0.714-0.177,1.07c0.371-0.304,0.286-0.688,0.258-1.06    C60.283,69.556,60.256,69.553,60.229,69.549z" transform="matrix(1, 0, 0, 1, 0, 0)" />
    <path fill="none" d="M72.498,59.869c-0.111-0.014-0.215-0.026-0.319-0.039c-0.005,0.027-0.01,0.054-0.015,0.081    c0.188,0.04,0.374,0.078,0.56,0.117c-0.027,0.282-0.027,0.282,0.501,0.252c-0.271-0.224-0.515-0.421-0.825-0.677    C72.451,59.743,72.473,59.801,72.498,59.869z" transform="matrix(1, 0, 0, 1, 0, 0)" />
    <path fill="none" d="M62.521,69.331c-0.085-0.041-0.186-0.053-0.281-0.067c-0.013-0.002-0.036,0.062-0.053,0.094    c0.064,0.02,0.141,0.025,0.194,0.062c0.061,0.043,0.103,0.114,0.161,0.182c0.053-0.03,0.112-0.065,0.172-0.101    C62.641,69.434,62.589,69.363,62.521,69.331z" transform="matrix(1, 0, 0, 1, 0, 0)" />
    <path fill="none" d="M71.63,62.4" transform="matrix(1, 0, 0, 1, 0, 0)" />
    <path fill="none" d="M67.167,65.587c-0.036,0.029-0.07,0.06-0.106,0.089c0.033,0.101,0.065,0.203,0.1,0.311    c-0.054-0.01-0.087-0.017-0.141-0.027c0.098,0.104,0.18,0.191,0.286,0.304c0.077-0.095,0.143-0.176,0.208-0.256    c-0.064,0.045-0.129,0.09-0.195,0.136C67.269,65.958,67.217,65.772,67.167,65.587z" transform="matrix(1, 0, 0, 1, 0, 0)" />
    <path fill="none" d="M71.216,63.296c0.154,0.113,0.276,0.204,0.4,0.295c0.03-0.019,0.062-0.036,0.092-0.055    c-0.063-0.13-0.127-0.262-0.212-0.435C71.38,63.183,71.312,63.229,71.216,63.296z" transform="matrix(1, 0, 0, 1, 0, 0)" />
    <path d="M30.598,62.157c-0.026-0.092-0.055-0.192-0.083-0.292c-0.025,0.004-0.049,0.008-0.074,0.013    c0.049-0.097,0.1-0.193,0.185-0.359C30.591,61.781,30.943,61.972,30.598,62.157z" transform="matrix(1, 0, 0, 1, 0, 0)" />
    <path d="M33.776,65.933c-0.11-0.018-0.211-0.035-0.339-0.055c0.162-0.125,0.303-0.235,0.443-0.344    c0.02,0.017,0.039,0.033,0.058,0.049C33.887,65.697,33.835,65.81,33.776,65.933z" transform="matrix(1, 0, 0, 1, 0, 0)" />
    <path d="M33.657,65.184c0.096-0.208,0.178-0.386,0.269-0.581c0.101,0.021,0.196,0.04,0.291,0.058    C34.175,64.953,33.974,65.158,33.657,65.184z" transform="matrix(1, 0, 0, 1, 0, 0)" />
    <path d="M35.302,65.572c-0.077,0.1-0.163,0.191-0.246,0.287c-0.022-0.108-0.063-0.216-0.06-0.323    c0.003-0.102,0.05-0.203,0.079-0.303c0.027,0.007,0.054,0.014,0.081,0.021c-0.036,0.105-0.073,0.209-0.109,0.314    c0.035,0.03,0.07,0.06,0.105,0.089c0.03-0.092,0.061-0.185,0.091-0.278c0.03,0.023,0.06,0.046,0.09,0.069    C35.324,65.49,35.326,65.541,35.302,65.572z" transform="matrix(1, 0, 0, 1, 0, 0)" />
    <path d="M39.413,69.515c-0.085-0.017-0.182-0.035-0.283-0.055c-0.132-0.361,0.199-0.218,0.304-0.321    c0.018,0.018,0.036,0.036,0.053,0.053C39.461,69.303,39.437,69.413,39.413,69.515z" transform="matrix(1, 0, 0, 1, 0, 0)" />
    <path d="M40.58,70.146c-0.115-0.34-0.192-0.643,0.232-0.821c-0.058,0.115-0.11,0.221-0.164,0.328    C40.84,69.751,40.836,69.872,40.58,70.146z" transform="matrix(1, 0, 0, 1, 0, 0)" />
    <path d="M42.198,70.273c-0.188-0.13-0.233-0.33-0.175-0.533c0.035-0.126,0.389-0.121,0.486-0.03    C42.406,69.896,42.307,70.075,42.198,70.273z" transform="matrix(1, 0, 0, 1, 0, 0)" />
    <path d="M43.368,70.444c-0.037-0.024-0.075-0.048-0.114-0.072c0.024-0.125,0.047-0.248,0.07-0.368    c0.116,0.04,0.199,0.069,0.363,0.126C43.563,70.252,43.466,70.348,43.368,70.444z" transform="matrix(1, 0, 0, 1, 0, 0)" />
    <path d="M49.529,71.69c0.015-0.024,0.029-0.048,0.044-0.073c0.174,0.109,0.348,0.218,0.542,0.341    C49.721,72.177,49.729,71.756,49.529,71.69z" transform="matrix(1, 0, 0, 1, 0, 0)" />
    <path d="M52.401,71.571c0.058-0.075,0.103-0.188,0.178-0.214c0.062-0.02,0.159,0.063,0.24,0.1c-0.014,0.03-0.028,0.06-0.043,0.089    c-0.064-0.003-0.13-0.007-0.194-0.009c-0.003,0.015-0.006,0.031-0.01,0.046c0.065,0.017,0.142,0.019,0.193,0.055    c0.053,0.038,0.083,0.108,0.081,0.227C52.699,71.768,52.549,71.669,52.401,71.571z" transform="matrix(1, 0, 0, 1, 0, 0)" />
    <path d="M54.99,72.125c0.104-0.176,0.16-0.269,0.222-0.373c0.106,0.098,0.213,0.196,0.378,0.345    C55.359,72.108,55.208,72.115,54.99,72.125z" transform="matrix(1, 0, 0, 1, 0, 0)" />
    <path d="M59.748,70.644c-0.038-0.181-0.06-0.287-0.088-0.425c-0.049,0.079-0.085,0.134-0.12,0.189    c-0.2-0.331-0.133-0.462,0.325-0.536c-0.09,0.096-0.147,0.157-0.205,0.218C59.991,70.144,60.021,70.241,59.748,70.644z" transform="matrix(1, 0, 0, 1, 0, 0)" />
    <path d="M60.051,70.619c0.058-0.356,0.118-0.713,0.177-1.07c0.027,0.003,0.054,0.007,0.081,0.01    C60.337,69.932,60.422,70.315,60.051,70.619z" transform="matrix(1, 0, 0, 1, 0, 0)" />
    <path d="M62.541,69.601c-0.058-0.068-0.1-0.139-0.161-0.182c-0.053-0.037-0.13-0.042-0.194-0.062    c0.017-0.032,0.04-0.096,0.053-0.094c0.095,0.014,0.196,0.026,0.281,0.067c0.069,0.032,0.12,0.103,0.192,0.169    C62.653,69.535,62.594,69.571,62.541,69.601z" transform="matrix(1, 0, 0, 1, 0, 0)" />
    <path d="M67.306,66.265c-0.105-0.113-0.188-0.2-0.286-0.304c0.054,0.01,0.087,0.017,0.141,0.027    c-0.034-0.108-0.067-0.21-0.1-0.311c0.036-0.029,0.07-0.06,0.106-0.089c0.049,0.185,0.102,0.37,0.152,0.557    c0.066-0.046,0.13-0.09,0.195-0.136C67.449,66.089,67.383,66.169,67.306,66.265z" transform="matrix(1, 0, 0, 1, 0, 0)" />
    <path d="M71.63,62.4" transform="matrix(1, 0, 0, 1, 0, 0)" />
    <path d="M71.616,63.591c-0.124-0.091-0.246-0.182-0.4-0.295c0.096-0.067,0.164-0.113,0.28-0.195    c0.085,0.173,0.148,0.305,0.212,0.435C71.678,63.555,71.646,63.573,71.616,63.591z" transform="matrix(1, 0, 0, 1, 0, 0)" />
    <path d="M73.225,60.28c-0.528,0.029-0.528,0.029-0.501-0.252c-0.186-0.039-0.372-0.077-0.56-0.117    c0.004-0.026,0.01-0.054,0.015-0.081c0.104,0.013,0.208,0.025,0.319,0.039c-0.025-0.068-0.047-0.126-0.098-0.267    C72.71,59.858,72.954,60.056,73.225,60.28z" transform="matrix(1, 0, 0, 1, 0, 0)" />
    <path fill-rule="evenodd" clip-rule="evenodd" d="M47.793,71.674c-0.094,0-0.187,0-0.227,0c-0.057,0.098-0.102,0.172-0.147,0.246    c-0.024-0.144-0.05-0.288-0.074-0.428c0.101-0.005,0.255-0.016,0.438-0.026C47.786,71.527,47.79,71.601,47.793,71.674z" transform="matrix(1, 0, 0, 1, 0, 0)" />
    <path fill="none" transform="matrix(1, 0, 0, 1, 0, 0)" data-type="rect" data-x="39.524" data-y="42.923" data-width="0.003" data-height="0.009" d="M39.524 42.923H39.527 V42.932 H39.524 Z" />
    <path fill="none" d="M28.441,58.48c-0.034-0.102-0.065-0.191-0.102-0.299c-0.168,0.06-0.313,0.11-0.459,0.162    c0.079,0.066,0.161,0.132,0.25,0.206C28.22,58.528,28.324,58.505,28.441,58.48z" transform="matrix(1, 0, 0, 1, 0, 0)" />
    <path fill="none" d="M39.543,43.617c0.047-0.111,0.099-0.222,0.142-0.336c0.036-0.096,0.063-0.196,0.095-0.295    c-0.084-0.018-0.168-0.036-0.251-0.054c-0.066,0.178-0.132,0.356-0.197,0.534C39.402,43.517,39.472,43.567,39.543,43.617z" transform="matrix(1, 0, 0, 1, 0, 0)" />
    <path fill="none" d="M52.64,71.95c-0.023,0.009-0.048,0.019-0.073,0.027c0.076,0.181,0.15,0.363,0.225,0.544    c0.086-0.083,0.17-0.167,0.261-0.254C52.888,72.14,52.765,72.045,52.64,71.95z" transform="matrix(1, 0, 0, 1, 0, 0)" />
    <path fill="none" transform="matrix(1, 0, 0, 1, 0, 0)" data-type="rect" data-x="58.295" data-y="71.723" data-width="0.001" data-height="0.01" d="M58.295 71.723H58.296 V71.733 H58.295 Z" />
    <path fill="none" transform="matrix(1, 0, 0, 1, 0, 0)" data-type="rect" data-x="52.791" data-y="72.522" data-width="0.005" data-height="0.011" d="M52.791 72.522H52.796 V72.533 H52.791 Z" />
    <path fill="none" d="M58.374,70.938c-0.026-0.032-0.121-0.04-0.165-0.019c-0.042,0.021-0.081,0.096-0.079,0.145    c0.009,0.223,0.034,0.445,0.054,0.678c0.025-0.004,0.068-0.011,0.113-0.019c0.065-0.179,0.146-0.355,0.186-0.541    C58.499,71.11,58.429,71.008,58.374,70.938z" transform="matrix(1, 0, 0, 1, 0, 0)" />
    <path fill="none" transform="matrix(1, 0, 0, 1, 0, 0)" data-type="rect" data-x="68.833" data-y="40.511" data-width="0.013" data-height="0.006" d="M68.833 40.511H68.846 V40.517 H68.833 Z" />
    <path fill="none" transform="matrix(1, 0, 0, 1, 0, 0)" data-type="polygon" d="M72.104 52.709L72.108 52.707L72.107 52.707Z" />
    <path fill="none" d="M71.9,52.391c-0.024,0-0.085,0.183-0.068,0.193c0.081,0.057,0.182,0.085,0.275,0.123    c0.106-0.063,0.211-0.127,0.316-0.19C72.246,52.417,72.073,52.39,71.9,52.391z" transform="matrix(1, 0, 0, 1, 0, 0)" />
    <path fill="none" d="M67.803,40.261c0.195,0.125,0.392,0.25,0.587,0.375c-0.024,0.042-0.049,0.084-0.072,0.126    c-0.114-0.067-0.229-0.136-0.32-0.189c-0.123,0.523,0.516,0.208,0.56,0.525c0.455-0.046,0.179-0.393,0.277-0.584    c-0.332-0.106-0.663-0.211-0.994-0.317C67.828,40.218,67.815,40.239,67.803,40.261z" transform="matrix(1, 0, 0, 1, 0, 0)" />
    <path fill="none" d="M50.686,71.728c0.099,0.039,0.199,0.076,0.297,0.117c0.078,0.032,0.151,0.074,0.23,0.104    c0.07,0.027,0.145,0.042,0.218,0.063c-0.226-0.14-0.452-0.279-0.678-0.419C50.73,71.637,50.708,71.683,50.686,71.728z" transform="matrix(1, 0, 0, 1, 0, 0)" />
    <path fill="none" d="M53.437,41.598c-0.003-0.004-0.007-0.01-0.01-0.014c-0.007-0.001-0.015-0.004-0.023-0.006    c0.006,0.004,0.011,0.009,0.017,0.015C53.425,41.594,53.431,41.595,53.437,41.598z" transform="matrix(1, 0, 0, 1, 0, 0)" />
    <path fill="none" d="M53.309,41.554c0.006-0.009,0.056,0.01,0.095,0.023c-0.082-0.076-0.166-0.15-0.249-0.225    c-0.216-0.018-0.431-0.035-0.646-0.052c-0.004,0.021-0.009,0.042-0.013,0.063c0.13,0.05,0.259,0.101,0.389,0.152    C53.018,41.612,53.14,41.826,53.309,41.554z" transform="matrix(1, 0, 0, 1, 0, 0)" />
    <path fill="none" d="M63.243,68.481c0.055,0.21,0.105,0.402,0.154,0.59c0.045-0.029,0.103-0.067,0.162-0.106    C63.435,68.825,63.577,68.523,63.243,68.481z" transform="matrix(1, 0, 0, 1, 0, 0)" />
    <path fill="none" transform="matrix(1, 0, 0, 1, 0, 0)" data-type="polygon" d="M63.559 68.966L63.56 68.964L63.559 68.965Z" />
    <path fill="none" d="M53.755,41.76c-0.064-0.086-0.206-0.113-0.318-0.163c0.162,0.232,0.325,0.463,0.487,0.695    C53.912,42.088,53.862,41.903,53.755,41.76z" transform="matrix(1, 0, 0, 1, 0, 0)" />
    <path d="M75.006,59.312c0.048,0.015,0.12-0.04,0.229-0.079c-0.564-0.191-1.137-0.154-1.431-0.695    c0.067-0.03,0.125-0.055,0.14-0.061c-0.088-0.079-0.184-0.164-0.291-0.259c-0.042,0.071-0.095,0.169-0.159,0.26    c-0.051,0.073-0.116,0.139-0.133,0.159c-0.172-0.448-0.33-0.86-0.492-1.285c-0.006,0.004,0.039-0.025,0.07-0.046    c-0.085-0.034-0.169-0.067-0.254-0.101c0.01-0.025,0.019-0.051,0.028-0.076c0.088,0.024,0.176,0.048,0.272,0.075l-0.045-0.105    l0.285-0.398l0.394-0.083c-0.017-0.037-0.017-0.104,0.006-0.13c0.123-0.139,0.258-0.267,0.385-0.401    c0.069-0.073,0.152-0.141,0.196-0.227c0.158-0.307-0.314-0.427-0.224-0.72c-0.405-0.165-0.496-0.436-0.255-0.795    c-0.138-0.059-0.256-0.11-0.353-0.152c0.051,0.11,0.099,0.213,0.146,0.316c-0.229,0.085-0.069,0.223-0.019,0.302    c0.147,0.233,0.103,0.429-0.135,0.717c-0.066-0.168-0.153-0.284-0.145-0.391c0.023-0.285-0.204-0.713-0.464-0.839    c-0.081-0.038-0.182-0.129-0.188-0.203c-0.011-0.125,0.048-0.257,0.082-0.407c-0.47,0.139-0.431-0.339-0.618-0.579    c0.023-0.029,0.048-0.056,0.072-0.085c0.111,0.095,0.224,0.189,0.336,0.285c-0.035-0.15-0.128-0.263-0.211-0.38    c-0.049-0.069-0.083-0.146-0.123-0.22c-0.001,0-0.002,0-0.002,0c-0.002,0-0.002,0.001-0.004,0.002    c0.002,0,0.002-0.001,0.003-0.002c-0.094-0.038-0.194-0.066-0.275-0.123c-0.017-0.011,0.044-0.193,0.068-0.193    c0.173,0,0.346,0.027,0.523,0.126c-0.105,0.063-0.21,0.127-0.316,0.19c0.001,0,0.001,0,0.001,0    c0.216-0.106,0.432-0.212,0.581-0.286c-0.166-0.162-0.285-0.277-0.466-0.454c0.216-0.05,0.372-0.085,0.585-0.134    c-0.175-0.046-0.291-0.078-0.38-0.101c0-0.162,0-0.308,0-0.46c0.07,0.03,0.145,0.061,0.218,0.092    c-0.035,0.1-0.062,0.177-0.096,0.274c0.17-0.057,0.17-0.057,0.146-0.655c-0.103-0.05-0.182-0.088-0.262-0.127    c0.05-0.1,0.1-0.199,0.163-0.329c-0.17-0.137-0.54-0.208-0.476-0.603c0.12-0.024,0.231-0.047,0.262-0.053    c0.034-0.298,0.062-0.528,0.094-0.807c-0.432-0.118-0.95-0.26-1.468-0.401c0.001-0.038,0.002-0.075,0.002-0.113    c0.139-0.052,0.275-0.104,0.46-0.174c-0.113-0.144-0.232-0.283-0.341-0.431c-0.191-0.26-0.188-0.263-0.053-0.515    c0.046,0.108,0.088,0.205,0.129,0.302c0.037-0.034,0.074-0.068,0.111-0.104c-0.078-0.236,0.24-0.709-0.361-0.596    c-0.058-0.19-0.123-0.35-0.148-0.515c-0.012-0.072,0.061-0.157,0.093-0.235c0.035,0.061,0.067,0.122,0.102,0.183    c0.048,0.085,0.097,0.17,0.155,0.276c0-0.417,0-0.804,0-1.219c0.1,0.042,0.204,0.084,0.396,0.161    c-0.105-0.099-0.153-0.126-0.177-0.168c-0.15-0.266-0.296-0.534-0.44-0.802c-0.005-0.007,0.002-0.021,0.006-0.038    c0.062-0.015,0.126-0.03,0.189-0.044c-0.07-0.198-0.134-0.371-0.195-0.545c0.104-0.057,0.201-0.11,0.323-0.177    c-0.104-0.121-0.199-0.232-0.277-0.323c0.062-0.057,0.128-0.118,0.193-0.179c-0.062-0.056-0.114-0.129-0.187-0.167    c-0.153-0.08-0.317-0.142-0.469-0.208c0.021-0.152,0.038-0.27,0.045-0.316c-0.266-0.176-0.486-0.322-0.733-0.484    c-0.004-0.039-0.015-0.127-0.021-0.193c0.121-0.061,0.234-0.117,0.349-0.173c0,0,0,0-0.002,0c-0.326-0.558-0.677-1.089-1.308-1.35    c-0.002,0-0.004-0.001-0.006-0.002c0.001,0.001,0.002,0.003,0.002,0.005c-0.005-0.001-0.009-0.003-0.013-0.004    c-0.099,0.191,0.178,0.538-0.277,0.584c-0.044-0.318-0.683-0.002-0.56-0.525c0.091,0.054,0.206,0.122,0.32,0.189    c0.023-0.042,0.048-0.084,0.072-0.126c-0.195-0.125-0.392-0.25-0.587-0.375c0.013-0.022,0.025-0.043,0.037-0.064    c0.331,0.106,0.662,0.211,0.994,0.317c0-0.002,0-0.003,0.002-0.005c0.003,0.001,0.006,0.002,0.009,0.004    c-0.011-0.039-0.021-0.078-0.04-0.139c0.187,0.083,0.354,0.157,0.522,0.23c-0.144-0.252-0.562-0.274-0.489-0.726    c0.092,0.137,0.141,0.269,0.234,0.338c0.221,0.163,0.225,0.015,0.189-0.152c0.103,0,0.208,0,0.311,0l0,0l0,0c0,0,0,0,0.001,0    c0,0,0,0,0.001,0c0,0-0.001,0-0.002-0.001c-0.001,0-0.002,0-0.002,0c-0.094-0.135-0.188-0.269-0.283-0.404    c0,0,0.008-0.002,0.009-0.002h0.001c-0.056-0.013-0.128-0.013-0.177-0.033c-0.018-0.006-0.031-0.015-0.04-0.026    c-0.183-0.219-0.347-0.453-0.528-0.695c0.072-0.04,0.15-0.08,0.299-0.161c-0.351-0.058-0.638-0.104-0.663-0.466    c-0.216-0.137-0.434-0.272-0.648-0.408c-0.039,0.027-0.078,0.055-0.112,0.079c-0.146-0.167-0.291-0.334-0.444-0.508    c0.247,0.056,0.468,0.106,0.688,0.155c-0.015-0.1-0.029-0.201-0.046-0.309c0.118-0.014,0.203-0.022,0.286-0.032    c-0.329-0.26-0.652-0.514-0.975-0.769c0.021-0.032,0.041-0.064,0.062-0.097c0.112,0.02,0.225,0.041,0.355,0.064    c-0.085-0.1-0.154-0.179-0.273-0.317c0.309,0.129,0.763,0.033,1.16-0.198c-0.085-0.022-0.16-0.044-0.309-0.083    c0.625-0.074,0.93-0.511,0.682-0.902c-0.076,0.118-0.13,0.248-0.224,0.336c-0.165,0.154-0.336,0.34-0.538,0.407    c-0.458,0.149-0.728-0.294-1.101-0.428c-0.025-0.009-0.04-0.053-0.055-0.083c-0.086-0.172-0.173-0.344-0.252-0.519    c-0.032-0.072-0.062-0.152-0.064-0.229c-0.008-0.278-0.003-0.555-0.003-0.833c-0.043,0.002-0.084,0.002-0.127,0.003    c0,0.337,0,0.675,0,1.012c-0.02,0.003-0.039,0.007-0.059,0.012c-0.033-0.067-0.066-0.133-0.099-0.199    c0.117,0.447-0.232,0.775-0.28,1.174c-0.05,0.398-0.12,0.792-0.191,1.262c-0.114-0.121-0.144-0.153-0.189-0.202    c0.081,0.271,0.154,0.517,0.213,0.711c-0.061,0.106-0.103,0.268-0.165,0.277c-0.353,0.044-0.237,0.576-0.618,0.569    c0.009,0.064,0.004,0.136,0.031,0.192c0.042,0.086,0.106,0.163,0.15,0.227c-0.034,0.119-0.3,0.081-0.096,0.307    c0.18,0.2-0.027,0.559-0.289,0.613c0.088,0.298,0.176,0.596,0.265,0.895c-0.021,0.006-0.043,0.013-0.064,0.018    c-0.108-0.24-0.216-0.481-0.325-0.725c-0.087,0-0.175,0-0.286,0c0.068,0.293,0.134,0.579,0.199,0.863    c0.082-0.01,0.148-0.018,0.217-0.027c-0.022,0.074-0.023,0.171-0.072,0.217c-0.212,0.196-0.188,0.375-0.007,0.574    c0.056,0.062,0.067,0.165,0.098,0.249c-0.299-0.285-0.811-0.481-0.459-1.106c-0.147,0.034-0.287,0.065-0.397,0.089    c-0.083-0.106-0.172-0.22-0.312-0.4c-0.047,0.471,0.041,0.742,0.467,0.817c-0.076,0.019-0.151,0.037-0.219,0.054    c0,0.16,0,0.308,0,0.531c-0.131-0.146-0.215-0.24-0.298-0.333c-0.057,0.13-0.035,0.254-0.035,0.378    c0.001,0.082-0.003,0.185-0.05,0.238c-0.029,0.033-0.152,0.011-0.217-0.02c-0.112-0.055-0.213-0.135-0.362-0.233    c0.057,0.195,0.093,0.319,0.129,0.442c-0.031,0.01-0.062,0.018-0.092,0.028c-0.051-0.069-0.101-0.138-0.174-0.235    c-0.07,0.188-0.125,0.333-0.173,0.458c-0.155-0.085-0.315-0.173-0.498-0.274c0.068,0.34,0.068,0.34-0.095,0.404    c0.096,0.219,0.192,0.438,0.289,0.658c-0.023,0.013-0.047,0.026-0.069,0.039c-0.036-0.051-0.071-0.103-0.136-0.194    c0,0.103,0,0.163,0,0.223c-0.021,0.007-0.044,0.015-0.065,0.022c-0.036-0.069-0.069-0.139-0.104-0.208    c-0.078,0.042-0.155,0.085-0.243,0.133c-0.097-0.199-0.191-0.398-0.324-0.675c-0.034,0.172-0.045,0.232-0.075,0.394    c-0.354-0.917-1.005-1.487-1.603-2.102c-0.301,0.188-0.326-0.136-0.436-0.315c-0.026,0.021-0.054,0.041-0.081,0.061    c0.07,0.131,0.141,0.262,0.255,0.472c-0.238-0.179-0.403-0.305-0.601-0.454c-0.017,0.194-0.03,0.366-0.048,0.582    c-0.441-0.278-0.836-0.526-1.25-0.786c-0.058,0.412,0.318,0.518,0.444,0.797c-0.096-0.053-0.189-0.106-0.284-0.159    c0.092,0.231,0.179,0.449,0.265,0.667c-0.131-0.057-0.18-0.192-0.254-0.207c-0.213-0.045-0.231-0.206-0.268-0.36    c-0.083-0.352-0.127-0.369-0.431-0.134c-0.074-0.062-0.149-0.125-0.225-0.188c-0.003,0.024-0.005,0.048-0.008,0.072    c-0.167,0-0.335,0-0.523,0c-0.054,0.251-0.263,0.106-0.334-0.002c-0.155-0.232-0.372-0.136-0.559-0.16    c-0.163-0.02-0.335,0.025-0.568,0.049c-0.187,0.063-0.448,0.154-0.775,0.265c0.126,0.068,0.177,0.096,0.283,0.153    c-0.198,0.011-0.341,0.017-0.482,0.027c-0.193,0.015-0.388,0.035-0.583,0.053c-0.329-0.038-0.657-0.075-1.035-0.119    c0.11,0.215,0.2,0.391,0.289,0.567c-0.195-0.074-0.392-0.148-0.581-0.219c-0.015,0.173-0.027,0.316-0.04,0.466    c-0.175-0.086-0.351-0.203-0.352,0.07c-0.197,0.153-0.368,0.287-0.548,0.426c0.09,0.077,0.188,0.161,0.321,0.272    c-0.255,0.01-0.499-0.203-0.632,0.159c-0.118-0.127-0.229-0.247-0.319-0.345c-0.145,0.062-0.292,0.125-0.439,0.188    c0.021,0.01,0.04,0.02,0.061,0.03c-0.062,0.086-0.124,0.17-0.177,0.243c-0.134-0.162-0.242-0.408-0.361-0.413    c-0.169-0.006-0.346,0.165-0.549,0.276c0.084-0.111,0.147-0.197,0.212-0.282c-0.027,0-0.054,0-0.08,0    c-0.043-0.227-0.086-0.455-0.13-0.688c0.062-0.041,0.131-0.086,0.201-0.132c-0.006-0.014-0.014-0.027-0.021-0.042    c-0.184,0.066-0.366,0.132-0.557,0.2c0.028-0.491-0.186-0.675-0.578-0.529c-0.023-0.335-0.354-0.72,0.218-0.972    c-0.039-0.023-0.078-0.046-0.117-0.069c-0.438,0.271-0.876,0.543-1.295,0.803c-0.06-0.368-0.355-0.253-0.531-0.272    c-0.195-0.022-0.401,0.055-0.534,0.077c0.157-0.193,0.346-0.426,0.55-0.68c-0.898,0.241-1.78,0.478-2.663,0.715    c-0.024-0.019-0.049-0.037-0.074-0.056c0.062-0.106,0.121-0.211,0.182-0.315c-0.257-0.492-0.841-0.558-1.222-0.351    c-0.29,0.159-0.592,0.34-0.808,0.583c-0.511,0.574-0.973,1.192-1.455,1.791c-0.059,0.073-0.13,0.136-0.193,0.205    c-0.017-0.018-0.033-0.033-0.049-0.049c0.09-0.203,0.182-0.408,0.274-0.611c-0.036-0.014-0.07-0.028-0.105-0.042    c-0.148,0.289-0.297,0.578-0.444,0.867l0.007-0.005c0.001,0,0.002-0.001,0.002-0.001c-0.001,0.002-0.002,0.005-0.002,0.008    c0.083,0.018,0.167,0.036,0.251,0.054c-0.031,0.099-0.059,0.199-0.095,0.295c-0.043,0.114-0.095,0.225-0.142,0.336    c-0.071-0.05-0.141-0.1-0.212-0.15c0.065-0.178,0.131-0.356,0.197-0.534c-0.003-0.001-0.005-0.001-0.007-0.001    c-0.176,0.142-0.354,0.284-0.609,0.493c0.062-0.403,0.111-0.727,0.153-1.002c-0.132,0.143-0.289,0.312-0.447,0.483    c-0.024-0.016-0.05-0.031-0.074-0.046c0.025-0.146,0.052-0.29,0.078-0.435c0.021-0.005,0.044-0.009,0.066-0.015    c0.018,0.055,0.037,0.11,0.056,0.165c0.025-0.048,0.053-0.097,0.078-0.146c-0.078-0.015-0.217-0.061-0.226-0.042    c-0.091,0.186-0.182,0.377-0.229,0.578c-0.035,0.147-0.007,0.31-0.007,0.465c-0.039-0.002-0.078-0.002-0.116-0.004    c0-0.26,0-0.521,0-0.796c-0.083,0.017-0.173,0.035-0.271,0.055c0.044-0.172,0.084-0.325,0.122-0.479    c-0.04-0.013-0.079-0.025-0.12-0.037c-0.069,0.195-0.138,0.392-0.206,0.587c-0.055-0.171-0.042-0.333-0.004-0.49    c0.04-0.162,0.106-0.317,0.16-0.476c-0.134,0.119-0.24,0.261-0.288,0.421c-0.047,0.158-0.034,0.334-0.047,0.486    c-0.168-0.077-0.292-0.134-0.327-0.15c0.04-0.247,0.074-0.468,0.102-0.64c-0.206,0.077-0.372,0.139-0.538,0.202    c-0.025-0.103-0.051-0.204-0.076-0.307c-0.038,0.007-0.077,0.015-0.115,0.022c-0.004-0.277-0.031-0.55-0.042-0.854    c-0.079,0.141-0.157,0.281-0.219,0.391c-0.13,0-0.238,0-0.347,0c0.479,0.202-0.081,0.378-0.029,0.552    c-0.021-0.101-0.041-0.202-0.062-0.302c-0.037,0.047-0.07,0.091-0.105,0.137c-0.04-0.127-0.043-0.296-0.107-0.324    c-0.452-0.192-0.394-0.675-0.548-1.012c-0.109-0.241-0.169-0.448-0.348-0.511c-0.209-0.748-0.403-1.439-0.607-2.162    c-0.015,0.16-0.026,0.291-0.038,0.421c-0.022,0-0.045,0-0.066-0.001c-0.097-0.626-0.19-1.252-0.279-1.828    c-0.154-0.077-0.3-0.15-0.445-0.223c0.033-0.021,0.066-0.042,0.1-0.063c-0.021-0.098-0.026-0.202-0.065-0.292    c-0.094-0.223-0.218-0.435-0.304-0.661c-0.073-0.195-0.075-0.422-0.169-0.603c-0.185-0.354-0.136-0.713-0.157-1.156    c0.223,0.212,0.381,0.361,0.563,0.534c-0.147-0.311-0.279-0.601-0.428-0.882c-0.021-0.04-0.118-0.039-0.2-0.062    c-0.087,0.188-0.233,0.364-0.233,0.54c0,0.294,0.057,0.602,0.156,0.878c0.189,0.524,0.207,0.528-0.163,0.791    c0.087,0.5,0.167,0.962,0.248,1.425c-0.137,0-0.227-0.026-0.286,0.005c-0.053,0.028-0.1,0.053-0.141,0.073    c-0.123,0.062-0.197,0.09-0.261,0.075c-0.084-0.021-0.146-0.119-0.271-0.316c-0.047,0.039-0.092,0.077-0.152,0.128    c-0.018-0.111-0.029-0.19-0.046-0.299c-0.352,0.602-0.325,0.9,0,1.237c-0.336,0.237-0.018,0.238,0.103,0.278    c0,0.108,0,0.187,0,0.208c0.166-0.111,0.344-0.231,0.522-0.351c0.022,0.029,0.046,0.059,0.068,0.089    c-0.146,0.189-0.478,0.275-0.369,0.604c0.003,0.006,0.003,0.012,0.005,0.019c0.054-0.06,0.108-0.121,0.163-0.181    c0.088-0.099,0.178-0.201,0.273-0.307c0.017,0.168,0.03,0.309,0.049,0.497c-0.108,0-0.226,0-0.334,0    c-0.18,0.223-0.392,0.485-0.612,0.761c0.098-0.018,0.18-0.033,0.312-0.058c-0.093,0.131-0.152,0.217-0.213,0.301    c0.066,0.02,0.122,0.036,0.271,0.079c-0.538,0.194-0.988,0.356-1.457,0.524c0.103,0.008,0.186,0.013,0.35,0.026    c-0.178,0.135-0.291,0.22-0.39,0.294c0.011,0.046,0.011,0.065,0.015,0.066c0.051,0.013,0.101,0.022,0.151,0.032    c-0.162,0.568-0.162,0.568-0.757,1.016c0.224,0.106,0.423,0.202,0.638,0.305c0.026,0.236-0.38,0.492-0.039,0.709    c-0.266,0.262-0.027,0.611-0.171,0.869c0.042-0.087,0.083-0.174,0.133-0.278c0.089,0.035,0.16,0.062,0.301,0.118    c-0.106-0.146-0.166-0.228-0.269-0.37c0.183-0.011,0.309-0.017,0.494-0.027c-0.046,0.179-0.081,0.313-0.116,0.446    c0.059,0.035,0.123,0.072,0.146,0.086c-0.074,0.162-0.134,0.291-0.193,0.419c-0.025,0.006-0.051,0.013-0.076,0.02    c-0.017-0.168-0.034-0.337-0.059-0.587c-0.046,0.217-0.08,0.359-0.103,0.503c-0.015,0.094-0.051,0.229-0.006,0.275    c0.057,0.056,0.188,0.039,0.291,0.054c-0.001,0.013-0.005,0.046-0.005,0.08c-0.002,0.386-0.026,0.398-0.407,0.335    c-0.089-0.016-0.229,0.019-0.278,0.083c-0.141,0.185-0.245,0.395-0.362,0.596c-0.014,0.023-0.01,0.057-0.019,0.109    c0.111-0.023,0.2-0.042,0.348-0.073c-0.128,0.253-0.214,0.465-0.335,0.655c-0.163,0.257-0.104,0.4,0.239,0.661    c0.135,0.516,0.295,0.965-0.053,1.361c0.241-0.011,0.43-0.02,0.614-0.029c-0.01,0.082-0.02,0.164-0.029,0.255    c-0.181-0.014-0.352-0.027-0.501-0.039c-0.023,0.064-0.025,0.129-0.059,0.161c-0.244,0.237-0.324,0.506-0.203,0.833    c0.029,0.079,0.004,0.176,0.004,0.265c-0.026-0.001-0.054-0.003-0.081-0.005c0-0.11,0-0.222,0-0.332    c-0.02-0.009-0.042-0.018-0.062-0.026c-0.11,0.16-0.22,0.318-0.324,0.47c0.547,0.392,0.139,0.935,0.33,1.384    c0.146-0.049,0.293-0.099,0.471-0.159c-0.12,0.218-0.211,0.402-0.319,0.573c-0.11,0.175-0.238,0.338-0.363,0.514    c0.262-0.031,0.513-0.061,0.837-0.1c-0.328,0.161-0.571,0.28-0.814,0.399c0.139-0.015,0.276-0.03,0.486-0.052    c-0.126,0.108-0.204,0.173-0.315,0.267c0.096,0.042,0.17,0.076,0.261,0.116c-0.038,0.033-0.071,0.084-0.099,0.082    c-0.174-0.016-0.346-0.045-0.519-0.069c0.102,0.187,0.201,0.375,0.309,0.574c-0.15,0.096-0.322,0.207-0.519,0.334    c0.101,0.063,0.171,0.107,0.216,0.136c-0.082,0.132-0.153,0.25-0.231,0.373c0.117,0.093,0.212,0.167,0.325,0.256    c-0.176,0.185-0.121,0.619-0.572,0.471c0.057,0.148,0.113,0.298,0.172,0.452c-0.141,0.018-0.256,0.032-0.384,0.049    c-0.12-0.241,0.08-0.354,0.2-0.496c-0.066-0.04-0.134-0.078-0.216-0.125c-0.061,0.085-0.124,0.174-0.216,0.305    c-0.073-0.232-0.129-0.413-0.186-0.594c-0.046,0.021-0.093,0.042-0.139,0.062c0.11,0.26,0.22,0.518,0.32,0.753    c-0.116,0.036-0.232,0.071-0.32,0.099c0.083,0.093,0.181,0.156,0.177,0.211c-0.007,0.079-0.088,0.151-0.113,0.189    c0.184,0.196,0.365,0.403,0.563,0.595c0.092,0.089,0.208,0.183,0.328,0.206c0.17,0.035,0.354,0.009,0.532,0.009    c0.008,0.026,0.017,0.052,0.024,0.079c-0.446,0.086-0.288,0.424-0.319,0.707c-0.147-0.031-0.292-0.061-0.475-0.098l0.219,0.473    l-0.683-0.207l0.021,0.512c0.087-0.036,0.176-0.073,0.235-0.097c0.129,0.092,0.235,0.168,0.344,0.245    c-0.099,0.306-0.353,0.28-0.604,0.33c-0.388,0.076-0.248-0.382-0.494-0.417c-0.067,0.055-0.134,0.109-0.243,0.197    c0.146,0.175,0.282,0.337,0.419,0.499c0.011,0.013,0.022,0.026,0.033,0.039c0,0-0.001-0.001-0.002-0.002l0.002,0.001    c0.002,0.001,0.005,0.005,0.009,0.006c0.146-0.051,0.291-0.102,0.459-0.162c0.037,0.108,0.068,0.198,0.102,0.299    c-0.117,0.025-0.221,0.048-0.312,0.068c-0.089-0.073-0.17-0.139-0.25-0.206c-0.002,0-0.003,0.001-0.004,0.001    c-0.001-0.002-0.002-0.004-0.004-0.006c0.036,0.096,0.074,0.193,0.082,0.213c0.138,0.093,0.296,0.142,0.312,0.22    c0.043,0.213,0.01,0.437,0.309,0.498c0.059,0.012,0.097,0.149,0.131,0.233c0.005,0.013-0.059,0.069-0.097,0.08    c-0.025,0.007-0.071-0.029-0.091-0.057c-0.045-0.064-0.08-0.134-0.119-0.203c-0.118,0.08-0.235,0.162-0.375,0.257    c0.109-0.007,0.189-0.013,0.235-0.015c0.077,0.477-0.288,0.909-0.021,1.369c0.006,0.011-0.008,0.035-0.013,0.053    c0.095-0.107,0.109-0.236,0.159-0.349c0.102-0.227,0.11-0.223,0.34-0.164c-0.058,0.092-0.117,0.188-0.176,0.283    c0.013,0.007,0.025,0.015,0.039,0.022c0.04-0.053,0.08-0.105,0.17-0.228c0.034,0.158,0.047,0.253,0.074,0.343    c0.012,0.036,0.051,0.077,0.085,0.088c0.027,0.007,0.067-0.029,0.101-0.046c0.067-0.036,0.134-0.073,0.202-0.108    c0.011,0.018,0.022,0.036,0.032,0.054c-0.029,0.037-0.058,0.073-0.114,0.143c0.138,0,0.232,0,0.328,0    c0.007,0.021,0.017,0.041,0.024,0.062c-0.27,0.169-0.539,0.339-0.807,0.506c0.249,0.103,0.417-0.031,0.577-0.226    c0.066,0.033,0.135,0.068,0.218,0.11c-0.057,0.065-0.099,0.112-0.163,0.186c0.099,0.016,0.161,0.026,0.243,0.04    c-0.019,0.152-0.039,0.307-0.061,0.48c0.389-0.185,0.199,0.33,0.4,0.366c0.032-0.154,0.062-0.29,0.101-0.471    c0.302,0.299,0.292,0.349-0.056,0.694c0.042,0.056,0.083,0.108,0.121,0.165c0.036,0.055,0.068,0.114,0.141,0.239    c-0.033-0.211-0.054-0.339-0.073-0.467c0.019-0.005,0.038-0.011,0.057-0.017c0.12,0.129,0.24,0.258,0.387,0.415    c0.064-0.052,0.146-0.119,0.244-0.198c0.114,0.315-0.25,0.274-0.403,0.483c0.186-0.046,0.303-0.075,0.427-0.107    c0.079,0.174,0.159,0.351,0.26,0.575c-0.102-0.02-0.189-0.036-0.23-0.043c-0.11,0.105-0.218,0.207-0.323,0.309    c0.359-0.117,0.472,0.222,0.681,0.387c0.003,0.002,0.005,0.003,0.007,0.006c0.012,0.008,0.023,0.015,0.036,0.023    c0.003,0.003,0.009,0.006,0.012,0.008c0.017,0.01,0.035,0.018,0.052,0.025c-0.004,0.431,0.083,0.505,0.511,0.433    c0.103-0.017,0.207-0.016,0.394-0.028c-0.151,0.089-0.229,0.135-0.329,0.195c0.267,0.04,0.506,0.058,0.734,0.117    c0.1,0.025,0.178,0.136,0.265,0.208c-0.059,0.047-0.118,0.093-0.168,0.132c0,0.07,0.022,0.162-0.005,0.236    c-0.029,0.076-0.104,0.136-0.159,0.203c0.019,0.014,0.036,0.028,0.053,0.041c0.198-0.248,0.396-0.496,0.624-0.783    c0.037,0.098,0.128,0.225,0.096,0.282c-0.07,0.127-0.205,0.218-0.303,0.312c0.021,0.003,0.102,0.013,0.219,0.028    c-0.074,0.066-0.122,0.108-0.144,0.127c0.046,0.088,0.087,0.168,0.126,0.243c-0.037-0.404,0.318-0.193,0.498-0.349    c-0.029,0.222-0.051,0.383-0.078,0.583c0.164-0.164,0.279-0.279,0.414-0.415c0.071,0.224,0.119,0.378,0.2,0.635    c0.153-0.266,0.276-0.48,0.387-0.673c0.072,0.07,0.169,0.164,0.289,0.282c-0.016,0.102-0.04,0.253-0.063,0.412    c0.101-0.055,0.223-0.083,0.281-0.159c0.21-0.278,0.245-0.025,0.355,0.087c-0.081,0.005-0.133,0.009-0.215,0.015    c0.145,0.125,0.257,0.222,0.371,0.321c-0.028,0.018-0.052,0.034-0.073,0.051c-0.007,0.005-0.013,0.01-0.018,0.016    c-0.013,0.011-0.024,0.021-0.034,0.032c-0.004,0.006-0.009,0.011-0.012,0.016c-0.007,0.01-0.013,0.02-0.018,0.029    c-0.003,0.005-0.005,0.01-0.006,0.015c-0.004,0.009-0.006,0.019-0.007,0.028c0,0.004,0,0.009,0,0.013c0,0.01,0,0.02,0.002,0.029    c0.001,0.003,0.002,0.006,0.003,0.01c0.003,0.011,0.008,0.023,0.015,0.035c0.001,0,0.001,0,0.001,0    c0.062,0.107,0.227,0.201,0.193,0.332c0.066-0.119,0.128-0.232,0.188-0.339c0.095-0.172,0.185-0.333,0.278-0.5    c0.062,0.101,0.099,0.162,0.151,0.246c0.021-0.122,0.036-0.207,0.05-0.292c0.018,0.002,0.036,0.005,0.055,0.006    c0.07,0.165,0.14,0.33,0.209,0.495c0.028,0,0.057,0.001,0.084,0.002c0.026-0.171,0.049-0.343,0.078-0.532    c0.043,0.104,0.081,0.193,0.118,0.283c0.073,0.186,0.468,0.225,0.234,0.56c-0.092,0.133-0.108,0.32-0.159,0.482    c-0.047,0.013-0.093,0.026-0.139,0.04c0.155,0.138,0.31,0.275,0.459,0.408c0,0.106,0,0.24,0,0.374    c0.1-0.345,0.379-0.238,0.605-0.267c0,0.231-0.005,0.459,0.005,0.686c0.001,0.036,0.064,0.099,0.102,0.101    c0.273,0.01,0.161,0.179,0.135,0.254c0.196-0.049,0.404-0.089,0.603-0.154c0.205-0.067,0.211,0.017,0.173,0.177    c-0.034,0.149-0.053,0.301-0.079,0.453c0.02,0.004,0.04,0.008,0.059,0.012c0.045-0.104,0.09-0.209,0.176-0.408    c0.071,0.175,0.108,0.267,0.125,0.306c0.106-0.027,0.221-0.04,0.322-0.087c0.123-0.058,0.233-0.145,0.346-0.217    c0.659,0.705,0.635,0.551,0.979,0.262c0,0.114,0,0.207,0,0.328c0.064-0.034,0.102-0.046,0.13-0.069    c0.035-0.028,0.061-0.065,0.088-0.095c-0.311-0.368-0.323-0.559-0.079-0.831c0.105,0.164,0.212,0.331,0.321,0.5    c0.08-0.071,0.146-0.129,0.214-0.188c0.042,0.08,0.071,0.129,0.095,0.181c0.047,0.099,0.133,0.201,0.128,0.298    c-0.014,0.272,0.098,0.375,0.352,0.272c0.175-0.07,0.348-0.145,0.521-0.218c0.007,0.016,0.014,0.033,0.022,0.049    c-0.083,0.073-0.166,0.146-0.281,0.246c0.112-0.02,0.182-0.032,0.265-0.046c-0.146,0.442-0.154,0.541-0.099,0.586    c0.106-0.146,0.211-0.291,0.299-0.413c0.204,0.085,0.377,0.157,0.496,0.207c0.217-0.053-0.071-0.433,0.297-0.319    c0.034-0.124,0.07-0.248,0.098-0.35c0.343-0.056,0.423,0.11,0.397,0.389c0.041-0.117,0.083-0.234,0.125-0.354    c0.271,0.183,0.293,0.219,0.412,0.544c0.018,0.047,0.079,0.099,0.128,0.111c0.253,0.06,0.423,0.201,0.507,0.451    c0.018,0.051,0.091,0.083,0.182,0.159c-0.076-0.149-0.123-0.241-0.17-0.333c0.014-0.01,0.027-0.02,0.04-0.029    c0.063,0.045,0.129,0.089,0.216,0.15c-0.059-0.202-0.105-0.366-0.155-0.54c0.142,0.034,0.286,0.068,0.425,0.1    c0.037,0.124,0.074,0.243,0.096,0.315c0.109,0,0.23-0.035,0.268,0.006c0.124,0.132,0.229,0.246,0.402,0.348    c0.289,0.168,0.479,0.502,0.696,0.75c0.179-0.051,0.311-0.09,0.441-0.128c-0.115-0.061-0.23-0.121-0.346-0.18    c-0.211,0.066-0.342,0.06-0.271-0.231c0.027-0.114-0.117-0.299,0.084-0.34c0.166-0.035,0.376-0.04,0.518,0.036    c0.188,0.098,0.327,0.173,0.497-0.015c-0.009,0.056-0.018,0.112-0.027,0.168c0.021,0.125,0.069,0.253,0.056,0.375    c-0.031,0.272-0.039,0.279,0.235,0.407c-0.167-0.503-0.156-0.692,0.068-0.845c0.005,0.046,0.016,0.081,0.011,0.114    c-0.032,0.237,0.181,0.342,0.274,0.511c0.267-0.222,0.278,0.118,0.411,0.189c0.087,0.046,0.168,0.104,0.329,0.205    c-0.06-0.191-0.089-0.288-0.142-0.458c0.345,0.28,0.72,0.401,0.901,0.808c0.256-0.276-0.043-0.578,0.076-0.894    c0.045,0.105,0.071,0.191,0.115,0.265c0.05,0.081,0.103,0.172,0.178,0.218c0.034,0.021,0.069,0.039,0.105,0.056    c0.104,0.05,0.215,0.09,0.322,0.136c-0.051-0.112-0.103-0.225-0.173-0.378c0.117-0.021,0.212-0.065,0.296-0.048    c0.07,0.014,0.111,0.008,0.134-0.01c0.002-0.002,0.003-0.004,0.005-0.007c0.004-0.004,0.01-0.009,0.012-0.015    c0.002-0.005,0.003-0.011,0.003-0.018c0.002-0.003,0.003-0.007,0.003-0.011c0.001-0.008,0.001-0.018,0-0.028    c0-0.002,0-0.004,0-0.007c-0.001-0.009-0.003-0.018-0.004-0.028c-0.001-0.004-0.001-0.008-0.002-0.013s-0.002-0.01-0.003-0.016    c-0.002-0.009-0.003-0.018-0.006-0.027c-0.073-0.021-0.148-0.036-0.218-0.063c-0.08-0.03-0.153-0.072-0.23-0.104    c-0.099-0.041-0.199-0.079-0.297-0.117c0.023-0.045,0.045-0.09,0.068-0.135c0.226,0.14,0.452,0.279,0.678,0.419l0.001,0    c-0.002-0.046-0.006-0.092-0.009-0.125c0.173,0.058,0.342,0.115,0.51,0.17c0.094,0.03,0.204,0.035,0.281,0.088    c0.184,0.125,0.352,0.274,0.529,0.41c0.007,0.006,0.028-0.009,0.047-0.018c0.001,0,0.002-0.002,0.004-0.002    c-0.003-0.003-0.004-0.006-0.006-0.009c0.001-0.001,0.003-0.003,0.003-0.004c-0.075-0.181-0.149-0.363-0.225-0.544    c0.025-0.009,0.05-0.018,0.073-0.027c0.125,0.095,0.248,0.19,0.413,0.317c-0.09,0.088-0.175,0.171-0.261,0.254    c0.003,0.004,0.004,0.007,0.004,0.012c0,0,0,0.001-0.001,0.001c0.062,0.089,0.125,0.179,0.202,0.288    c0.043-0.148,0.092-0.319,0.152-0.529c0.396,0.264,0.451-0.036,0.49-0.425c0.153,0.228,0.253,0.377,0.394,0.588    c0.013-0.138,0.017-0.189,0.027-0.298c0.129,0.084,0.273,0.125,0.321,0.216c0.194,0.383,0.485,0.593,0.915,0.608    c-0.225-0.177-0.456-0.345-0.671-0.532c-0.075-0.065-0.11-0.175-0.172-0.278c0.534-0.076,1.064,0.239,1.193,0.701    c0.02,0.071-0.069,0.173-0.108,0.261c0.057,0.087,0.111,0.173,0.167,0.259c0.021-0.012,0.042-0.021,0.062-0.033    c0-0.106,0-0.212,0-0.338c0.122,0.065,0.209,0.112,0.297,0.159c-0.118-0.265-0.263-0.499-0.432-0.713    c-0.131-0.165-0.109-0.296,0.01-0.438c0.126,0.073,0.256,0.12,0.348,0.208c0.153,0.145,0.389,0.31,0.396,0.476    c0.013,0.322,0.202,0.183,0.332,0.195c0.065,0.006,0.135-0.037,0.168-0.047c-0.013-0.232-0.027-0.464-0.042-0.713    c-0.078,0.149-0.143,0.278-0.208,0.406c-0.022-0.011-0.045-0.023-0.069-0.036c0.04-0.094,0.095-0.187,0.115-0.287    c0.024-0.115,0.017-0.236,0.022-0.322c0.219,0.075,0.463,0.101,0.626,0.23c0.149,0.12,0.21,0.351,0.351,0.606    c0.07-0.243,0.127-0.436,0.189-0.651c0.05,0.09,0.098,0.177,0.147,0.265c0.016-0.004,0.032-0.009,0.047-0.013    c-0.028-0.11-0.056-0.221-0.077-0.305c0.103-0.104,0.204-0.207,0.305-0.31h-0.001c0.001-0.003,0.003-0.005,0.004-0.009    c-0.045,0.008-0.088,0.015-0.113,0.019c-0.02-0.232-0.045-0.455-0.054-0.678c-0.002-0.049,0.037-0.124,0.079-0.145    c0.044-0.021,0.139-0.014,0.165,0.019c0.056,0.069,0.125,0.171,0.109,0.244c-0.04,0.186-0.121,0.362-0.186,0.541    c0.001,0,0.004,0,0.006,0c-0.002,0.003-0.006,0.006-0.009,0.009c0.045,0.004,0.092,0.009,0.139,0.012    c0.153,0.015,0.314,0.029,0.509,0.047c-0.09-0.313-0.176-0.606-0.252-0.873c0.229-0.061,0.398-0.106,0.493-0.131    c0.017-0.18,0.027-0.303,0.039-0.426c0.034,0,0.067-0.001,0.102-0.002c0.154,0.405,0.311,0.808,0.466,1.211    c0.02-0.007,0.039-0.015,0.059-0.022c-0.01-0.092-0.019-0.184-0.03-0.283c0.087,0.02,0.152,0.035,0.217,0.049    c-0.111-0.165-0.212-0.312-0.334-0.496c0.586-0.123,0.517,0.455,0.882,0.647c-0.094-0.162-0.152-0.26-0.24-0.413    c0.121,0.069,0.183,0.105,0.251,0.145c0.07-0.298,0.129-0.57,0.205-0.838c0.008-0.026,0.151-0.052,0.163-0.032    c0.078,0.116,0.193,0.247,0.189,0.371c-0.007,0.285,0.149,0.355,0.396,0.396c-0.028-0.138-0.053-0.259-0.078-0.379    c-0.07,0.013-0.123,0.021-0.23,0.04c0.057-0.106,0.093-0.17,0.127-0.236c0.103,0.09,0.205,0.181,0.362,0.318    c-0.071-0.377-0.132-0.696-0.193-1.015c0.021-0.003,0.042-0.006,0.064-0.01c0.065,0.154,0.13,0.307,0.192,0.453    c0.042-0.047,0.081-0.086,0.113-0.123s0.062-0.068,0.092-0.099c0.013-0.09,0.027-0.18,0.041-0.27    c0.075,0.045,0.15,0.091,0.203,0.123c0.067-0.086,0.127-0.237,0.198-0.243c0.23-0.018,0.465,0.017,0.627,0.028    c0.058-0.158,0.102-0.281,0.164-0.449c0.153,0.212,0.268,0.368,0.379,0.524c0.014-0.007,0.027-0.015,0.041-0.023    c-0.102-0.176-0.204-0.354-0.28-0.485c0.068-0.099,0.132-0.194,0.199-0.29l-0.007,0.007c0-0.001,0-0.001,0-0.001h0    c0,0,0,0.001-0.001,0.002v0c-0.059,0.039-0.117,0.077-0.162,0.106c-0.049-0.188-0.1-0.38-0.154-0.59    c0.334,0.042,0.192,0.344,0.316,0.484c0-0.001,0-0.001,0.001-0.001c0.033-0.171,0.065-0.342,0.105-0.547    c0.064,0.134,0.116,0.241,0.17,0.353c0.178-0.136,0.217-0.235,0.011-0.362c-0.088-0.055-0.129-0.187-0.19-0.285    c0.016-0.016,0.032-0.033,0.048-0.049c0.193,0.119,0.387,0.236,0.58,0.355c-0.06-0.122-0.151-0.204-0.248-0.277    c-0.089-0.068-0.185-0.127-0.276-0.19c0.019-0.027,0.037-0.053,0.056-0.08c0.08,0.04,0.16,0.08,0.285,0.143    c-0.05-0.12-0.082-0.195-0.113-0.271c0.362-0.073,0.362-0.073,1.015,0.715c-0.011-0.196,0.004-0.367-0.035-0.524    c-0.041-0.155-0.157-0.304,0.125-0.286c0-0.083,0-0.166,0-0.271c0.329,0.07,0.29,0.305,0.284,0.479    c0.157,0.119,0.29,0.22,0.423,0.321c-0.013-0.14-0.072-0.266-0.131-0.392c-0.041-0.09-0.089-0.185,0.087-0.146    c-0.081-0.065-0.16-0.13-0.254-0.209c0.155-0.148,0.346-0.135,0.548-0.042l-0.013-0.005c0.264-0.163,0.065,0.205,0.207,0.17    c-0.019-0.207-0.038-0.427-0.062-0.695c0.312,0.187,0.306,0.401,0.236,0.642c-0.032,0.112-0.045,0.229-0.064,0.345    c0.164-0.311,0.328-0.622,0.486-0.924c0.078,0.072,0.19,0.177,0.294,0.272c-0.028-0.222-0.057-0.448-0.085-0.683    c0.393-0.383,0.615-0.058,0.816,0.279c0.081-0.107,0.136-0.179,0.208-0.273c-0.293-0.112-0.287-0.311-0.087-0.64    c0.103,0.144,0.19,0.265,0.276,0.386c-0.012,0.016-0.024,0.032-0.035,0.048c-0.085-0.042-0.169-0.086-0.303-0.153    c0.174,0.226,0.312,0.404,0.449,0.582c0.014-0.008,0.028-0.016,0.042-0.024c-0.034-0.081-0.067-0.161-0.092-0.219    c0.146,0.025,0.279,0.047,0.505,0.086c-0.338-0.233-0.157-0.406-0.045-0.621c0.135,0.236,0.231,0.501,0.542,0.416    c-0.083-0.133-0.168-0.271-0.253-0.411c0.017-0.019,0.036-0.038,0.054-0.057c0.112,0.064,0.224,0.127,0.357,0.204    c0.01-0.114,0.019-0.205,0.027-0.295c0.035,0.004,0.07,0.009,0.106,0.014c-0.063,0.289-0.125,0.577-0.189,0.866    c0.066-0.061,0.068-0.14,0.102-0.2c0.154-0.271,0.106-0.669,0.526-0.783c0.066-0.018,0.116-0.368,0.103-0.372    c-0.386-0.14,0.117-0.369-0.133-0.535c0.165,0.007,0.252,0.011,0.335,0.015c0.021,0.11,0.036,0.2,0.051,0.29    c0.015-0.001,0.031-0.001,0.046-0.001c0.006-0.068,0.012-0.137,0.014-0.155c0.239,0.052,0.464,0.1,0.725,0.155    c-0.094-0.186-0.155-0.308-0.231-0.46c0.181-0.026,0.301-0.043,0.407-0.059c-0.16-0.038-0.311-0.073-0.461-0.109    c0.006-0.032,0.013-0.064,0.021-0.097c0.322-0.028,0.643-0.057,0.966-0.086c-0.091-0.033-0.183-0.097-0.271-0.093    c-0.176,0.006-0.212-0.068-0.167-0.213c0.023-0.075,0.064-0.144,0.099-0.216c0.035,0.057,0.06,0.128,0.11,0.166    c0.11,0.082,0.232,0.145,0.35,0.216c0.128-0.038,0.254-0.077,0.455-0.136c-0.217-0.062-0.39-0.111-0.564-0.162    c0.006-0.034,0.013-0.067,0.02-0.102c0.056-0.013,0.112-0.027,0.168-0.041c0.062-0.015,0.125-0.03,0.149-0.036    c-0.039-0.128-0.07-0.228-0.101-0.329c-0.088,0.079-0.176,0.159-0.264,0.238c-0.017-0.008-0.034-0.015-0.051-0.022    c0.047-0.139,0.058-0.311,0.149-0.409c0.107-0.116,0.192-0.018,0.206,0.121c0.104-0.04,0.207-0.082,0.311-0.117    c0.056-0.02,0.146-0.005,0.17-0.04c0.123-0.168,0.22-0.347,0.129-0.57c-0.03-0.07-0.026-0.154-0.038-0.231    c0.023-0.008,0.046-0.015,0.069-0.023c0.05,0.058,0.098,0.115,0.147,0.172c0.023-0.139-0.033-0.257-0.036-0.377    c-0.004-0.137,0.02-0.282,0.074-0.405c0.013-0.029,0.2,0.016,0.305,0.033c0.074,0.013,0.147,0.037,0.224,0.057    c0.046-0.346-0.488-0.229-0.417-0.632c0.033-0.189-0.209-0.427-0.321-0.632c0.22,0.144,0.449,0.241,0.604,0.408    c0.199,0.212,0.335,0.481,0.5,0.725c0.026,0.038,0.055,0.075,0.108,0.148c0-0.32,0-0.584,0-0.827    c-0.089-0.083-0.193-0.176-0.296-0.271c0.049,0.167-0.061,0.174-0.129,0.089c-0.129-0.159-0.217-0.351-0.323-0.528    c0.042-0.029,0.084-0.057,0.126-0.085c0.061,0.085,0.119,0.171,0.185,0.253c0.042,0.054,0.092,0.101,0.14,0.152    c0.031-0.038,0.056-0.1,0.094-0.107c0.235-0.048,0.213-0.17,0.074-0.355c0.21-0.05,0.397-0.096,0.585-0.141    c-0.204-0.107-0.407-0.213-0.614-0.322c0.008,0.144,0.016,0.279,0.024,0.431c-0.178-0.248-0.332-0.459-0.484-0.67    c0.049,0.104,0.097,0.207,0.145,0.31c-0.015,0.009-0.029,0.02-0.044,0.029c-0.169-0.162-0.337-0.323-0.495-0.473    c0.119-0.062,0.219-0.139,0.331-0.164c0.059-0.014,0.14,0.062,0.21,0.098c0.155,0.042,0.311,0.084,0.529,0.145    c-0.072-0.123-0.112-0.273-0.21-0.337c-0.143-0.094-0.326-0.128-0.544-0.207c0.091-0.05,0.111-0.07,0.123-0.066    C73.96,58.952,74.482,59.138,75.006,59.312z M52.509,41.3c0.215,0.018,0.43,0.034,0.646,0.052    c0.083,0.075,0.167,0.149,0.249,0.225c0.009,0.002,0.017,0.005,0.023,0.006c0.003,0.004,0.007,0.01,0.01,0.014    c0.112,0.049,0.254,0.077,0.318,0.163c0.107,0.143,0.157,0.328,0.169,0.533c-0.162-0.232-0.325-0.463-0.487-0.695    c-0.006-0.002-0.012-0.004-0.017-0.006c-0.006-0.005-0.011-0.01-0.017-0.015c-0.039-0.014-0.089-0.032-0.095-0.023    c-0.169,0.272-0.291,0.058-0.424-0.038c-0.13-0.051-0.259-0.102-0.389-0.152C52.5,41.343,52.505,41.321,52.509,41.3z     M52.359,41.628C52.359,41.628,52.359,41.628,52.359,41.628C52.359,41.628,52.359,41.628,52.359,41.628z M51.086,51.581    c0.188,0.211,0.375,0.422,0.563,0.632C51.404,52.056,51.036,52.015,51.086,51.581z M55.065,52.129    c-0.354-0.141-0.707-0.281-1.061-0.422c0.001-0.021,0.002-0.042,0.004-0.064c0.209,0.021,0.437-0.003,0.62,0.075    c0.187,0.08,0.327,0.262,0.488,0.399C55.101,52.121,55.083,52.125,55.065,52.129z M59.304,46.185    c-0.066-0.083-0.119-0.148-0.175-0.216c-0.087,0.078-0.183,0.164-0.362,0.324c0.037-0.187,0.057-0.287,0.076-0.387    c-0.003,0-0.005,0-0.008,0.002c0-0.002,0-0.003,0-0.004c-0.025,0.007-0.044,0.017-0.063,0.027    c-0.218,0.104-0.094,0.331-0.103,0.497c-0.021,0.348,0,0.698-0.009,1.048c-0.001,0.053-0.064,0.105-0.103,0.156    c-0.139,0.19-0.188,0.374,0.059,0.554c-0.083,0.062-0.148,0.111-0.236,0.176c0.034,0.065,0.078,0.151,0.15,0.292    c0.032-0.106,0.051-0.164,0.068-0.22c0.025-0.007,0.052-0.015,0.078-0.022c0.026,0.123,0.054,0.246,0.074,0.343    c-0.115,0.015-0.274,0.015-0.278,0.039c-0.023,0.155-0.011,0.316-0.011,0.492c-0.101-0.025-0.243-0.062-0.419-0.106    c0.021,0.099,0.038,0.179,0.061,0.28c-0.061,0.02-0.128,0.04-0.214,0.066c0.35,0.02,0.28,0.322,0.373,0.515    c-0.137-0.095-0.296-0.17-0.407-0.289c-0.161-0.173-0.255-0.037-0.37,0.042c0.298,0.114,0.535,0.291,0.67,0.577    c-0.023,0.031-0.046,0.062-0.068,0.091c-0.174-0.129-0.348-0.257-0.521-0.386c-0.044,0.254-0.233,0.366-0.341,0.199    c-0.032-0.052-0.014-0.133-0.033-0.197c-0.015-0.044-0.053-0.082-0.145-0.1c0.024,0.153,0.068,0.305,0.066,0.458    c-0.002,0.132-0.054,0.264-0.088,0.412c-0.064,0.125-0.225,0.29-0.198,0.417c0.035,0.164-0.104,0.515,0.297,0.471    c-0.15,0.18-0.15,0.18-0.45-0.161c-0.043,0.137-0.078,0.251-0.125,0.396c-0.217-0.2-0.424-0.39-0.655-0.604    c0,0.08,0,0.188,0,0.353c-0.222-0.307-0.429-0.591-0.635-0.876c-0.028,0.017-0.057,0.034-0.086,0.051    c0.077,0.146,0.153,0.291,0.242,0.464c-0.052,0.069-0.122,0.164-0.193,0.259c0.009,0.016,0.018,0.032,0.026,0.048    c0.089-0.049,0.18-0.098,0.303-0.166c0.153,0.207,0.313,0.424,0.474,0.641c-0.023,0.016-0.047,0.033-0.07,0.048    c-0.132-0.148-0.263-0.297-0.398-0.451c-0.3,0.133-0.529-0.049-0.726-0.229c-0.369-0.34-0.743-0.17-1.135-0.084    c-0.139,0.03-0.299-0.039-0.483-0.068c0.05-0.139,0.08-0.223,0.118-0.331c-0.153-0.025-0.281-0.045-0.42-0.068    c-0.035,0.077-0.07,0.156-0.11,0.246c-0.12-0.028-0.225-0.054-0.382-0.091c0.065,0.094,0.106,0.153,0.153,0.221    c-0.298,0.024-0.799-0.308-0.947-0.58c-0.128-0.233-0.288-0.449-0.436-0.673c-0.024,0.037-0.05,0.073-0.076,0.11    c-0.108,0.041-0.218,0.082-0.363,0.135c-0.068-0.102-0.165-0.248-0.267-0.4c-0.02,0.069-0.037,0.13-0.058,0.199    c-0.073-0.119-0.142-0.227-0.259-0.415c-0.009,0.082-0.016,0.148-0.021,0.209c-0.004,0.033-0.007,0.064-0.01,0.092    c-0.008,0.075-0.015,0.139-0.021,0.202c0.002,0.003,0.005,0.006,0.008,0.009l-0.009,0.009c0.523,0.035,0.531,0.05,0.258,0.56    c-0.078-0.117-0.149-0.225-0.23-0.345c-0.075,0.051-0.152,0.104-0.239,0.163c-0.028-0.051-0.055-0.099-0.081-0.146    c0.102-0.081,0.197-0.157,0.293-0.233c0-0.005,0.001-0.011,0.001-0.016c-0.104-0.135-0.207-0.271-0.315-0.414    c-0.109,0.244-0.24,0.533-0.407,0.906c-0.096-0.177-0.131-0.241-0.166-0.305c-0.031,0.01-0.062,0.02-0.093,0.031    c0.033,0.101,0.065,0.202,0.101,0.312c-0.094,0.034-0.204,0.074-0.312,0.114c0.001,0.019,0.001,0.038,0.001,0.057    c0.078,0.005,0.157,0.01,0.232,0.015c0.02,0.173-0.549,0.259-0.88,0.119c-0.016,0.366-0.208,0.415-0.514,0.262    c0.005-0.085,0.011-0.179,0.017-0.271c-0.016-0.002-0.032-0.005-0.048-0.008c-0.071,0.266-0.143,0.531-0.214,0.804    c0.02,0.003,0.1,0.014,0.199,0.028c-0.649,0.422-1.354,0.33-2.041,0.332c-0.017-0.157-0.033-0.316-0.046-0.443    c-0.178-0.021-0.316-0.042-0.456-0.051c-0.112-0.007-0.284,0.051-0.33-0.003c-0.15-0.183-0.551,0.035-0.557-0.36    c-0.001-0.031-0.108-0.061-0.193-0.107c0.083-0.041,0.146-0.078,0.212-0.103c0.06-0.023,0.124-0.036,0.199-0.089    c-0.524,0.157-0.964,0.1-1.225-0.442c0.075-0.019,0.155-0.039,0.214-0.053c0-0.296-0.01-0.572,0.007-0.845    c0.004-0.059,0.104-0.106,0.148-0.168c0.104-0.149,0.202-0.304,0.304-0.456c-0.017-0.016-0.033-0.033-0.049-0.049    c-0.129,0.025-0.257,0.062-0.387,0.071c-0.106,0.006-0.214-0.02-0.32-0.031c0.001-0.027,0.001-0.055,0.001-0.082    c0.056-0.022,0.113-0.044,0.169-0.066c-0.003-0.016-0.006-0.032-0.01-0.049c-0.081,0-0.162,0-0.374,0    c0.226-0.303,0.398-0.534,0.568-0.762c-0.044,0.017-0.105,0.042-0.228,0.091c0.036-0.135,0.078-0.231,0.085-0.33    c0.009-0.128,0.005-0.26-0.02-0.385c-0.041-0.218-0.101-0.432-0.153-0.646c0.032-0.007,0.063-0.014,0.096-0.021    c-0.144-0.054-0.288-0.107-0.439-0.163c0.141-0.218,0.531,0.029,0.506-0.313c-0.019-0.268,0.157-0.623-0.246-0.77    c0.336-0.371-0.078-0.698-0.022-1.074c0.521,0.213,1.18-0.005,1.607,0.641c0-0.158,0-0.206,0-0.352    c0.101,0.175,0.161,0.28,0.229,0.4c0.073-0.024,0.15-0.05,0.261-0.087c-0.042,0.42,0.333,0.188,0.511,0.363    c-0.013-0.107-0.021-0.179-0.036-0.306c0.104,0.073,0.165,0.115,0.225,0.157c0.023-0.014,0.048-0.027,0.071-0.042    c-0.041-0.118-0.082-0.236-0.104-0.3c0.375,0.047,0.781,0.099,1.187,0.15c-0.017-0.057-0.034-0.115-0.05-0.171    c0.213-0.189,0.42-0.388,0.65-0.556c0.025-0.019,0.179,0.136,0.308,0.238c-0.015-0.192-0.026-0.361-0.039-0.531    c0.018-0.005,0.036-0.01,0.055-0.016c0.041,0.163,0.082,0.326,0.135,0.534c0.053-0.081,0.088-0.134,0.14-0.214    c0.043,0.074,0.081,0.137,0.128,0.215c0.047-0.071,0.096-0.145,0.149-0.228c0.161,0.085,0.317,0.168,0.502,0.267    c0.022-0.139,0.04-0.254,0.063-0.4c0.159,0.117,0.305,0.223,0.492,0.36c-0.011-0.142-0.019-0.241-0.031-0.392    c0.077,0.092,0.127,0.15,0.165,0.196c0.395-0.128,0.132-0.509,0.341-0.812c0.077,0.333,0.14,0.607,0.227,0.988    c0.051-0.152,0.074-0.219,0.097-0.287c0.031,0.017,0.062,0.034,0.094,0.051c0.021,0.073,0.04,0.144,0.061,0.216    c0.334,0.005,0.107-0.29,0.251-0.399c0.033,0.043,0.07,0.095,0.146,0.196c0.015-0.138,0.023-0.218,0.032-0.3    c0.026-0.004,0.053-0.008,0.079-0.012c0.024,0.153,0.049,0.307,0.076,0.477c0.146-0.101,0.262-0.178,0.413-0.282    c0.06,0.075,0.161,0.203,0.264,0.331c0.013-0.009,0.025-0.017,0.037-0.024c-0.041-0.092-0.083-0.184-0.148-0.325    c0.183,0.096,0.315,0.166,0.459,0.242c-0.017-0.088-0.029-0.159-0.042-0.229c0.14,0.197,0.196,0.497,0.536,0.379    c0.109-0.037,0.189-0.159,0.294-0.253c-0.184-0.212-0.47-0.325-0.334-0.588c0.033,0.021,0.064,0.045,0.096,0.069    c0.346,0.274,0.557,0.733,1.088,0.755c-0.083-0.089-0.167-0.179-0.251-0.269c0.007-0.017,0.015-0.033,0.021-0.049    c0.333,0.14,0.667,0.278,1.004,0.421c-0.002-0.016-0.009-0.067-0.024-0.2c0.661,0.503,1.393,0.627,2.151,0.647    c-0.035-0.034-0.071-0.068-0.107-0.103c0.135-0.123,0.269-0.247,0.403-0.37c0.033,0.024,0.065,0.049,0.099,0.074    c-0.046-0.057-0.092-0.112-0.144-0.174c0.215-0.041,0.403-0.077,0.634-0.12c0.006,0.054,0.018,0.141,0.031,0.25    c-0.145,0.007-0.254,0.013-0.363,0.019c0,0.029,0.002,0.06,0.003,0.088c0.118-0.01,0.244,0.002,0.354-0.035    c0.19-0.066,0.367-0.216,0.557-0.229c0.141-0.011,0.293,0.14,0.497,0.249c0.007-0.005,0.093-0.06,0.162-0.106    c0,0.397,0,0.797,0,1.198c0.004-0.001,0.006-0.002,0.009-0.003c-0.001,0.001-0.001,0.003-0.001,0.005    c0.104-0.025,0.207-0.049,0.322-0.076c-0.023-0.108-0.042-0.19-0.06-0.272c0.017-0.016,0.033-0.032,0.05-0.047    c0.05,0.051,0.135,0.097,0.143,0.152C59.316,45.817,59.304,45.977,59.304,46.185z" transform="matrix(1, 0, 0, 1, 0, 0)" />
    <path fill="none" stroke="#000000" stroke-width="0" stroke-linecap="round" stroke-linejoin="round" d="M69.262,40.064    c0.103,0,0.208,0,0.311,0" transform="matrix(1, 0, 0, 1, 0, 0)" />
    <path fill="none" stroke="#000000" stroke-width="0" stroke-linecap="round" stroke-linejoin="round" transform="matrix(1, 0, 0, 1, 0, 0)" data-type="line" data-x1="68.845" data-y1="40.513" data-x2="68.851" data-y2="40.515" d="M68.845 40.513L68.851 40.515" />
    <path fill="none" stroke="#000000" stroke-width="0" stroke-linecap="round" stroke-linejoin="round" transform="matrix(1, 0, 0, 1, 0, 0)" data-type="line" data-x1="52.359" data-y1="41.628" data-x2="52.359" data-y2="41.628" d="M52.359 41.628L52.359 41.628" />
    <path fill="none" stroke="#000000" stroke-width="0" stroke-linecap="round" stroke-linejoin="round" transform="matrix(1, 0, 0, 1, 0, 0)" data-type="line" data-x1="39.528" data-y1="42.925" data-x2="39.521" data-y2="42.931" d="M39.528 42.925L39.521 42.931" />
    <path d="M69.836,40.638c-0.02-0.059-0.039-0.12-0.076-0.236c0.197,0.093,0.49-0.11,0.488,0.309    c-0.068-0.057-0.105-0.089-0.175-0.148c0.016,0.126,0.025,0.216,0.036,0.308c-0.07,0.002-0.142,0.003-0.213,0.004    c-0.068,0.032-0.138,0.065-0.206,0.098c0.195,0.205,0.392,0.408,0.586,0.61c0.269-0.2,0.284-0.237,0.188-0.535    c-0.036-0.111-0.129-0.208-0.143-0.318c-0.056-0.455-0.203-0.588-0.633-0.552c-0.035,0.002-0.076-0.071-0.116-0.111    c-0.084,0.064-0.169,0.13-0.347,0.269C69.476,40.458,69.655,40.548,69.836,40.638z" transform="matrix(1, 0, 0, 1, 0, 0)" />
    <path d="M70.733,42.327c0.003-0.037,0.009-0.099,0.015-0.161c-0.024,0.022-0.05,0.046-0.074,0.069    c-0.089-0.082-0.172-0.17-0.269-0.242c-0.068-0.05-0.152-0.08-0.23-0.118c0.07,0.138,0.14,0.276,0.201,0.397    C70.493,42.291,70.613,42.309,70.733,42.327z" transform="matrix(1, 0, 0, 1, 0, 0)" />
    <path transform="matrix(1, 0, 0, 1, 0, 0)" data-type="polygon" d="M70.175 41.875L70.168 41.861L70.16 41.865L70.161 41.868Z" />
  </g>
  <g transform="matrix(1.6268517971038818, 0, 0, 1.6268517971038818, 59.232337951660156, 142.73165893554688)">
    <g>
      <path d="M67.955,31.812c-0.068-4.727-3.365-9.01-7.327-9.52l-3.425-0.44c-3.962-0.51-10.445-0.51-14.408,0l-3.424,0.44   c-3.962,0.51-7.259,4.793-7.327,9.52L32,34.941c0,13.102,0.746,23.383,0.746,23.383h4.443l1.632-25.79l1.146,18.707l1.146,42.327   h6.492l2.232-34.098l0.322-1.146l2.232,35.244h6.492l1.146-42.327l1.146-18.707l1.633,25.79h4.443c0,0,0.746-10.28,0.746-23.383   L67.955,31.812z" transform="matrix(0.9382438659667969, 0, 0, 0.9382438659667969, 1.9761958122253418, 5.7783966064453125)" />
    </g>
  </g>
  <path id="_g5rsr-y4kha3amBgH_Xyk" fill="#ff7817" transform="matrix(2.8798344135284424, -0.007855597883462906, -0.003102468093857169, -1.137355089187622, 0.26223596930503845, 394.4762878417969)" data-type="rect" data-x="0" data-y="84.525" data-width="176.742" data-height="7.219" d="M0 84.525H176.742 V91.744 H0 Z" />
  <path text="BYRD" text-anchor="start" font-size="100" letter-spacing="0" side="left" offset="0" dx="0" dy="0" space="preserve" href="" font-family="Black Ops One" font-scale="contain" transform="matrix(1.1288763284683228, 0, 0, 1.2384854555130005, 170.83848571777344, 213.20384698984253)" x="0" y="0" fill="#000000" font-weight="400" font-style="normal" data-fl-textpath="" id="_5Um9bf_XwO_0yWH-TBpY8" d="M 46.73-38.04L 46.73-51.86L 30.71-51.86L 30.71-64.79L 55.76-64.79L 68.75-51.86L 68.75-38.67L 62.26-32.18L 68.75-25.68L 68.75-12.94L 55.76 0L 30.71 0L 30.71-12.94L 46.73-12.94L 46.73-26.76L 30.71-26.76L 30.71-38.04L 46.73-38.04ZM 5.71 0L 5.71-64.79L 27.29-64.79L 27.29 0L 5.71 0ZM 93.698046875 0L 93.698046875-20.61L 71.728046875-64.79L 92.918046875-64.79L 115.328046875-19.09L 115.328046875 0L 93.698046875 0ZM 137.598046875-64.79L 116.698046875-23.63L 106.198046875-44.92L 116.848046875-64.79L 137.598046875-64.79ZM 163.618125 0L 142.038125 0L 142.038125-64.79L 163.618125-64.79L 163.618125 0ZM 183.24812500000002-51.86L 167.038125-51.86L 167.038125-64.79L 191.698125-64.79L 204.688125-51.86L 204.688125-32.42L 194.728125-22.46L 194.038125-23.83L 173.778125-21.14L 174.558125-19.43L 167.038125-19.43L 167.038125-31.98L 183.24812500000002-31.98L 183.24812500000002-51.86ZM 194.728125-22.46L 206.888125 0L 183.838125 0L 174.558125-19.43L 191.698125-19.43L 194.728125-22.46ZM 264.25671875 0L 239.59671875 0L 239.59671875-12.94L 255.61671875-12.94L 255.61671875-51.86L 239.59671875-51.86L 239.59671875-64.79L 264.25671875-64.79L 277.24671875-51.86L 277.24671875-12.94L 264.25671875 0ZM 214.59671875 0L 214.59671875-64.79L 236.17671875-64.79L 236.17671875 0L 214.59671875 0Z" />
  <path d="M56.67,67.43c-3.12,1-5.93,2.54-9.2,2.87-4.1.41-7.89-1.95-11.57-3.58s-10.1-4-14.71-3.77a77,77,0,0,1,9.55-4.89l0,0s.57,0,.59,0c1.23.45,3.94,0,6.47-.31a62.67,62.67,0,0,1,14-.17,42.27,42.27,0,0,1,13.28,3.55c2.45,1.14,4.74,2.69,7.16,3.92A53.57,53.57,0,0,0,56.67,67.43Zm21.18-1.3C74.79,66.13,67,60.74,62.21,59a47.65,47.65,0,0,0-14.67-2.59q-3.15-.09-6.3.12c-2.73.19-6.81,1.57-9.51.85,2.33-13.14,5.93-24.77,20.74-26.67,6.16-.79,12.5-.59,18.37,1.61,7.94,3,10.71,9.35,11.59,17.25C82.94,54.13,84.43,66.13,77.85,66.13ZM28.27,64.6s-4.35-1.48-7.23-1a5.21,5.21,0,0,0-3.92,3.65.64.64,0,0,0,.75.75,7.51,7.51,0,0,0,2.46-1C21.12,66.47,25.81,64.4,28.27,64.6Z" transform="matrix(1.0112383365631104, 0, 0, 1.0112383365631104, 82.3645248413086, 65.9783706665039)" fill="#ff7817" stroke="#000000" stroke-width="1" />
  <path text="Brothers" fill="#ff7817" space="preserve" text-anchor="middle" offset="0.5" font-scale="contain" font-size="48" font-family="Fontdiner Swanky" transform="matrix(1.151734033576455, 0.015019701147750558, -0.015019701147750558, 1.151734033576455, 333.32554611605576, 264.5762849204599)" font-weight="400" font-style="normal" data-fl-textpath="" d="M-78.2596875-21.8L-78.2596875-21.8Q-78.2596875-20.25 -79.1296875-18.84Q-79.9896875-17.44 -81.2996875-16.31Q-82.6196875-15.19 -84.1596875-14.39Q-85.7096875-13.59 -87.0196875-13.27L-87.0196875-13.27Q-85.7096875-12.84 -84.3996875-12.14Q-83.0896875-11.44 -82.0296875-10.45Q-80.9796875-9.47 -80.3396875-8.2Q-79.7096875-6.94 -79.7096875-5.39L-79.7096875-5.39Q-79.7096875-3.52 -80.8596875-2.16Q-82.0096875-0.8 -83.8596875 0.19Q-85.7096875 1.17 -87.9796875 1.8Q-90.2596875 2.44 -92.5296875 2.84Q-94.7996875 3.23 -96.8196875 3.47Q-98.8396875 3.7 -100.0996875 3.84L-100.0996875 3.84L-119.2296875 5.91L-108.5396875-0.42L-110.7396875-26.02L-120.7296875-31.92L-97.3796875-31.45Q-95.9796875-31.41 -93.9796875-31.22Q-91.9896875-31.03 -89.8796875-30.63Q-87.7696875-30.23 -85.6896875-29.53Q-83.5996875-28.83 -81.93968749999999-27.77Q-80.2696875-26.72 -79.2696875-25.24Q-78.2596875-23.77 -78.2596875-21.8ZM-86.0896875-21.8L-86.0896875-21.8Q-86.0896875-22.88 -86.7396875-23.65Q-87.3996875-24.42 -88.4796875-24.98Q-89.5496875-25.55 -90.8396875-25.9Q-92.1296875-26.25 -93.4496875-26.46Q-94.7596875-26.67 -95.8796875-26.74Q-97.0096875-26.81 -97.7096875-26.81L-97.7096875-26.81Q-98.8396875-26.81 -99.9596875-26.74Q-101.0896875-26.67 -102.1596875-26.58L-102.1596875-26.58L-101.8796875-16.73Q-100.8996875-16.64 -99.88968750000001-16.57Q-98.8796875-16.5 -97.8996875-16.5L-97.8996875-16.5Q-96.7696875-16.5 -94.7996875-16.71Q-92.8396875-16.92 -90.88968750000001-17.48Q-88.9496875-18.05 -87.5196875-19.08Q-86.0896875-20.11 -86.0896875-21.8ZM-88.6196875-6.28L-88.6196875-6.28Q-88.6196875-7.36 -89.3396875-8.18Q-90.0696875-9 -91.1996875-9.59Q-92.3196875-10.17 -93.7296875-10.55Q-95.1296875-10.92 -96.5196875-11.13Q-97.8996875-11.34 -99.0896875-11.44Q-100.2896875-11.53 -101.0396875-11.53L-101.0396875-11.53L-101.1796875-11.53L-100.7996875-0.38Q-100.0996875-0.42 -98.9096875-0.59Q-97.7096875-0.75 -96.3496875-1.05Q-94.9896875-1.36 -93.6096875-1.85Q-92.2296875-2.34 -91.1296875-2.98Q-90.0196875-3.61 -89.3196875-4.43Q-88.6196875-5.25 -88.6196875-6.28ZM-48.2078125-22.88L-48.2078125-22.88Q-48.2078125-20.95 -49.377812500000005-19.71Q-50.5578125-18.47 -52.527812499999996-18.47L-52.527812499999996-18.47Q-53.9778125-18.47 -54.777812499999996-19.01Q-55.5678125-19.55 -56.1078125-20.23Q-56.6478125-20.91 -57.1878125-21.45Q-57.7278125-21.98 -58.7078125-21.98L-58.7078125-21.98Q-60.4478125-21.98 -61.4778125-20.88Q-62.5078125-19.78 -63.027812499999996-18.28L-63.027812499999996-18.28Q-63.0678125-18.19 -63.0978125-17.39Q-63.1178125-16.59 -63.1678125-15.38Q-63.2078125-14.16 -63.2578125-12.7Q-63.3078125-11.25 -63.3478125-9.94Q-63.3978125-8.63 -63.4478125-7.62Q-63.487812500000004-6.61 -63.487812500000004-6.28L-63.487812500000004-6.28L-52.0978125-2.16L-79.1978125 0.61Q-76.7578125-0.94 -74.3178125-2.46Q-71.8778125-3.98 -69.4478125-5.48L-69.4478125-5.48L-71.1778125-21.84L-81.6378125-24.66L-62.737812500000004-28.78L-62.8378125-24.47Q-60.8678125-25.83 -58.777812499999996-26.79Q-56.6978125-27.75 -54.1678125-27.75L-54.1678125-27.75Q-53.3178125-27.75 -52.4278125-27.56Q-51.5378125-27.38 -50.737812500000004-27Q-49.9478125-26.63 -49.3378125-25.99Q-48.7278125-25.36 -48.4478125-24.47L-48.4478125-24.47Q-48.2078125-23.63 -48.2078125-22.88ZM-17.221562499999997-11.34L-17.221562499999997-11.34Q-17.221562499999997-8.11 -18.8415625-5.88Q-20.4615625-3.66 -22.9715625-2.27Q-25.4715625-0.89 -28.4315625-0.26Q-31.3815625 0.38 -34.0515625 0.38L-34.0515625 0.38Q-36.6815625 0.38 -39.5115625-0.28Q-42.3515625-0.94 -44.7215625-2.34Q-47.0815625-3.75 -48.6115625-5.98Q-50.1315625-8.2 -50.1315625-11.34L-50.1315625-11.34Q-50.1315625-14.77 -48.4915625-17.02Q-46.8515625-19.27 -44.3415625-20.58Q-41.831562500000004-21.89 -38.8115625-22.41Q-35.7915625-22.92 -32.971562500000005-22.92L-32.971562500000005-22.92Q-30.4015625-22.92 -27.6115625-22.27Q-24.8215625-21.61 -22.5015625-20.23Q-20.1815625-18.84 -18.7015625-16.64Q-17.221562499999997-14.44 -17.221562499999997-11.34ZM-24.9615625-11.44L-24.9615625-11.44Q-24.9615625-13.13 -25.5915625-14.53Q-26.2215625-15.94 -27.3315625-16.97Q-28.4315625-18 -29.8815625-18.56Q-31.3315625-19.13 -32.971562500000005-19.13L-32.971562500000005-19.13Q-34.6615625-19.13 -36.3515625-18.63Q-38.0415625-18.14 -39.4015625-17.2Q-40.7615625-16.27 -41.6015625-14.84Q-42.4415625-13.41 -42.4415625-11.58L-42.4415625-11.58Q-42.4415625-9.75 -41.8615625-8.25Q-41.2715625-6.75 -40.1715625-5.67Q-39.0715625-4.59 -37.5715625-4.01Q-36.0715625-3.42 -34.2415625-3.42L-34.2415625-3.42Q-32.2715625-3.42 -30.5815625-3.87Q-28.9015625-4.31 -27.6315625-5.3Q-26.3715625-6.28 -25.6615625-7.8Q-24.9615625-9.33 -24.9615625-11.44ZM-4.756562499999999-31.22L 4.2934375-30.28L 3.8634375-25.88Q 1.5734375000000007-26.06 -0.6765624999999993-26.23Q-2.9265624999999993-26.39 -5.2265625-26.63L-5.2265625-26.63Q-5.596562499999999-22.17 -6.026562500000001-17.77Q-6.446562500000001-13.36 -6.866562500000001-8.91L-6.866562500000001-8.91Q-6.866562500000001-8.67 -6.9165624999999995-8.44Q-6.9565625-8.2 -6.9565625-7.97L-6.9565625-7.97Q-6.9565625-7.31 -6.8165625-6.63Q-6.676562499999999-5.95 -6.346562499999999-5.41Q-6.026562500000001-4.88 -5.4865625-4.52Q-4.946562500000001-4.17 -4.1465625-4.17L-4.1465625-4.17Q-2.596562499999999-4.17 -1.4265624999999993-4.9Q-0.25656250000000114-5.63  0.5434374999999996-6.75Q 1.3334374999999987-7.88  1.8034375000000011-9.26Q 2.2734375-10.64  2.4134375000000006-12L 2.4134375000000006-12Q 2.9734374999999993-9.8  2.9734374999999993-7.64L 2.9734374999999993-7.64Q 2.9734374999999993-5.58  2.3234375000000007-3.91Q 1.6634375000000006-2.25  0.49343749999999886-1.05Q-0.6765624999999993 0.14 -2.3165625 0.8Q-3.9565625000000004 1.45 -5.926562499999999 1.45L-5.926562499999999 1.45Q-7.9965625 1.45 -9.536562499999999 0.75Q-11.0865625 0.05 -12.096562500000001-1.2Q-13.096562500000001-2.44 -13.596562500000001-4.13Q-14.0865625-5.81 -14.0865625-7.73L-14.0865625-7.73Q-14.0865625-8.11 -14.0865625-8.44Q-14.0865625-8.77 -14.0365625-9.14L-14.0365625-9.14Q-13.6665625-13.69 -13.3165625-18.12Q-12.9565625-22.55 -12.6765625-27.09L-12.6765625-27.09Q-13.9465625-27.19 -15.1865625-27.3Q-16.4265625-27.42-17.6965625-27.56L-17.6965625-27.56L-17.5065625-31.27Q-16.5265625-31.31 -15.4465625-31.59Q-14.3665625-31.88 -13.356562499999999-32.34Q-12.346562500000001-32.81 -11.4865625-33.47Q-10.6165625-34.13 -10.0565625-34.97L-10.0565625-34.97Q-9.536562499999999-35.81 -9.0965625-36.8Q-8.6465625-37.78 -8.2965625-38.86Q-7.946562500000001-39.94 -7.7065625-40.99Q-7.4765625-42.05 -7.3865625-43.03L-7.3865625-43.03L-3.5365625000000005-42.94L-4.756562499999999-31.22ZM 32.231562499999995-1.03L 39.4915625 3.33L 19.8515625 2.77L 26.5115625-0.84L 26.5115625-9.42Q 26.5115625-12.33  25.0115625-13.92Q 23.5115625-15.52  20.6015625-15.52L 20.6015625-15.52Q 19.3815625-15.52  17.861562499999998-15.26Q 16.3315625-15  15.2615625-14.44L 15.2615625-14.44Q 15.1215625-11.77  15.0015625-9.12Q 14.8815625-6.47  14.7915625-3.8L 14.7915625-3.8L 20.7415625-0.23L 1.1015625 0.56L 8.6515625-3.61L 7.4315625-35.11L-4.0984375-38.16L 16.4315625-41.2L 15.4415625-18.7Q 16.6215625-19.08  17.8315625-19.22Q 19.0515625-19.36  20.2715625-19.36L 20.2715625-19.36L 20.4615625-19.36Q 22.4815625-19.36  24.8215625-18.96Q 27.1615625-18.56  29.1515625-17.6Q 31.1515625-16.64  32.4615625-14.98Q 33.7715625-13.31  33.7715625-10.78L 33.7715625-10.78Q 33.7715625-9.89  33.611562500000005-8.58Q 33.4415625-7.27  33.2115625-5.86Q 32.981562499999995-4.45  32.6915625-3.16Q 32.4115625-1.88  32.231562499999995-1.03L 32.231562499999995-1.03ZM 63.2096875-8.53L 63.2096875-8.53Q 63.2096875-8.2  63.189687500000005-7.88Q 63.159687500000004-7.55  63.159687500000004-7.22L 63.159687500000004-7.22L 44.0896875-6.84Q 44.699687499999996-4.08  46.8496875-2.77Q 49.0096875-1.45  51.7296875-1.45L 51.7296875-1.45Q 53.0396875-1.45  54.3996875-1.64Q 55.7596875-1.83  57.0696875-2.25Q 58.3796875-2.67  59.559687499999995-3.35Q 60.7296875-4.03  61.659687500000004-4.97L 61.659687500000004-4.97Q 61.1496875-3  59.9296875-1.5Q 58.7096875 0  57.049687500000005 0.98Q 55.3796875 1.97  53.439687500000005 2.46Q 51.4896875 2.95  49.5696875 2.95L 49.5696875 2.95Q 46.949687499999996 2.95  44.5796875 2.02Q 42.2096875 1.08  40.449687499999996-0.56Q 38.6996875-2.2  37.6596875-4.5Q 36.6296875-6.8  36.6296875-9.52L 36.6296875-9.52Q 36.6296875-12.38  37.8096875-14.72Q 38.9796875-17.06  40.8996875-18.73Q 42.8196875-20.39  45.3496875-21.28Q 47.8796875-22.17  50.6496875-22.17L 50.6496875-22.17Q 53.559687499999995-22.17  55.8796875-21.09Q 58.199687499999996-20.02  59.8396875-18.14Q 61.4796875-16.27  62.3396875-13.8Q 63.2096875-11.34  63.2096875-8.53ZM 44.0896875-11.11L 56.0396875-10.92Q 55.949687499999996-12.19  55.5196875-13.36Q 55.0996875-14.53  54.3496875-15.42Q 53.5996875-16.31  52.549687500000005-16.85Q 51.4896875-17.39  50.0896875-17.39L 50.0896875-17.39Q 48.6796875-17.39  47.6496875-16.88Q 46.6196875-16.36  45.909687500000004-15.49Q 45.2096875-14.63  44.7696875-13.48Q 44.3196875-12.33  44.0896875-11.11L 44.0896875-11.11ZM 90.3546875-22.88L 90.3546875-22.88Q 90.3546875-20.95  89.1846875-19.71Q 88.0046875-18.47  86.0346875-18.47L 86.0346875-18.47Q 84.5846875-18.47  83.7846875-19.01Q 82.9946875-19.55  82.4546875-20.23Q 81.9146875-20.91  81.3746875-21.45Q 80.8346875-21.98  79.8546875-21.98L 79.8546875-21.98Q 78.1146875-21.98  77.0846875-20.88Q 76.0546875-19.78  75.5346875-18.28L 75.5346875-18.28Q 75.4946875-18.19  75.4646875-17.39Q 75.4446875-16.59  75.3946875-15.38Q 75.3546875-14.16  75.3046875-12.7Q 75.2546875-11.25  75.2146875-9.94Q 75.1646875-8.63  75.1146875-7.62Q 75.0746875-6.61  75.0746875-6.28L 75.0746875-6.28L 86.4646875-2.16L 59.3646875 0.61Q 61.8046875-0.94  64.2446875-2.46Q 66.6846875-3.98  69.1146875-5.48L 69.1146875-5.48L 67.3846875-21.84L 56.9246875-24.66L 75.8246875-28.78L 75.7246875-24.47Q 77.6946875-25.83  79.7846875-26.79Q 81.8646875-27.75  84.3946875-27.75L 84.3946875-27.75Q 85.2446875-27.75  86.1346875-27.56Q 87.0246875-27.38  87.8246875-27Q 88.6146875-26.63  89.2246875-25.99Q 89.8346875-25.36  90.1146875-24.47L 90.1146875-24.47Q 90.3546875-23.63  90.3546875-22.88ZM 115.4259375-7.92L 115.4259375-7.92Q 115.4259375-5.58  114.3559375-4.08Q 113.2759375-2.58  111.6359375-1.71Q 109.9959375-0.84  107.9759375-0.49Q 105.9659375-0.14  104.0859375-0.14L 104.0859375-0.14Q 103.0059375-0.14  101.7159375-0.3Q 100.4259375-0.47  99.1659375-0.8Q 97.8959375-1.13  96.7059375-1.59Q 95.5059375-2.06  94.5659375-2.72L 94.5659375-2.72L 90.7759375 1.73L 92.2259375-12.61Q 93.0259375-10.88  94.2659375-9.33Q 95.5059375-7.78  97.1059375-6.61Q 98.6959375-5.44  100.5259375-4.76Q 102.3559375-4.08  104.3159375-4.08L 104.3159375-4.08Q 104.8359375-4.08  105.5159375-4.15Q 106.1959375-4.22  106.8259375-4.45Q 107.4659375-4.69  107.8859375-5.11Q 108.3059375-5.53  108.3059375-6.23L 108.3059375-6.23Q 108.3059375-7.03  107.4659375-7.71Q 106.6159375-8.39  105.4959375-8.88Q 104.3659375-9.38  103.2459375-9.73Q 102.1159375-10.08  101.5559375-10.27L 101.5559375-10.27Q 99.9659375-10.73  98.0659375-11.55Q 96.1659375-12.38  94.5459375-13.52Q 92.9259375-14.67  91.8559375-16.24Q 90.7759375-17.81  90.7759375-19.88L 90.7759375-19.88Q 90.7759375-21.84  91.7359375-23.39Q 92.6959375-24.94  94.1959375-25.99Q 95.6959375-27.05  97.5459375-27.59Q 99.3959375-28.13  101.1759375-28.13L 101.1759375-28.13Q 103.9959375-28.13  106.4959375-27.12Q 109.0059375-26.11  111.0659375-24.23L 111.0659375-24.23L 113.9759375-29.86L 113.3659375-15.05Q 112.5259375-16.64  111.2559375-18.26Q 109.9959375-19.88  108.4459375-21.19Q 106.8959375-22.5  105.1159375-23.3Q 103.3359375-24.09  101.4159375-24.09L 101.4159375-24.09Q 100.8559375-24.09  100.12593749999999-23.98Q 99.3959375-23.86  98.7659375-23.58Q 98.1359375-23.3  97.6859375-22.8Q 97.2459375-22.31  97.2459375-21.56L 97.2459375-21.56Q 97.2459375-20.67  97.9259375-20.02Q 98.6059375-19.36  99.5659375-18.87Q 100.5259375-18.38  101.5359375-18.02Q 102.5359375-17.67  103.1959375-17.48L 103.1959375-17.48Q 104.8859375-16.92  106.9959375-16.17Q 109.1059375-15.42  110.9759375-14.34Q 112.8559375-13.27  114.1359375-11.7Q 115.4259375-10.13  115.4259375-7.92Z" />
  <g fill="#ff7817" transform="matrix(0.4873482882976532, 0, 0, 0.4873482882976532, 35.331356048583984, 196.273681640625)">
    <path d="m 48.037349,957.36215 a 9.7314677,2.2763671 0 0 0 -9.7312,2.27664 9.7314677,2.2763671 0 0 0 0.0729,0.25426 9.7314677,2.2763671 0 0 0 0,3.6e-4 10.038746,2.5325686 60.479201 0 0 3.14127,9.05635 10.038746,2.5325686 60.479201 0 0 4.367891,6.06639 l -9.68578,56.60965 14.59589,15.7364 12.99925,-15.9643 -12.611261,-56.96941 a 2.4233538,9.9066061 27.954036 0 0 3.6018,-5.47874 2.4233538,9.9066061 27.954036 0 0 2.957361,-9.1516 l 0.0542,-0.16414 -0.0319,-0.003 a 9.7314677,2.2763671 0 0 0 -9.730481,-2.26857 z" stroke="none" stroke-width="1" transform="matrix(0.8230425119400024, 0, 0, 0.8230425119400024, 8.075967788696289, -787.0001220703125)" fill="#ff7817" />
  </g>
</svg>