<svg width="114" height="163" viewBox="0 0 114 163" fill="none" xmlns="http://www.w3.org/2000/svg">
<path d="M59.8034 15.9809C56.5524 14.8185 53.2229 13.9645 49.8568 13.2665C51.6994 11.1395 54.0261 9.4859 56.0006 7.48107C56.6727 6.79912 56.4517 5.34965 55.39 5.17047C50.7643 4.3869 46.1342 4.80587 41.4747 4.8451C41.3499 4.84599 41.2251 4.85134 41.1003 4.85223C41.2643 3.34481 41.1573 1.89267 40.3176 0.691015C39.9646 0.188246 39.3834 -0.135344 38.7558 0.0554228C34.9485 1.2125 31.1768 2.49795 27.472 3.94297C26.7812 3.35195 26.0671 2.78589 25.3058 2.26885C24.9136 2.00321 24.3039 2.02103 23.9098 2.26885C20.0704 4.68197 16.5671 7.49444 12.8997 10.1465C9.05499 12.9277 5.07207 15.5093 1.23712 18.3058C0.920659 18.5366 0.746828 18.8353 0.678188 19.1482C0.277042 19.3478 -0.0162395 19.7374 0.000697723 20.3284C0.17631 26.7405 0.906394 33.1241 0.691559 39.5451C0.654119 40.6629 1.80496 41.1015 2.69729 40.7619C4.16548 43.0368 5.16299 45.581 6.54115 47.913C6.54293 47.9201 6.54561 47.9237 6.54739 47.9308C6.567 47.9923 6.59463 48.0476 6.61959 48.1037C6.62405 48.1554 6.63297 48.2027 6.63653 48.2544C6.67486 48.7233 6.90129 49.0647 7.20616 49.2858C7.17674 50.3118 7.36305 51.4796 7.57432 52.5841C8.09135 55.2771 6.38426 60.6453 10.9573 59.9758C11.2871 59.9277 11.4708 59.7369 11.5332 59.506C12.118 62.4112 13.1244 65.1684 14.3341 67.9069C15.9645 71.5957 18.4382 75.1115 19.6515 78.9598C20.2407 80.8265 20.7729 82.4373 22.7323 83.1157C25.2443 83.9848 28.3759 83.721 30.9718 83.5489C32.9677 83.4179 34.6614 83.097 36.2054 81.7598C38.2013 80.0313 39.2274 77.1805 40.1865 74.8022C41.39 71.823 42.5899 68.982 44.1285 66.1508C45.5048 63.6165 46.6379 61.1008 47.1005 58.349C47.8217 58.431 48.3993 58.3347 49.1134 58.1315C49.4913 58.0263 49.691 57.7071 49.7222 57.3327C49.9469 54.6058 51.1913 47.0705 47.0747 46.5794C47.9839 41.8904 50.693 37.6837 52.8904 33.4575C53.2559 33.1 53.5224 32.6115 53.6347 31.9866C56.0692 27.0596 58.9726 22.3609 60.3838 17.0007C60.5041 16.5389 60.2322 16.1333 59.8034 15.9809ZM48.4537 52.576C48.2558 52.1036 48.0258 51.6445 47.7655 51.2006C47.2244 50.2788 45.7901 51.1123 46.333 52.0376C46.809 52.8479 47.1593 53.6832 47.3555 54.6049C47.4642 55.114 47.9019 55.2682 48.2959 55.1728C48.2389 55.7487 48.1774 56.2684 48.1301 56.6856C47.8556 56.739 47.5739 56.739 47.2895 56.7096C47.3118 56.3682 47.326 56.025 47.3251 55.6747C47.3251 54.6049 45.6671 54.6049 45.6671 55.6747C45.6733 61.535 41.8651 66.0643 39.7801 71.2899C38.1024 75.4904 36.8 81.2918 31.5566 81.8418C29.4073 82.0691 27.2171 82.046 25.0669 81.8605C24.0133 81.7696 22.7135 81.6519 22.0726 80.6937C21.4156 79.7131 21.3559 78.4276 20.854 77.3766C17.7884 70.9628 13.7742 64.7022 12.8561 57.519C12.7224 56.4734 11.0616 56.46 11.1971 57.519C11.2515 57.9407 11.3166 58.3561 11.3888 58.7697C11.2114 58.5059 10.9056 58.3204 10.5152 58.3775C9.52211 58.5228 9.24398 57.519 9.20832 56.3468C9.34382 56.2514 9.45347 56.1043 9.50784 55.8949C9.88849 54.4284 10.4162 53.0289 11.0839 51.6703C11.5528 50.7129 10.122 49.8723 9.65047 50.8342C9.46684 51.2068 9.29211 51.5839 9.12631 51.9645C8.97298 51.2737 8.79826 50.507 8.74834 49.826C9.61036 49.7021 10.3476 48.8686 9.83767 47.9647C10.0311 47.9459 10.254 47.9522 10.5152 47.9959C10.9796 48.0743 11.3237 47.8033 11.4743 47.4619C11.5385 47.4039 11.5974 47.3335 11.6366 47.2462C11.8915 46.6676 12.1197 46.0793 12.3248 45.4883C12.413 45.359 12.487 45.2101 12.5307 45.0283C12.5788 44.8313 12.6189 44.636 12.6644 44.439C13.2759 42.411 13.6441 40.3224 13.9062 38.2141C14.0702 37.5206 14.2512 36.8306 14.4312 36.1407C18.1619 33.6322 19.4634 29.3551 19.6755 24.9184C23.0345 24.7143 26.4237 24.9211 29.7799 25.0539C32.3829 25.1564 34.9315 25.1948 37.5247 24.9452C39.3958 24.766 45.15 23.5911 45.5013 26.6344C45.6617 28.0153 45.6635 29.4549 45.6189 30.9008C45.61 31.1424 45.6002 31.384 45.594 31.6256C45.5334 33.1044 45.4398 34.5807 45.4202 36.0016C45.3684 39.7332 45.3043 43.4638 45.298 47.1953C45.2971 47.5813 45.5655 47.8461 45.8837 47.9566C46.0156 48.1144 46.2198 48.2205 46.4961 48.2089C48.1087 48.1536 48.4769 50.3056 48.4537 52.576Z" fill="black"/>
<path d="M28.2477 34.1997C25.363 34.0223 22.4739 34.016 19.5848 34.0151C18.515 34.0151 18.515 35.6741 19.5848 35.6741C22.4748 35.6741 25.363 35.6812 28.2477 35.8586C29.3174 35.9237 29.3094 34.2647 28.2477 34.1997Z" fill="black"/>
<path d="M41.7038 34.1997H32.3028C31.2331 34.1997 31.2331 35.8587 32.3028 35.8587H41.7038C42.7736 35.8578 42.7736 34.1997 41.7038 34.1997Z" fill="black"/>
<path d="M28.0995 41.9116C28.53 41.7457 28.7966 41.3633 28.6789 40.8918C28.0032 38.1649 24.3652 38.9395 22.3497 39.1757C21.3005 39.2988 21.288 40.9595 22.3497 40.8347C23.0263 40.7554 24.6496 40.3738 25.8129 40.5102C25.6676 40.8499 25.7345 41.2528 26.1695 41.4587C26.9005 41.8055 27.2223 42.2485 28.0995 41.9116Z" fill="black"/>
<path d="M33.4098 39.1759C32.3401 39.191 32.3392 40.8491 33.4098 40.8348C34.0053 40.8268 36.4371 40.4881 38.0248 40.5968C37.8447 41.0185 37.9641 41.5738 38.5338 41.7272C39.2077 41.9081 39.7764 41.9081 40.4486 41.7272C40.9032 41.6059 41.1252 41.1468 41.0289 40.7074C40.4388 38.0161 35.2631 39.15 33.4098 39.1759Z" fill="black"/>
<path d="M28.3954 60.8983C30.5669 61.5544 32.6511 61.7229 34.1246 59.7786C34.7727 58.9255 33.3295 58.101 32.6921 58.9416C31.8818 60.0104 30.6257 59.8125 29.4972 59.4952C29.9527 53.7864 31.0358 48.1436 31.1044 42.4037C31.1178 41.3331 29.4588 41.334 29.4455 42.4037C29.3742 48.3469 28.2091 54.1822 27.7874 60.0996C27.7598 60.4695 28.0611 60.7949 28.3954 60.8983Z" fill="black"/>
<path d="M37.2456 63.1984C34.8922 65.8719 29.7798 62.9105 26.773 62.9551C25.7042 62.9729 25.7024 64.631 26.773 64.614C29.5373 64.5739 33.1325 66.4183 36.002 65.7943C35.887 66.0314 35.7676 66.2668 35.6419 66.5003C35.1302 67.4399 36.5627 68.2769 37.0735 67.3365C37.628 66.3194 38.0559 65.2487 38.5488 64.2031C38.9277 63.4017 37.9079 62.4452 37.2456 63.1984Z" fill="black"/>
<path d="M30.2754 77.334C29.3965 77.334 28.5202 77.3483 27.6582 77.5479C26.6179 77.7913 27.0591 79.3905 28.0994 79.1472C28.8135 78.9796 29.5462 78.9929 30.2745 78.9929C31.346 78.9938 31.346 77.334 30.2754 77.334Z" fill="black"/>
<path d="M0 99.9324L15.1085 113.899L15.1133 109.149L7.44646 100.403L16.8403 91.4471V162.35H21.6436L27.3133 119.525L34.2278 162.066H38.3612L38.458 91.8276L48.1547 100.048L39.7921 109.185V114.009L54.9792 99.9468L38.1034 83.7256H16.617L0 99.9324Z" fill="black"/>
<path d="M90.7885 37.0046C91.966 37.0046 91.7096 39.0511 92.8359 41.1488C93.9612 43.2456 95.6991 44.6017 99.4468 44.1146C103.194 43.6293 103.884 41.1992 103.884 41.1992C103.884 41.1992 105.112 37.5677 105.418 36.7738C105.726 35.9809 106.237 36.1347 106.237 36.0065L106.571 33.9353C106.571 33.9353 99.8177 32.1956 92.324 34.3181C92.324 34.3181 91.25 34.6248 90.7885 34.6248H89.9223C89.4617 34.6248 88.3876 34.3181 88.3876 34.3181C80.893 32.1956 74.1401 33.9353 74.1401 33.9353L74.4734 36.0065C74.4734 36.1347 74.9844 35.9809 75.2929 36.7738C75.5988 37.5668 76.8266 41.1992 76.8266 41.1992C76.8266 41.1992 77.517 43.6293 81.2639 44.1146C85.0107 44.6017 86.7495 43.2456 87.8749 41.1488C89.0002 39.0511 88.7447 37.0046 89.9223 37.0046H90.7885Z" fill="black"/>
<path fill-rule="evenodd" clip-rule="evenodd" d="M73.793 46.8173C73.641 46.8347 73.4972 46.9162 73.3571 46.7267C73.3058 46.6571 73.0797 46.7148 72.8792 46.7148C73.0357 46.6314 73.1657 46.5618 73.2701 46.5078C73.4514 46.614 73.6227 46.7157 73.793 46.8173Z" fill="black"/>
<path d="M106.543 46.1632L106.536 46.1611L106.537 46.1693L106.543 46.1632Z" fill="black"/>
<path d="M71.2603 59.5518C71.3527 59.723 71.4452 59.8951 71.5441 60.0773C71.4452 59.896 71.3537 59.723 71.2603 59.5518Z" fill="black"/>
<path d="M73.7883 46.7993C73.7911 46.8048 73.7911 46.8103 73.7929 46.8167C73.7911 46.8094 73.7911 46.8039 73.7883 46.7993Z" fill="black"/>
<path d="M73.921 45.3533C73.8441 45.3341 73.7873 45.2443 73.6729 45.064C73.7864 45.2453 73.8441 45.335 73.921 45.3533Z" fill="black"/>
<path d="M73.793 46.8164L73.794 46.8174L73.793 46.8154V46.8164Z" fill="black"/>
<path fill-rule="evenodd" clip-rule="evenodd" d="M105.569 42.6833C105.602 42.9058 105.623 43.0367 105.642 43.1677C105.669 43.1695 105.699 43.1704 105.727 43.1713C105.763 42.9983 105.798 42.8243 105.833 42.6494C105.857 42.6503 105.882 42.6522 105.905 42.654C105.896 42.8133 105.925 42.9873 105.871 43.1292C105.817 43.2638 105.677 43.3664 105.516 43.5486C105.536 43.2409 105.549 43.0084 105.569 42.6833Z" fill="black"/>
<path fill-rule="evenodd" clip-rule="evenodd" d="M107.009 46.7852C106.811 46.6598 106.612 46.5362 106.416 46.4117C106.459 46.3283 106.5 46.245 106.542 46.1626L106.537 46.1681C106.693 46.3741 106.852 46.5792 107.009 46.7852Z" fill="black"/>
<path d="M88.3336 77.7599L88.3235 77.748C88.3207 77.748 88.3189 77.749 88.3162 77.7499C88.3207 77.7526 88.3281 77.7554 88.3336 77.7599Z" fill="black"/>
<path d="M92.9118 78.1562C92.8941 78.1647 92.8745 78.1787 92.8679 78.1731C92.8735 78.1787 92.8941 78.1647 92.9118 78.1562Z" fill="black"/>
<path d="M77.0975 73.3502C77.0956 73.3417 77.0956 73.3322 77.0956 73.3228C77.0946 73.3322 77.0956 73.3417 77.0975 73.3502Z" fill="black"/>
<path d="M73.2656 70.8642C73.2491 70.8578 73.2327 70.8505 73.218 70.8413C73.2336 70.8505 73.2501 70.8578 73.2656 70.8642Z" fill="black"/>
<path d="M73.2077 70.8346C73.1955 70.8271 73.1851 70.8205 73.1738 70.813C73.1851 70.8196 73.1955 70.8262 73.2077 70.8346Z" fill="black"/>
<path d="M77.2765 73.7319C77.269 73.7459 77.2597 73.7599 77.2476 73.7739C77.2606 73.759 77.27 73.745 77.2765 73.7319Z" fill="black"/>
<path d="M77.1077 73.2721C77.1124 73.2626 77.1181 73.2541 77.1247 73.2446C77.1171 73.2541 77.1124 73.2626 77.1077 73.2721Z" fill="black"/>
<path d="M77.0957 73.3117C77.0967 73.3032 77.0985 73.2937 77.1023 73.2852C77.0976 73.2937 77.0967 73.3022 77.0957 73.3117Z" fill="black"/>
<path d="M105.326 73.9059C105.327 73.8946 105.328 73.8834 105.329 73.8721C105.326 73.8805 105.321 73.8899 105.316 73.8984L105.326 73.9059Z" fill="black"/>
<path d="M77.1819 73.1863C77.2011 73.1708 77.2231 73.1561 77.2487 73.1396C77.2231 73.1561 77.2011 73.1717 77.1819 73.1863Z" fill="black"/>
<path d="M91.6722 77.7013C91.6703 77.6928 91.6693 77.6843 91.6665 77.6758C91.6684 77.6843 91.6693 77.6918 91.6722 77.7013Z" fill="black"/>
<path d="M102.778 74.8794L102.771 74.8844V74.8864L102.778 74.8794Z" fill="black"/>
<path d="M91.4336 78.2368L91.4355 78.2349L91.4238 78.23V78.2319L91.4336 78.2368Z" fill="black"/>
<path d="M91.5356 77.8387C91.5997 77.8516 91.6373 77.8461 91.6583 77.8296C91.6373 77.847 91.5997 77.8516 91.5356 77.8387Z" fill="black"/>
<path d="M112.775 66.6699C112.77 66.6699 112.764 66.6709 112.759 66.6728C112.764 66.6718 112.77 66.6709 112.775 66.6699Z" fill="black"/>
<path d="M77.2915 73.6942C77.3519 73.5834 77.4087 73.4827 77.4636 73.3838C77.4096 73.4818 77.3519 73.5843 77.2915 73.6942Z" fill="black"/>
<path d="M72.8407 70.1694C72.7391 70.2656 72.6402 70.3599 72.5422 70.4533L72.5441 70.4524C72.6411 70.359 72.74 70.2656 72.8407 70.1694Z" fill="black"/>
<path d="M101.34 75.8643H101.343V75.876H101.34V75.8643Z" fill="black"/>
<path d="M105.316 73.8976C105.321 73.8891 105.326 73.8796 105.329 73.8711C105.326 73.8796 105.322 73.8881 105.316 73.8976Z" fill="black"/>
<path d="M112.759 66.6737C112.762 66.6747 112.764 66.6766 112.767 66.6776L112.775 66.6699C112.77 66.6709 112.764 66.6718 112.759 66.6737Z" fill="black"/>
<path d="M72.5429 70.4531L72.5359 70.4551L72.5399 70.4571L72.5429 70.4531Z" fill="black"/>
<path d="M91.4238 78.2314L91.4276 78.2399L91.4332 78.2361L91.4238 78.2314Z" fill="black"/>
<path d="M77.2485 73.7731C77.2604 73.7584 77.2696 73.7447 77.2769 73.7319C77.2842 73.7191 77.2888 73.7062 77.2925 73.6943C77.276 73.7209 77.2632 73.7456 77.2485 73.7731Z" fill="black"/>
<path fill-rule="evenodd" clip-rule="evenodd" d="M88.3281 77.3552C88.4416 77.3397 88.5534 77.3232 88.666 77.3076C88.6394 77.3891 88.6138 77.4697 88.579 77.5796C88.601 77.5796 88.5598 77.5796 88.5076 77.5796C88.5387 77.7224 88.5671 77.8561 88.5891 77.9559C88.5131 77.8964 88.4188 77.8222 88.3235 77.7471L88.3336 77.759C88.3565 77.6986 88.3785 77.6409 88.4014 77.5805C88.1358 77.5851 88.3849 77.4193 88.3281 77.3552Z" fill="black"/>
<path fill-rule="evenodd" clip-rule="evenodd" d="M101.339 75.8735C101.381 75.8744 101.45 75.8597 101.458 75.8771C101.566 76.0914 101.774 76.1289 101.972 76.1985C102.018 76.215 102.033 76.3176 102.073 76.4009C101.945 76.3753 101.852 76.3551 101.689 76.3221C101.612 76.2187 101.479 76.042 101.347 75.8652L101.339 75.8735Z" fill="black"/>
<path fill-rule="evenodd" clip-rule="evenodd" d="M73.1741 71.5163C73.1439 71.2251 72.9672 71.1162 72.7017 71.1235C72.7777 70.9422 72.7777 70.9422 73.002 71.0273C73.2163 71.1088 73.2849 71.2691 73.1741 71.5163Z" fill="black"/>
<path fill-rule="evenodd" clip-rule="evenodd" d="M112.767 66.6773C112.863 66.7442 112.958 66.8119 113.101 66.9126C112.967 66.974 112.869 67.0189 112.752 67.071C112.772 67.1525 112.797 67.2514 112.822 67.3494C112.677 67.3027 112.677 67.3027 112.776 66.67L112.767 66.6773Z" fill="black"/>
<path fill-rule="evenodd" clip-rule="evenodd" d="M91.4273 78.2394C91.5198 78.3126 91.506 78.5589 91.7414 78.4097C91.7331 78.5351 91.7249 78.6496 91.7176 78.7622C91.6938 78.7695 91.669 78.775 91.6443 78.7824C91.5381 78.6166 91.3183 78.5068 91.4328 78.2339C91.4346 78.2339 91.4273 78.2394 91.4273 78.2394Z" fill="black"/>
<path fill-rule="evenodd" clip-rule="evenodd" d="M92.5859 78.0161C92.7151 78.2313 92.8414 78.4446 92.9696 78.6589C92.7892 78.4803 92.4285 78.4227 92.5859 78.0161Z" fill="black"/>
<path fill-rule="evenodd" clip-rule="evenodd" d="M112.278 68.2646C112.379 68.4432 112.482 68.6218 112.55 68.7408C112.229 68.662 112.211 68.6456 112.187 68.3562C112.217 68.3251 112.247 68.2949 112.278 68.2646Z" fill="black"/>
<path fill-rule="evenodd" clip-rule="evenodd" d="M105.316 73.8969C105.351 73.9464 105.385 73.9958 105.419 74.0462C105.411 74.0608 105.402 74.0755 105.395 74.0892C105.242 73.994 105.091 73.8987 104.939 73.8035C104.954 73.7532 104.999 73.6799 104.981 73.6543C104.897 73.5416 104.898 73.4766 105.05 73.4528L105.039 73.4482C105.134 73.6002 105.229 73.7532 105.324 73.9052L105.316 73.8969Z" fill="black"/>
<path fill-rule="evenodd" clip-rule="evenodd" d="M72.5358 70.455C72.5184 70.5786 72.501 70.7022 72.4818 70.8249C72.468 70.8185 72.4534 70.813 72.4397 70.8075C72.3747 70.5529 72.3106 70.2993 72.2483 70.0447C72.2776 70.0392 72.3069 70.0328 72.3371 70.0273C72.3627 70.1638 72.3829 70.302 72.4177 70.4357C72.4213 70.4522 72.4973 70.4513 72.5395 70.4577L72.5358 70.455Z" fill="black"/>
<path d="M72.5898 68.6521C72.566 68.5678 72.5394 68.4763 72.5138 68.3847C72.4909 68.3883 72.4689 68.392 72.446 68.3966C72.4909 68.3078 72.5376 68.2199 72.6154 68.0679C72.5834 68.3078 72.9057 68.4827 72.5898 68.6521Z" fill="black"/>
<path d="M75.4996 72.1095C75.3989 72.093 75.3064 72.0774 75.1892 72.0591C75.3375 71.9447 75.4667 71.8439 75.5948 71.7441C75.6132 71.7597 75.6306 71.7744 75.6479 71.789C75.6013 71.8934 75.5536 71.9969 75.4996 72.1095Z" fill="black"/>
<path d="M75.3909 71.4236C75.4788 71.2331 75.5539 71.0702 75.6372 70.8916C75.7297 70.9108 75.8166 70.9282 75.9036 70.9447C75.8652 71.2121 75.6811 71.3998 75.3909 71.4236Z" fill="black"/>
<path d="M76.897 71.7787C76.8265 71.8702 76.7478 71.9536 76.6718 72.0415C76.6516 71.9426 76.6141 71.8437 76.6168 71.7457C76.6196 71.6523 76.6626 71.5598 76.6892 71.4683C76.7139 71.4747 76.7386 71.4811 76.7633 71.4875C76.7304 71.5836 76.6965 71.6789 76.6635 71.775C76.6956 71.8025 76.7276 71.8299 76.7597 71.8565C76.7872 71.7723 76.8155 71.6871 76.843 71.6019C76.8705 71.623 76.8979 71.6441 76.9254 71.6651C76.9172 71.7036 76.919 71.7503 76.897 71.7787Z" fill="black"/>
<path d="M80.6612 75.3892C80.5834 75.3736 80.4945 75.3572 80.4021 75.3388C80.2812 75.0083 80.5843 75.1392 80.6804 75.0449C80.6969 75.0614 80.7134 75.0779 80.729 75.0935C80.7051 75.1951 80.6832 75.2958 80.6612 75.3892Z" fill="black"/>
<path d="M81.7298 75.9671C81.6245 75.6558 81.554 75.3783 81.9423 75.2153C81.8892 75.3206 81.8415 75.4177 81.7921 75.5157C81.9679 75.6054 81.9642 75.7162 81.7298 75.9671Z" fill="black"/>
<path d="M83.2115 76.0834C83.0393 75.9643 82.9981 75.7812 83.0512 75.5953C83.0833 75.48 83.4074 75.4845 83.4962 75.5679C83.4019 75.7382 83.3113 75.9021 83.2115 76.0834Z" fill="black"/>
<path d="M84.2826 76.2403C84.2487 76.2183 84.2139 76.1963 84.1782 76.1744C84.2002 76.0599 84.2213 75.9473 84.2423 75.8374C84.3485 75.874 84.4245 75.9006 84.5747 75.9528C84.4612 76.0645 84.3723 76.1524 84.2826 76.2403Z" fill="black"/>
<path d="M89.9238 77.3808C89.9376 77.3588 89.9504 77.3369 89.9641 77.314C90.1234 77.4138 90.2828 77.5136 90.4604 77.6262C90.0996 77.8267 90.107 77.4412 89.9238 77.3808Z" fill="black"/>
<path d="M92.5537 77.272C92.6068 77.2033 92.648 77.0999 92.7167 77.076C92.7735 77.0577 92.8623 77.1337 92.9365 77.1676C92.9236 77.1951 92.9108 77.2225 92.8971 77.2491C92.8385 77.2464 92.778 77.2427 92.7194 77.2409C92.7167 77.2546 92.7139 77.2692 92.7103 77.283C92.7698 77.2986 92.8403 77.3004 92.887 77.3333C92.9355 77.3681 92.963 77.4322 92.9612 77.5412C92.8266 77.4524 92.6892 77.3617 92.5537 77.272Z" fill="black"/>
<path d="M94.9243 77.779C95.0195 77.6179 95.0708 77.5327 95.1276 77.4375C95.2246 77.5272 95.3226 77.617 95.4737 77.7534C95.2622 77.7635 95.1239 77.7699 94.9243 77.779Z" fill="black"/>
<path d="M99.281 76.4232C99.2462 76.2575 99.226 76.1604 99.2004 76.034C99.1555 76.1064 99.1225 76.1567 99.0905 76.2071C98.9074 75.904 98.9687 75.7841 99.3881 75.7163C99.3057 75.8042 99.2535 75.8601 99.2004 75.9159C99.5035 75.9654 99.5309 76.0542 99.281 76.4232Z" fill="black"/>
<path d="M99.5583 76.4002C99.6115 76.0742 99.6664 75.7473 99.7204 75.4204C99.7451 75.4232 99.7699 75.4268 99.7946 75.4296C99.8202 75.7711 99.8981 76.1218 99.5583 76.4002Z" fill="black"/>
<path d="M101.838 75.4682C101.785 75.406 101.747 75.3409 101.691 75.3016C101.643 75.2677 101.572 75.2631 101.513 75.2448C101.529 75.2155 101.55 75.1569 101.562 75.1587C101.649 75.1716 101.741 75.1825 101.819 75.2201C101.882 75.2494 101.929 75.3144 101.995 75.3748C101.941 75.4078 101.887 75.4408 101.838 75.4682Z" fill="black"/>
<path d="M106.202 72.4138C106.105 72.3104 106.029 72.2307 105.94 72.1355C105.989 72.1446 106.019 72.151 106.069 72.1602C106.038 72.0613 106.007 71.9679 105.977 71.8754C106.01 71.8489 106.041 71.8205 106.074 71.7939C106.119 71.9633 106.168 72.1327 106.213 72.304C106.274 72.2618 106.333 72.2216 106.392 72.1794C106.333 72.2527 106.272 72.3259 106.202 72.4138Z" fill="black"/>
<path d="M110.148 69.9648C110.034 69.8815 109.923 69.7981 109.781 69.6947C109.869 69.6333 109.932 69.5912 110.038 69.5161C110.116 69.6745 110.173 69.7954 110.232 69.9144C110.205 69.9318 110.175 69.9483 110.148 69.9648Z" fill="black"/>
<path d="M111.621 66.9333C111.138 66.9599 111.138 66.9599 111.162 66.7026C110.992 66.6669 110.822 66.6321 110.65 66.5954C110.653 66.5716 110.659 66.546 110.663 66.5213C110.759 66.5332 110.854 66.5442 110.955 66.557C110.933 66.4947 110.912 66.4416 110.866 66.3125C111.15 66.5469 111.373 66.7282 111.621 66.9333Z" fill="black"/>
<path fill-rule="evenodd" clip-rule="evenodd" d="M88.3343 77.3662C88.2482 77.3662 88.1631 77.3662 88.1264 77.3662C88.0742 77.456 88.033 77.5237 87.9918 77.5915C87.9699 77.4596 87.946 77.3278 87.9241 77.1996C88.0166 77.195 88.1576 77.1849 88.3251 77.1758C88.3279 77.2316 88.3315 77.2994 88.3343 77.3662Z" fill="black"/>
<path d="M113.252 66.047C113.296 66.0607 113.362 66.0103 113.462 65.9746C112.945 65.7998 112.42 65.8336 112.151 65.3383C112.213 65.3108 112.266 65.2879 112.279 65.2824C112.199 65.2101 112.111 65.1322 112.013 65.0453C111.974 65.1103 111.926 65.2 111.867 65.2833C111.821 65.3502 111.761 65.4106 111.746 65.4289C111.588 65.0187 111.443 64.6415 111.295 64.2523C111.29 64.256 111.331 64.2294 111.359 64.2102C111.281 64.179 111.204 64.1488 111.127 64.1177C111.136 64.0948 111.144 64.071 111.152 64.0481C111.233 64.0701 111.313 64.0921 111.401 64.1168L111.36 64.0206L111.621 63.6562L111.982 63.5802C111.966 63.5463 111.966 63.485 111.987 63.4612C112.1 63.3339 112.224 63.2167 112.34 63.094C112.403 63.0272 112.479 62.9649 112.519 62.8862C112.664 62.605 112.232 62.4952 112.314 62.2269C111.943 62.0758 111.86 61.8277 112.081 61.4989C111.954 61.4449 111.846 61.3982 111.757 61.3598C111.804 61.4605 111.848 61.5548 111.891 61.6491C111.681 61.7269 111.828 61.8533 111.874 61.9256C112.008 62.139 111.968 62.3185 111.75 62.5822C111.69 62.4283 111.61 62.3221 111.617 62.2241C111.638 61.9632 111.431 61.5713 111.193 61.4559C111.118 61.4211 111.026 61.3378 111.02 61.27C111.01 61.1556 111.064 61.0347 111.095 60.8974C110.665 61.0246 110.701 60.587 110.53 60.3672C110.551 60.3407 110.574 60.3159 110.596 60.2894C110.697 60.3764 110.801 60.4624 110.903 60.5503C110.871 60.413 110.786 60.3095 110.71 60.2024C110.665 60.1392 110.634 60.0687 110.597 60.0009C110.596 60.0009 110.596 60.0009 110.596 60.0009C110.594 60.0009 110.594 60.0019 110.592 60.0028C110.594 60.0028 110.594 60.0019 110.595 60.0009C110.509 59.9661 110.417 59.9405 110.343 59.8883C110.327 59.8782 110.383 59.7116 110.405 59.7116C110.563 59.7116 110.722 59.7363 110.884 59.827C110.788 59.8847 110.692 59.9433 110.595 60.0009C110.596 60.0009 110.596 60.0009 110.596 60.0009C110.793 59.9039 110.991 59.8068 111.128 59.7391C110.976 59.5907 110.867 59.4854 110.701 59.3234C110.899 59.2776 111.041 59.2455 111.236 59.2007C111.076 59.1585 110.97 59.1292 110.889 59.1082C110.889 58.9599 110.889 58.8262 110.889 58.687C110.953 58.7145 111.021 58.7428 111.088 58.7712C111.056 58.8628 111.031 58.9333 111 59.0221C111.156 58.9699 111.156 58.9699 111.134 58.4224C111.04 58.3766 110.967 58.3418 110.894 58.3061C110.94 58.2145 110.986 58.1239 111.043 58.0048C110.888 57.8794 110.549 57.8144 110.607 57.4527C110.717 57.4307 110.819 57.4097 110.847 57.4042C110.878 57.1313 110.904 56.9207 110.933 56.6652C110.538 56.5572 110.064 56.4272 109.589 56.2981C109.59 56.2633 109.591 56.2294 109.591 56.1946C109.718 56.147 109.843 56.0994 110.012 56.0353C109.909 55.9034 109.8 55.7761 109.7 55.6406C109.525 55.4026 109.528 55.3998 109.651 55.1691C109.694 55.268 109.732 55.3568 109.77 55.4456C109.803 55.4145 109.837 55.3833 109.871 55.3504C109.8 55.1343 110.091 54.7012 109.541 54.8046C109.488 54.6307 109.428 54.4842 109.405 54.3331C109.394 54.2671 109.461 54.1893 109.49 54.1179C109.522 54.1738 109.552 54.2296 109.584 54.2855C109.628 54.3633 109.673 54.4411 109.726 54.5382C109.726 54.1564 109.726 53.802 109.726 53.422C109.817 53.4605 109.912 53.4989 110.088 53.5694C109.992 53.4788 109.948 53.4541 109.926 53.4156C109.789 53.172 109.655 52.9266 109.523 52.6812C109.519 52.6748 109.525 52.662 109.529 52.6464C109.586 52.6327 109.644 52.619 109.702 52.6062C109.638 52.4249 109.579 52.2665 109.523 52.1071C109.619 52.0549 109.707 52.0064 109.819 51.9451C109.724 51.8343 109.637 51.7326 109.565 51.6493C109.622 51.5971 109.683 51.5413 109.742 51.4854C109.685 51.4341 109.638 51.3673 109.571 51.3325C109.431 51.2592 109.281 51.2025 109.141 51.142C109.161 51.0029 109.176 50.8948 109.183 50.8527C108.939 50.6915 108.738 50.5579 108.512 50.4095C108.508 50.3738 108.498 50.2932 108.492 50.2328C108.603 50.1769 108.707 50.1257 108.812 50.0744C108.812 50.0744 108.812 50.0744 108.81 50.0744C108.512 49.5635 108.19 49.0773 107.612 48.8383C107.611 48.8383 107.609 48.8373 107.607 48.8364C107.608 48.8373 107.609 48.8392 107.609 48.841C107.604 48.8401 107.6 48.8383 107.597 48.8373C107.506 49.0122 107.76 49.33 107.343 49.3721C107.303 49.0809 106.718 49.3703 106.83 48.8914C106.914 48.9408 107.019 49.0031 107.123 49.0644C107.144 49.026 107.167 48.9875 107.189 48.9491C107.011 48.8346 106.83 48.7201 106.652 48.6057C106.664 48.5855 106.675 48.5663 106.686 48.5471C106.989 48.6441 107.293 48.7403 107.597 48.8373C107.597 48.8355 107.596 48.8346 107.598 48.8328C107.6 48.8337 107.603 48.8346 107.606 48.8364C107.596 48.8007 107.587 48.765 107.569 48.7092C107.741 48.7852 107.893 48.8529 108.047 48.9198C107.915 48.689 107.533 48.6689 107.6 48.255C107.684 48.3804 107.729 48.5013 107.814 48.5645C108.016 48.7137 108.02 48.5782 107.987 48.4253C108.081 48.4253 108.177 48.4253 108.272 48.4253C108.272 48.4253 108.273 48.4253 108.273 48.4253C108.273 48.4253 108.273 48.4262 108.272 48.4253C108.271 48.4253 108.27 48.4244 108.27 48.4244C108.184 48.3008 108.098 48.1781 108.011 48.0545C108.011 48.0545 108.018 48.0526 108.019 48.0526C107.968 48.0407 107.903 48.0407 107.858 48.0224C107.841 48.0169 107.829 48.0087 107.821 47.9986C107.654 47.7981 107.503 47.5838 107.338 47.3622C107.404 47.3256 107.475 47.289 107.611 47.2148C107.29 47.1617 107.027 47.1196 107.004 46.7881C106.807 46.6627 106.607 46.5391 106.411 46.4145C106.375 46.4393 106.34 46.4649 106.308 46.4869C106.175 46.334 106.042 46.1811 105.902 46.0217C106.128 46.073 106.33 46.1188 106.532 46.1637C106.518 46.0721 106.505 45.9796 106.49 45.8807C106.598 45.8679 106.676 45.8606 106.752 45.8514C106.45 45.6134 106.155 45.3808 105.859 45.1473C105.878 45.118 105.896 45.0887 105.916 45.0585C106.018 45.0768 106.122 45.096 106.241 45.1171C106.163 45.0255 106.1 44.9532 105.991 44.8268C106.274 44.9449 106.689 44.857 107.053 44.6455C106.975 44.6254 106.906 44.6052 106.77 44.5695C107.342 44.5018 107.622 44.1016 107.394 43.7436C107.325 43.8516 107.275 43.9707 107.189 44.0513C107.038 44.1923 106.882 44.3626 106.697 44.4239C106.277 44.5604 106.03 44.1547 105.689 44.032C105.666 44.0238 105.652 43.9835 105.638 43.956C105.559 43.7985 105.48 43.641 105.407 43.4808C105.378 43.4149 105.351 43.3416 105.349 43.2711C105.342 43.0166 105.346 42.7629 105.346 42.5084C105.307 42.5102 105.269 42.5102 105.23 42.5111C105.23 42.8197 105.23 43.1292 105.23 43.4378C105.212 43.4405 105.194 43.4442 105.176 43.4488C105.146 43.3874 105.115 43.327 105.085 43.2665C105.192 43.6758 104.873 43.9762 104.829 44.3415C104.783 44.7059 104.719 45.0667 104.654 45.4971C104.549 45.3863 104.522 45.357 104.481 45.3121C104.555 45.5602 104.622 45.7855 104.676 45.9631C104.62 46.0602 104.582 46.2085 104.525 46.2168C104.202 46.257 104.308 46.7442 103.959 46.7378C103.967 46.7964 103.963 46.8623 103.987 46.9136C104.026 46.9923 104.084 47.0628 104.125 47.1214C104.094 47.2304 103.85 47.1956 104.037 47.4025C104.202 47.5857 104.012 47.9144 103.772 47.9638C103.853 48.2367 103.933 48.5095 104.015 48.7833C103.996 48.7888 103.975 48.7952 103.956 48.7998C103.857 48.5801 103.758 48.3594 103.659 48.136C103.579 48.136 103.498 48.136 103.397 48.136C103.459 48.4042 103.519 48.6661 103.579 48.9262C103.654 48.917 103.714 48.9097 103.778 48.9014C103.757 48.9692 103.757 49.058 103.712 49.1001C103.518 49.2796 103.54 49.4435 103.705 49.6257C103.757 49.6825 103.767 49.7768 103.795 49.8537C103.521 49.5928 103.052 49.4133 103.375 48.841C103.24 48.8721 103.112 48.9005 103.011 48.9225C102.935 48.8254 102.854 48.7211 102.726 48.5562C102.682 48.9875 102.763 49.2357 103.153 49.3043C103.084 49.3217 103.015 49.3382 102.953 49.3538C102.953 49.5003 102.953 49.6358 102.953 49.84C102.833 49.7063 102.756 49.6202 102.68 49.5351C102.628 49.6541 102.648 49.7677 102.648 49.8812C102.649 49.9563 102.645 50.0506 102.602 50.0991C102.575 50.1293 102.463 50.1092 102.403 50.0808C102.301 50.0304 102.208 49.9572 102.072 49.8675C102.124 50.046 102.157 50.1595 102.19 50.2722C102.161 50.2813 102.133 50.2887 102.106 50.2978C102.059 50.2346 102.013 50.1714 101.946 50.0826C101.882 50.2548 101.832 50.3875 101.788 50.502C101.646 50.4242 101.499 50.3436 101.332 50.2511C101.394 50.5624 101.394 50.5624 101.245 50.621C101.333 50.8216 101.421 51.0221 101.51 51.2235C101.488 51.2354 101.467 51.2473 101.446 51.2592C101.413 51.2125 101.381 51.1649 101.322 51.0816C101.322 51.1759 101.322 51.2309 101.322 51.2858C101.303 51.2922 101.282 51.2995 101.262 51.3059C101.229 51.2428 101.199 51.1787 101.167 51.1155C101.096 51.1539 101.025 51.1933 100.945 51.2373C100.856 51.0551 100.77 50.8728 100.648 50.6192C100.617 50.7767 100.607 50.8316 100.579 50.98C100.255 50.1403 99.659 49.6184 99.1115 49.0553C98.8358 49.2274 98.813 48.9307 98.7122 48.7668C98.6884 48.7861 98.6628 48.8044 98.6381 48.8227C98.7022 48.9426 98.7672 49.0626 98.8716 49.2549C98.6536 49.091 98.5026 48.9756 98.3213 48.8392C98.3057 49.0168 98.2938 49.1743 98.2773 49.3721C97.8735 49.1175 97.5118 48.8905 97.1327 48.6524C97.0796 49.0296 97.4239 49.1267 97.5393 49.3822C97.4514 49.3336 97.3662 49.2851 97.2792 49.2366C97.3635 49.4481 97.4431 49.6477 97.5219 49.8473C97.4019 49.7951 97.3571 49.6715 97.2893 49.6578C97.0943 49.6166 97.0778 49.4691 97.0439 49.3281C96.9679 49.0058 96.9276 48.9903 96.6493 49.2054C96.5815 49.1487 96.5128 49.091 96.4433 49.0333C96.4405 49.0553 96.4387 49.0773 96.4359 49.0992C96.283 49.0992 96.1292 49.0992 95.957 49.0992C95.9076 49.3291 95.7162 49.1963 95.6512 49.0974C95.5093 48.885 95.3106 48.9729 95.1394 48.9509C94.9901 48.9326 94.8326 48.9738 94.6193 48.9958C94.4481 49.0534 94.2091 49.1368 93.9097 49.2384C94.025 49.3007 94.0717 49.3263 94.1688 49.3785C93.9875 49.3886 93.8565 49.3941 93.7274 49.4032C93.5507 49.417 93.3722 49.4353 93.1936 49.4518C92.8924 49.417 92.592 49.3831 92.2459 49.3428C92.3466 49.5397 92.429 49.7008 92.5105 49.862C92.332 49.7942 92.1516 49.7264 91.9785 49.6614C91.9648 49.8198 91.9538 49.9508 91.9419 50.0881C91.7817 50.0094 91.6205 49.9022 91.6196 50.1522C91.4392 50.2923 91.2827 50.415 91.1178 50.5423C91.2002 50.6128 91.29 50.6897 91.4118 50.7913C91.1783 50.8005 90.9549 50.6055 90.8331 50.9369C90.725 50.8206 90.6234 50.7108 90.541 50.621C90.4082 50.6778 90.2736 50.7355 90.139 50.7932C90.1582 50.8023 90.1756 50.8115 90.1949 50.8206C90.1381 50.8994 90.0813 50.9763 90.0328 51.0431C89.9101 50.8948 89.8112 50.6696 89.7022 50.665C89.5475 50.6595 89.3854 50.8161 89.1996 50.9177C89.2765 50.8161 89.3342 50.7373 89.3937 50.6595C89.369 50.6595 89.3442 50.6595 89.3204 50.6595C89.281 50.4516 89.2417 50.2429 89.2014 50.0295C89.2582 49.992 89.3213 49.9508 89.3854 49.9087C89.3799 49.8958 89.3726 49.8839 89.3662 49.8702C89.1977 49.9306 89.0311 49.9911 88.8562 50.0533C88.8818 49.6037 88.6859 49.4353 88.3269 49.569C88.3059 49.2622 88.0028 48.9097 88.5266 48.6789C88.4908 48.6579 88.4551 48.6368 88.4194 48.6158C88.0184 48.8639 87.6173 49.113 87.2337 49.351C87.1787 49.0141 86.9086 49.1194 86.7474 49.102C86.5689 49.0818 86.3803 49.1523 86.2585 49.1725C86.4022 48.9958 86.5753 48.7824 86.7621 48.5498C85.9398 48.7705 85.1322 48.9875 84.3237 49.2045C84.3017 49.1871 84.2789 49.1706 84.256 49.1532C84.3127 49.0562 84.3668 48.96 84.4226 48.8648C84.1873 48.4143 83.6526 48.3539 83.3037 48.5434C83.0382 48.689 82.7616 48.8547 82.5638 49.0772C82.096 49.6028 81.6729 50.1687 81.2316 50.7172C81.1776 50.784 81.1125 50.8417 81.0549 50.9049C81.0393 50.8884 81.0246 50.8747 81.01 50.86C81.0924 50.6741 81.1766 50.4864 81.2609 50.3006C81.2279 50.2877 81.1968 50.2749 81.1647 50.2621C81.0292 50.5267 80.8928 50.7913 80.7582 51.056L80.7646 51.0514C80.7655 51.0514 80.7664 51.0505 80.7664 51.0505C80.7655 51.0523 80.7646 51.0551 80.7646 51.0578C80.8406 51.0743 80.9175 51.0908 80.9944 51.1072C80.966 51.1979 80.9404 51.2895 80.9074 51.3774C80.8681 51.4817 80.8205 51.5834 80.7774 51.685C80.7124 51.6392 80.6483 51.5935 80.5833 51.5477C80.6428 51.3847 80.7032 51.2217 80.7637 51.0587C80.7609 51.0578 80.7591 51.0578 80.7573 51.0578C80.5961 51.1878 80.4331 51.3178 80.1996 51.5092C80.2564 51.1402 80.3013 50.8435 80.3397 50.5917C80.2189 50.7227 80.0751 50.8774 79.9304 51.034C79.9085 51.0193 79.8847 51.0056 79.8627 50.9919C79.8856 50.8582 79.9103 50.7263 79.9341 50.5936C79.9533 50.589 79.9744 50.5853 79.9945 50.5798C80.011 50.6302 80.0284 50.6806 80.0458 50.7309C80.0687 50.687 80.0943 50.6421 80.1172 50.5972C80.0458 50.5835 79.9185 50.5414 79.9103 50.5588C79.827 50.7291 79.7436 50.904 79.7006 51.088C79.6686 51.2226 79.6942 51.3719 79.6942 51.5138C79.6585 51.512 79.6228 51.512 79.588 51.5101C79.588 51.2721 79.588 51.0331 79.588 50.7813C79.512 50.7968 79.4296 50.8133 79.3398 50.8316C79.3801 50.6741 79.4168 50.534 79.4516 50.393C79.4149 50.3811 79.3792 50.3701 79.3417 50.3592C79.2785 50.5377 79.2153 50.7181 79.1531 50.8966C79.1027 50.7401 79.1146 50.5917 79.1494 50.448C79.186 50.2996 79.2465 50.1577 79.2959 50.0121C79.1732 50.1211 79.0761 50.2511 79.0322 50.3976C78.9892 50.5423 79.0011 50.7034 78.9892 50.8426C78.8353 50.7721 78.7218 50.7199 78.6897 50.7053C78.7264 50.4791 78.7575 50.2768 78.7831 50.1193C78.5945 50.1898 78.4425 50.2465 78.2905 50.3042C78.2676 50.2099 78.2438 50.1174 78.2209 50.0231C78.1861 50.0295 78.1504 50.0369 78.1156 50.0433C78.112 49.7896 78.0872 49.5397 78.0772 49.2613C78.0048 49.3904 77.9334 49.5186 77.8766 49.6193C77.7576 49.6193 77.6587 49.6193 77.5589 49.6193C77.9975 49.8043 77.4847 49.9654 77.5324 50.1248C77.5131 50.0323 77.4948 49.9398 77.4756 49.8482C77.4417 49.8913 77.4115 49.9316 77.3794 49.9737C77.3428 49.8574 77.3401 49.7026 77.2815 49.677C76.8676 49.5012 76.9207 49.0589 76.7797 48.7504C76.6799 48.5297 76.6249 48.3402 76.461 48.2825C76.2697 47.5976 76.092 46.9648 75.9052 46.3028C75.8915 46.4493 75.8814 46.5693 75.8705 46.6883C75.8503 46.6883 75.8292 46.6883 75.81 46.6874C75.7212 46.1142 75.636 45.541 75.5546 45.0136C75.4135 44.9431 75.2799 44.8763 75.1471 44.8094C75.1773 44.7902 75.2075 44.771 75.2387 44.7517C75.2194 44.662 75.2148 44.5668 75.1791 44.4844C75.0931 44.2802 74.9795 44.086 74.9008 43.8791C74.8339 43.7006 74.8321 43.4927 74.746 43.327C74.5766 43.0028 74.6215 42.6741 74.6023 42.2685C74.8065 42.4626 74.9511 42.599 75.1178 42.7574C74.9832 42.4727 74.8623 42.2071 74.7259 41.9498C74.7067 41.9132 74.6178 41.9141 74.5428 41.8931C74.4631 42.0652 74.3294 42.2264 74.3294 42.3875C74.3294 42.6567 74.3816 42.9387 74.4723 43.1915C74.6453 43.6713 74.6618 43.6749 74.323 43.9157C74.4027 44.3736 74.4759 44.7966 74.5501 45.2205C74.4246 45.2205 74.3422 45.1967 74.2882 45.2251C74.2397 45.2508 74.1966 45.2736 74.1591 45.292C74.0465 45.3487 73.9787 45.3744 73.9201 45.3606C73.8432 45.3414 73.7864 45.2517 73.672 45.0713C73.6289 45.107 73.5877 45.1418 73.5328 45.1885C73.5163 45.0869 73.5062 45.0145 73.4907 44.9147C73.1684 45.4659 73.1931 45.7388 73.4907 46.0474C73.183 46.2644 73.4742 46.2653 73.585 46.3019C73.585 46.4008 73.585 46.4731 73.585 46.4924C73.737 46.3907 73.9 46.2809 74.063 46.171C74.0831 46.1975 74.1051 46.225 74.1252 46.2525C73.9915 46.4255 73.6875 46.5043 73.7874 46.8055C73.7901 46.811 73.7901 46.8165 73.7919 46.8229C73.8414 46.768 73.8908 46.7121 73.9412 46.6572C74.0218 46.5665 74.1042 46.4731 74.1912 46.3761C74.2067 46.5299 74.2186 46.659 74.236 46.8312C74.1371 46.8312 74.0291 46.8312 73.9302 46.8312C73.7654 47.0354 73.5713 47.2753 73.3698 47.528C73.4595 47.5115 73.5346 47.4978 73.6555 47.4749C73.5703 47.5948 73.5163 47.6736 73.4605 47.7505C73.5209 47.7688 73.5722 47.7834 73.7086 47.8228C73.216 48.0004 72.8039 48.1488 72.3745 48.3026C72.4688 48.3099 72.5448 48.3145 72.695 48.3264C72.532 48.45 72.4285 48.5279 72.3379 48.5956C72.348 48.6377 72.3479 48.6551 72.3516 48.6561C72.3983 48.668 72.4441 48.6762 72.4899 48.6854C72.3415 49.2054 72.3415 49.2054 71.7967 49.6157C72.0018 49.7127 72.1841 49.8006 72.3809 49.8949C72.4047 50.111 72.033 50.3454 72.3452 50.5441C72.1016 50.784 72.3205 51.1036 72.1886 51.3398C72.2271 51.2602 72.2646 51.1805 72.3104 51.0853C72.3919 51.1173 72.4569 51.142 72.586 51.1933C72.489 51.0596 72.434 50.9845 72.3397 50.8545C72.5073 50.8445 72.6226 50.839 72.792 50.8298C72.7499 50.9937 72.7179 51.1164 72.6858 51.2382C72.7398 51.2702 72.7985 51.3041 72.8195 51.3169C72.7518 51.4653 72.6968 51.5834 72.6428 51.7006C72.6199 51.7061 72.5961 51.7125 72.5732 51.7189C72.5576 51.5651 72.5421 51.4103 72.5192 51.1814C72.4771 51.3801 72.4459 51.5101 72.4249 51.642C72.4111 51.7281 72.3782 51.8517 72.4194 51.8938C72.4716 51.9451 72.5915 51.9295 72.6858 51.9432C72.6849 51.9551 72.6812 51.9854 72.6812 52.0165C72.6794 52.3699 72.6574 52.3809 72.3086 52.3232C72.2271 52.3086 72.0989 52.3406 72.054 52.3992C71.9249 52.5686 71.8297 52.7609 71.7226 52.945C71.7097 52.966 71.7134 52.9971 71.7052 53.0448C71.8068 53.0237 71.8883 53.0063 72.0238 52.9779C71.9066 53.2096 71.8279 53.4037 71.7171 53.5777C71.5678 53.813 71.6218 53.9439 71.9359 54.1829C72.0595 54.6554 72.206 55.0665 71.8874 55.4291C72.108 55.419 72.2811 55.4108 72.4496 55.4026C72.4404 55.4776 72.4313 55.5527 72.423 55.636C72.2573 55.6232 72.1007 55.6113 71.9643 55.6003C71.9432 55.6589 71.9414 55.7185 71.9103 55.7478C71.6869 55.9648 71.6136 56.2111 71.7244 56.5105C71.7509 56.5828 71.7281 56.6716 71.7281 56.7531C71.7042 56.7522 71.6786 56.7504 71.6539 56.7486C71.6539 56.6478 71.6539 56.5453 71.6539 56.4446C71.6356 56.4363 71.6154 56.4281 71.5971 56.4208C71.4964 56.5673 71.3957 56.7119 71.3004 56.8511C71.8013 57.21 71.4277 57.7072 71.6026 58.1184C71.7363 58.0735 71.8709 58.0277 72.0339 57.9728C71.924 58.1724 71.8407 58.3409 71.7418 58.4974C71.6411 58.6577 71.5239 58.8069 71.4094 58.9681C71.6493 58.9397 71.8791 58.9122 72.1758 58.8765C71.8755 59.0239 71.653 59.1329 71.4305 59.2419C71.5577 59.2281 71.6832 59.2144 71.8755 59.1943C71.7601 59.2931 71.6887 59.3527 71.587 59.4387C71.6749 59.4772 71.7427 59.5083 71.826 59.5449C71.7912 59.5752 71.761 59.6219 71.7354 59.62C71.5761 59.6054 71.4186 59.5788 71.2602 59.5569C71.3536 59.7281 71.4442 59.9002 71.5431 60.0824C71.4057 60.1703 71.2483 60.272 71.0679 60.3883C71.1604 60.4459 71.2244 60.4862 71.2657 60.5128C71.1906 60.6337 71.1256 60.7417 71.0541 60.8543C71.1613 60.9395 71.2483 61.0072 71.3517 61.0887C71.1906 61.2581 71.2409 61.6555 70.828 61.52C70.8802 61.6555 70.9314 61.7929 70.9855 61.9339C70.8564 61.9504 70.7511 61.9632 70.6339 61.9787C70.524 61.7581 70.7071 61.6546 70.817 61.5246C70.7566 61.488 70.6943 61.4532 70.6192 61.4101C70.5633 61.488 70.5057 61.5695 70.4214 61.6894C70.3546 61.477 70.3033 61.3112 70.2511 61.1455C70.209 61.1647 70.166 61.184 70.1238 61.2023C70.2246 61.4403 70.3253 61.6766 70.4168 61.8918C70.3106 61.9247 70.2044 61.9568 70.1238 61.9824C70.1998 62.0676 70.2896 62.1252 70.2859 62.1756C70.2795 62.2479 70.2053 62.3139 70.1824 62.3487C70.3509 62.5281 70.5167 62.7177 70.698 62.8935C70.7822 62.975 70.8884 63.061 70.9983 63.0821C71.1539 63.1142 71.3224 63.0903 71.4854 63.0903C71.4927 63.1142 71.501 63.138 71.5074 63.1627C71.099 63.2414 71.2437 63.5509 71.2153 63.81C71.0807 63.7817 70.9479 63.7542 70.7804 63.7203L70.9809 64.1534L70.3555 63.9639L70.3747 64.4327C70.4544 64.3997 70.5359 64.3658 70.5899 64.3439C70.708 64.4281 70.8051 64.4977 70.9049 64.5682C70.8142 64.8484 70.5817 64.8246 70.3518 64.8704C69.9966 64.94 70.1248 64.5206 69.8995 64.4885C69.8382 64.5389 69.7768 64.5883 69.677 64.6689C69.8107 64.8292 69.9352 64.9775 70.0607 65.1258C70.0707 65.1377 70.0808 65.1496 70.0909 65.1615C70.0909 65.1615 70.09 65.1606 70.089 65.1597L70.0909 65.1615C70.0927 65.1625 70.0955 65.1652 70.0991 65.1661C70.2328 65.1194 70.3656 65.0727 70.5194 65.0178C70.5533 65.1167 70.5817 65.1991 70.6128 65.2916C70.5057 65.3145 70.4104 65.3355 70.3271 65.3538C70.2456 65.287 70.1715 65.2266 70.0982 65.1652C70.0964 65.1652 70.0955 65.1661 70.0945 65.1661C70.0936 65.1643 70.0927 65.1634 70.0909 65.1615C70.1238 65.2494 70.1586 65.3373 70.166 65.3557C70.2923 65.4408 70.437 65.4857 70.4516 65.5571C70.491 65.7521 70.4608 65.9572 70.7346 66.0131C70.7886 66.0241 70.8234 66.1495 70.8545 66.2264C70.8591 66.2383 70.8005 66.2896 70.7657 66.2997C70.7428 66.3061 70.7007 66.2731 70.6824 66.2475C70.6412 66.1889 70.6091 66.1248 70.5734 66.0616C70.4654 66.1349 70.3582 66.21 70.2301 66.2969C70.3299 66.2905 70.4031 66.285 70.4452 66.2832C70.5157 66.72 70.1815 67.1155 70.426 67.5367C70.4315 67.5468 70.4187 67.5688 70.4141 67.5853C70.5011 67.4873 70.5139 67.3692 70.5597 67.2657C70.6531 67.0579 70.6604 67.0615 70.871 67.1155C70.8179 67.1998 70.7639 67.2877 70.7099 67.3747C70.7218 67.3811 70.7327 67.3884 70.7456 67.3948C70.7822 67.3463 70.8188 67.2987 70.9012 67.186C70.9324 67.3307 70.9443 67.4177 70.969 67.5001C70.98 67.5331 71.0157 67.5706 71.0468 67.5807C71.0715 67.5871 71.1082 67.5541 71.1393 67.5386C71.2006 67.5056 71.262 67.4717 71.3243 67.4397C71.3343 67.4562 71.3444 67.4726 71.3536 67.4891C71.327 67.523 71.3004 67.556 71.2492 67.6201C71.3755 67.6201 71.4616 67.6201 71.5495 67.6201C71.5559 67.6393 71.5651 67.6576 71.5715 67.6768C71.3243 67.8316 71.0779 67.9872 70.8326 68.1401C71.0605 68.2345 71.2144 68.1118 71.3609 67.9332C71.4213 67.9634 71.4845 67.9955 71.5605 68.0339C71.5083 68.0934 71.4698 68.1365 71.4112 68.2042C71.5019 68.2189 71.5587 68.2281 71.6337 68.2409C71.6163 68.38 71.598 68.522 71.5779 68.6804C71.9341 68.511 71.7601 68.9825 71.9441 69.0155C71.9734 68.8745 72.0009 68.75 72.0366 68.5842C72.3132 68.858 72.304 68.9038 71.9854 69.2197C72.0238 69.271 72.0614 69.3186 72.0961 69.3708C72.1291 69.4211 72.1584 69.4752 72.2253 69.5896C72.195 69.3964 72.1758 69.2792 72.1584 69.162C72.1758 69.1574 72.1932 69.1519 72.2106 69.1464C72.3205 69.2646 72.4304 69.3827 72.565 69.5264C72.6236 69.4788 72.6986 69.4175 72.7884 69.3451C72.8928 69.6336 72.5595 69.596 72.4194 69.7874C72.5897 69.7453 72.6968 69.7187 72.8104 69.6894C72.8827 69.8487 72.9559 70.0108 73.0484 70.2159C72.955 70.1976 72.8754 70.183 72.8378 70.1766C72.7371 70.2727 72.6382 70.3661 72.5421 70.4595C72.8708 70.3524 72.9743 70.6628 73.1656 70.8138C73.1684 70.8157 73.1702 70.8166 73.172 70.8193C73.183 70.8267 73.1931 70.8331 73.205 70.8404C73.2077 70.8431 73.2132 70.8459 73.216 70.8477C73.2316 70.8569 73.248 70.8642 73.2636 70.8706C73.2599 71.2653 73.3396 71.333 73.7315 71.2671C73.8258 71.2515 73.921 71.2524 74.0923 71.2415C73.954 71.3229 73.8826 71.3651 73.791 71.42C74.0355 71.4566 74.2543 71.4731 74.4631 71.5271C74.5547 71.55 74.6261 71.6517 74.7057 71.7176C74.6517 71.7606 74.5977 71.8027 74.5519 71.8385C74.5519 71.9026 74.5721 71.9868 74.5473 72.0545C74.5208 72.1241 74.4521 72.1791 74.4018 72.2404C74.4191 72.2532 74.4347 72.2661 74.4503 72.278C74.6316 72.0509 74.8129 71.8238 75.0216 71.561C75.0555 71.6507 75.1388 71.767 75.1095 71.8192C75.0455 71.9355 74.9218 72.0188 74.8321 72.1049C74.8513 72.1077 74.9255 72.1168 75.0326 72.1305C74.9649 72.191 74.9209 72.2294 74.9008 72.2468C74.9429 72.3274 74.9804 72.4007 75.0162 72.4693C74.9823 72.0994 75.3073 72.2926 75.4721 72.1498C75.4456 72.353 75.4254 72.5005 75.4007 72.6836C75.5509 72.5334 75.6562 72.4281 75.7798 72.3036C75.8448 72.5087 75.8888 72.6497 75.9629 72.885C76.103 72.6415 76.2157 72.4455 76.3173 72.2688C76.3832 72.3329 76.472 72.419 76.5819 72.527C76.5673 72.6204 76.5453 72.7587 76.5242 72.9043C76.6167 72.8539 76.7284 72.8283 76.7815 72.7587C76.9738 72.5041 77.0059 72.7358 77.1066 72.8383C77.0324 72.8429 76.9848 72.8466 76.9097 72.8521C77.0425 72.9665 77.145 73.0554 77.2494 73.146C77.2238 73.1625 77.2018 73.1771 77.1826 73.1927C77.1762 73.1973 77.1707 73.2019 77.1661 73.2074C77.1542 73.2174 77.1441 73.2266 77.135 73.2367C77.1313 73.2421 77.1267 73.2467 77.124 73.2513C77.1176 73.2605 77.1121 73.2696 77.1075 73.2779C77.1047 73.2824 77.1029 73.287 77.102 73.2916C77.0983 73.2998 77.0965 73.309 77.0956 73.3172C77.0956 73.3209 77.0956 73.3255 77.0956 73.3291C77.0956 73.3383 77.0956 73.3474 77.0974 73.3557C77.0983 73.3584 77.0993 73.3612 77.1002 73.3648C77.1029 73.3749 77.1075 73.3859 77.1139 73.3969C77.1707 73.4949 77.3227 73.5809 77.2915 73.7009C77.352 73.5919 77.4087 73.4885 77.4637 73.3905C77.5507 73.233 77.6331 73.0856 77.7182 72.9327C77.775 73.0251 77.8089 73.081 77.8565 73.1579C77.8757 73.0462 77.8895 72.9684 77.9023 72.8905C77.9188 72.8924 77.9352 72.8951 77.9526 72.896C78.0167 73.0471 78.0808 73.1982 78.144 73.3493C78.1696 73.3493 78.1962 73.3502 78.2209 73.3511C78.2447 73.1945 78.2658 73.037 78.2923 72.864C78.3317 72.9592 78.3665 73.0407 78.4004 73.1231C78.4672 73.2934 78.8289 73.3291 78.6147 73.6359C78.5304 73.7577 78.5158 73.9289 78.4691 74.0772C78.426 74.0891 78.3839 74.101 78.3418 74.1138C78.4837 74.2402 78.6256 74.3656 78.7621 74.4874C78.7621 74.5845 78.7621 74.7072 78.7621 74.8299C78.8536 74.514 79.1091 74.612 79.316 74.5854C79.316 74.7969 79.3115 75.0057 79.3206 75.2135C79.3215 75.2465 79.3792 75.3042 79.414 75.306C79.664 75.3152 79.5614 75.4699 79.5376 75.5386C79.7171 75.4937 79.9076 75.4571 80.0898 75.3976C80.2775 75.3362 80.283 75.4131 80.2482 75.5596C80.217 75.6961 80.1996 75.8353 80.1758 75.9744C80.1941 75.9781 80.2125 75.9818 80.2299 75.9854C80.2711 75.8902 80.3123 75.7941 80.391 75.6118C80.456 75.7721 80.4899 75.8563 80.5055 75.892C80.6025 75.8673 80.7078 75.8554 80.8003 75.8124C80.9129 75.7593 81.0137 75.6796 81.1171 75.6137C81.7205 76.2592 81.6986 76.1182 82.0135 75.8536C82.0135 75.958 82.0135 76.0431 82.0135 76.1539C82.0721 76.1228 82.1069 76.1118 82.1326 76.0907C82.1646 76.0651 82.1884 76.0312 82.2132 76.0037C81.9284 75.6668 81.9174 75.4919 82.1408 75.2428C82.237 75.393 82.3349 75.5459 82.4347 75.7007C82.508 75.6357 82.5684 75.5825 82.6307 75.5285C82.6691 75.6018 82.6957 75.6466 82.7177 75.6943C82.7607 75.7849 82.8395 75.8783 82.8349 75.9671C82.8221 76.2162 82.9246 76.3105 83.1572 76.2162C83.3174 76.1521 83.4758 76.0834 83.6342 76.0166C83.6407 76.0312 83.6471 76.0468 83.6544 76.0614C83.5784 76.1283 83.5024 76.1951 83.3971 76.2867C83.4996 76.2684 83.5637 76.2574 83.6397 76.2446C83.5061 76.6493 83.4987 76.7399 83.5491 76.7811C83.6461 76.6474 83.7423 76.5147 83.8229 76.403C84.0097 76.4808 84.1681 76.5467 84.277 76.5925C84.4757 76.544 84.212 76.196 84.549 76.3004C84.5801 76.1869 84.6131 76.0733 84.6387 75.9799C84.9528 75.9287 85.026 76.0807 85.0022 76.3361C85.0398 76.229 85.0782 76.1219 85.1167 76.012C85.3648 76.1795 85.385 76.2125 85.4939 76.5101C85.5104 76.5531 85.5663 76.6007 85.6111 76.6117C85.8428 76.6667 85.9984 76.7958 86.0754 77.0247C86.0918 77.0714 86.1587 77.1007 86.242 77.1703C86.1724 77.0338 86.1294 76.9496 86.0864 76.8654C86.0992 76.8562 86.1111 76.8471 86.123 76.8388C86.1807 76.88 86.2411 76.9203 86.3208 76.9762C86.2667 76.7912 86.2246 76.641 86.1788 76.4817C86.3089 76.5128 86.4407 76.544 86.568 76.5733C86.6019 76.6868 86.6357 76.7958 86.6559 76.8617C86.7557 76.8617 86.8665 76.8297 86.9013 76.8672C87.0148 76.9881 87.111 77.0924 87.2694 77.1858C87.534 77.3397 87.708 77.6455 87.9067 77.8726C88.0706 77.8259 88.1914 77.7902 88.3105 77.7554C88.2052 77.6995 88.0999 77.6446 87.9936 77.5906C87.8004 77.651 87.6805 77.6455 87.7455 77.3791C87.7702 77.2747 87.6384 77.1053 87.8224 77.0677C87.9744 77.0357 88.1667 77.0311 88.2967 77.1007C88.4689 77.1904 88.5961 77.2591 88.7518 77.087C88.7436 77.1382 88.7353 77.1895 88.7271 77.2408C88.7463 77.3552 88.7903 77.4724 88.7784 77.5842C88.75 77.8332 88.7426 77.8396 88.9935 77.9568C88.8406 77.4963 88.8507 77.3232 89.0558 77.1831C89.0604 77.2252 89.0704 77.2573 89.0659 77.2875C89.0366 77.5045 89.2316 77.6006 89.3168 77.7554C89.5612 77.5521 89.5713 77.8634 89.6931 77.9284C89.7728 77.9706 89.8469 78.0237 89.9943 78.1161C89.9394 77.9413 89.9128 77.8524 89.8643 77.6968C90.1802 77.9532 90.5236 78.064 90.6893 78.4366C90.9237 78.1839 90.6499 77.9074 90.7589 77.618C90.8001 77.7142 90.8239 77.7929 90.8642 77.8607C90.91 77.9348 90.9585 78.0182 91.0272 78.0603C91.0583 78.0795 91.0904 78.096 91.1233 78.1116C91.2186 78.1573 91.3202 78.194 91.4182 78.2361C91.3715 78.1335 91.3239 78.0301 91.2598 77.89C91.3669 77.8708 91.4539 77.8305 91.5308 77.846C91.5949 77.8588 91.6324 77.8534 91.6535 77.8369C91.6553 77.835 91.6562 77.8332 91.6581 77.8305C91.6617 77.8268 91.6672 77.8222 91.6691 77.8167C91.6709 77.8121 91.6718 77.8067 91.6718 77.8002C91.6736 77.7975 91.6746 77.7938 91.6746 77.7902C91.6755 77.7828 91.6755 77.7737 91.6746 77.7645C91.6746 77.7627 91.6746 77.7609 91.6746 77.7581C91.6736 77.7499 91.6718 77.7416 91.6709 77.7325C91.67 77.7288 91.67 77.7252 91.6691 77.7206C91.6681 77.716 91.6672 77.7114 91.6663 77.7059C91.6645 77.6977 91.6636 77.6894 91.6608 77.6812C91.594 77.662 91.5253 77.6482 91.4612 77.6235C91.388 77.5961 91.3211 77.5576 91.2506 77.5283C91.16 77.4908 91.0684 77.456 90.9787 77.4212C90.9997 77.38 91.0199 77.3388 91.0409 77.2976C91.2479 77.4257 91.4539 77.553 91.6608 77.6812H91.6627C91.6608 77.6391 91.6572 77.597 91.6544 77.5668C91.8128 77.6199 91.9676 77.6721 92.1214 77.7224C92.2075 77.7499 92.3082 77.7545 92.3787 77.803C92.5472 77.9174 92.701 78.0539 92.8631 78.1784C92.8695 78.1839 92.8887 78.1702 92.9061 78.1619C92.907 78.1619 92.9079 78.1601 92.9098 78.1601C92.907 78.1573 92.9061 78.1546 92.9043 78.1519C92.9052 78.1509 92.907 78.1491 92.907 78.1482C92.8383 77.9825 92.7706 77.8158 92.701 77.6501C92.7239 77.6418 92.7468 77.6336 92.7678 77.6254C92.8823 77.7123 92.9949 77.7993 93.146 77.9156C93.0636 77.9962 92.9858 78.0722 92.907 78.1482C92.9098 78.1519 92.9107 78.1546 92.9107 78.1592C92.9107 78.1592 92.9107 78.1601 92.9098 78.1601C92.9665 78.2416 93.0242 78.324 93.0947 78.4238C93.1341 78.2883 93.179 78.1317 93.2339 77.9394C93.5965 78.1812 93.6469 77.9065 93.6826 77.5503C93.8227 77.759 93.9142 77.8955 94.0433 78.0887C94.0552 77.9623 94.0589 77.9156 94.0681 77.8158C94.1862 77.8927 94.318 77.9303 94.362 78.0136C94.5396 78.3643 94.8061 78.5566 95.1998 78.5703C94.9938 78.4082 94.7823 78.2544 94.5854 78.0832C94.5167 78.0237 94.4847 77.9229 94.4279 77.8286C94.9169 77.759 95.4022 78.0475 95.5203 78.4705C95.5386 78.5355 95.4571 78.6289 95.4214 78.7095C95.4736 78.7891 95.523 78.8679 95.5743 78.9466C95.5935 78.9357 95.6128 78.9274 95.6311 78.9164C95.6311 78.8194 95.6311 78.7223 95.6311 78.6069C95.7428 78.6664 95.8224 78.7095 95.903 78.7525C95.795 78.5099 95.6622 78.2956 95.5075 78.0997C95.3875 77.9486 95.4077 77.8286 95.5166 77.6986C95.632 77.7655 95.751 77.8085 95.8353 77.8891C95.9754 78.0218 96.1915 78.1729 96.1979 78.3249C96.2098 78.6198 96.3828 78.4925 96.5019 78.5035C96.5614 78.509 96.6255 78.4696 96.6557 78.4604C96.6438 78.248 96.631 78.0356 96.6172 77.8076C96.5458 77.944 96.4863 78.0621 96.4268 78.1793C96.4066 78.1692 96.3856 78.1583 96.3636 78.1464C96.4002 78.0603 96.4506 77.9751 96.4689 77.8836C96.4909 77.7783 96.4845 77.6675 96.489 77.5887C96.6896 77.6574 96.913 77.6812 97.0622 77.7993C97.1987 77.9092 97.2545 78.1207 97.3836 78.3542C97.4477 78.1317 97.4999 77.955 97.5567 77.7581C97.6025 77.8405 97.6464 77.9202 97.6913 78.0008C97.7059 77.9971 97.7206 77.9925 97.7343 77.9889C97.7087 77.8881 97.683 77.7865 97.6638 77.7096C97.7581 77.6144 97.8506 77.5201 97.9431 77.4257C97.944 77.423 97.9449 77.4212 97.9458 77.4175C97.9046 77.4248 97.8653 77.4312 97.8424 77.4349C97.8241 77.2225 97.8012 77.0183 97.7929 76.8141C97.7911 76.7692 97.8268 76.7006 97.8653 76.6813C97.9055 76.6621 97.9925 76.6685 98.0163 76.6987C98.0676 76.7619 98.1308 76.8553 98.1161 76.9221C98.0795 77.0925 98.0054 77.2536 97.9458 77.4175C97.9468 77.4175 97.9495 77.4175 97.9513 77.4175C97.9495 77.4203 97.9458 77.423 97.9431 77.4257C97.9843 77.4294 98.0273 77.434 98.0704 77.4367C98.2105 77.4505 98.3579 77.4633 98.5364 77.4798C98.454 77.1932 98.3753 76.9249 98.3057 76.6804C98.5154 76.6246 98.6701 76.5833 98.7571 76.5605C98.7727 76.3956 98.7818 76.283 98.7928 76.1704C98.8239 76.1704 98.8542 76.1695 98.8862 76.1686C99.0272 76.5394 99.171 76.9084 99.3129 77.2774C99.3312 77.271 99.3486 77.2637 99.3669 77.2573C99.3578 77.173 99.3495 77.0888 99.3395 76.9981C99.4191 77.0165 99.4786 77.0302 99.5381 77.043C99.4365 76.8919 99.344 76.7573 99.2323 76.5888C99.7689 76.4762 99.7057 77.0055 100.04 77.1813C99.9539 77.0329 99.9007 76.9432 99.8202 76.8031C99.931 76.8663 99.9877 76.8992 100.05 76.9359C100.114 76.663 100.168 76.414 100.238 76.1686C100.245 76.1447 100.376 76.1209 100.387 76.1393C100.458 76.2455 100.564 76.3654 100.56 76.479C100.554 76.7399 100.696 76.804 100.923 76.8416C100.897 76.7152 100.874 76.6044 100.851 76.4945C100.787 76.5064 100.739 76.5138 100.641 76.5312C100.693 76.4341 100.726 76.3755 100.757 76.3151C100.851 76.3975 100.945 76.4808 101.088 76.6062C101.023 76.261 100.967 75.9689 100.912 75.6769C100.931 75.6741 100.95 75.6714 100.97 75.6677C101.03 75.8087 101.089 75.9488 101.146 76.0825C101.184 76.0395 101.22 76.0037 101.249 75.9699C101.279 75.936 101.306 75.9076 101.334 75.8792C101.346 75.7968 101.358 75.7144 101.371 75.632C101.44 75.6732 101.509 75.7153 101.557 75.7446C101.619 75.6659 101.673 75.5276 101.738 75.5221C101.949 75.5056 102.164 75.5377 102.313 75.5478C102.366 75.4031 102.406 75.2904 102.463 75.1366C102.603 75.3307 102.708 75.4736 102.81 75.6164C102.823 75.61 102.834 75.6027 102.847 75.5954C102.754 75.4342 102.661 75.2712 102.591 75.1513C102.653 75.0606 102.712 74.9736 102.773 74.8857L102.767 74.8921C102.767 74.8921 102.767 74.8921 102.766 74.8931C102.712 74.9288 102.659 74.9636 102.617 74.9901C102.573 74.818 102.526 74.6422 102.476 74.4499C102.782 74.4883 102.652 74.7649 102.766 74.8931C102.766 74.8921 102.766 74.8921 102.767 74.8921C102.797 74.7356 102.826 74.579 102.863 74.3913C102.921 74.514 102.969 74.612 103.019 74.7145C103.182 74.59 103.217 74.4993 103.029 74.383C102.948 74.3327 102.91 74.2118 102.855 74.1221C102.869 74.1074 102.884 74.0919 102.899 74.0772C103.075 74.1862 103.253 74.2933 103.43 74.4023C103.375 74.2906 103.291 74.2155 103.203 74.1486C103.121 74.0864 103.033 74.0324 102.95 73.9747C102.967 73.9499 102.984 73.9261 103.001 73.9014C103.074 73.938 103.148 73.9747 103.262 74.0323C103.216 73.9225 103.187 73.8538 103.159 73.7842C103.49 73.7174 103.49 73.7174 104.088 74.4389C104.078 74.2594 104.092 74.1029 104.056 73.9591C104.018 73.8172 103.912 73.6807 104.17 73.6972C104.17 73.6212 104.17 73.5452 104.17 73.4491C104.472 73.5132 104.436 73.7284 104.43 73.8877C104.574 73.9966 104.696 74.0891 104.818 74.1816C104.806 74.0534 104.752 73.938 104.698 73.8227C104.66 73.7403 104.616 73.6533 104.777 73.689C104.703 73.6295 104.631 73.5699 104.545 73.4976C104.687 73.3621 104.862 73.374 105.047 73.4592L105.035 73.4546C105.277 73.3053 105.094 73.6423 105.224 73.6102C105.207 73.4207 105.19 73.2193 105.168 72.9739C105.453 73.1451 105.448 73.341 105.384 73.5617C105.354 73.6643 105.342 73.7714 105.325 73.8776C105.475 73.5928 105.625 73.3081 105.77 73.0315C105.841 73.0975 105.944 73.1936 106.039 73.2806C106.014 73.0773 105.987 72.8704 105.961 72.6552C106.321 72.3045 106.525 72.6021 106.709 72.9107C106.783 72.8127 106.833 72.7468 106.899 72.6607C106.631 72.5582 106.636 72.3759 106.819 72.0747C106.914 72.2065 106.993 72.3173 107.072 72.4281C107.061 72.4428 107.05 72.4574 107.04 72.4721C106.962 72.4336 106.885 72.3933 106.763 72.332C106.922 72.5389 107.048 72.7019 107.174 72.8649C107.187 72.8576 107.199 72.8502 107.212 72.8429C107.181 72.7688 107.151 72.6955 107.128 72.6424C107.262 72.6653 107.383 72.6854 107.59 72.7211C107.281 72.5078 107.447 72.3494 107.549 72.1525C107.673 72.3686 107.761 72.6113 108.045 72.5334C107.969 72.4117 107.892 72.2853 107.814 72.1571C107.829 72.1397 107.847 72.1223 107.863 72.1049C107.966 72.1635 108.068 72.2212 108.19 72.2917C108.199 72.1873 108.208 72.104 108.215 72.0216C108.247 72.0252 108.279 72.0298 108.312 72.0344C108.254 72.299 108.197 72.5627 108.139 72.8274C108.199 72.7715 108.201 72.6992 108.232 72.6442C108.373 72.3961 108.329 72.0317 108.714 71.9273C108.774 71.9108 108.82 71.5903 108.808 71.5867C108.455 71.4585 108.915 71.2488 108.686 71.0968C108.837 71.1032 108.917 71.1069 108.993 71.1105C109.012 71.2112 109.026 71.2936 109.04 71.3761C109.054 71.3751 109.068 71.3751 109.082 71.3751C109.087 71.3129 109.093 71.2497 109.095 71.2332C109.314 71.2808 109.52 71.3248 109.759 71.3751C109.673 71.2048 109.617 71.0931 109.547 70.9539C109.713 70.9301 109.823 70.9146 109.92 70.8999C109.773 70.8651 109.635 70.8331 109.498 70.8001C109.503 70.7708 109.51 70.7415 109.517 70.7113C109.812 70.6857 110.106 70.6591 110.401 70.6325C110.318 70.6023 110.234 70.5437 110.153 70.5474C109.992 70.5529 109.959 70.4851 110 70.3524C110.021 70.2837 110.059 70.2205 110.091 70.1546C110.123 70.2068 110.146 70.2718 110.192 70.3066C110.292 70.3817 110.404 70.4393 110.512 70.5044C110.629 70.4696 110.745 70.4338 110.929 70.3798C110.73 70.3231 110.572 70.2782 110.412 70.2315C110.418 70.2004 110.424 70.1701 110.431 70.1381C110.482 70.1262 110.533 70.1134 110.585 70.1006C110.641 70.0868 110.699 70.0731 110.721 70.0676C110.685 69.9504 110.657 69.8588 110.628 69.7663C110.548 69.8387 110.467 69.9119 110.387 69.9843C110.371 69.9769 110.356 69.9705 110.34 69.9641C110.383 69.8368 110.393 69.6794 110.476 69.5896C110.574 69.4834 110.652 69.5731 110.665 69.7004C110.76 69.6638 110.855 69.6253 110.95 69.5933C111.001 69.575 111.084 69.5887 111.106 69.5567C111.218 69.4028 111.307 69.2389 111.224 69.0347C111.196 68.9706 111.2 68.8937 111.189 68.8232C111.21 68.8159 111.231 68.8095 111.252 68.8022C111.298 68.8553 111.342 68.9075 111.387 68.9597C111.408 68.8324 111.356 68.7243 111.354 68.6145C111.35 68.489 111.372 68.3562 111.421 68.2436C111.433 68.2171 111.605 68.2583 111.701 68.2738C111.768 68.2857 111.835 68.3077 111.906 68.326C111.948 68.0092 111.459 68.1163 111.524 67.7473C111.554 67.5743 111.333 67.3564 111.23 67.1686C111.432 67.3005 111.641 67.3893 111.783 67.5422C111.965 67.7363 112.09 67.9827 112.241 68.2061C112.265 68.2409 112.291 68.2747 112.34 68.3416C112.34 68.0486 112.34 67.8069 112.34 67.5843C112.258 67.5084 112.163 67.4232 112.069 67.3362C112.114 67.4891 112.013 67.4955 111.951 67.4177C111.833 67.2721 111.752 67.0963 111.655 66.9342C111.693 66.9077 111.732 66.882 111.77 66.8564C111.826 66.9342 111.879 67.013 111.94 67.0881C111.978 67.1375 112.024 67.1805 112.068 67.2272C112.096 67.1925 112.119 67.1357 112.154 67.1293C112.369 67.0853 112.349 66.9736 112.222 66.8042C112.414 66.7584 112.585 66.7163 112.757 66.6751C112.571 66.5771 112.385 66.4801 112.195 66.3803C112.202 66.5121 112.21 66.6357 112.217 66.7749C112.054 66.5478 111.913 66.3546 111.774 66.1614C111.819 66.2567 111.863 66.351 111.907 66.4453C111.893 66.4535 111.88 66.4636 111.866 66.4718C111.712 66.3235 111.558 66.1761 111.413 66.0387C111.522 65.982 111.614 65.9115 111.716 65.8886C111.77 65.8757 111.844 65.9453 111.909 65.9783C112.05 66.0168 112.193 66.0552 112.393 66.1111C112.327 65.9984 112.29 65.8611 112.201 65.8025C112.07 65.7164 111.902 65.6853 111.703 65.613C111.786 65.5672 111.804 65.5489 111.815 65.5525C112.294 65.7173 112.772 65.8877 113.252 66.047ZM92.6525 49.5543C92.8493 49.5708 93.0462 49.5854 93.244 49.6019C93.32 49.6706 93.3969 49.7383 93.472 49.8079C93.4802 49.8098 93.4875 49.8125 93.493 49.8134C93.4958 49.8171 93.4994 49.8226 93.5022 49.8263C93.6047 49.8711 93.7348 49.8968 93.7934 49.9755C93.8913 50.1064 93.9371 50.2758 93.9481 50.4635C93.7998 50.2511 93.6505 50.0387 93.5022 49.8263C93.4967 49.8244 93.4912 49.8235 93.4866 49.8217C93.4811 49.8171 93.4775 49.8125 93.472 49.8079C93.4363 49.7951 93.3896 49.7786 93.3841 49.7869C93.2293 50.0359 93.1176 49.84 92.9958 49.7521C92.8768 49.7054 92.7587 49.6587 92.6396 49.6129C92.6442 49.5937 92.6488 49.5735 92.6525 49.5543ZM91.3495 58.9681C91.5216 59.1613 91.6929 59.3545 91.865 59.5468C91.6407 59.403 91.3037 59.3655 91.3495 58.9681ZM94.9929 59.4699C94.6687 59.3408 94.3455 59.2126 94.0214 59.0835C94.0223 59.0642 94.0232 59.045 94.025 59.0249C94.2164 59.0441 94.4252 59.0221 94.5927 59.0935C94.764 59.1668 94.8921 59.3334 95.0396 59.4589C95.0258 59.4625 95.0093 59.4662 94.9929 59.4699ZM98.8743 54.0273C98.8139 53.9513 98.7653 53.8917 98.7141 53.8295C98.6344 53.9009 98.5465 53.9796 98.3826 54.1261C98.4165 53.9549 98.4348 53.8633 98.4522 53.7718C98.4494 53.7718 98.4476 53.7718 98.4449 53.7736C98.4449 53.7718 98.4449 53.7709 98.4449 53.77C98.422 53.7764 98.4046 53.7855 98.3872 53.7947C98.1876 53.8899 98.3011 54.0978 98.2929 54.2498C98.2736 54.5684 98.2929 54.8889 98.2846 55.2094C98.2837 55.2579 98.226 55.3055 98.1903 55.3522C98.063 55.5262 98.0182 55.6946 98.2443 55.8595C98.1683 55.9162 98.1088 55.9611 98.0282 56.0206C98.0594 56.0801 98.0997 56.1589 98.1656 56.288C98.1949 56.1909 98.2123 56.1378 98.2279 56.0865C98.2507 56.0801 98.2755 56.0728 98.2993 56.0664C98.3231 56.179 98.3487 56.2917 98.367 56.3805C98.2617 56.3942 98.1161 56.3942 98.1125 56.4162C98.0914 56.5581 98.1024 56.7055 98.1024 56.8667C98.0099 56.8438 97.8799 56.8099 97.7188 56.7696C97.738 56.8603 97.7535 56.9335 97.7746 57.026C97.7188 57.0443 97.6574 57.0626 97.5787 57.0864C97.8991 57.1047 97.835 57.3813 97.9202 57.558C97.7948 57.471 97.6492 57.4023 97.5475 57.2934C97.4001 57.135 97.314 57.2595 97.2087 57.3318C97.4816 57.4362 97.6986 57.5983 97.8222 57.8602C97.8012 57.8885 97.7801 57.9169 97.76 57.9435C97.6006 57.8254 97.4413 57.7082 97.2829 57.59C97.2426 57.8226 97.0696 57.9252 96.9707 57.7723C96.9414 57.7246 96.9579 57.6505 96.9405 57.5919C96.9267 57.5516 96.8919 57.5168 96.8077 57.5003C96.8297 57.6404 96.8699 57.7796 96.8681 57.9197C96.8663 58.0405 96.8187 58.1614 96.7875 58.2969C96.7289 58.4114 96.5815 58.5625 96.6062 58.6787C96.6383 58.8289 96.511 59.1503 96.8782 59.11C96.7408 59.2748 96.7408 59.2748 96.4661 58.9626C96.4268 59.088 96.3947 59.1924 96.3517 59.3252C96.153 59.1421 95.9635 58.9681 95.7519 58.7721C95.7519 58.8454 95.7519 58.9443 95.7519 59.0954C95.5487 58.8143 95.3591 58.5542 95.1705 58.2933C95.1449 58.3088 95.1183 58.3244 95.0918 58.34C95.1623 58.4736 95.2319 58.6064 95.3133 58.7648C95.2657 58.828 95.2016 58.915 95.1366 59.002C95.1449 59.0166 95.1531 59.0313 95.1604 59.0459C95.2419 59.0011 95.3252 58.9562 95.4379 58.8939C95.578 59.0835 95.7245 59.2822 95.8719 59.4809C95.8508 59.4955 95.8289 59.5111 95.8078 59.5248C95.6869 59.3893 95.567 59.2529 95.4434 59.1118C95.1687 59.2336 94.959 59.067 94.7786 58.9022C94.4407 58.5908 94.0983 58.7465 93.7393 58.8252C93.6121 58.8527 93.4656 58.7895 93.2971 58.763C93.3429 58.6357 93.3703 58.5588 93.4051 58.4599C93.265 58.437 93.1478 58.4187 93.0206 58.3976C92.9885 58.4681 92.9565 58.5405 92.9198 58.6229C92.81 58.5973 92.7138 58.5734 92.5701 58.5396C92.6296 58.6256 92.6671 58.6797 92.7102 58.7419C92.4373 58.7639 91.9786 58.4599 91.843 58.2109C91.7258 57.9975 91.5793 57.7997 91.4438 57.5946C91.4218 57.6285 91.398 57.6615 91.3742 57.6953C91.2753 57.7329 91.1746 57.7704 91.0418 57.819C90.9796 57.7256 90.8908 57.5919 90.7974 57.4527C90.7791 57.5159 90.7635 57.5717 90.7443 57.6349C90.6774 57.5259 90.6142 57.4271 90.5071 57.2549C90.4989 57.33 90.4925 57.3904 90.4879 57.4463C90.4842 57.4765 90.4815 57.5049 90.4787 57.5305C90.4714 57.5992 90.465 57.6578 90.4595 57.7155C90.4613 57.7182 90.4641 57.721 90.4668 57.7237L90.4586 57.732C90.9375 57.764 90.9448 57.7777 90.6948 58.2447C90.6234 58.1376 90.5584 58.0387 90.4842 57.9288C90.4155 57.9755 90.345 58.0241 90.2654 58.0781C90.2397 58.0314 90.215 57.9874 90.1912 57.9444C90.2846 57.8702 90.3716 57.8006 90.4595 57.731C90.4595 57.7265 90.4604 57.721 90.4604 57.7164C90.3652 57.5928 90.2709 57.4683 90.172 57.3373C90.0722 57.5607 89.9522 57.8254 89.7993 58.1669C89.7114 58.0048 89.6794 57.9462 89.6473 57.8876C89.6189 57.8968 89.5905 57.9059 89.5622 57.916C89.5924 58.0085 89.6217 58.101 89.6546 58.2017C89.5686 58.2328 89.4678 58.2695 89.369 58.3061C89.3699 58.3235 89.3699 58.3409 89.3699 58.3583C89.4413 58.3628 89.5136 58.3674 89.5823 58.372C89.6006 58.5304 89.0796 58.6092 88.7765 58.481C88.7619 58.8161 88.5861 58.861 88.3059 58.7209C88.3105 58.643 88.316 58.557 88.3214 58.4727C88.3068 58.4709 88.2921 58.4681 88.2775 58.4654C88.2125 58.709 88.1466 58.9516 88.0815 59.2016C88.0999 59.2043 88.1731 59.2144 88.2638 59.2272C87.6695 59.6136 87.024 59.5294 86.3949 59.5312C86.3794 59.3875 86.3647 59.2419 86.3528 59.1256C86.1898 59.1064 86.0635 59.0871 85.9353 59.0789C85.8327 59.0725 85.6752 59.1256 85.6331 59.0761C85.4958 58.9086 85.1286 59.1082 85.1231 58.7465C85.1222 58.7181 85.0242 58.6906 84.9464 58.6485C85.0224 58.611 85.0801 58.5771 85.1405 58.5542C85.1954 58.5332 85.254 58.5213 85.3227 58.4727C84.8429 58.6165 84.44 58.5643 84.201 58.068C84.2697 58.0506 84.343 58.0323 84.397 58.0195C84.397 57.7484 84.3878 57.4957 84.4034 57.2458C84.407 57.1917 84.4986 57.1487 84.5389 57.0919C84.6341 56.9555 84.7239 56.8136 84.8173 56.6744C84.8017 56.6597 84.787 56.6442 84.7724 56.6295C84.6543 56.6524 84.5371 56.6863 84.418 56.6945C84.321 56.7 84.2221 56.6762 84.125 56.6662C84.1259 56.6414 84.1259 56.6158 84.1259 56.5911C84.1772 56.5709 84.2294 56.5508 84.2807 56.5306C84.2779 56.516 84.2752 56.5013 84.2715 56.4858C84.1974 56.4858 84.1232 56.4858 83.9291 56.4858C84.136 56.2083 84.2935 55.9968 84.4492 55.788C84.4089 55.8036 84.353 55.8265 84.2404 55.8714C84.2734 55.7478 84.3118 55.6599 84.3182 55.5692C84.3265 55.452 84.3228 55.3311 84.2999 55.2167C84.2624 55.0171 84.2074 54.8211 84.1598 54.6252C84.1891 54.6188 84.2175 54.6123 84.2477 54.6059C84.1159 54.5565 83.984 54.508 83.8458 54.4567C83.9749 54.2571 84.332 54.4832 84.3091 54.1701C84.2917 53.9247 84.4528 53.5996 84.0838 53.465C84.3915 53.1253 84.0124 52.8259 84.0637 52.4816C84.5407 52.6767 85.1441 52.4771 85.5351 53.0686C85.5351 52.9239 85.5351 52.8799 85.5351 52.7463C85.6276 52.9065 85.6825 53.0026 85.7448 53.1125C85.8117 53.0905 85.8822 53.0667 85.9838 53.0329C85.9453 53.4174 86.2887 53.205 86.4517 53.3652C86.4398 53.2673 86.4325 53.2013 86.4187 53.085C86.514 53.1519 86.5698 53.1903 86.6247 53.2288C86.6458 53.216 86.6687 53.2041 86.6898 53.1903C86.6522 53.0823 86.6147 52.9743 86.5945 52.9157C86.9379 52.9587 87.3097 53.0063 87.6814 53.053C87.6658 53.0008 87.6503 52.9477 87.6356 52.8964C87.8307 52.7234 88.0202 52.5412 88.2308 52.3873C88.2537 52.3699 88.3947 52.5118 88.5128 52.6052C88.4991 52.4294 88.489 52.2747 88.4771 52.119C88.4936 52.1145 88.5101 52.1099 88.5275 52.1044C88.565 52.2536 88.6026 52.4029 88.6511 52.5933C88.6996 52.5192 88.7317 52.4706 88.7793 52.3974C88.8186 52.4652 88.8534 52.5228 88.8965 52.5943C88.9395 52.5292 88.9844 52.4615 89.0329 52.3855C89.1803 52.4633 89.3232 52.5393 89.4926 52.63C89.5127 52.5027 89.5292 52.3974 89.5502 52.2637C89.6958 52.3708 89.8295 52.4679 90.0007 52.5933C89.9907 52.4633 89.9834 52.3727 89.9724 52.2344C90.0429 52.3186 90.0887 52.3718 90.1234 52.4139C90.4851 52.2967 90.2443 51.9478 90.4357 51.6704C90.5062 51.9753 90.5639 52.2262 90.6435 52.575C90.6902 52.4358 90.7113 52.3745 90.7324 52.3122C90.7607 52.3278 90.7891 52.3434 90.8184 52.3589C90.8377 52.4258 90.8551 52.4908 90.8743 52.5567C91.1801 52.5613 90.9723 52.2912 91.1041 52.1914C91.1343 52.2307 91.1682 52.2784 91.2378 52.3708C91.2515 52.2445 91.2588 52.1712 91.2671 52.0961C91.2909 52.0925 91.3156 52.0888 91.3394 52.0852C91.3614 52.2253 91.3843 52.3663 91.409 52.5219C91.5427 52.4294 91.6489 52.3589 91.7872 52.2637C91.8421 52.3324 91.9346 52.4496 92.0289 52.5668C92.0408 52.5585 92.0518 52.5512 92.0628 52.5448C92.0253 52.4606 91.9868 52.3763 91.9273 52.2472C92.0948 52.3351 92.2157 52.3992 92.3476 52.4688C92.332 52.3882 92.321 52.3232 92.3091 52.2591C92.4373 52.4395 92.4886 52.7142 92.7999 52.6062C92.8997 52.5723 92.9729 52.4606 93.0691 52.3745C92.9006 52.1804 92.6387 52.0769 92.7633 51.8361C92.7935 51.8553 92.8219 51.8773 92.8512 51.8993C93.168 52.1502 93.3612 52.5705 93.8474 52.5906C93.7714 52.5091 93.6945 52.4267 93.6176 52.3443C93.624 52.3287 93.6313 52.3141 93.6368 52.2994C93.9417 52.4276 94.2475 52.554 94.5561 52.6849C94.5543 52.6703 94.5479 52.6236 94.5341 52.5018C95.1394 52.9624 95.8096 53.0759 96.5037 53.0942C96.4716 53.0631 96.4387 53.0319 96.4057 52.9999C96.5293 52.8873 96.652 52.7737 96.7747 52.6611C96.8049 52.6831 96.8342 52.706 96.8654 52.7289C96.8233 52.6767 96.7811 52.6263 96.7335 52.5695C96.9304 52.532 97.1025 52.499 97.314 52.4597C97.3195 52.5091 97.3305 52.5888 97.3424 52.6886C97.2097 52.695 97.1098 52.7005 97.01 52.706C97.01 52.7325 97.0119 52.7609 97.0128 52.7865C97.1208 52.7774 97.2362 52.7884 97.3369 52.7545C97.5109 52.6941 97.673 52.5567 97.8469 52.5448C97.9761 52.5347 98.1152 52.673 98.302 52.7728C98.3084 52.7682 98.3872 52.7179 98.4504 52.6758C98.4504 53.0393 98.4504 53.4055 98.4504 53.7727C98.454 53.7718 98.4559 53.7709 98.4586 53.77C98.4577 53.7709 98.4577 53.7727 98.4577 53.7745C98.5529 53.7516 98.6472 53.7297 98.7525 53.7049C98.7315 53.6061 98.7141 53.531 98.6976 53.4559C98.7131 53.4412 98.7278 53.4266 98.7434 53.4128C98.7891 53.4595 98.867 53.5017 98.8743 53.552C98.8853 53.6903 98.8743 53.8368 98.8743 54.0273Z" fill="black"/>
<path d="M108.518 48.9481C108.5 48.8941 108.482 48.8382 108.449 48.732C108.629 48.8172 108.897 48.6313 108.895 49.015C108.833 48.9628 108.799 48.9335 108.735 48.8795C108.75 48.9948 108.758 49.0772 108.768 49.1615C108.704 49.1633 108.638 49.1642 108.573 49.1651C108.511 49.1944 108.447 49.2247 108.385 49.2549C108.563 49.4426 108.743 49.6285 108.921 49.8134C109.167 49.6303 109.181 49.5964 109.093 49.3235C109.06 49.2219 108.975 49.1331 108.962 49.0324C108.911 48.6157 108.776 48.494 108.383 48.5269C108.351 48.5288 108.313 48.4619 108.276 48.4253C108.2 48.4839 108.122 48.5443 107.959 48.6716C108.189 48.7833 108.352 48.8657 108.518 48.9481Z" fill="black"/>
<path d="M109.339 50.4949C109.342 50.461 109.348 50.4043 109.353 50.3475C109.331 50.3677 109.307 50.3896 109.285 50.4107C109.204 50.3356 109.128 50.255 109.039 50.1891C108.977 50.1433 108.9 50.1158 108.828 50.0811C108.892 50.2074 108.957 50.3338 109.012 50.4446C109.12 50.462 109.229 50.4784 109.339 50.4949Z" fill="black"/>
<path d="M108.829 50.0809L108.822 50.0679L108.815 50.0716L108.816 50.0744L108.829 50.0809Z" fill="black"/>
<path d="M113.41 87.2338C113.328 81.4842 109.317 76.2746 104.498 75.6542L100.332 75.1191C95.5132 74.4987 87.6277 74.4987 82.8074 75.1191L78.6426 75.6542C73.8235 76.2746 69.8132 81.4842 69.7305 87.2338L69.677 91.0397C69.677 106.976 70.5844 119.481 70.5844 119.481H75.9886L77.9736 88.112L79.3676 110.866L80.7615 162.35H88.6579L91.3728 120.875L91.7645 119.481L94.4793 162.35H102.376L103.77 110.866L105.164 88.112L107.15 119.481H112.554C112.554 119.481 113.461 106.977 113.461 91.0397L113.41 87.2338Z" fill="black"/>
<path d="M92.2924 34.2233C89.7782 35.0291 87.5138 36.2701 84.8787 36.536C81.5748 36.8664 78.5207 34.9646 75.5553 33.6511C72.5898 32.3376 67.4164 30.4278 63.7015 30.6131C66.172 29.1223 68.7434 27.8056 71.3972 26.6726C71.3972 26.6726 71.8565 26.6726 71.8726 26.6726C72.8638 27.0353 75.0476 26.6726 77.0863 26.4228C80.83 25.9559 84.6141 25.91 88.368 26.2858C92.0673 26.6491 95.6822 27.6154 99.0694 29.1465C101.044 30.0652 102.889 31.3142 104.839 32.3054C100.585 32.323 96.3573 32.9693 92.2924 34.2233ZM109.36 33.1757C106.894 33.1757 100.617 28.8323 96.7567 27.4301C92.9499 26.1189 88.9607 25.4146 84.9351 25.343C83.2429 25.2947 81.5506 25.3269 79.8584 25.4397C77.6585 25.5928 74.3707 26.7049 72.1949 26.1247C74.0725 15.5361 76.9735 6.16424 88.9079 4.63316C93.8718 3.99656 98.9807 4.15772 103.711 5.93055C110.109 8.34804 112.341 13.4651 113.051 19.8311C113.462 23.5057 114.662 33.1757 109.36 33.1757ZM69.4068 31.9428C69.4068 31.9428 65.9014 30.7501 63.5806 31.1369C62.8371 31.2953 62.1506 31.6525 61.5943 32.1706C61.0379 32.6886 60.6327 33.3479 60.4218 34.0782C60.4057 34.161 60.4102 34.2465 60.4349 34.3272C60.4596 34.4079 60.5037 34.4813 60.5634 34.5409C60.6231 34.6006 60.6965 34.6447 60.7771 34.6694C60.8578 34.6941 60.9433 34.6986 61.0261 34.6826C61.7295 34.5339 62.4008 34.261 63.0085 33.8768C63.6451 33.4497 67.4244 31.7816 69.4068 31.9428Z" fill="#FF7817" stroke="black" stroke-width="0.805831"/>
<path d="M27.6371 84.084C27.2286 84.084 26.8241 84.1028 26.4467 84.1394C26.0693 84.176 25.7264 84.2296 25.4375 84.2971C25.1487 84.3647 24.9196 84.4449 24.7633 84.5332C24.607 84.6215 24.5266 84.7161 24.5267 84.8117C24.5279 84.8389 24.5357 84.866 24.55 84.893C24.55 84.8929 24.55 84.893 24.55 84.893C24.5153 85.1561 24.5935 85.5765 24.7734 86.0954C24.9534 86.6143 25.2263 87.2059 25.554 87.7878C25.773 88.1759 26.0102 88.5488 26.2505 88.8826C26.4909 89.2165 26.7292 89.504 26.9501 89.7268L23.8542 107.821L28.5196 112.851L32.6746 107.748L28.6436 89.539C29.0237 89.0898 29.433 88.4672 29.7948 87.7878C30.1104 87.1947 30.3721 86.5916 30.542 86.0657C30.712 85.5399 30.7813 85.1185 30.7401 84.8626L30.7574 84.8102L30.7472 84.8092C30.7444 84.6167 30.4155 84.4322 29.8326 84.2963C29.2496 84.1604 28.4601 84.084 27.6371 84.084Z" fill="#FF7817"/>
</svg>
