<svg width="377" height="89" viewBox="0 0 377 89" fill="none" xmlns="http://www.w3.org/2000/svg">
<path fill-rule="evenodd" clip-rule="evenodd" d="M83.1482 7C84.4183 7 85.5566 7.56923 86.3194 8.46264C83.5683 9.3271 81.2469 11.1564 79.7541 13.551C79.2701 12.8737 78.9857 12.044 78.9857 11.1487C78.9857 8.85821 80.8481 7 83.1482 7ZM106.689 18.4735C106.052 22.5507 102.513 25.6709 98.2437 25.6709C98.0326 25.6709 97.8254 25.6632 97.6164 25.6477C100.333 25.1306 102.431 22.8826 102.714 20.1001C104.141 19.7759 105.481 19.2202 106.689 18.4735ZM66.196 40.1371C62.6859 36.44 60.5311 31.4521 60.5311 25.9603C60.5311 23.6371 60.9163 21.4026 61.6269 19.3186C62.8214 25.0727 66.4186 29.9488 71.3265 32.8606C75.7582 28.5248 81.8297 25.8503 88.5284 25.8503C89.814 25.8503 91.0763 25.9507 92.3095 26.1398C77.1038 29.6748 65.7721 43.2573 65.7467 59.4833C64.6006 56.6546 63.9696 53.5633 63.9696 50.3294C63.9696 46.6921 64.7671 43.2419 66.1941 40.1392L66.196 40.1371ZM54.7578 7.04052H54.8313C45.0909 12.181 38.2527 22.0548 37.4068 33.59C36.369 31.2513 35.7901 28.6656 35.7901 25.9449C35.7901 22.076 36.9575 18.4773 38.9613 15.4806C36.0688 14.7609 33.0447 14.3788 29.9296 14.3788C17.6569 14.3788 6.77234 20.3046 0 29.4433C5.9747 16.9375 18.7701 8.29284 33.5926 8.29284C37.4376 8.29284 41.1472 8.87558 44.6378 9.95617C47.5653 8.10953 51.0366 7.04052 54.7578 7.04052ZM61.8707 72.4773C62.134 72.4773 62.3954 72.4773 62.6589 72.4813C61.3752 72.024 60.107 71.4758 58.8621 70.8333C53.6251 68.1242 49.5169 64.1048 46.725 59.3888C44.4424 59.5798 42.1327 59.5606 39.8267 59.3213C36.5122 63.2017 34.1309 67.8444 32.9111 72.7938C28.7737 68.24 26.8841 62.0227 27.8077 55.9329C27.4437 55.7573 27.0797 55.5779 26.7178 55.3927C24.1389 54.0573 21.7845 52.4596 19.6704 50.6517C18.4081 52.3304 17.2658 54.1325 16.2649 56.0546C13.4382 61.4806 12.0365 67.2675 11.9145 72.9906C6.77429 62.92 6.13151 50.7481 11.0356 39.786C9.11498 36.1004 7.82943 32.11 7.24282 27.9979C14.1333 40.8454 28.5588 50.9777 43.12 49.7679C42.4192 46.3371 42.3842 42.0648 42.9457 38.8423C43.4645 35.8631 44.4443 32.9108 45.9157 30.0858C47.3581 27.3168 49.1702 24.8624 51.263 22.7533C46.1886 40.8454 52.1188 60.3325 66.3024 72.5835C78.8791 73.1644 90.3076 76.1977 99.258 80.8808C88.5672 79.6517 77.0766 78.9802 65.1098 78.9802C49.8962 78.9802 35.4512 80.0627 22.4447 82.004C32.6633 76.109 46.5585 72.4813 61.8707 72.4813V72.4773ZM89.8741 14.6663L94.5941 13.1844L93.9823 14.0122L93.8952 15.579L89.8741 14.6663Z" fill="#00609C"/>
<path d="M353.698 69.9007H343.471V76.7432H353.698V75.5353H345.22V73.7234H350.335V72.6601H345.22V71.1184H353.698V69.9007ZM331.353 76.7432H341.416V75.3289H333.104V69.9007H331.353V76.7432ZM325.57 74.5318C327.955 74.5318 329.003 73.4107 329.003 72.2201C329.003 70.3891 327.222 69.9007 324.826 69.9007H318.313V76.7432H320.064V74.5318H325.568H325.57ZM325.383 71.1589C326.519 71.1589 327.057 71.6239 327.057 72.2299C327.057 72.8357 326.489 73.2911 325.383 73.2911H320.066V71.1589H325.383ZM304.816 69.9007H302.263V76.7432H303.995V71.4291L308.286 76.7432H309.315L313.684 71.4291V76.7432H315.435V69.9007H312.951L308.894 74.912L304.816 69.9007ZM299.377 76.7432V69.9007H297.626V76.7432H299.377ZM277.439 69.9007H267.208V76.7432H277.439V75.5353H268.959V73.7234H274.074V72.6601H268.959V71.1184H277.439V69.9007ZM262.804 73.3239C262.804 74.5126 261.503 75.3791 258.288 75.3791H254.924V71.2766H258.288C261.534 71.2766 262.804 72.1236 262.804 73.3239ZM264.751 73.3239C264.751 71.4907 262.971 69.9028 258.403 69.9028H253.173V76.7451H258.403C262.894 76.7451 264.751 75.0993 264.751 73.3239ZM245.69 71.1397L247.617 73.8893H243.283L245.229 71.1397H245.69ZM248.369 74.9989L249.613 76.7432H251.783L246.787 69.8526H244.215L239.22 76.7432H241.302L242.565 74.9989H248.369ZM211.89 71.323V76.7432H213.649V71.323H218.255V69.9007H207.294V71.323H211.89ZM201.952 74.3853C204.477 74.3853 205.346 73.3414 205.346 72.2222C205.346 70.4489 203.301 69.9028 202.032 69.9028H194.531V76.7451H196.281V74.4624H199.654L203.205 76.7451H205.913L201.952 74.3853ZM201.727 71.1493C202.843 71.1493 203.4 71.6161 203.4 72.2105C203.4 72.8049 202.814 73.2351 201.679 73.2351H196.281V71.1493H201.727ZM186.136 71.0122C188.727 71.0122 190.115 72.0349 190.115 73.293C190.115 74.5511 188.727 75.5449 186.136 75.5449C183.546 75.5449 182.146 74.5318 182.146 73.293C182.146 72.0543 183.544 71.0122 186.136 71.0122ZM186.136 69.6191C182.547 69.6191 180.21 71.2264 180.21 73.293C180.21 75.3597 182.547 76.9478 186.136 76.9478C189.726 76.9478 192.072 75.3616 192.072 73.293C192.072 71.2245 189.735 69.6191 186.136 69.6191ZM170.137 76.7432V74.063H175.252V72.9418H170.137V71.1107H178.479V69.9028H168.387V76.7451L170.137 76.7432ZM154.888 69.9007H152.337V76.7432H154.067V71.4291L158.36 76.7432H159.388L163.757 71.4291V76.7432H165.508V69.9007H163.024L158.966 74.912L154.888 69.9007ZM143.944 71.0122C146.534 71.0122 147.922 72.0349 147.922 73.293C147.922 74.5511 146.534 75.5449 143.944 75.5449C141.353 75.5449 139.953 74.5318 139.953 73.293C139.953 72.0543 141.351 71.0122 143.944 71.0122ZM143.944 69.6191C140.354 69.6191 138.017 71.2264 138.017 73.293C138.017 75.3597 140.354 76.9478 143.944 76.9478C147.533 76.9478 149.88 75.3616 149.88 73.293C149.88 71.2245 147.543 69.6191 143.944 69.6191ZM289.43 73.8874C292.314 73.9068 293.045 74.1789 293.045 74.6553C293.045 75.2401 291.939 75.7186 289.516 75.7186C287.541 75.7186 285.956 75.3964 284.674 74.4528L284.01 75.5141C285.467 76.5174 287.141 76.9457 289.342 76.9457C292.637 76.9457 295.033 76.0293 295.033 74.4991C295.033 73.0961 293.301 72.5309 289.529 72.5116C286.896 72.5116 286.205 72.2182 286.205 71.7224C286.205 71.1666 287.162 70.8155 289.137 70.8155C291.112 70.8155 292.727 71.1261 294.105 71.9559L294.721 70.8368C293.294 70.0184 291.56 69.6172 289.361 69.6172C286.066 69.6172 284.207 70.4855 284.207 71.8593C284.207 73.2332 285.891 73.8661 289.43 73.8874ZM227.215 69.9007H224.664V76.7432H226.396V71.4291L230.687 76.7432H231.716L236.087 71.4291V76.7432H237.838V69.9007H235.354L231.295 74.912L227.215 69.9007ZM136.01 75.6222L135.042 74.3949C134.24 75.0568 133.173 75.4947 131.336 75.4947C128.589 75.4947 127.307 74.5203 127.307 73.2911C127.307 72.062 128.587 71.0701 131.336 71.0701C133.077 71.0701 134.083 71.4599 134.906 72.0639L135.843 70.8445C134.612 70.0861 133.311 69.6172 131.336 69.6172C127.592 69.6172 125.371 71.1955 125.371 73.2911C125.371 75.3868 127.543 76.9457 131.336 76.9457C133.429 76.9457 134.788 76.4424 136.01 75.6222Z" fill="#00609C"/>
<path d="M375.002 37.9271C375.002 38.8533 374.77 39.7177 374.305 40.5185C373.84 41.3194 373.205 41.9504 372.403 42.4115C371.599 42.8727 370.731 43.1042 369.802 43.1042C368.872 43.1042 368.011 42.8727 367.209 42.4115C366.408 41.9504 365.774 41.3194 365.307 40.5185C364.842 39.7177 364.609 38.8552 364.609 37.9271C364.609 36.999 364.842 36.1423 365.307 35.3396C365.772 34.5367 366.406 33.904 367.209 33.4427C368.013 32.9815 368.876 32.75 369.802 32.75C370.727 32.75 371.599 32.9815 372.403 33.4427C373.205 33.904 373.84 34.5367 374.305 35.3396C374.77 36.1423 375.002 37.0048 375.002 37.9271ZM373.995 37.9271C373.995 36.7731 373.584 35.7892 372.765 34.9729C371.946 34.1567 370.96 33.7475 369.802 33.7475C368.643 33.7475 367.657 34.1567 366.838 34.9729C366.019 35.7892 365.608 36.7731 365.608 37.9271C365.608 39.081 366.017 40.065 366.838 40.8812C367.657 41.6975 368.643 42.1067 369.802 42.1067C370.96 42.1067 371.946 41.6994 372.765 40.8812C373.584 40.065 373.995 39.081 373.995 37.9271ZM367.447 35.1581H369.931C370.635 35.1581 371.144 35.299 371.458 35.5827C371.774 35.8644 371.932 36.2444 371.932 36.7192C371.932 37.0896 371.812 37.4119 371.571 37.6821C371.33 37.9542 370.951 38.1508 370.434 38.2725C370.648 38.3535 370.805 38.4404 370.905 38.531C371.048 38.6583 371.194 38.8456 371.349 39.0946C371.358 39.1119 371.657 39.6465 372.248 40.696H370.612C370.082 39.6425 369.726 39.0135 369.544 38.8071C369.362 38.6006 369.179 38.4983 368.999 38.4983C368.96 38.4983 368.903 38.506 368.83 38.5194V40.6979H367.447V35.1619V35.1581ZM368.828 37.5065H369.427C369.825 37.5065 370.107 37.4427 370.271 37.3135C370.434 37.1842 370.516 37.0183 370.516 36.8156C370.516 36.6131 370.438 36.4452 370.281 36.3177C370.126 36.1904 369.858 36.1248 369.483 36.1248H368.828V37.5065Z" fill="#00609C"/>
<path d="M104.555 35.326C119.341 33.8327 134.281 33.825 149.061 35.326C149.499 44.2679 149.66 53.2212 149.673 62.1708C146.866 62.1766 144.06 62.1785 141.259 62.1708C141.249 55.0796 141.212 47.9804 140.785 40.8987L140.607 40.7348C137.427 40.3856 134.214 40.3758 131.017 40.2427C131.013 47.5521 131.013 54.8614 131.013 62.1748H122.603C122.603 54.8577 122.593 47.5385 122.607 40.2214C119.337 40.3527 116.069 40.4935 112.803 40.7039C112.477 47.8571 112.338 55.0158 112.342 62.1748H103.941C103.964 53.2194 104.164 44.266 104.557 35.3241" fill="#00609C"/>
<path d="M156.346 34.6645C169.072 34.2824 181.881 33.7132 194.537 35.4247C195.693 41.3622 195.669 47.5253 194.529 53.4628C191.631 53.6055 188.735 53.8274 185.836 53.9953C189.222 56.7353 192.661 59.4078 196.024 62.173C192.491 62.2097 188.955 62.173 185.422 62.1903C180.568 58.364 175.728 54.524 170.865 50.7053C170.199 50.1226 169.194 49.673 169.225 48.6445C174.977 48.6213 180.74 48.7757 186.489 48.494C186.828 45.7867 186.839 43.0505 186.557 40.3395C185.885 40.1349 185.192 40.0307 184.496 40.0153C177.811 39.7472 171.118 39.9015 164.433 39.9749C164.516 47.3786 164.416 54.7826 164.433 62.1884H156.11C156.127 53.0788 156.064 43.9672 156.141 34.8595L156.346 34.6645Z" fill="#00609C"/>
<path d="M200.131 35.5834C213.197 33.7909 226.484 33.8101 239.578 35.3153C239.859 37.3586 240.081 39.4099 240.228 41.4688C229.404 40.5617 219.799 39.7244 208.807 40.6949C208.313 45.6657 208.313 51.1244 208.807 56.0951C219.799 57.0638 229.404 56.2263 240.228 55.3213C240.079 57.3784 239.857 59.4315 239.578 61.4749C226.484 62.9801 213.197 62.9992 200.131 61.2067C199.024 52.8592 199.024 43.9309 200.131 35.5834Z" fill="#00609C"/>
<path d="M255.621 40.7188C255.072 45.8303 255.171 50.9863 255.604 56.0959C263.329 56.7711 271.093 56.694 278.823 56.1459C279.213 50.9997 279.339 45.8207 278.773 40.684C271.074 40.084 263.318 40.0299 255.621 40.7188ZM246.931 35.3218C260.38 33.8572 274 33.8243 287.448 35.3218C288.204 44.0415 288.156 52.8115 287.465 61.5315C274.027 62.9151 260.457 62.9499 247.019 61.518C246.133 52.8251 246.28 44.0378 246.931 35.3218Z" fill="#00609C"/>
<path d="M303.108 40.7188C302.56 45.8245 302.658 50.9805 303.09 56.0901C310.812 56.7788 318.578 56.6882 326.309 56.144C326.698 50.9978 326.824 45.8188 326.258 40.6822C318.559 40.082 310.808 40.0299 303.108 40.7188ZM294.421 35.3218C307.867 33.8572 321.487 33.8243 334.936 35.3218C335.692 44.0415 335.641 52.8118 334.954 61.5315C321.51 62.9111 307.926 62.9653 294.486 61.5065C293.654 52.8059 293.752 44.032 294.421 35.3218Z" fill="#00609C"/>
<path d="M341.43 34.6152C344.251 34.619 347.072 34.6287 349.9 34.6094C349.816 41.774 349.862 48.9444 350.224 56.0994C359.515 57.236 367.834 56.194 376.998 55.3198C376.845 57.4694 376.595 59.6152 376.269 61.7512C364.994 62.9148 353.594 62.8608 342.32 61.7552C341.543 52.7304 341.457 43.6669 341.43 34.6152Z" fill="#00609C"/>
</svg>
