<svg width="284" height="22" viewBox="0 0 284 22" fill="none" xmlns="http://www.w3.org/2000/svg">
<path d="M3.24801 10.305C3.65001 10.203 4.02801 10.131 4.38201 10.089C4.74201 10.041 5.08401 10.017 5.40801 10.017C6.07401 10.017 6.65901 10.113 7.16301 10.305C7.66701 10.491 8.08701 10.755 8.42301 11.097C8.76501 11.433 9.02001 11.835 9.18801 12.303C9.36201 12.771 9.44901 13.281 9.44901 13.833C9.44901 14.505 9.33201 15.108 9.09801 15.642C8.87001 16.17 8.55501 16.62 8.15301 16.992C7.75101 17.364 7.28301 17.649 6.74901 17.847C6.21501 18.045 5.64801 18.144 5.04801 18.144C4.70001 18.144 4.36401 18.111 4.04001 18.045C3.72201 17.985 3.42201 17.904 3.14001 17.802C2.86401 17.694 2.60601 17.571 2.36601 17.433C2.13201 17.295 1.92501 17.154 1.74501 17.01L2.00601 16.659C2.06001 16.569 2.14401 16.524 2.25801 16.524C2.33601 16.524 2.44701 16.569 2.59101 16.659C2.74101 16.749 2.93001 16.848 3.15801 16.956C3.39201 17.064 3.66801 17.163 3.98601 17.253C4.30401 17.343 4.67301 17.388 5.09301 17.388C5.58501 17.388 6.04401 17.31 6.47001 17.154C6.89601 16.992 7.26501 16.761 7.57701 16.461C7.88901 16.161 8.13201 15.792 8.30601 15.354C8.48601 14.91 8.57601 14.409 8.57601 13.851C8.57601 13.395 8.50701 12.975 8.36901 12.591C8.23701 12.207 8.03301 11.88 7.75701 11.61C7.48701 11.334 7.14201 11.121 6.72201 10.971C6.30801 10.815 5.81901 10.737 5.25501 10.737C4.91301 10.737 4.55001 10.764 4.16601 10.818C3.78201 10.872 3.37401 10.959 2.94201 11.079L2.39301 10.908L3.38301 5.265H9.11601V5.634C9.11601 5.754 9.07401 5.856 8.99001 5.94C8.91201 6.018 8.78601 6.057 8.61201 6.057H4.00401L3.24801 10.305ZM12.1684 17.307C12.1684 17.193 12.1894 17.085 12.2314 16.983C12.2734 16.881 12.3304 16.794 12.4024 16.722C12.4804 16.644 12.5674 16.584 12.6634 16.542C12.7654 16.494 12.8764 16.47 12.9964 16.47C13.1104 16.47 13.2184 16.494 13.3204 16.542C13.4224 16.584 13.5094 16.644 13.5814 16.722C13.6594 16.794 13.7194 16.881 13.7614 16.983C13.8094 17.085 13.8334 17.193 13.8334 17.307C13.8334 17.427 13.8094 17.538 13.7614 17.64C13.7194 17.736 13.6594 17.823 13.5814 17.901C13.5094 17.973 13.4224 18.03 13.3204 18.072C13.2184 18.114 13.1104 18.135 12.9964 18.135C12.7624 18.135 12.5644 18.057 12.4024 17.901C12.2464 17.739 12.1684 17.541 12.1684 17.307ZM24.8836 11.628C24.8836 12.744 24.7636 13.71 24.5236 14.526C24.2836 15.342 23.9566 16.017 23.5426 16.551C23.1286 17.085 22.6426 17.484 22.0846 17.748C21.5326 18.006 20.9416 18.135 20.3116 18.135C19.6816 18.135 19.0906 18.006 18.5386 17.748C17.9866 17.484 17.5036 17.085 17.0896 16.551C16.6756 16.017 16.3486 15.342 16.1086 14.526C15.8746 13.71 15.7576 12.744 15.7576 11.628C15.7576 10.512 15.8746 9.546 16.1086 8.73C16.3486 7.914 16.6756 7.239 17.0896 6.705C17.5036 6.171 17.9866 5.775 18.5386 5.517C19.0906 5.253 19.6816 5.121 20.3116 5.121C20.9416 5.121 21.5326 5.253 22.0846 5.517C22.6426 5.775 23.1286 6.171 23.5426 6.705C23.9566 7.239 24.2836 7.914 24.5236 8.73C24.7636 9.546 24.8836 10.512 24.8836 11.628ZM23.9836 11.628C23.9836 10.596 23.8846 9.714 23.6866 8.982C23.4886 8.25 23.2216 7.653 22.8856 7.191C22.5556 6.723 22.1656 6.381 21.7156 6.165C21.2716 5.949 20.8036 5.841 20.3116 5.841C19.8196 5.841 19.3516 5.949 18.9076 6.165C18.4636 6.381 18.0736 6.723 17.7376 7.191C17.4016 7.653 17.1346 8.25 16.9366 8.982C16.7386 9.714 16.6396 10.596 16.6396 11.628C16.6396 12.666 16.7386 13.551 16.9366 14.283C17.1346 15.009 17.4016 15.606 17.7376 16.074C18.0736 16.536 18.4636 16.875 18.9076 17.091C19.3516 17.301 19.8196 17.406 20.3116 17.406C20.8036 17.406 21.2716 17.301 21.7156 17.091C22.1656 16.875 22.5556 16.536 22.8856 16.074C23.2216 15.606 23.4886 15.009 23.6866 14.283C23.8846 13.551 23.9836 12.666 23.9836 11.628Z" fill="black"/>
<path d="M43 1.00003L45.2451 7.90986H52.5106L46.6327 12.1804L48.8779 19.0902L43 14.8197L37.1221 19.0902L39.3673 12.1804L33.4894 7.90986H40.7549L43 1.00003Z" fill="#FDD663"/>
<path d="M63 1.00003L65.2451 7.90986H72.5106L66.6327 12.1804L68.8779 19.0902L63 14.8197L57.1221 19.0902L59.3673 12.1804L53.4894 7.90986H60.7549L63 1.00003Z" fill="#FDD663"/>
<path d="M83 1.00003L85.2451 7.90986H92.5106L86.6327 12.1804L88.8779 19.0902L83 14.8197L77.1221 19.0902L79.3673 12.1804L73.4894 7.90986H80.7549L83 1.00003Z" fill="#FDD663"/>
<path d="M103 1.00003L105.245 7.90986H112.511L106.633 12.1804L108.878 19.0902L103 14.8197L97.1221 19.0902L99.3673 12.1804L93.4894 7.90986H100.755L103 1.00003Z" fill="#FDD663"/>
<path d="M123 1L125.245 7.90983H132.511L126.633 12.1803L128.878 19.0902L123 14.8197L117.122 19.0902L119.367 12.1803L113.489 7.90983H120.755L123 1Z" fill="#FDD663"/>
<path d="M143.613 17.433C144.129 17.433 144.594 17.352 145.008 17.19C145.422 17.028 145.773 16.806 146.061 16.524C146.355 16.236 146.58 15.897 146.736 15.507C146.892 15.111 146.97 14.682 146.97 14.22C146.97 13.734 146.892 13.296 146.736 12.906C146.586 12.51 146.37 12.177 146.088 11.907C145.812 11.631 145.482 11.421 145.098 11.277C144.714 11.127 144.288 11.052 143.82 11.052C143.292 11.052 142.818 11.145 142.398 11.331C141.984 11.511 141.633 11.748 141.345 12.042C141.057 12.33 140.838 12.66 140.688 13.032C140.538 13.404 140.463 13.779 140.463 14.157C140.463 14.631 140.535 15.069 140.679 15.471C140.829 15.873 141.039 16.221 141.309 16.515C141.579 16.803 141.909 17.028 142.299 17.19C142.689 17.352 143.127 17.433 143.613 17.433ZM142.137 10.224C141.951 10.47 141.78 10.701 141.624 10.917C141.468 11.133 141.327 11.346 141.201 11.556C141.555 11.19 141.975 10.905 142.461 10.701C142.947 10.491 143.478 10.386 144.054 10.386C144.6 10.386 145.104 10.476 145.566 10.656C146.028 10.836 146.424 11.091 146.754 11.421C147.09 11.745 147.351 12.141 147.537 12.609C147.729 13.071 147.825 13.59 147.825 14.166C147.825 14.742 147.72 15.273 147.51 15.759C147.306 16.245 147.018 16.665 146.646 17.019C146.28 17.373 145.839 17.649 145.323 17.847C144.807 18.045 144.24 18.144 143.622 18.144C143.028 18.144 142.485 18.048 141.993 17.856C141.501 17.664 141.078 17.388 140.724 17.028C140.376 16.668 140.106 16.23 139.914 15.714C139.722 15.192 139.626 14.604 139.626 13.95C139.626 13.452 139.752 12.891 140.004 12.267C140.256 11.637 140.67 10.932 141.246 10.152L144.72 5.472C144.822 5.334 144.975 5.265 145.179 5.265H145.935L142.137 10.224ZM154.055 17.433C154.571 17.433 155.036 17.352 155.45 17.19C155.864 17.028 156.215 16.806 156.503 16.524C156.797 16.236 157.022 15.897 157.178 15.507C157.334 15.111 157.412 14.682 157.412 14.22C157.412 13.734 157.334 13.296 157.178 12.906C157.028 12.51 156.812 12.177 156.53 11.907C156.254 11.631 155.924 11.421 155.54 11.277C155.156 11.127 154.73 11.052 154.262 11.052C153.734 11.052 153.26 11.145 152.84 11.331C152.426 11.511 152.075 11.748 151.787 12.042C151.499 12.33 151.28 12.66 151.13 13.032C150.98 13.404 150.905 13.779 150.905 14.157C150.905 14.631 150.977 15.069 151.121 15.471C151.271 15.873 151.481 16.221 151.751 16.515C152.021 16.803 152.351 17.028 152.741 17.19C153.131 17.352 153.569 17.433 154.055 17.433ZM152.579 10.224C152.393 10.47 152.222 10.701 152.066 10.917C151.91 11.133 151.769 11.346 151.643 11.556C151.997 11.19 152.417 10.905 152.903 10.701C153.389 10.491 153.92 10.386 154.496 10.386C155.042 10.386 155.546 10.476 156.008 10.656C156.47 10.836 156.866 11.091 157.196 11.421C157.532 11.745 157.793 12.141 157.979 12.609C158.171 13.071 158.267 13.59 158.267 14.166C158.267 14.742 158.162 15.273 157.952 15.759C157.748 16.245 157.46 16.665 157.088 17.019C156.722 17.373 156.281 17.649 155.765 17.847C155.249 18.045 154.682 18.144 154.064 18.144C153.47 18.144 152.927 18.048 152.435 17.856C151.943 17.664 151.52 17.388 151.166 17.028C150.818 16.668 150.548 16.23 150.356 15.714C150.164 15.192 150.068 14.604 150.068 13.95C150.068 13.452 150.194 12.891 150.446 12.267C150.698 11.637 151.112 10.932 151.688 10.152L155.162 5.472C155.264 5.334 155.417 5.265 155.621 5.265H156.377L152.579 10.224ZM176.223 12.222V16.749C175.587 17.199 174.909 17.544 174.189 17.784C173.469 18.024 172.659 18.144 171.759 18.144C170.751 18.144 169.845 17.991 169.041 17.685C168.237 17.373 167.55 16.935 166.98 16.371C166.416 15.801 165.981 15.114 165.675 14.31C165.375 13.506 165.225 12.612 165.225 11.628C165.225 10.644 165.372 9.753 165.666 8.955C165.966 8.151 166.392 7.467 166.944 6.903C167.502 6.333 168.174 5.895 168.96 5.589C169.746 5.277 170.631 5.121 171.615 5.121C172.101 5.121 172.548 5.154 172.956 5.22C173.37 5.286 173.754 5.385 174.108 5.517C174.462 5.643 174.792 5.802 175.098 5.994C175.404 6.18 175.698 6.396 175.98 6.642L175.728 7.038C175.644 7.182 175.518 7.215 175.35 7.137C175.26 7.101 175.131 7.017 174.963 6.885C174.795 6.753 174.564 6.615 174.27 6.471C173.976 6.327 173.61 6.198 173.172 6.084C172.74 5.97 172.212 5.913 171.588 5.913C170.76 5.913 170.01 6.045 169.338 6.309C168.672 6.573 168.102 6.951 167.628 7.443C167.16 7.935 166.797 8.535 166.539 9.243C166.287 9.951 166.161 10.746 166.161 11.628C166.161 12.522 166.287 13.326 166.539 14.04C166.797 14.754 167.166 15.36 167.646 15.858C168.132 16.356 168.72 16.737 169.41 17.001C170.1 17.265 170.877 17.397 171.741 17.397C172.119 17.397 172.467 17.373 172.785 17.325C173.109 17.277 173.415 17.211 173.703 17.127C173.997 17.037 174.279 16.929 174.549 16.803C174.825 16.671 175.104 16.524 175.386 16.362V12.933H172.947C172.881 12.933 172.824 12.912 172.776 12.87C172.734 12.828 172.713 12.78 172.713 12.726V12.222H176.223ZM182.307 8.901C182.949 8.901 183.522 9.012 184.026 9.234C184.536 9.45 184.965 9.759 185.313 10.161C185.661 10.563 185.925 11.049 186.105 11.619C186.291 12.183 186.384 12.816 186.384 13.518C186.384 14.22 186.291 14.853 186.105 15.417C185.925 15.981 185.661 16.464 185.313 16.866C184.965 17.268 184.536 17.577 184.026 17.793C183.522 18.009 182.949 18.117 182.307 18.117C181.665 18.117 181.089 18.009 180.579 17.793C180.075 17.577 179.646 17.268 179.292 16.866C178.944 16.464 178.677 15.981 178.491 15.417C178.311 14.853 178.221 14.22 178.221 13.518C178.221 12.816 178.311 12.183 178.491 11.619C178.677 11.049 178.944 10.563 179.292 10.161C179.646 9.759 180.075 9.45 180.579 9.234C181.089 9.012 181.665 8.901 182.307 8.901ZM182.307 17.442C182.841 17.442 183.306 17.352 183.702 17.172C184.104 16.986 184.437 16.722 184.701 16.38C184.971 16.038 185.172 15.627 185.304 15.147C185.436 14.661 185.502 14.118 185.502 13.518C185.502 12.924 185.436 12.384 185.304 11.898C185.172 11.412 184.971 10.998 184.701 10.656C184.437 10.308 184.104 10.041 183.702 9.855C183.306 9.669 182.841 9.576 182.307 9.576C181.773 9.576 181.305 9.669 180.903 9.855C180.507 10.041 180.174 10.308 179.904 10.656C179.64 10.998 179.439 11.412 179.301 11.898C179.169 12.384 179.103 12.924 179.103 13.518C179.103 14.118 179.169 14.661 179.301 15.147C179.439 15.627 179.64 16.038 179.904 16.38C180.174 16.722 180.507 16.986 180.903 17.172C181.305 17.352 181.773 17.442 182.307 17.442ZM192.344 8.901C192.986 8.901 193.559 9.012 194.063 9.234C194.573 9.45 195.002 9.759 195.35 10.161C195.698 10.563 195.962 11.049 196.142 11.619C196.328 12.183 196.421 12.816 196.421 13.518C196.421 14.22 196.328 14.853 196.142 15.417C195.962 15.981 195.698 16.464 195.35 16.866C195.002 17.268 194.573 17.577 194.063 17.793C193.559 18.009 192.986 18.117 192.344 18.117C191.702 18.117 191.126 18.009 190.616 17.793C190.112 17.577 189.683 17.268 189.329 16.866C188.981 16.464 188.714 15.981 188.528 15.417C188.348 14.853 188.258 14.22 188.258 13.518C188.258 12.816 188.348 12.183 188.528 11.619C188.714 11.049 188.981 10.563 189.329 10.161C189.683 9.759 190.112 9.45 190.616 9.234C191.126 9.012 191.702 8.901 192.344 8.901ZM192.344 17.442C192.878 17.442 193.343 17.352 193.739 17.172C194.141 16.986 194.474 16.722 194.738 16.38C195.008 16.038 195.209 15.627 195.341 15.147C195.473 14.661 195.539 14.118 195.539 13.518C195.539 12.924 195.473 12.384 195.341 11.898C195.209 11.412 195.008 10.998 194.738 10.656C194.474 10.308 194.141 10.041 193.739 9.855C193.343 9.669 192.878 9.576 192.344 9.576C191.81 9.576 191.342 9.669 190.94 9.855C190.544 10.041 190.211 10.308 189.941 10.656C189.677 10.998 189.476 11.412 189.338 11.898C189.206 12.384 189.14 12.924 189.14 13.518C189.14 14.118 189.206 14.661 189.338 15.147C189.476 15.627 189.677 16.038 189.941 16.38C190.211 16.722 190.544 16.986 190.94 17.172C191.342 17.352 191.81 17.442 192.344 17.442ZM201.725 14.04C202.109 14.04 202.451 13.986 202.751 13.878C203.051 13.764 203.303 13.608 203.507 13.41C203.711 13.212 203.867 12.975 203.975 12.699C204.083 12.423 204.137 12.117 204.137 11.781C204.137 11.445 204.08 11.139 203.966 10.863C203.858 10.581 203.699 10.341 203.489 10.143C203.285 9.945 203.033 9.792 202.733 9.684C202.439 9.576 202.103 9.522 201.725 9.522C201.347 9.522 201.008 9.576 200.708 9.684C200.414 9.792 200.162 9.945 199.952 10.143C199.748 10.341 199.592 10.581 199.484 10.863C199.376 11.139 199.322 11.445 199.322 11.781C199.322 12.117 199.376 12.423 199.484 12.699C199.592 12.975 199.748 13.212 199.952 13.41C200.162 13.608 200.414 13.764 200.708 13.878C201.008 13.986 201.347 14.04 201.725 14.04ZM205.073 18.603C205.073 18.321 204.998 18.096 204.848 17.928C204.704 17.754 204.509 17.619 204.263 17.523C204.017 17.427 203.732 17.361 203.408 17.325C203.09 17.283 202.754 17.253 202.4 17.235C202.052 17.217 201.701 17.199 201.347 17.181C200.993 17.163 200.66 17.127 200.348 17.073C200.12 17.163 199.91 17.268 199.718 17.388C199.526 17.502 199.361 17.634 199.223 17.784C199.085 17.934 198.977 18.096 198.899 18.27C198.821 18.45 198.782 18.642 198.782 18.846C198.782 19.11 198.848 19.353 198.98 19.575C199.118 19.803 199.316 19.998 199.574 20.16C199.838 20.328 200.159 20.46 200.537 20.556C200.915 20.652 201.35 20.7 201.842 20.7C202.298 20.7 202.721 20.649 203.111 20.547C203.507 20.445 203.849 20.301 204.137 20.115C204.431 19.929 204.659 19.707 204.821 19.449C204.989 19.191 205.073 18.909 205.073 18.603ZM206.009 9.441V9.738C206.009 9.87 205.925 9.951 205.757 9.981L204.389 10.08C204.557 10.308 204.686 10.563 204.776 10.845C204.866 11.127 204.911 11.433 204.911 11.763C204.911 12.195 204.833 12.588 204.677 12.942C204.527 13.29 204.311 13.59 204.029 13.842C203.753 14.088 203.417 14.28 203.021 14.418C202.631 14.556 202.199 14.625 201.725 14.625C201.215 14.625 200.75 14.547 200.33 14.391C200.078 14.535 199.877 14.706 199.727 14.904C199.583 15.096 199.511 15.288 199.511 15.48C199.511 15.738 199.601 15.936 199.781 16.074C199.967 16.212 200.207 16.314 200.501 16.38C200.801 16.44 201.14 16.479 201.518 16.497C201.902 16.515 202.292 16.536 202.688 16.56C203.084 16.578 203.471 16.614 203.849 16.668C204.233 16.722 204.572 16.818 204.866 16.956C205.166 17.088 205.406 17.277 205.586 17.523C205.772 17.763 205.865 18.084 205.865 18.486C205.865 18.858 205.772 19.215 205.586 19.557C205.4 19.899 205.13 20.202 204.776 20.466C204.428 20.73 204.005 20.94 203.507 21.096C203.009 21.258 202.451 21.339 201.833 21.339C201.203 21.339 200.651 21.273 200.177 21.141C199.703 21.015 199.304 20.841 198.98 20.619C198.662 20.403 198.422 20.151 198.26 19.863C198.098 19.575 198.017 19.269 198.017 18.945C198.017 18.471 198.173 18.066 198.485 17.73C198.797 17.388 199.223 17.121 199.763 16.929C199.463 16.827 199.22 16.68 199.034 16.488C198.854 16.29 198.764 16.023 198.764 15.687C198.764 15.561 198.788 15.429 198.836 15.291C198.884 15.153 198.956 15.018 199.052 14.886C199.148 14.748 199.265 14.619 199.403 14.499C199.541 14.379 199.697 14.271 199.871 14.175C199.445 13.929 199.112 13.602 198.872 13.194C198.638 12.786 198.521 12.309 198.521 11.763C198.521 11.331 198.596 10.941 198.746 10.593C198.902 10.239 199.121 9.936 199.403 9.684C199.685 9.432 200.021 9.237 200.411 9.099C200.807 8.961 201.245 8.892 201.725 8.892C202.121 8.892 202.484 8.94 202.814 9.036C203.15 9.132 203.45 9.267 203.714 9.441H206.009ZM208.939 4.905V18H208.075V4.905H208.939ZM218.248 12.618C218.248 12.138 218.179 11.709 218.041 11.331C217.909 10.947 217.72 10.623 217.474 10.359C217.228 10.095 216.934 9.894 216.592 9.756C216.256 9.612 215.884 9.54 215.476 9.54C215.014 9.54 214.6 9.612 214.234 9.756C213.868 9.9 213.55 10.107 213.28 10.377C213.016 10.647 212.803 10.971 212.641 11.349C212.479 11.727 212.371 12.15 212.317 12.618H218.248ZM212.272 13.167V13.338C212.272 14.01 212.35 14.601 212.506 15.111C212.662 15.621 212.884 16.05 213.172 16.398C213.46 16.74 213.808 16.998 214.216 17.172C214.624 17.346 215.08 17.433 215.584 17.433C216.034 17.433 216.424 17.385 216.754 17.289C217.084 17.187 217.36 17.076 217.582 16.956C217.81 16.83 217.99 16.719 218.122 16.623C218.254 16.521 218.35 16.47 218.41 16.47C218.488 16.47 218.548 16.5 218.59 16.56L218.824 16.848C218.68 17.028 218.488 17.196 218.248 17.352C218.014 17.508 217.75 17.643 217.456 17.757C217.168 17.865 216.856 17.952 216.52 18.018C216.19 18.084 215.857 18.117 215.521 18.117C214.909 18.117 214.351 18.012 213.847 17.802C213.343 17.586 212.911 17.274 212.551 16.866C212.191 16.458 211.912 15.96 211.714 15.372C211.522 14.778 211.426 14.1 211.426 13.338C211.426 12.696 211.516 12.105 211.696 11.565C211.882 11.019 212.146 10.551 212.488 10.161C212.836 9.765 213.259 9.456 213.757 9.234C214.261 9.012 214.831 8.901 215.467 8.901C215.971 8.901 216.439 8.988 216.871 9.162C217.303 9.336 217.678 9.591 217.996 9.927C218.314 10.257 218.563 10.665 218.743 11.151C218.929 11.637 219.022 12.195 219.022 12.825C219.022 12.957 219.004 13.047 218.968 13.095C218.932 13.143 218.872 13.167 218.788 13.167H212.272ZM227.059 11.205C227.197 10.839 227.353 10.515 227.527 10.233C227.707 9.945 227.911 9.702 228.139 9.504C228.373 9.306 228.631 9.156 228.913 9.054C229.201 8.946 229.519 8.892 229.867 8.892C230.053 8.892 230.236 8.91 230.416 8.946C230.596 8.976 230.755 9.033 230.893 9.117L230.821 9.711C230.791 9.807 230.734 9.855 230.65 9.855C230.578 9.855 230.467 9.834 230.317 9.792C230.173 9.75 229.981 9.729 229.741 9.729C229.393 9.729 229.084 9.783 228.814 9.891C228.55 9.993 228.31 10.149 228.094 10.359C227.884 10.569 227.698 10.83 227.536 11.142C227.38 11.448 227.236 11.802 227.104 12.204V18H226.24V9.045H226.699C226.801 9.045 226.873 9.066 226.915 9.108C226.957 9.15 226.984 9.222 226.996 9.324L227.059 11.205ZM238.375 12.618C238.375 12.138 238.306 11.709 238.168 11.331C238.036 10.947 237.847 10.623 237.601 10.359C237.355 10.095 237.061 9.894 236.719 9.756C236.383 9.612 236.011 9.54 235.603 9.54C235.141 9.54 234.727 9.612 234.361 9.756C233.995 9.9 233.677 10.107 233.407 10.377C233.143 10.647 232.93 10.971 232.768 11.349C232.606 11.727 232.498 12.15 232.444 12.618H238.375ZM232.399 13.167V13.338C232.399 14.01 232.477 14.601 232.633 15.111C232.789 15.621 233.011 16.05 233.299 16.398C233.587 16.74 233.935 16.998 234.343 17.172C234.751 17.346 235.207 17.433 235.711 17.433C236.161 17.433 236.551 17.385 236.881 17.289C237.211 17.187 237.487 17.076 237.709 16.956C237.937 16.83 238.117 16.719 238.249 16.623C238.381 16.521 238.477 16.47 238.537 16.47C238.615 16.47 238.675 16.5 238.717 16.56L238.951 16.848C238.807 17.028 238.615 17.196 238.375 17.352C238.141 17.508 237.877 17.643 237.583 17.757C237.295 17.865 236.983 17.952 236.647 18.018C236.317 18.084 235.984 18.117 235.648 18.117C235.036 18.117 234.478 18.012 233.974 17.802C233.47 17.586 233.038 17.274 232.678 16.866C232.318 16.458 232.039 15.96 231.841 15.372C231.649 14.778 231.553 14.1 231.553 13.338C231.553 12.696 231.643 12.105 231.823 11.565C232.009 11.019 232.273 10.551 232.615 10.161C232.963 9.765 233.386 9.456 233.884 9.234C234.388 9.012 234.958 8.901 235.594 8.901C236.098 8.901 236.566 8.988 236.998 9.162C237.43 9.336 237.805 9.591 238.123 9.927C238.441 10.257 238.69 10.665 238.87 11.151C239.056 11.637 239.149 12.195 239.149 12.825C239.149 12.957 239.131 13.047 239.095 13.095C239.059 13.143 238.999 13.167 238.915 13.167H232.399ZM248.513 9.045L244.733 18H243.977L240.197 9.045H240.872C240.956 9.045 241.025 9.069 241.079 9.117C241.133 9.159 241.169 9.207 241.187 9.261L244.148 16.326C244.238 16.59 244.31 16.851 244.364 17.109C244.418 16.851 244.493 16.59 244.589 16.326L247.559 9.261C247.589 9.195 247.628 9.144 247.676 9.108C247.73 9.066 247.793 9.045 247.865 9.045H248.513ZM251.311 9.045V18H250.456V9.045H251.311ZM251.68 5.958C251.68 6.066 251.656 6.168 251.608 6.264C251.566 6.354 251.509 6.435 251.437 6.507C251.365 6.579 251.281 6.636 251.185 6.678C251.089 6.72 250.987 6.741 250.879 6.741C250.771 6.741 250.669 6.72 250.573 6.678C250.477 6.636 250.393 6.579 250.321 6.507C250.249 6.435 250.192 6.354 250.15 6.264C250.108 6.168 250.087 6.066 250.087 5.958C250.087 5.85 250.108 5.748 250.15 5.652C250.192 5.55 250.249 5.463 250.321 5.391C250.393 5.319 250.477 5.262 250.573 5.22C250.669 5.178 250.771 5.157 250.879 5.157C250.987 5.157 251.089 5.178 251.185 5.22C251.281 5.262 251.365 5.319 251.437 5.391C251.509 5.463 251.566 5.55 251.608 5.652C251.656 5.748 251.68 5.85 251.68 5.958ZM260.647 12.618C260.647 12.138 260.578 11.709 260.44 11.331C260.308 10.947 260.119 10.623 259.873 10.359C259.627 10.095 259.333 9.894 258.991 9.756C258.655 9.612 258.283 9.54 257.875 9.54C257.413 9.54 256.999 9.612 256.633 9.756C256.267 9.9 255.949 10.107 255.679 10.377C255.415 10.647 255.202 10.971 255.04 11.349C254.878 11.727 254.77 12.15 254.716 12.618H260.647ZM254.671 13.167V13.338C254.671 14.01 254.749 14.601 254.905 15.111C255.061 15.621 255.283 16.05 255.571 16.398C255.859 16.74 256.207 16.998 256.615 17.172C257.023 17.346 257.479 17.433 257.983 17.433C258.433 17.433 258.823 17.385 259.153 17.289C259.483 17.187 259.759 17.076 259.981 16.956C260.209 16.83 260.389 16.719 260.521 16.623C260.653 16.521 260.749 16.47 260.809 16.47C260.887 16.47 260.947 16.5 260.989 16.56L261.223 16.848C261.079 17.028 260.887 17.196 260.647 17.352C260.413 17.508 260.149 17.643 259.855 17.757C259.567 17.865 259.255 17.952 258.919 18.018C258.589 18.084 258.256 18.117 257.92 18.117C257.308 18.117 256.75 18.012 256.246 17.802C255.742 17.586 255.31 17.274 254.95 16.866C254.59 16.458 254.311 15.96 254.113 15.372C253.921 14.778 253.825 14.1 253.825 13.338C253.825 12.696 253.915 12.105 254.095 11.565C254.281 11.019 254.545 10.551 254.887 10.161C255.235 9.765 255.658 9.456 256.156 9.234C256.66 9.012 257.23 8.901 257.866 8.901C258.37 8.901 258.838 8.988 259.27 9.162C259.702 9.336 260.077 9.591 260.395 9.927C260.713 10.257 260.962 10.665 261.142 11.151C261.328 11.637 261.421 12.195 261.421 12.825C261.421 12.957 261.403 13.047 261.367 13.095C261.331 13.143 261.271 13.167 261.187 13.167H254.671ZM275.534 9.045L272.546 18H271.907C271.805 18 271.736 17.937 271.7 17.811L269.252 10.539C269.222 10.449 269.195 10.359 269.171 10.269C269.147 10.179 269.126 10.089 269.108 9.999C269.078 10.179 269.033 10.359 268.973 10.539L266.489 17.811C266.453 17.937 266.381 18 266.273 18H265.661L262.673 9.045H263.321C263.405 9.045 263.474 9.069 263.528 9.117C263.582 9.159 263.618 9.207 263.636 9.261L265.895 16.326C265.931 16.464 265.964 16.599 265.994 16.731C266.024 16.857 266.048 16.983 266.066 17.109C266.102 16.983 266.138 16.857 266.174 16.731C266.21 16.599 266.252 16.464 266.3 16.326L268.694 9.198C268.736 9.066 268.82 9 268.946 9H269.297C269.429 9 269.516 9.066 269.558 9.198L271.934 16.326C271.976 16.464 272.015 16.596 272.051 16.722C272.087 16.848 272.12 16.974 272.15 17.1C272.174 16.974 272.198 16.848 272.222 16.722C272.252 16.596 272.288 16.464 272.33 16.326L274.607 9.261C274.631 9.195 274.67 9.144 274.724 9.108C274.778 9.066 274.841 9.045 274.913 9.045H275.534ZM282.35 10.152C282.302 10.236 282.233 10.278 282.143 10.278C282.077 10.278 281.993 10.242 281.891 10.17C281.789 10.092 281.651 10.008 281.477 9.918C281.309 9.822 281.099 9.738 280.847 9.666C280.595 9.588 280.289 9.549 279.929 9.549C279.605 9.549 279.308 9.597 279.038 9.693C278.774 9.783 278.546 9.906 278.354 10.062C278.168 10.218 278.024 10.401 277.922 10.611C277.82 10.815 277.769 11.031 277.769 11.259C277.769 11.541 277.841 11.775 277.985 11.961C278.129 12.147 278.315 12.306 278.543 12.438C278.777 12.57 279.044 12.684 279.344 12.78C279.644 12.876 279.947 12.972 280.253 13.068C280.565 13.164 280.871 13.272 281.171 13.392C281.471 13.506 281.735 13.65 281.963 13.824C282.197 13.998 282.386 14.211 282.53 14.463C282.674 14.715 282.746 15.021 282.746 15.381C282.746 15.771 282.677 16.134 282.539 16.47C282.401 16.806 282.197 17.097 281.927 17.343C281.663 17.589 281.336 17.784 280.946 17.928C280.556 18.072 280.109 18.144 279.605 18.144C278.975 18.144 278.432 18.045 277.976 17.847C277.52 17.643 277.112 17.379 276.752 17.055L276.95 16.749C276.98 16.701 277.013 16.665 277.049 16.641C277.091 16.617 277.145 16.605 277.211 16.605C277.289 16.605 277.382 16.653 277.49 16.749C277.604 16.845 277.754 16.95 277.94 17.064C278.126 17.172 278.354 17.274 278.624 17.37C278.9 17.466 279.239 17.514 279.641 17.514C280.019 17.514 280.352 17.463 280.64 17.361C280.928 17.253 281.168 17.109 281.36 16.929C281.552 16.749 281.696 16.539 281.792 16.299C281.894 16.053 281.945 15.795 281.945 15.525C281.945 15.225 281.873 14.976 281.729 14.778C281.585 14.58 281.396 14.412 281.162 14.274C280.928 14.136 280.661 14.019 280.361 13.923C280.067 13.827 279.764 13.731 279.452 13.635C279.14 13.539 278.834 13.434 278.534 13.32C278.24 13.206 277.976 13.062 277.742 12.888C277.508 12.714 277.319 12.504 277.175 12.258C277.031 12.006 276.959 11.694 276.959 11.322C276.959 11.004 277.028 10.698 277.166 10.404C277.304 10.11 277.499 9.852 277.751 9.63C278.009 9.408 278.321 9.231 278.687 9.099C279.053 8.967 279.464 8.901 279.92 8.901C280.466 8.901 280.949 8.979 281.369 9.135C281.795 9.291 282.182 9.531 282.53 9.855L282.35 10.152Z" fill="#8AB4F8"/>
</svg>
