<svg width="49" height="48" viewBox="0 0 49 48" fill="none" xmlns="http://www.w3.org/2000/svg">
<path d="M25.2998 9.16189C23.9245 8.49546 22.5159 8.00587 21.0919 7.60571C21.8714 6.38631 22.8557 5.43829 23.691 4.28892C23.9754 3.89795 23.8818 3.06697 23.4327 2.96424C21.4758 2.51502 19.517 2.75522 17.5458 2.77771C17.493 2.77822 17.4402 2.78128 17.3874 2.7818C17.4568 1.91759 17.4116 1.08507 17.0563 0.396161C16.907 0.107922 16.6611 -0.0775931 16.3956 0.031774C14.7849 0.695132 13.1893 1.43208 11.622 2.26051C11.3298 1.92168 11.0277 1.59716 10.7056 1.30074C10.5397 1.14844 10.2817 1.15866 10.1151 1.30074C8.49079 2.68418 7.00871 4.29658 5.45723 5.81699C3.83071 7.4115 2.14574 8.89154 0.523362 10.4947C0.389484 10.6271 0.315945 10.7983 0.286907 10.9777C0.117203 11.0922 -0.00687012 11.3155 0.000295171 11.6543C0.074588 15.3304 0.38345 18.9901 0.292564 22.6713C0.276725 23.3122 0.763587 23.5636 1.14109 23.3689C1.7622 24.6731 2.1842 26.1317 2.76723 27.4686C2.76798 27.4727 2.76912 27.4748 2.76987 27.4788C2.77817 27.5141 2.78986 27.5458 2.80042 27.578C2.8023 27.6076 2.80607 27.6347 2.80758 27.6644C2.8238 27.9332 2.91959 28.1289 3.04856 28.2557C3.03612 28.8439 3.11494 29.5134 3.20431 30.1466C3.42304 31.6905 2.70086 34.7681 4.63549 34.3843C4.77502 34.3567 4.85271 34.2473 4.87911 34.115C5.1265 35.7805 5.55227 37.3612 6.06402 38.9312C6.75377 41.046 7.80028 43.0616 8.31354 45.2679C8.56282 46.338 8.78796 47.2615 9.61687 47.6504C10.6796 48.1487 12.0044 47.9974 13.1026 47.8988C13.947 47.8237 14.6635 47.6397 15.3167 46.8731C16.1611 45.8822 16.5951 44.2478 17.0009 42.8843C17.51 41.1763 18.0176 39.5476 18.6685 37.9244C19.2508 36.4715 19.7301 35.0293 19.9258 33.4516C20.2309 33.4986 20.4753 33.4434 20.7774 33.3269C20.9373 33.2666 21.0218 33.0837 21.035 32.869C21.13 31.3057 21.6565 26.9857 19.9149 26.7041C20.2996 24.0159 21.4456 21.6042 22.3752 19.1812C22.5299 18.9763 22.6426 18.6963 22.6901 18.338C23.7201 15.5134 24.9483 12.8196 25.5453 9.74654C25.5962 9.48181 25.4812 9.24928 25.2998 9.16189ZM20.4983 30.142C20.4146 29.8711 20.3173 29.6079 20.2072 29.3534C19.9783 28.825 19.3715 29.3028 19.6011 29.8333C19.8025 30.2979 19.9507 30.7767 20.0337 31.3052C20.0797 31.597 20.2649 31.6854 20.4316 31.6307C20.4074 31.9609 20.3814 32.2588 20.3614 32.498C20.2453 32.5286 20.1261 32.5286 20.0058 32.5118C20.0152 32.316 20.0213 32.1193 20.0209 31.9184C20.0209 31.3052 19.3194 31.3052 19.3194 31.9184C19.3221 35.2782 17.711 37.8749 16.8289 40.8707C16.1192 43.2788 15.5682 46.6048 13.35 46.9201C12.4408 47.0504 11.5142 47.0372 10.6046 46.9309C10.1588 46.8787 9.60895 46.8113 9.3378 46.2619C9.05987 45.6997 9.0346 44.9628 8.82228 44.3602C7.52536 40.6831 5.82719 37.094 5.43875 32.9758C5.38219 32.3763 4.67961 32.3687 4.73693 32.9758C4.75994 33.2176 4.78747 33.4557 4.81801 33.6928C4.74297 33.5416 4.61361 33.4353 4.44843 33.468C4.02832 33.5513 3.91066 32.9758 3.89558 32.3038C3.9529 32.2491 3.99928 32.1648 4.02229 32.0447C4.18332 31.204 4.40657 30.4016 4.68904 29.6227C4.8874 29.0739 4.28212 28.5919 4.08263 29.1434C4.00494 29.357 3.93102 29.5732 3.86088 29.7914C3.79602 29.3953 3.7221 28.9558 3.70098 28.5654C4.06566 28.4943 4.37754 28.0165 4.16182 27.4983C4.24366 27.4875 4.33794 27.4911 4.44843 27.5162C4.64491 27.5611 4.79048 27.4058 4.85422 27.21C4.88137 27.1768 4.90626 27.1364 4.92285 27.0863C5.03071 26.7547 5.12725 26.4174 5.21399 26.0785C5.25133 26.0044 5.28263 25.9191 5.3011 25.8148C5.32147 25.7019 5.33844 25.59 5.35767 25.477C5.61638 24.3143 5.77213 23.1169 5.883 21.9083C5.95239 21.5107 6.02895 21.1151 6.10513 20.7195C7.68338 19.2814 8.23397 16.8293 8.32373 14.2858C9.74472 14.1688 11.1785 14.2873 12.5984 14.3635C13.6996 14.4222 14.7778 14.4442 15.8748 14.3011C16.6664 14.1984 19.1007 13.5248 19.2493 15.2696C19.3172 16.0612 19.3179 16.8866 19.2991 17.7155C19.2953 17.854 19.2912 17.9925 19.2885 18.131C19.2629 18.9789 19.2233 19.8252 19.215 20.6398C19.1931 22.7791 19.166 24.9179 19.1633 27.0572C19.1629 27.2785 19.2764 27.4303 19.4111 27.4937C19.4669 27.5841 19.5533 27.6449 19.6702 27.6383C20.3524 27.6066 20.5081 28.8403 20.4983 30.142Z" fill="black"/>
<path d="M11.9501 19.6068C10.7297 19.5052 9.50749 19.5016 8.28524 19.5011C7.8327 19.5011 7.8327 20.4518 8.28524 20.4518C9.50787 20.4518 10.7297 20.4559 11.9501 20.5575C12.4026 20.5948 12.3993 19.6441 11.9501 19.6068Z" fill="black"/>
<path d="M17.6428 19.6069H13.6656C13.2131 19.6069 13.2131 20.5576 13.6656 20.5576H17.6428C18.0953 20.5571 18.0953 19.6069 17.6428 19.6069Z" fill="black"/>
<path d="M11.8875 24.0274C12.0697 23.9324 12.1824 23.7133 12.1327 23.443C11.8468 21.8803 10.3078 22.3243 9.45509 22.4596C9.01122 22.5301 9.00594 23.4818 9.45509 23.4103C9.74133 23.3649 10.4281 23.1462 10.9202 23.2244C10.8587 23.419 10.887 23.6499 11.0711 23.7679C11.3803 23.9666 11.5164 24.2205 11.8875 24.0274Z" fill="black"/>
<path d="M14.134 22.4597C13.6815 22.4684 13.6811 23.4185 14.134 23.4104C14.3859 23.4058 15.4147 23.2116 16.0864 23.274C16.0102 23.5156 16.0607 23.8338 16.3017 23.9217C16.5868 24.0254 16.8274 24.0254 17.1118 23.9217C17.3041 23.8522 17.398 23.5892 17.3573 23.3373C17.1076 21.7951 14.918 22.4449 14.134 22.4597Z" fill="black"/>
<path d="M12.0127 34.9132C12.9314 35.2893 13.8131 35.3859 14.4365 34.2713C14.7106 33.7822 14.1001 33.3095 13.8304 33.7914C13.4876 34.4042 12.9563 34.2907 12.4788 34.1088C12.6715 30.836 13.1297 27.6009 13.1588 24.3102C13.1644 23.6964 12.4626 23.6969 12.457 24.3102C12.4268 27.7175 11.9339 31.0629 11.7555 34.4553C11.7438 34.6674 11.8713 34.8539 12.0127 34.9132Z" fill="black"/>
<path d="M15.7568 36.2316C14.7612 37.7637 12.5984 36.0666 11.3264 36.0922C10.8742 36.1024 10.8735 37.0526 11.3264 37.0429C12.4958 37.0199 14.0168 38.0768 15.2307 37.7192C15.1821 37.8551 15.1315 37.99 15.0784 38.1238C14.8619 38.6622 15.4679 39.1419 15.684 38.603C15.9186 38.0201 16.0996 37.4066 16.3081 36.8074C16.4684 36.3481 16.037 35.8 15.7568 36.2316Z" fill="black"/>
<path d="M12.8081 44.3357C12.4363 44.3357 12.0655 44.3438 11.7009 44.4583C11.2608 44.5977 11.4474 45.5142 11.8875 45.3747C12.1896 45.2787 12.4996 45.2863 12.8077 45.2863C13.261 45.2869 13.261 44.3357 12.8081 44.3357Z" fill="black"/>
<path d="M38.4081 21.2147C38.9062 21.2147 38.7978 22.388 39.2742 23.5906C39.7503 24.7928 40.4855 25.5702 42.071 25.2909C43.6561 25.0127 43.9482 23.6195 43.9482 23.6195C43.9482 23.6195 44.4676 21.5376 44.597 21.0825C44.7276 20.6278 44.9437 20.716 44.9437 20.6425L45.0847 19.4551C45.0847 19.4551 42.2279 18.4577 39.0577 19.6746C39.0577 19.6746 38.6033 19.8504 38.4081 19.8504H38.0416C37.8468 19.8504 37.3924 19.6746 37.3924 19.6746C34.2218 18.4577 31.365 19.4551 31.365 19.4551L31.506 20.6425C31.506 20.716 31.7222 20.6278 31.8527 21.0825C31.9821 21.5371 32.5015 23.6195 32.5015 23.6195C32.5015 23.6195 32.7936 25.0127 34.3787 25.2909C35.9638 25.5702 36.6994 24.7928 37.1755 23.5906C37.6516 22.388 37.5435 21.2147 38.0416 21.2147H38.4081Z" fill="black"/>
<path fill-rule="evenodd" clip-rule="evenodd" d="M31.2182 26.8391C31.1539 26.849 31.0931 26.8953 31.0338 26.7875C31.0121 26.748 30.9164 26.7808 30.8316 26.7808C30.8978 26.7334 30.9528 26.6938 30.997 26.6631C31.0737 26.7235 31.1461 26.7813 31.2182 26.8391Z" fill="black"/>
<path d="M45.074 26.4654L45.0699 26.4642L45.0705 26.4689L45.074 26.4654Z" fill="black"/>
<path d="M30.1467 34.141C30.1858 34.2388 30.2249 34.3372 30.2668 34.4413C30.2249 34.3377 30.1862 34.2388 30.1467 34.141Z" fill="black"/>
<path d="M31.2162 26.8301C31.2179 26.8345 31.2179 26.8389 31.219 26.844C31.2179 26.8382 31.2179 26.8338 31.2162 26.8301Z" fill="black"/>
<path d="M31.2743 26.0034C31.2411 25.9922 31.2167 25.9401 31.1674 25.8354C31.2163 25.9406 31.2411 25.9927 31.2743 26.0034Z" fill="black"/>
<path d="M31.2182 26.84L31.2186 26.8405L31.2182 26.8395V26.84Z" fill="black"/>
<path fill-rule="evenodd" clip-rule="evenodd" d="M44.6613 24.4703C44.6752 24.5972 44.6838 24.672 44.6919 24.7467C44.7035 24.7477 44.7159 24.7482 44.7279 24.7488C44.743 24.65 44.7581 24.5507 44.7729 24.451C44.7829 24.4515 44.7934 24.4525 44.8031 24.4536C44.7996 24.5445 44.8116 24.6437 44.7887 24.7247C44.7659 24.8015 44.7066 24.86 44.6388 24.964C44.647 24.7885 44.6528 24.6558 44.6613 24.4703Z" fill="black"/>
<path fill-rule="evenodd" clip-rule="evenodd" d="M45.2702 26.8209C45.1866 26.7492 45.1021 26.6786 45.0192 26.6075C45.0374 26.5599 45.0549 26.5123 45.0727 26.4652L45.0704 26.4684C45.1366 26.586 45.2036 26.7032 45.2702 26.8209Z" fill="black"/>
<path d="M37.3726 44.5819L37.3666 44.5732C37.3649 44.5732 37.3638 44.5738 37.3622 44.5745C37.3649 44.5765 37.3693 44.5785 37.3726 44.5819Z" fill="black"/>
<path d="M39.3073 44.8073C39.2994 44.8118 39.2907 44.8194 39.2878 44.8164C39.2903 44.8194 39.2994 44.8118 39.3073 44.8073Z" fill="black"/>
<path d="M32.6164 42.0538C32.6154 42.0483 32.6154 42.0422 32.6154 42.0361C32.615 42.0422 32.6154 42.0483 32.6164 42.0538Z" fill="black"/>
<path d="M30.9967 40.6275C30.9892 40.6236 30.9816 40.6191 30.9749 40.6135C30.9821 40.6191 30.9896 40.6236 30.9967 40.6275Z" fill="black"/>
<path d="M30.9736 40.6118C30.9673 40.6067 30.9621 40.6023 30.9563 40.5972C30.9621 40.6017 30.9673 40.6061 30.9736 40.6118Z" fill="black"/>
<path d="M32.6926 42.2708C32.6893 42.2792 32.6851 42.2876 32.6797 42.296C32.6856 42.287 32.6897 42.2786 32.6926 42.2708Z" fill="black"/>
<path d="M32.6205 42.0091C32.6228 42.003 32.6256 41.9975 32.6288 41.9915C32.6251 41.9975 32.6228 42.003 32.6205 42.0091Z" fill="black"/>
<path d="M32.6154 42.0311C32.6158 42.0258 32.6167 42.0199 32.6185 42.0146C32.6163 42.0199 32.6158 42.0252 32.6154 42.0311Z" fill="black"/>
<path d="M44.5588 42.3745C44.5597 42.3667 44.5602 42.3589 44.5607 42.351C44.5588 42.3569 44.5564 42.3634 44.554 42.3693L44.5588 42.3745Z" fill="black"/>
<path d="M32.6518 41.9586C32.6606 41.9494 32.6707 41.9408 32.6824 41.9311C32.6707 41.9408 32.6606 41.95 32.6518 41.9586Z" fill="black"/>
<path d="M38.7822 44.5476C38.7813 44.5423 38.7808 44.537 38.7795 44.5317C38.7804 44.537 38.7808 44.5417 38.7822 44.5476Z" fill="black"/>
<path d="M43.4822 42.9285L43.4775 42.9326V42.9342L43.4822 42.9285Z" fill="black"/>
<path d="M38.6821 44.8529L38.6832 44.8519L38.6769 44.8493V44.8503L38.6821 44.8529Z" fill="black"/>
<path d="M38.7242 44.6248C38.7534 44.6316 38.7705 44.6286 38.7801 44.6199C38.7705 44.6291 38.7534 44.6316 38.7242 44.6248Z" fill="black"/>
<path d="M47.711 38.2218C47.7085 38.2218 47.7054 38.2223 47.7029 38.2234C47.7054 38.2229 47.7085 38.2223 47.711 38.2218Z" fill="black"/>
<path d="M32.6982 42.2511C32.7243 42.187 32.7487 42.1286 32.7723 42.0713C32.7491 42.1281 32.7243 42.1875 32.6982 42.2511Z" fill="black"/>
<path d="M30.8175 40.2282C30.7738 40.284 30.7312 40.3388 30.689 40.393L30.6898 40.3925C30.7316 40.3383 30.7742 40.284 30.8175 40.2282Z" fill="black"/>
<path d="M42.8721 43.4933H42.8736V43.501H42.8721V43.4933Z" fill="black"/>
<path d="M44.554 42.367C44.5562 42.3617 44.5584 42.3558 44.5602 42.3505C44.5584 42.3558 44.5566 42.3611 44.554 42.367Z" fill="black"/>
<path d="M47.7029 38.2239C47.7044 38.2244 47.7054 38.2254 47.7069 38.2259L47.711 38.2218C47.7085 38.2223 47.7054 38.2229 47.7029 38.2239Z" fill="black"/>
<path d="M30.6911 40.391L30.6863 40.3923L30.689 40.3937L30.6911 40.391Z" fill="black"/>
<path d="M38.6769 44.8503L38.6789 44.8547L38.6818 44.8528L38.6769 44.8503Z" fill="black"/>
<path d="M32.6801 42.2966C32.6852 42.2878 32.6892 42.2796 32.6924 42.2719C32.6955 42.2642 32.6975 42.2565 32.6991 42.2493C32.692 42.2653 32.6864 42.2801 32.6801 42.2966Z" fill="black"/>
<path fill-rule="evenodd" clip-rule="evenodd" d="M37.3672 44.348C37.4152 44.3391 37.4625 44.3296 37.5101 44.3207C37.4989 44.3674 37.4881 44.4136 37.4733 44.4766C37.4826 44.4766 37.4652 44.4766 37.4431 44.4766C37.4563 44.5584 37.4683 44.635 37.4776 44.6922C37.4454 44.6581 37.4055 44.6156 37.3653 44.5726L37.3695 44.5794C37.3792 44.5448 37.3885 44.5117 37.3982 44.4771C37.2858 44.4797 37.3912 44.3847 37.3672 44.348Z" fill="black"/>
<path fill-rule="evenodd" clip-rule="evenodd" d="M42.8716 43.4986C42.8891 43.4991 42.9185 43.4907 42.922 43.5007C42.9677 43.6231 43.0556 43.6446 43.1393 43.6843C43.1587 43.6937 43.1653 43.7523 43.1819 43.8C43.1277 43.7853 43.0886 43.7738 43.0196 43.755C42.9871 43.6958 42.9309 43.5948 42.8747 43.4939L42.8716 43.4986Z" fill="black"/>
<path fill-rule="evenodd" clip-rule="evenodd" d="M30.9563 40.9994C30.9435 40.833 30.8687 40.7707 30.7564 40.7749C30.7886 40.6713 30.7886 40.6713 30.8835 40.72C30.9741 40.7665 31.0032 40.8581 30.9563 40.9994Z" fill="black"/>
<path fill-rule="evenodd" clip-rule="evenodd" d="M47.706 38.2261C47.7466 38.2644 47.7869 38.3032 47.8474 38.3609C47.7908 38.3961 47.7493 38.4218 47.6998 38.4517C47.7083 38.4984 47.7187 38.5551 47.7296 38.6112C47.668 38.5845 47.668 38.5845 47.7098 38.2219L47.706 38.2261Z" fill="black"/>
<path fill-rule="evenodd" clip-rule="evenodd" d="M38.6785 44.8551C38.7176 44.8969 38.7118 45.0377 38.8113 44.9524C38.8078 45.0241 38.8043 45.0895 38.8012 45.1538C38.7912 45.158 38.7807 45.1612 38.7703 45.1653C38.7253 45.0706 38.6324 45.0079 38.6808 44.8519C38.6816 44.8519 38.6785 44.8551 38.6785 44.8551Z" fill="black"/>
<path fill-rule="evenodd" clip-rule="evenodd" d="M39.1684 44.727C39.2231 44.8503 39.2765 44.9726 39.3307 45.0953C39.2544 44.993 39.1018 44.96 39.1684 44.727Z" fill="black"/>
<path fill-rule="evenodd" clip-rule="evenodd" d="M47.4992 39.1364C47.5422 39.2386 47.5855 39.3408 47.6142 39.409C47.4786 39.3639 47.4709 39.3545 47.4608 39.1888C47.4736 39.171 47.4864 39.1537 47.4992 39.1364Z" fill="black"/>
<path fill-rule="evenodd" clip-rule="evenodd" d="M44.554 42.3652C44.5687 42.3935 44.583 42.4218 44.5974 42.4507C44.5943 42.4591 44.5904 42.4675 44.5873 42.4754C44.5226 42.4208 44.4587 42.3662 44.3944 42.3117C44.401 42.2828 44.42 42.2408 44.4122 42.2261C44.3766 42.1616 44.3773 42.1243 44.4416 42.1107L44.4366 42.1081C44.4769 42.1952 44.5172 42.2828 44.5575 42.3699L44.554 42.3652Z" fill="black"/>
<path fill-rule="evenodd" clip-rule="evenodd" d="M30.6863 40.3914C30.6789 40.4621 30.6716 40.5328 30.6634 40.6029C30.6576 40.5993 30.6514 40.5961 30.6456 40.593C30.6181 40.4474 30.591 40.3024 30.5647 40.1568C30.5771 40.1537 30.5895 40.15 30.6022 40.1469C30.6131 40.2249 30.6216 40.3039 30.6363 40.3804C30.6379 40.3898 30.67 40.3893 30.6878 40.393L30.6863 40.3914Z" fill="black"/>
<path d="M30.7092 39.3571C30.6991 39.309 30.6879 39.2567 30.677 39.2044C30.6674 39.2065 30.6581 39.2086 30.6484 39.2112C30.6674 39.1605 30.6871 39.1103 30.72 39.0235C30.7065 39.1605 30.8428 39.2604 30.7092 39.3571Z" fill="black"/>
<path d="M31.9402 41.3398C31.8976 41.3304 31.8585 41.3215 31.8089 41.311C31.8717 41.2456 31.9263 41.1881 31.9805 41.1311C31.9882 41.14 31.9956 41.1484 32.003 41.1567C31.9832 41.2163 31.9631 41.2754 31.9402 41.3398Z" fill="black"/>
<path d="M31.8942 40.9463C31.9314 40.8375 31.9631 40.7444 31.9984 40.6423C32.0375 40.6533 32.0743 40.6633 32.1111 40.6727C32.0948 40.8255 32.017 40.9327 31.8942 40.9463Z" fill="black"/>
<path d="M32.5313 41.1504C32.5015 41.2027 32.4682 41.2503 32.436 41.3005C32.4275 41.244 32.4116 41.1875 32.4128 41.1316C32.4139 41.0782 32.4321 41.0254 32.4434 40.9731C32.4538 40.9768 32.4643 40.9804 32.4748 40.9841C32.4608 41.039 32.4465 41.0934 32.4325 41.1483C32.4461 41.164 32.4597 41.1797 32.4732 41.1948C32.4848 41.1467 32.4968 41.0981 32.5085 41.0495C32.5201 41.0615 32.5317 41.0735 32.5433 41.0855C32.5398 41.1075 32.5406 41.1342 32.5313 41.1504Z" fill="black"/>
<path d="M34.1259 43.2227C34.0924 43.2137 34.0542 43.2041 34.0144 43.1935C33.9623 43.0023 34.0928 43.0781 34.1342 43.0235C34.1413 43.033 34.1484 43.0426 34.1551 43.0516C34.1448 43.1104 34.1353 43.1687 34.1259 43.2227Z" fill="black"/>
<path d="M34.5759 43.551C34.5313 43.373 34.5015 43.2143 34.6657 43.1211C34.6433 43.1813 34.6231 43.2368 34.6022 43.2929C34.6766 43.3442 34.675 43.4076 34.5759 43.551Z" fill="black"/>
<path d="M35.2026 43.6176C35.1298 43.5496 35.1124 43.445 35.1348 43.3389C35.1484 43.273 35.2855 43.2756 35.3231 43.3232C35.2832 43.4205 35.2449 43.5141 35.2026 43.6176Z" fill="black"/>
<path d="M35.6566 43.7117C35.642 43.6989 35.627 43.6862 35.6117 43.6734C35.6211 43.6069 35.6302 43.5414 35.6393 43.4776C35.685 43.4989 35.7177 43.5143 35.7823 43.5446C35.7334 43.6096 35.6952 43.6606 35.6566 43.7117Z" fill="black"/>
<path d="M38.0424 44.3626C38.0482 44.35 38.0536 44.3375 38.0594 44.3244C38.1268 44.3814 38.1942 44.4384 38.2694 44.5027C38.1167 44.6173 38.1198 44.3971 38.0424 44.3626Z" fill="black"/>
<path d="M39.1549 44.3001C39.1773 44.2607 39.1948 44.2014 39.2238 44.1878C39.2478 44.1773 39.2854 44.2209 39.3168 44.2403C39.3114 44.256 39.3059 44.2717 39.3001 44.287C39.2753 44.2854 39.2498 44.2833 39.225 44.2822C39.2238 44.2901 39.2227 44.2985 39.2211 44.3064C39.2463 44.3153 39.2761 44.3164 39.2959 44.3352C39.3164 44.3552 39.328 44.3919 39.3273 44.4544C39.2703 44.4035 39.2122 44.3515 39.1549 44.3001Z" fill="black"/>
<path d="M40.1577 44.5895C40.198 44.4978 40.2197 44.4494 40.2437 44.3953C40.2848 44.4463 40.3262 44.4973 40.3901 44.5749C40.3007 44.5806 40.2422 44.5843 40.1577 44.5895Z" fill="black"/>
<path d="M42.0009 43.8135C41.9861 43.7185 41.9776 43.6629 41.9668 43.5905C41.9478 43.6319 41.9338 43.6608 41.9203 43.6896C41.8428 43.516 41.8688 43.4472 42.0462 43.4084C42.0113 43.4588 41.9892 43.4908 41.9668 43.5228C42.095 43.5511 42.1066 43.602 42.0009 43.8135Z" fill="black"/>
<path d="M42.1183 43.8002C42.1407 43.6134 42.164 43.4261 42.1868 43.2388C42.1973 43.2403 42.2077 43.2424 42.2182 43.244C42.229 43.4397 42.262 43.6407 42.1183 43.8002Z" fill="black"/>
<path d="M43.0828 43.2649C43.0603 43.2294 43.0441 43.1924 43.0204 43.17C42.9999 43.1507 42.9701 43.1481 42.9453 43.1376C42.9519 43.1209 42.9608 43.0876 42.9658 43.0886C43.0026 43.0959 43.0417 43.1022 43.0747 43.1236C43.1014 43.1402 43.1211 43.1773 43.149 43.2117C43.1262 43.2305 43.1033 43.2492 43.0828 43.2649Z" fill="black"/>
<path d="M44.9286 41.5135C44.8879 41.4544 44.8557 41.4089 44.8178 41.3545C44.8387 41.3597 44.8515 41.3634 44.8724 41.3686C44.8592 41.3122 44.8464 41.2588 44.8337 41.206C44.8476 41.1908 44.8608 41.1746 44.8747 41.1595C44.8937 41.2562 44.9142 41.3529 44.9336 41.4507C44.9592 41.4267 44.984 41.4037 45.0091 41.3796C44.984 41.4215 44.9584 41.4633 44.9286 41.5135Z" fill="black"/>
<path d="M46.5981 40.111C46.5501 40.0632 46.5028 40.0155 46.4431 39.9562C46.4803 39.921 46.5067 39.8969 46.5516 39.8539C46.5845 39.9446 46.6089 40.0139 46.6337 40.0821C46.6221 40.0921 46.6097 40.1015 46.5981 40.111Z" fill="black"/>
<path d="M47.2214 38.3729C47.0168 38.3881 47.0168 38.3881 47.0273 38.2407C46.9552 38.2202 46.8832 38.2003 46.8104 38.1793C46.8119 38.1656 46.8142 38.151 46.8162 38.1368C46.8565 38.1436 46.8967 38.1499 46.9397 38.1573C46.9301 38.1216 46.9215 38.0911 46.9018 38.0172C47.0219 38.1515 47.1164 38.2554 47.2214 38.3729Z" fill="black"/>
<path fill-rule="evenodd" clip-rule="evenodd" d="M37.3699 44.3539C37.3335 44.3539 37.2975 44.3539 37.282 44.3539C37.2599 44.4051 37.2424 44.4438 37.225 44.4825C37.2157 44.4072 37.2056 44.3319 37.1964 44.2587C37.2355 44.2561 37.2951 44.2503 37.366 44.2451C37.3672 44.277 37.3687 44.3157 37.3699 44.3539Z" fill="black"/>
<path d="M47.9113 37.8649C47.9299 37.8728 47.9578 37.8439 48 37.8235C47.7815 37.7232 47.5596 37.7426 47.4457 37.4586C47.4716 37.4429 47.4941 37.4297 47.4999 37.4266C47.4658 37.3851 47.4286 37.3405 47.3872 37.2906C47.3709 37.3279 47.3504 37.3793 47.3256 37.4271C47.3058 37.4654 47.2807 37.5001 47.2741 37.5106C47.2075 37.2754 47.1463 37.0591 47.0835 36.836C47.0812 36.8381 47.0986 36.8229 47.1106 36.8119C47.0777 36.794 47.0452 36.7767 47.0122 36.7589C47.0161 36.7457 47.0196 36.7321 47.0231 36.719C47.0572 36.7316 47.0912 36.7442 47.1284 36.7583L47.111 36.7032L47.2214 36.4943L47.374 36.4507C47.3674 36.4313 47.3674 36.3961 47.3763 36.3825C47.424 36.3095 47.4763 36.2423 47.5255 36.172C47.5522 36.1337 47.5844 36.098 47.6014 36.0528C47.6626 35.8917 47.4798 35.8287 47.5146 35.6749C47.3578 35.5882 47.3225 35.446 47.4159 35.2575C47.3624 35.2266 47.3167 35.1998 47.2791 35.1777C47.2989 35.2355 47.3175 35.2895 47.3357 35.3436C47.247 35.3882 47.3089 35.4607 47.3283 35.5021C47.3853 35.6245 47.3682 35.7273 47.276 35.8785C47.2505 35.7903 47.2168 35.7294 47.2199 35.6733C47.2288 35.5237 47.1408 35.299 47.0401 35.2329C47.0087 35.2129 46.9696 35.1651 46.9673 35.1263C46.963 35.0607 46.9859 34.9914 46.9991 34.9126C46.817 34.9856 46.8321 34.7347 46.7597 34.6087C46.7686 34.5935 46.7783 34.5793 46.7876 34.5641C46.8306 34.6139 46.8743 34.6633 46.9177 34.7137C46.9042 34.6349 46.8681 34.5756 46.836 34.5142C46.817 34.478 46.8038 34.4376 46.7883 34.3987C46.7879 34.3987 46.7876 34.3987 46.7876 34.3987C46.7868 34.3987 46.7868 34.3992 46.786 34.3998C46.7868 34.3998 46.7868 34.3992 46.7872 34.3987C46.7508 34.3788 46.712 34.3641 46.6806 34.3341C46.6741 34.3284 46.6977 34.2328 46.707 34.2328C46.774 34.2328 46.841 34.247 46.9096 34.299C46.8689 34.332 46.8282 34.3656 46.7872 34.3987C46.7876 34.3987 46.7876 34.3987 46.7876 34.3987C46.8712 34.3431 46.9549 34.2874 47.0126 34.2486C46.9483 34.1635 46.9022 34.1032 46.8321 34.0103C46.9158 33.984 46.9762 33.9656 47.0587 33.9399C46.9909 33.9158 46.946 33.899 46.9115 33.8869C46.9115 33.8019 46.9115 33.7252 46.9115 33.6454C46.9386 33.6612 46.9677 33.6774 46.996 33.6937C46.9824 33.7462 46.9719 33.7866 46.9588 33.8376C47.0246 33.8076 47.0246 33.8076 47.0153 33.4937C46.9754 33.4675 46.9448 33.4475 46.9138 33.427C46.9332 33.3746 46.9526 33.3226 46.977 33.2543C46.9111 33.1824 46.7678 33.1451 46.7926 32.9378C46.8391 32.9252 46.8821 32.9131 46.8941 32.91C46.9072 32.7535 46.9181 32.6328 46.9305 32.4863C46.7631 32.4244 46.5625 32.3499 46.3618 32.2758C46.3622 32.2559 46.3626 32.2365 46.3626 32.2165C46.4165 32.1892 46.4691 32.1619 46.5408 32.1252C46.497 32.0496 46.4509 31.9766 46.4087 31.8989C46.3347 31.7624 46.3359 31.7609 46.3882 31.6286C46.406 31.6853 46.4223 31.7362 46.4382 31.7871C46.4525 31.7693 46.4668 31.7514 46.4811 31.7325C46.4509 31.6086 46.5741 31.3603 46.3413 31.4197C46.3188 31.3199 46.2937 31.2359 46.284 31.1493C46.2793 31.1115 46.3076 31.0669 46.32 31.026C46.3336 31.058 46.346 31.09 46.3595 31.122C46.3781 31.1666 46.3971 31.2113 46.4196 31.2669C46.4196 31.048 46.4196 30.8448 46.4196 30.627C46.4583 30.649 46.4986 30.6711 46.573 30.7115C46.5323 30.6595 46.5137 30.6454 46.5044 30.6233C46.4463 30.4837 46.3897 30.343 46.3339 30.2023C46.332 30.1986 46.3347 30.1913 46.3363 30.1824C46.3603 30.1745 46.3851 30.1666 46.4095 30.1593C46.3824 30.0553 46.3576 29.9645 46.3339 29.8732C46.3742 29.8433 46.4118 29.8154 46.4591 29.7803C46.4188 29.7167 46.382 29.6585 46.3518 29.6107C46.3758 29.5808 46.4013 29.5488 46.4265 29.5167C46.4025 29.4873 46.3824 29.449 46.3541 29.4291C46.2948 29.3871 46.2313 29.3545 46.1724 29.3199C46.1806 29.2401 46.1871 29.1781 46.1898 29.154C46.0868 29.0616 46.0016 28.985 45.9059 28.8999C45.9044 28.8795 45.9001 28.8333 45.8978 28.7986C45.9446 28.7666 45.9884 28.7372 46.033 28.7078C46.033 28.7078 46.033 28.7078 46.0322 28.7078C45.9059 28.4149 45.7699 28.1361 45.5255 27.9991C45.5247 27.9991 45.524 27.9986 45.5232 27.9981C45.5236 27.9986 45.524 27.9997 45.524 28.0007C45.522 28.0002 45.5205 27.9991 45.5189 27.9986C45.4806 28.0989 45.5879 28.281 45.4116 28.3052C45.3946 28.1382 45.1471 28.3041 45.1947 28.0296C45.23 28.0579 45.2745 28.0936 45.3187 28.1288C45.3276 28.1067 45.3373 28.0847 45.3466 28.0626C45.271 27.997 45.1947 27.9314 45.1192 27.8658C45.1242 27.8542 45.1289 27.8432 45.1335 27.8322C45.2617 27.8878 45.3903 27.943 45.5189 27.9986C45.5189 27.9975 45.5185 27.997 45.5193 27.996C45.5205 27.9965 45.5216 27.997 45.5228 27.9981C45.5185 27.9776 45.5147 27.9571 45.5073 27.9251C45.5798 27.9687 45.6444 28.0075 45.7095 28.0458C45.6537 27.9136 45.4918 27.902 45.5201 27.6647C45.5557 27.7367 45.5747 27.8059 45.6107 27.8422C45.6963 27.9277 45.6979 27.85 45.6839 27.7624C45.7238 27.7624 45.7645 27.7624 45.8044 27.7624C45.8044 27.7624 45.8048 27.7624 45.8052 27.7624C45.8052 27.7624 45.8048 27.7629 45.8044 27.7624C45.804 27.7624 45.8036 27.7619 45.8036 27.7619C45.7672 27.691 45.7308 27.6206 45.694 27.5498C45.694 27.5498 45.6971 27.5487 45.6975 27.5487C45.6758 27.5419 45.6483 27.5419 45.6293 27.5314C45.6224 27.5283 45.6173 27.5235 45.6138 27.5178C45.5429 27.4028 45.4794 27.28 45.4093 27.1529C45.4372 27.1319 45.4674 27.1109 45.5251 27.0684C45.3892 27.038 45.278 27.0138 45.2683 26.8238C45.1846 26.7519 45.1002 26.681 45.0173 26.6096C45.0022 26.6238 44.9871 26.6385 44.9739 26.6511C44.9174 26.5634 44.8612 26.4757 44.8019 26.3844C44.8976 26.4138 44.9832 26.44 45.0684 26.4658C45.0626 26.4133 45.0572 26.3602 45.0506 26.3036C45.0963 26.2962 45.1292 26.292 45.1614 26.2868C45.034 26.1503 44.9088 26.0169 44.7837 25.8831C44.7918 25.8663 44.7996 25.8495 44.8077 25.8322C44.8511 25.8427 44.8949 25.8537 44.9452 25.8658C44.9123 25.8133 44.8856 25.7718 44.8395 25.6993C44.9592 25.7671 45.1351 25.7167 45.2888 25.5954C45.2559 25.5839 45.2269 25.5723 45.1691 25.5518C45.4112 25.513 45.5294 25.2836 45.4333 25.0783C45.4039 25.1403 45.383 25.2085 45.3466 25.2547C45.2826 25.3356 45.2164 25.4332 45.1382 25.4684C44.9607 25.5466 44.8562 25.314 44.7117 25.2437C44.702 25.239 44.6962 25.2159 44.6904 25.2001C44.657 25.1098 44.6233 25.0195 44.5927 24.9277C44.5803 24.8899 44.5687 24.8479 44.568 24.8075C44.5649 24.6615 44.5668 24.5161 44.5668 24.3702C44.5501 24.3712 44.5343 24.3712 44.5176 24.3718C44.5176 24.5487 44.5176 24.7261 44.5176 24.903C44.5098 24.9046 44.5025 24.9067 44.4947 24.9093C44.482 24.8741 44.4692 24.8395 44.4564 24.8048C44.5017 25.0395 44.3665 25.2117 44.3479 25.4211C44.3286 25.6301 44.3014 25.8369 44.2739 26.0836C44.2298 26.0201 44.2182 26.0033 44.2007 25.9776C44.2321 26.1198 44.2604 26.249 44.2832 26.3508C44.2596 26.4064 44.2433 26.4915 44.2193 26.4962C44.0826 26.5193 44.1275 26.7986 43.9799 26.7949C43.9834 26.8285 43.9815 26.8663 43.9919 26.8957C44.0082 26.9408 44.033 26.9813 44.05 27.0149C44.0369 27.0773 43.9338 27.0574 44.0129 27.176C44.0826 27.281 44.0024 27.4695 43.9009 27.4978C43.935 27.6542 43.9691 27.8107 44.0036 27.9676C43.9954 27.9708 43.9869 27.9745 43.9788 27.9771C43.9369 27.8511 43.8951 27.7246 43.8529 27.5965C43.8192 27.5965 43.7851 27.5965 43.7421 27.5965C43.7684 27.7503 43.794 27.9004 43.8192 28.0495C43.8509 28.0443 43.8765 28.0401 43.9032 28.0353C43.8947 28.0742 43.8943 28.1251 43.8753 28.1493C43.7932 28.2521 43.8025 28.3461 43.8726 28.4506C43.8943 28.4831 43.8986 28.5372 43.9106 28.5813C43.7948 28.4317 43.5964 28.3288 43.7328 28.0007C43.6759 28.0185 43.6216 28.0348 43.579 28.0474C43.5469 27.9918 43.5124 27.9319 43.4582 27.8374C43.4399 28.0847 43.474 28.227 43.6391 28.2663C43.6096 28.2763 43.5806 28.2857 43.5542 28.2947C43.5542 28.3787 43.5542 28.4564 43.5542 28.5734C43.5035 28.4968 43.4709 28.4474 43.4388 28.3986C43.4167 28.4669 43.4252 28.5319 43.4252 28.597C43.4256 28.6401 43.4241 28.6942 43.4059 28.722C43.3946 28.7393 43.347 28.7277 43.3218 28.7115C43.2784 28.6826 43.2393 28.6406 43.1816 28.5892C43.2037 28.6915 43.2176 28.7566 43.2315 28.8212C43.2195 28.8264 43.2075 28.8306 43.1959 28.8359C43.1762 28.7997 43.1568 28.7634 43.1285 28.7125C43.1014 28.8112 43.0801 28.8873 43.0615 28.9529C43.0014 28.9083 42.9395 28.8621 42.8686 28.8091C42.8949 28.9876 42.8949 28.9876 42.8318 29.0212C42.869 29.1362 42.9062 29.2511 42.9437 29.3666C42.9348 29.3734 42.9255 29.3803 42.917 29.3871C42.9031 29.3603 42.8895 29.333 42.8643 29.2852C42.8643 29.3393 42.8643 29.3708 42.8643 29.4023C42.8562 29.406 42.8473 29.4102 42.8391 29.4139C42.8252 29.3776 42.8124 29.3409 42.7989 29.3047C42.7686 29.3267 42.7388 29.3493 42.7047 29.3745C42.6672 29.27 42.6307 29.1656 42.5792 29.0201C42.5661 29.1104 42.5618 29.1419 42.5502 29.227C42.413 28.7456 42.1609 28.4464 41.9292 28.1235C41.8126 28.2222 41.8029 28.0521 41.7603 27.9582C41.7503 27.9692 41.7394 27.9797 41.729 27.9902C41.7561 28.059 41.7836 28.1277 41.8277 28.238C41.7355 28.144 41.6716 28.0779 41.5949 27.9997C41.5883 28.1015 41.5833 28.1918 41.5763 28.3052C41.4055 28.1592 41.2525 28.029 41.0921 27.8926C41.0697 28.1088 41.2153 28.1645 41.2641 28.3109C41.2269 28.2831 41.1909 28.2553 41.1541 28.2275C41.1897 28.3487 41.2234 28.4632 41.2568 28.5776C41.206 28.5477 41.187 28.4768 41.1584 28.4689C41.0759 28.4453 41.0689 28.3608 41.0546 28.28C41.0224 28.0952 41.0054 28.0863 40.8876 28.2096C40.8589 28.1771 40.8299 28.144 40.8004 28.1109C40.7993 28.1235 40.7985 28.1361 40.7973 28.1487C40.7327 28.1487 40.6676 28.1487 40.5948 28.1487C40.5738 28.2805 40.4929 28.2044 40.4654 28.1477C40.4053 28.0259 40.3213 28.0763 40.2488 28.0637C40.1857 28.0532 40.1191 28.0768 40.0288 28.0894C39.9564 28.1225 39.8553 28.1703 39.7286 28.2285C39.7774 28.2642 39.7972 28.2789 39.8382 28.3088C39.7615 28.3146 39.7061 28.3178 39.6515 28.323C39.5768 28.3309 39.5012 28.3414 39.4257 28.3508C39.2982 28.3309 39.1712 28.3115 39.0248 28.2884C39.0674 28.4012 39.1022 28.4936 39.1367 28.586C39.0612 28.5472 38.9849 28.5083 38.9116 28.4711C38.9058 28.5619 38.9012 28.6369 38.8962 28.7157C38.8284 28.6705 38.7602 28.6091 38.7598 28.7524C38.6835 28.8327 38.6173 28.9031 38.5475 28.976C38.5824 29.0165 38.6204 29.0606 38.6719 29.1188C38.5731 29.1241 38.4786 29.0123 38.4271 29.2023C38.3813 29.1356 38.3383 29.0726 38.3035 29.0212C38.2473 29.0537 38.1904 29.0868 38.1334 29.1199C38.1416 29.1251 38.1489 29.1304 38.1571 29.1356C38.133 29.1808 38.109 29.2249 38.0885 29.2632C38.0366 29.1781 37.9948 29.049 37.9487 29.0464C37.8832 29.0432 37.8146 29.133 37.736 29.1913C37.7685 29.133 37.7929 29.0879 37.8181 29.0432C37.8077 29.0432 37.7972 29.0432 37.7871 29.0432C37.7705 28.9241 37.7538 28.8044 37.7368 28.6821C37.7608 28.6606 37.7875 28.6369 37.8146 28.6128C37.8123 28.6054 37.8092 28.5986 37.8065 28.5907C37.7352 28.6254 37.6647 28.66 37.5907 28.6957C37.6016 28.438 37.5187 28.3414 37.3668 28.418C37.3579 28.2422 37.2297 28.0401 37.4513 27.9078C37.4362 27.8957 37.4211 27.8836 37.406 27.8716C37.2363 28.0138 37.0666 28.1566 36.9043 28.2931C36.8811 28.0999 36.7668 28.1603 36.6986 28.1503C36.6231 28.1388 36.5433 28.1792 36.4918 28.1907C36.5526 28.0894 36.6258 27.9671 36.7048 27.8338C36.357 27.9603 36.0153 28.0847 35.6733 28.2091C35.664 28.1991 35.6543 28.1897 35.6446 28.1797C35.6686 28.1241 35.6915 28.0689 35.7151 28.0143C35.6156 27.7561 35.3893 27.7214 35.2418 27.8301C35.1294 27.9136 35.0124 28.0086 34.9288 28.1361C34.7308 28.4375 34.5519 28.7619 34.3651 29.0763C34.3423 29.1146 34.3148 29.1477 34.2904 29.1839C34.2838 29.1745 34.2776 29.1666 34.2714 29.1582C34.3063 29.0516 34.3419 28.944 34.3775 28.8375C34.3636 28.8301 34.3504 28.8228 34.3369 28.8154C34.2795 28.9671 34.2218 29.1188 34.1649 29.2705L34.1676 29.2679C34.168 29.2679 34.1684 29.2674 34.1684 29.2674C34.168 29.2684 34.1676 29.27 34.1676 29.2716C34.1997 29.281 34.2323 29.2905 34.2648 29.2999C34.2528 29.3519 34.242 29.4044 34.228 29.4548C34.2114 29.5146 34.1912 29.5729 34.173 29.6312C34.1455 29.6049 34.1184 29.5787 34.0909 29.5524C34.1161 29.459 34.1416 29.3656 34.1672 29.2721C34.166 29.2716 34.1653 29.2716 34.1645 29.2716C34.0963 29.3461 34.0274 29.4207 33.9286 29.5304C33.9526 29.3188 33.9716 29.1488 33.9879 29.0044C33.9367 29.0795 33.8759 29.1682 33.8147 29.2579C33.8054 29.2495 33.7953 29.2417 33.786 29.2338C33.7957 29.1572 33.8062 29.0816 33.8163 29.0054C33.8244 29.0028 33.8333 29.0007 33.8418 28.9976C33.8488 29.0264 33.8562 29.0553 33.8635 29.0842C33.8732 29.059 33.884 29.0333 33.8937 29.0075C33.8635 28.9997 33.8097 28.9755 33.8062 28.9855C33.7709 29.0831 33.7357 29.1834 33.7175 29.2889C33.7039 29.3661 33.7148 29.4516 33.7148 29.533C33.6997 29.532 33.6845 29.532 33.6698 29.5309C33.6698 29.3944 33.6698 29.2574 33.6698 29.1131C33.6377 29.122 33.6028 29.1314 33.5649 29.1419C33.5819 29.0516 33.5974 28.9713 33.6121 28.8905C33.5966 28.8837 33.5815 28.8774 33.5656 28.8711C33.5389 28.9734 33.5122 29.0768 33.4858 29.1792C33.4645 29.0894 33.4696 29.0044 33.4843 28.922C33.4998 28.8369 33.5253 28.7556 33.5463 28.6721C33.4944 28.7346 33.4533 28.8091 33.4347 28.8931C33.4165 28.976 33.4215 29.0684 33.4165 29.1482C33.3514 29.1078 33.3034 29.0779 33.2898 29.0695C33.3053 28.9398 33.3185 28.8238 33.3293 28.7335C33.2495 28.7739 33.1852 28.8065 33.1209 28.8396C33.1112 28.7855 33.1012 28.7325 33.0915 28.6784C33.0768 28.6821 33.0617 28.6863 33.0469 28.69C33.0454 28.5445 33.0349 28.4012 33.0307 28.2416C33.0001 28.3157 32.9699 28.3892 32.9458 28.4469C32.8955 28.4469 32.8537 28.4469 32.8114 28.4469C32.997 28.5529 32.78 28.6453 32.8002 28.7367C32.7921 28.6837 32.7843 28.6306 32.7762 28.5781C32.7618 28.6028 32.7491 28.6259 32.7355 28.6501C32.72 28.5834 32.7188 28.4947 32.6941 28.48C32.519 28.3792 32.5414 28.1256 32.4818 27.9487C32.4396 27.8222 32.4163 27.7136 32.347 27.6805C32.266 27.2878 32.1909 26.9251 32.1118 26.5456C32.106 26.6295 32.1018 26.6983 32.0971 26.7666C32.0886 26.7666 32.0797 26.7666 32.0716 26.766C32.034 26.4374 31.998 26.1088 31.9635 25.8064C31.9038 25.766 31.8473 25.7277 31.7911 25.6894C31.8039 25.6783 31.8167 25.6673 31.8298 25.6563C31.8217 25.6049 31.8198 25.5503 31.8047 25.503C31.7683 25.386 31.7202 25.2747 31.6869 25.156C31.6586 25.0537 31.6579 24.9345 31.6214 24.8395C31.5498 24.6537 31.5688 24.4652 31.5606 24.2327C31.647 24.3439 31.7082 24.4222 31.7787 24.513C31.7218 24.3497 31.6706 24.1975 31.6129 24.05C31.6048 24.029 31.5672 24.0295 31.5354 24.0174C31.5017 24.1161 31.4452 24.2085 31.4452 24.3009C31.4452 24.4552 31.4673 24.6169 31.5056 24.7618C31.5788 25.0369 31.5858 25.039 31.4425 25.177C31.4762 25.4395 31.5072 25.682 31.5385 25.9251C31.4855 25.9251 31.4506 25.9114 31.4278 25.9277C31.4072 25.9424 31.389 25.9555 31.3731 25.966C31.3255 25.9986 31.2968 26.0133 31.272 26.0054C31.2395 25.9944 31.2155 25.9429 31.1671 25.8395C31.1489 25.86 31.1314 25.8799 31.1082 25.9067C31.1012 25.8484 31.097 25.807 31.0904 25.7497C30.954 26.0658 30.9645 26.2222 31.0904 26.3991C30.9602 26.5235 31.0834 26.524 31.1303 26.545C31.1303 26.6017 31.1303 26.6432 31.1303 26.6542C31.1946 26.596 31.2635 26.533 31.3325 26.47C31.341 26.4852 31.3503 26.5009 31.3588 26.5167C31.3023 26.6159 31.1736 26.661 31.2159 26.8338C31.217 26.8369 31.217 26.8401 31.2178 26.8437C31.2387 26.8122 31.2596 26.7802 31.2809 26.7487C31.315 26.6967 31.3499 26.6432 31.3867 26.5876C31.3933 26.6757 31.3983 26.7498 31.4057 26.8484C31.3638 26.8484 31.3181 26.8484 31.2763 26.8484C31.2066 26.9655 31.1245 27.103 31.0392 27.2479C31.0772 27.2385 31.109 27.2306 31.1601 27.2175C31.1241 27.2863 31.1012 27.3314 31.0776 27.3755C31.1031 27.386 31.1248 27.3944 31.1826 27.417C30.9742 27.5188 30.7998 27.6038 30.6182 27.692C30.6581 27.6962 30.6902 27.6989 30.7537 27.7057C30.6848 27.7765 30.641 27.8212 30.6027 27.86C30.6069 27.8842 30.6069 27.8941 30.6085 27.8947C30.6282 27.9015 30.6476 27.9062 30.667 27.9115C30.6042 28.2096 30.6042 28.2096 30.3737 28.4448C30.4605 28.5004 30.5376 28.5508 30.6209 28.6049C30.631 28.7288 30.4737 28.8632 30.6058 28.9771C30.5027 29.1146 30.5953 29.2978 30.5395 29.4333C30.5558 29.3876 30.5717 29.3419 30.5911 29.2873C30.6255 29.3057 30.653 29.3199 30.7076 29.3493C30.6666 29.2726 30.6433 29.2296 30.6034 29.1551C30.6743 29.1493 30.7231 29.1461 30.7948 29.1409C30.777 29.2348 30.7634 29.3052 30.7499 29.375C30.7727 29.3934 30.7975 29.4128 30.8064 29.4201C30.7778 29.5052 30.7545 29.5729 30.7317 29.6401C30.722 29.6433 30.7119 29.6469 30.7022 29.6506C30.6956 29.5624 30.6891 29.4737 30.6794 29.3425C30.6616 29.4564 30.6484 29.5309 30.6395 29.6065C30.6337 29.6558 30.6197 29.7267 30.6371 29.7509C30.6592 29.7803 30.71 29.7713 30.7499 29.7792C30.7495 29.786 30.7479 29.8034 30.7479 29.8212C30.7472 30.0238 30.7379 30.0301 30.5903 29.9971C30.5558 29.9887 30.5016 30.007 30.4826 30.0406C30.428 30.1377 30.3877 30.248 30.3424 30.3535C30.3369 30.3656 30.3385 30.3834 30.335 30.4107C30.378 30.3986 30.4125 30.3887 30.4698 30.3724C30.4202 30.5052 30.3869 30.6165 30.34 30.7162C30.2769 30.8511 30.2998 30.9262 30.4326 31.0632C30.4849 31.3341 30.5469 31.5698 30.4121 31.7777C30.5054 31.7719 30.5787 31.7672 30.6499 31.7624C30.6461 31.8055 30.6422 31.8485 30.6387 31.8963C30.5686 31.889 30.5023 31.8821 30.4446 31.8758C30.4357 31.9094 30.4349 31.9436 30.4218 31.9604C30.3273 32.0848 30.2963 32.226 30.3431 32.3976C30.3544 32.4391 30.3447 32.49 30.3447 32.5367C30.3346 32.5362 30.3238 32.5352 30.3133 32.5341C30.3133 32.4764 30.3133 32.4176 30.3133 32.3598C30.3056 32.3551 30.297 32.3504 30.2893 32.3462C30.2467 32.4302 30.2041 32.5131 30.1638 32.5929C30.3757 32.7987 30.2176 33.0837 30.2916 33.3194C30.3482 33.2937 30.4051 33.2675 30.4741 33.236C30.4276 33.3504 30.3923 33.447 30.3505 33.5368C30.3079 33.6286 30.2583 33.7142 30.2099 33.8066C30.3114 33.7903 30.4086 33.7746 30.5341 33.7541C30.4071 33.8386 30.3129 33.9011 30.2188 33.9635C30.2726 33.9557 30.3257 33.9478 30.4071 33.9362C30.3582 33.9929 30.328 34.0271 30.285 34.0764C30.3222 34.0984 30.3509 34.1163 30.3861 34.1373C30.3714 34.1546 30.3586 34.1814 30.3478 34.1803C30.2804 34.1719 30.2138 34.1567 30.1467 34.1441C30.1863 34.2423 30.2246 34.341 30.2664 34.4454C30.2083 34.4958 30.1417 34.5541 30.0654 34.6208C30.1045 34.6538 30.1316 34.6769 30.1491 34.6922C30.1173 34.7615 30.0898 34.8234 30.0596 34.888C30.1049 34.9368 30.1417 34.9756 30.1855 35.0223C30.1173 35.1195 30.1386 35.3473 29.9639 35.2696C29.986 35.3473 30.0077 35.426 30.0305 35.5069C29.9759 35.5163 29.9314 35.5237 29.8818 35.5326C29.8353 35.4061 29.9128 35.3468 29.9593 35.2722C29.9337 35.2512 29.9074 35.2313 29.8756 35.2066C29.852 35.2512 29.8276 35.2979 29.7919 35.3667C29.7636 35.2449 29.7419 35.1499 29.7199 35.0549C29.702 35.0659 29.6838 35.0769 29.666 35.0874C29.7086 35.2239 29.7512 35.3594 29.79 35.4827C29.745 35.5016 29.7001 35.52 29.666 35.5347C29.6982 35.5835 29.7361 35.6166 29.7346 35.6455C29.7319 35.6869 29.7005 35.7247 29.6908 35.7447C29.7621 35.8476 29.8322 35.9562 29.9089 36.057C29.9445 36.1037 29.9895 36.1531 30.036 36.1652C30.1018 36.1835 30.1731 36.1699 30.242 36.1699C30.2451 36.1835 30.2486 36.1972 30.2513 36.2113C30.0786 36.2565 30.1398 36.4339 30.1278 36.5825C30.0708 36.5662 30.0147 36.5505 29.9438 36.531L30.0286 36.7793L29.764 36.6707L29.7722 36.9394C29.8059 36.9205 29.8403 36.9011 29.8632 36.8885C29.9132 36.9368 29.9542 36.9767 29.9964 37.0171C29.9581 37.1778 29.8597 37.1641 29.7625 37.1904C29.6122 37.2303 29.6664 36.9898 29.5711 36.9715C29.5452 37.0003 29.5192 37.0287 29.477 37.0749C29.5335 37.1667 29.5862 37.2518 29.6393 37.3368C29.6436 37.3437 29.6478 37.3505 29.6521 37.3573C29.6521 37.3573 29.6517 37.3568 29.6513 37.3562L29.6521 37.3573C29.6529 37.3578 29.654 37.3594 29.6556 37.3599C29.7121 37.3332 29.7683 37.3064 29.8334 37.2749C29.8477 37.3316 29.8597 37.3788 29.8729 37.4318C29.8276 37.445 29.7873 37.457 29.752 37.4675C29.7175 37.4292 29.6862 37.3946 29.6552 37.3594C29.6544 37.3594 29.654 37.3599 29.6536 37.3599C29.6532 37.3589 29.6529 37.3584 29.6521 37.3573C29.666 37.4077 29.6807 37.4581 29.6838 37.4686C29.7373 37.5174 29.7985 37.5431 29.8047 37.5841C29.8214 37.6959 29.8086 37.8135 29.9244 37.8455C29.9473 37.8518 29.962 37.9237 29.9751 37.9678C29.9771 37.9746 29.9523 38.004 29.9376 38.0098C29.9279 38.0135 29.9101 37.9946 29.9023 37.9799C29.8849 37.9463 29.8713 37.9095 29.8562 37.8733C29.8105 37.9153 29.7652 37.9584 29.711 38.0082C29.7532 38.0046 29.7842 38.0014 29.802 38.0004C29.8318 38.2508 29.6904 38.4775 29.7939 38.719C29.7962 38.7248 29.7908 38.7374 29.7888 38.7468C29.8256 38.6907 29.831 38.6229 29.8504 38.5636C29.8899 38.4445 29.893 38.4466 29.9821 38.4775C29.9596 38.5258 29.9368 38.5762 29.9139 38.6261C29.919 38.6298 29.9236 38.634 29.929 38.6376C29.9445 38.6098 29.96 38.5825 29.9949 38.518C30.0081 38.6009 30.0131 38.6508 30.0236 38.698C30.0282 38.7169 30.0433 38.7384 30.0565 38.7442C30.0669 38.7479 30.0824 38.729 30.0956 38.7201C30.1216 38.7012 30.1475 38.6817 30.1739 38.6634C30.1781 38.6728 30.1824 38.6823 30.1863 38.6917C30.175 38.7111 30.1638 38.73 30.1421 38.7668C30.1956 38.7668 30.232 38.7668 30.2692 38.7668C30.2719 38.7778 30.2757 38.7883 30.2784 38.7993C30.1739 38.888 30.0697 38.9773 29.9658 39.0649C30.0623 39.119 30.1274 39.0487 30.1894 38.9463C30.2149 38.9636 30.2416 38.982 30.2738 39.004C30.2517 39.0382 30.2355 39.0628 30.2107 39.1017C30.249 39.1101 30.273 39.1153 30.3048 39.1227C30.2974 39.2025 30.2897 39.2838 30.2812 39.3747C30.4318 39.2775 30.3582 39.5479 30.4361 39.5668C30.4485 39.4859 30.4601 39.4146 30.4752 39.3195C30.5922 39.4765 30.5883 39.5027 30.4535 39.6839C30.4698 39.7132 30.4857 39.7405 30.5004 39.7705C30.5144 39.7993 30.5267 39.8303 30.555 39.8959C30.5422 39.7852 30.5341 39.718 30.5267 39.6508C30.5341 39.6482 30.5415 39.645 30.5488 39.6419C30.5953 39.7096 30.6418 39.7773 30.6987 39.8597C30.7235 39.8324 30.7553 39.7972 30.7933 39.7558C30.8374 39.9211 30.6964 39.8996 30.6371 40.0093C30.7092 39.9852 30.7545 39.9699 30.8026 39.9531C30.8332 40.0445 30.8641 40.1374 30.9033 40.255C30.8638 40.2445 30.8301 40.2361 30.8142 40.2324C30.7716 40.2875 30.7297 40.3411 30.6891 40.3946C30.8281 40.3332 30.8719 40.5112 30.9528 40.5978C30.954 40.5988 30.9548 40.5994 30.9556 40.6009C30.9602 40.6051 30.9645 40.6088 30.9695 40.613C30.9707 40.6146 30.973 40.6162 30.9742 40.6172C30.9807 40.6225 30.9877 40.6267 30.9943 40.6303C30.9927 40.8566 31.0264 40.8954 31.1922 40.8576C31.2321 40.8487 31.2724 40.8492 31.3449 40.8429C31.2864 40.8896 31.2562 40.9138 31.2174 40.9453C31.3208 40.9663 31.4134 40.9757 31.5017 41.0067C31.5405 41.0198 31.5707 41.0781 31.6044 41.1159C31.5815 41.1406 31.5587 41.1647 31.5393 41.1852C31.5393 41.2219 31.5478 41.2702 31.5374 41.3091C31.5262 41.349 31.4971 41.3805 31.4758 41.4156C31.4832 41.423 31.4897 41.4303 31.4963 41.4372C31.573 41.307 31.6497 41.1768 31.738 41.0261C31.7524 41.0776 31.7876 41.1442 31.7752 41.1742C31.7481 41.2408 31.6958 41.2886 31.6579 41.338C31.666 41.3395 31.6974 41.3448 31.7427 41.3526C31.714 41.3873 31.6954 41.4093 31.6869 41.4193C31.7047 41.4655 31.7206 41.5075 31.7357 41.5469C31.7214 41.3348 31.8589 41.4456 31.9286 41.3637C31.9174 41.4802 31.9089 41.5647 31.8984 41.6697C31.9619 41.5836 32.0065 41.5233 32.0588 41.4519C32.0863 41.5694 32.1049 41.6503 32.1363 41.7852C32.1955 41.6456 32.2432 41.5332 32.2862 41.4319C32.3141 41.4687 32.3516 41.518 32.3981 41.5799C32.3919 41.6335 32.3826 41.7128 32.3737 41.7962C32.4128 41.7674 32.4601 41.7527 32.4826 41.7128C32.5639 41.5668 32.5775 41.6996 32.6201 41.7584C32.5887 41.7611 32.5686 41.7632 32.5368 41.7663C32.593 41.8319 32.6363 41.8828 32.6805 41.9348C32.6697 41.9443 32.6604 41.9527 32.6522 41.9616C32.6495 41.9642 32.6472 41.9668 32.6452 41.97C32.6402 41.9758 32.636 41.981 32.6321 41.9868C32.6305 41.9899 32.6286 41.9926 32.6274 41.9952C32.6247 42.0004 32.6224 42.0057 32.6205 42.0104C32.6193 42.013 32.6185 42.0157 32.6181 42.0183C32.6166 42.023 32.6158 42.0283 32.6154 42.033C32.6154 42.0351 32.6154 42.0377 32.6154 42.0398C32.6154 42.045 32.6154 42.0503 32.6162 42.055C32.6166 42.0566 32.617 42.0582 32.6174 42.0603C32.6185 42.066 32.6205 42.0723 32.6232 42.0786C32.6472 42.1348 32.7115 42.1842 32.6983 42.2529C32.7239 42.1905 32.7479 42.1311 32.7711 42.075C32.8079 41.9847 32.8428 41.9002 32.8788 41.8125C32.9028 41.8655 32.9172 41.8975 32.9373 41.9416C32.9455 41.8776 32.9513 41.833 32.9567 41.7884C32.9637 41.7894 32.9706 41.791 32.978 41.7915C33.0051 41.8781 33.0322 41.9647 33.059 42.0513C33.0698 42.0513 33.081 42.0519 33.0915 42.0524C33.1016 41.9626 33.1105 41.8723 33.1217 41.7731C33.1384 41.8277 33.1531 41.8744 33.1674 41.9217C33.1957 42.0193 33.3487 42.0398 33.2581 42.2157C33.2224 42.2855 33.2162 42.3836 33.1965 42.4687C33.1783 42.4755 33.1604 42.4823 33.1426 42.4897C33.2027 42.5621 33.2627 42.634 33.3204 42.7039C33.3204 42.7595 33.3204 42.8298 33.3204 42.9002C33.3592 42.7191 33.4672 42.7752 33.5548 42.76C33.5548 42.8813 33.5528 43.001 33.5567 43.1201C33.5571 43.139 33.5815 43.1721 33.5962 43.1732C33.702 43.1784 33.6586 43.2671 33.6485 43.3065C33.7244 43.2808 33.805 43.2598 33.8821 43.2256C33.9615 43.1905 33.9638 43.2346 33.9491 43.3186C33.9359 43.3968 33.9286 43.4766 33.9185 43.5564C33.9263 43.5585 33.934 43.5606 33.9414 43.5627C33.9588 43.5081 33.9762 43.453 34.0095 43.3485C34.037 43.4404 34.0514 43.4886 34.058 43.5091C34.099 43.4949 34.1436 43.4881 34.1827 43.4634C34.2303 43.433 34.273 43.3873 34.3167 43.3495C34.572 43.7196 34.5627 43.6388 34.696 43.4871C34.696 43.5469 34.696 43.5957 34.696 43.6593C34.7207 43.6414 34.7355 43.6351 34.7463 43.623C34.7599 43.6083 34.7699 43.5889 34.7804 43.5732C34.6599 43.38 34.6553 43.2797 34.7498 43.1369C34.7905 43.223 34.8319 43.3107 34.8741 43.3994C34.9051 43.3621 34.9307 43.3317 34.957 43.3007C34.9733 43.3427 34.9845 43.3684 34.9938 43.3957C35.012 43.4477 35.0454 43.5012 35.0434 43.5522C35.038 43.6949 35.0814 43.749 35.1798 43.6949C35.2476 43.6582 35.3146 43.6188 35.3816 43.5805C35.3843 43.5889 35.387 43.5978 35.3901 43.6062C35.358 43.6446 35.3258 43.6829 35.2813 43.7354C35.3247 43.7249 35.3518 43.7186 35.3839 43.7112C35.3274 43.9432 35.3243 43.9952 35.3456 44.0188C35.3866 43.9422 35.4273 43.8661 35.4614 43.802C35.5404 43.8467 35.6074 43.8845 35.6535 43.9107C35.7376 43.8829 35.626 43.6834 35.7686 43.7432C35.7817 43.6782 35.7957 43.6131 35.8065 43.5595C35.9394 43.5301 35.9704 43.6173 35.9603 43.7637C35.9762 43.7023 35.9925 43.6409 36.0087 43.5779C36.1137 43.6739 36.1222 43.6928 36.1683 43.8635C36.1753 43.8881 36.1989 43.9154 36.2179 43.9217C36.3159 43.9532 36.3818 44.0272 36.4143 44.1585C36.4213 44.1852 36.4496 44.202 36.4848 44.2419C36.4554 44.1637 36.4372 44.1154 36.419 44.0671C36.4244 44.0619 36.4294 44.0566 36.4345 44.0519C36.4589 44.0755 36.4844 44.0986 36.5181 44.1307C36.4953 44.0246 36.4774 43.9385 36.4581 43.8472C36.5131 43.865 36.5689 43.8829 36.6227 43.8997C36.637 43.9648 36.6514 44.0272 36.6599 44.065C36.7021 44.065 36.749 44.0467 36.7637 44.0682C36.8117 44.1375 36.8524 44.1973 36.9194 44.2509C37.0314 44.3391 37.105 44.5144 37.189 44.6446C37.2584 44.6178 37.3095 44.5973 37.3599 44.5774C37.3153 44.5454 37.2708 44.5139 37.2258 44.4829C37.1441 44.5175 37.0934 44.5144 37.1209 44.3616C37.1313 44.3018 37.0755 44.2047 37.1534 44.1831C37.2177 44.1648 37.299 44.1621 37.3541 44.202C37.4269 44.2535 37.4807 44.2929 37.5466 44.1942C37.5431 44.2236 37.5396 44.253 37.5361 44.2824C37.5443 44.348 37.5628 44.4152 37.5578 44.4792C37.5458 44.622 37.5427 44.6257 37.6488 44.6929C37.5842 44.4288 37.5884 44.3296 37.6752 44.2493C37.6771 44.2734 37.6814 44.2918 37.6794 44.3091C37.667 44.4335 37.7496 44.4887 37.7856 44.5774C37.889 44.4608 37.8933 44.6393 37.9448 44.6766C37.9785 44.7007 38.0099 44.7312 38.0722 44.7842C38.049 44.6839 38.0378 44.633 38.0172 44.5438C38.1509 44.6908 38.2961 44.7543 38.3662 44.9679C38.4654 44.8231 38.3496 44.6645 38.3957 44.4986C38.4131 44.5538 38.4232 44.5989 38.4402 44.6377C38.4596 44.6803 38.4801 44.728 38.5092 44.7522C38.5223 44.7632 38.5359 44.7727 38.5499 44.7816C38.5901 44.8078 38.6331 44.8288 38.6746 44.853C38.6548 44.7942 38.6347 44.7349 38.6076 44.6545C38.6529 44.6435 38.6897 44.6204 38.7222 44.6293C38.7493 44.6367 38.7652 44.6335 38.7741 44.6241C38.7749 44.6231 38.7753 44.622 38.7761 44.6204C38.7776 44.6183 38.7799 44.6157 38.7807 44.6125C38.7815 44.6099 38.7819 44.6068 38.7819 44.6031C38.7827 44.6015 38.783 44.5994 38.783 44.5973C38.7834 44.5931 38.7834 44.5879 38.783 44.5826C38.783 44.5816 38.783 44.5805 38.783 44.579C38.7827 44.5742 38.7819 44.5695 38.7815 44.5643C38.7811 44.5622 38.7811 44.5601 38.7807 44.5574C38.7803 44.5548 38.7799 44.5522 38.7796 44.549C38.7788 44.5443 38.7784 44.5396 38.7772 44.5349C38.749 44.5238 38.7199 44.516 38.6928 44.5018C38.6618 44.486 38.6335 44.464 38.6037 44.4472C38.5653 44.4257 38.5266 44.4057 38.4886 44.3858C38.4976 44.3622 38.5061 44.3385 38.515 44.3149C38.6025 44.3884 38.6897 44.4614 38.7772 44.5349H38.778C38.7772 44.5107 38.7757 44.4866 38.7745 44.4692C38.8415 44.4997 38.907 44.5296 38.9721 44.5585C39.0085 44.5742 39.0511 44.5769 39.0809 44.6047C39.1522 44.6703 39.2173 44.7485 39.2858 44.8199C39.2886 44.8231 39.2967 44.8152 39.3041 44.8105C39.3044 44.8105 39.3048 44.8094 39.3056 44.8094C39.3044 44.8078 39.3041 44.8063 39.3033 44.8047C39.3037 44.8042 39.3044 44.8031 39.3044 44.8026C39.2754 44.7076 39.2467 44.612 39.2173 44.517C39.227 44.5123 39.2366 44.5076 39.2456 44.5028C39.294 44.5527 39.3416 44.6026 39.4055 44.6692C39.3707 44.7154 39.3378 44.759 39.3044 44.8026C39.3056 44.8047 39.306 44.8063 39.306 44.8089C39.306 44.8089 39.306 44.8094 39.3056 44.8094C39.3296 44.8561 39.354 44.9034 39.3838 44.9606C39.4005 44.8829 39.4195 44.7931 39.4427 44.6829C39.5961 44.8215 39.6174 44.664 39.6325 44.4598C39.6918 44.5795 39.7305 44.6577 39.7852 44.7685C39.7902 44.696 39.7917 44.6692 39.7956 44.612C39.8456 44.6561 39.9014 44.6776 39.92 44.7254C39.9951 44.9265 40.1078 45.0367 40.2744 45.0446C40.1872 44.9517 40.0978 44.8635 40.0145 44.7653C39.9854 44.7312 39.9719 44.6734 39.9479 44.6194C40.1547 44.5795 40.36 44.7448 40.41 44.9874C40.4177 45.0246 40.3832 45.0782 40.3681 45.1244C40.3902 45.17 40.4111 45.2152 40.4328 45.2603C40.441 45.254 40.4491 45.2493 40.4568 45.243C40.4568 45.1874 40.4568 45.1317 40.4568 45.0656C40.5041 45.0997 40.5378 45.1244 40.5719 45.149C40.5262 45.0099 40.47 44.8871 40.4046 44.7748C40.3538 44.6881 40.3623 44.6194 40.4084 44.5448C40.4572 44.5832 40.5076 44.6078 40.5432 44.654C40.6025 44.7301 40.6939 44.8168 40.6966 44.9039C40.7017 45.0729 40.7749 45 40.8252 45.0063C40.8504 45.0094 40.8775 44.9868 40.8903 44.9816C40.8853 44.8598 40.8799 44.738 40.874 44.6073C40.8438 44.6855 40.8186 44.7532 40.7935 44.8204C40.7849 44.8147 40.776 44.8084 40.7667 44.8015C40.7822 44.7522 40.8035 44.7034 40.8113 44.6509C40.8206 44.5905 40.8179 44.527 40.8198 44.4818C40.9046 44.5212 40.9992 44.5349 41.0623 44.6026C41.12 44.6656 41.1436 44.7868 41.1983 44.9207C41.2254 44.7931 41.2475 44.6918 41.2715 44.579C41.2908 44.6262 41.3094 44.6719 41.3284 44.7181C41.3346 44.716 41.3408 44.7133 41.3466 44.7112C41.3358 44.6535 41.3249 44.5952 41.3168 44.5511C41.3567 44.4965 41.3958 44.4425 41.4349 44.3884C41.4353 44.3868 41.4357 44.3858 41.4361 44.3837C41.4187 44.3879 41.402 44.3915 41.3923 44.3936C41.3846 44.2719 41.3749 44.1548 41.3714 44.0377C41.3706 44.012 41.3857 43.9726 41.402 43.9616C41.4191 43.9506 41.4559 43.9543 41.4659 43.9716C41.4876 44.0078 41.5144 44.0614 41.5082 44.0997C41.4927 44.1973 41.4613 44.2897 41.4361 44.3837C41.4365 44.3837 41.4377 44.3837 41.4384 44.3837C41.4377 44.3853 41.4361 44.3868 41.4349 44.3884C41.4524 44.3905 41.4706 44.3931 41.4888 44.3947C41.5481 44.4026 41.6104 44.4099 41.686 44.4194C41.6511 44.2551 41.6178 44.1013 41.5883 43.9611C41.677 43.9291 41.7425 43.9054 41.7793 43.8923C41.7859 43.7978 41.7898 43.7333 41.7944 43.6687C41.8076 43.6687 41.8204 43.6682 41.8339 43.6676C41.8936 43.8803 41.9544 44.0918 42.0144 44.3034C42.0222 44.2997 42.0295 44.2955 42.0373 44.2918C42.0334 44.2435 42.0299 44.1952 42.0257 44.1433C42.0594 44.1538 42.0846 44.1616 42.1097 44.169C42.0667 44.0824 42.0276 44.0052 41.9804 43.9086C42.2074 43.844 42.1806 44.1474 42.322 44.2482C42.2856 44.1632 42.2631 44.1118 42.229 44.0314C42.2759 44.0677 42.2999 44.0866 42.3263 44.1076C42.3534 43.9511 42.3762 43.8083 42.4057 43.6676C42.4088 43.654 42.4642 43.6404 42.4688 43.6509C42.499 43.7117 42.5436 43.7805 42.542 43.8456C42.5393 43.9952 42.5998 44.032 42.6954 44.0535C42.6846 43.981 42.6749 43.9175 42.6652 43.8545C42.6381 43.8614 42.6176 43.8656 42.5761 43.8755C42.5982 43.8199 42.6121 43.7863 42.6253 43.7516C42.6652 43.7989 42.7047 43.8467 42.7655 43.9186C42.738 43.7207 42.7144 43.5532 42.6908 43.3858C42.6989 43.3842 42.7071 43.3826 42.7156 43.3805C42.7408 43.4613 42.7659 43.5417 42.7899 43.6183C42.8062 43.5936 42.8213 43.5732 42.8337 43.5537C42.8461 43.5343 42.8577 43.518 42.8694 43.5018C42.8744 43.4545 42.8798 43.4073 42.8852 43.36C42.9143 43.3837 42.9433 43.4078 42.9639 43.4246C42.9898 43.3795 43.0131 43.3002 43.0406 43.297C43.1297 43.2876 43.2207 43.306 43.2834 43.3117C43.3059 43.2288 43.323 43.1642 43.347 43.076C43.4062 43.1873 43.4508 43.2692 43.4938 43.3511C43.4992 43.3474 43.5042 43.3432 43.5097 43.339C43.4702 43.2466 43.4306 43.1532 43.4012 43.0844C43.4275 43.0325 43.4523 42.9826 43.4783 42.9322L43.4756 42.9359C43.4756 42.9359 43.4756 42.9359 43.4752 42.9364C43.4523 42.9569 43.4299 42.9768 43.4124 42.992C43.3935 42.8934 43.3737 42.7926 43.3528 42.6823C43.4822 42.7044 43.4272 42.8629 43.4752 42.9364C43.4752 42.9359 43.4752 42.9359 43.4756 42.9359C43.4884 42.8461 43.5008 42.7563 43.5163 42.6487C43.541 42.7191 43.5612 42.7752 43.5821 42.834C43.6511 42.7626 43.6662 42.7107 43.5864 42.644C43.5523 42.6151 43.5364 42.5458 43.5128 42.4944C43.519 42.486 43.5252 42.4771 43.5314 42.4687C43.6061 42.5311 43.6813 42.5926 43.756 42.655C43.7328 42.591 43.6975 42.5479 43.66 42.5096C43.6255 42.4739 43.5883 42.443 43.5531 42.4099C43.5604 42.3957 43.5674 42.3821 43.5747 42.3679C43.6057 42.3889 43.6367 42.4099 43.6851 42.443C43.6658 42.38 43.6534 42.3406 43.6414 42.3007C43.7816 42.2624 43.7816 42.2624 44.0346 42.676C44.0303 42.5731 44.0361 42.4834 44.021 42.401C44.0051 42.3196 43.9602 42.2414 44.0694 42.2508C44.0694 42.2073 44.0694 42.1637 44.0694 42.1086C44.1969 42.1453 44.1818 42.2687 44.1794 42.36C44.2402 42.4225 44.2918 42.4755 44.3433 42.5285C44.3382 42.455 44.3154 42.3889 44.2925 42.3227C44.2767 42.2755 44.2581 42.2256 44.3262 42.2461C44.2949 42.212 44.2643 42.1779 44.2278 42.1364C44.2879 42.0587 44.3619 42.0655 44.4401 42.1143L44.4351 42.1117C44.5373 42.0262 44.4603 42.2193 44.5153 42.201C44.5079 42.0923 44.5006 41.9768 44.4913 41.8361C44.6121 41.9343 44.6098 42.0466 44.5827 42.1731C44.5703 42.2319 44.5652 42.2933 44.5579 42.3542C44.6214 42.191 44.6849 42.0277 44.7461 41.8692C44.7764 41.907 44.8197 41.9621 44.86 42.012C44.8492 41.8954 44.8379 41.7768 44.8271 41.6534C44.9793 41.4524 45.0653 41.623 45.1432 41.7999C45.1746 41.7437 45.1959 41.7059 45.2238 41.6566C45.1103 41.5978 45.1126 41.4933 45.1901 41.3206C45.23 41.3962 45.2637 41.4597 45.297 41.5233C45.2923 41.5317 45.2877 41.5401 45.2834 41.5485C45.2505 41.5264 45.218 41.5033 45.166 41.4681C45.2334 41.5868 45.2869 41.6802 45.34 41.7737C45.3454 41.7695 45.3508 41.7653 45.3562 41.7611C45.3431 41.7185 45.3303 41.6765 45.3206 41.6461C45.3772 41.6592 45.4287 41.6708 45.5162 41.6912C45.3853 41.5689 45.4554 41.4781 45.4988 41.3652C45.5511 41.4891 45.5883 41.6282 45.7087 41.5836C45.6766 41.5138 45.6437 41.4414 45.6107 41.3679C45.6173 41.3579 45.6247 41.3479 45.6317 41.338C45.675 41.3715 45.7184 41.4046 45.7699 41.445C45.7738 41.3852 45.7773 41.3374 45.7804 41.2902C45.794 41.2923 45.8075 41.2949 45.8215 41.2975C45.7971 41.4492 45.773 41.6004 45.7483 41.7521C45.7738 41.7201 45.7746 41.6786 45.7878 41.6471C45.8474 41.5049 45.8288 41.296 45.9915 41.2361C46.0171 41.2267 46.0365 41.0429 46.0314 41.0408C45.8819 40.9673 46.0767 40.8471 45.9799 40.76C46.0438 40.7637 46.0775 40.7658 46.1097 40.7679C46.1178 40.8256 46.1236 40.8729 46.1294 40.9201C46.1352 40.9196 46.1414 40.9196 46.1472 40.9196C46.1496 40.8839 46.1519 40.8477 46.1527 40.8382C46.2452 40.8655 46.3324 40.8907 46.4335 40.9196C46.3971 40.8219 46.3735 40.7579 46.344 40.6781C46.4141 40.6644 46.4606 40.6555 46.5017 40.6471C46.4397 40.6272 46.3812 40.6088 46.3231 40.5899C46.3254 40.5731 46.3281 40.5563 46.3312 40.539C46.456 40.5243 46.5803 40.5091 46.7054 40.4938C46.6702 40.4765 46.6345 40.4429 46.6005 40.445C46.5323 40.4482 46.5183 40.4093 46.5358 40.3332C46.5447 40.2938 46.5606 40.2576 46.5741 40.2198C46.5877 40.2497 46.5974 40.287 46.6167 40.307C46.6593 40.35 46.7066 40.3831 46.7523 40.4203C46.8019 40.4004 46.8507 40.3799 46.9286 40.349C46.8445 40.3164 46.7775 40.2907 46.7101 40.2639C46.7124 40.2461 46.7151 40.2287 46.7178 40.2104C46.7395 40.2035 46.7612 40.1962 46.7829 40.1888C46.8069 40.181 46.8313 40.1731 46.8406 40.1699C46.8255 40.1028 46.8135 40.0503 46.8015 39.9972C46.7674 40.0387 46.7333 40.0807 46.6992 40.1222C46.6926 40.118 46.6861 40.1143 46.6795 40.1106C46.6977 40.0377 46.7019 39.9474 46.7372 39.8959C46.7786 39.835 46.8116 39.8865 46.817 39.9594C46.8573 39.9384 46.8972 39.9164 46.9375 39.898C46.9592 39.8875 46.994 39.8954 47.0033 39.877C47.051 39.7888 47.0885 39.6949 47.0533 39.5778C47.0417 39.5411 47.0432 39.497 47.0386 39.4566C47.0475 39.4524 47.0564 39.4487 47.0653 39.4445C47.0847 39.4749 47.1033 39.5048 47.1222 39.5348C47.1311 39.4618 47.1095 39.3999 47.1083 39.3369C47.1067 39.2649 47.116 39.1888 47.137 39.1243C47.142 39.109 47.2144 39.1327 47.2551 39.1416C47.2838 39.1484 47.312 39.161 47.3419 39.1715C47.3597 38.9899 47.1528 39.0513 47.1803 38.8397C47.1931 38.7405 47.0994 38.6156 47.056 38.508C47.1412 38.5836 47.2299 38.6345 47.29 38.7222C47.3671 38.8334 47.4197 38.9747 47.4836 39.1027C47.4937 39.1227 47.505 39.1421 47.5255 39.1804C47.5255 39.0124 47.5255 38.8739 47.5255 38.7463C47.491 38.7027 47.4507 38.6539 47.4108 38.604C47.4298 38.6917 47.3872 38.6954 47.3609 38.6508C47.3109 38.5673 47.2768 38.4665 47.2357 38.3736C47.252 38.3584 47.2683 38.3437 47.2845 38.329C47.3082 38.3736 47.3306 38.4187 47.3562 38.4618C47.3725 38.4901 47.3918 38.5148 47.4104 38.5416C47.4224 38.5216 47.4321 38.4891 47.4468 38.4854C47.5379 38.4602 47.5294 38.3962 47.4755 38.299C47.5569 38.2728 47.6293 38.2487 47.7021 38.225C47.6231 38.1689 47.5445 38.1132 47.4643 38.056C47.4674 38.1316 47.4705 38.2025 47.4736 38.2823C47.4046 38.1521 47.345 38.0413 47.2861 37.9305C47.3051 37.9851 47.3237 38.0392 47.3423 38.0933C47.3365 38.098 47.331 38.1038 47.3252 38.1085C47.2597 38.0235 47.1947 37.9389 47.1335 37.8602C47.1796 37.8277 47.2183 37.7872 47.2617 37.7741C47.2845 37.7668 47.3159 37.8067 47.343 37.8256C47.4031 37.8476 47.4635 37.8696 47.548 37.9017C47.5201 37.8371 47.5046 37.7584 47.4666 37.7248C47.4112 37.6754 47.3403 37.6576 47.2559 37.6161C47.2911 37.5899 47.2989 37.5794 47.3035 37.5815C47.5061 37.6759 47.7083 37.7736 47.9113 37.8649ZM39.1968 28.4096C39.28 28.4191 39.3633 28.4275 39.447 28.4369C39.4791 28.4763 39.5117 28.5151 39.5434 28.555C39.5469 28.5561 39.55 28.5577 39.5524 28.5582C39.5535 28.5603 39.5551 28.5634 39.5562 28.5655C39.5996 28.5913 39.6546 28.606 39.6794 28.6511C39.7209 28.7262 39.7402 28.8233 39.7449 28.9309C39.6821 28.8091 39.619 28.6873 39.5562 28.5655C39.5539 28.5645 39.5516 28.564 39.5496 28.5629C39.5473 28.5603 39.5458 28.5577 39.5434 28.555C39.5283 28.5477 39.5086 28.5382 39.5063 28.543C39.4408 28.6858 39.3935 28.5734 39.342 28.523C39.2917 28.4962 39.2417 28.4695 39.1913 28.4432C39.1933 28.4322 39.1952 28.4207 39.1968 28.4096ZM38.6455 33.8066C38.7184 33.9173 38.7908 34.0281 38.8636 34.1383C38.7687 34.0559 38.6262 34.0344 38.6455 33.8066ZM40.1869 34.0942C40.0497 34.0202 39.913 33.9467 39.7759 33.8727C39.7762 33.8617 39.7766 33.8507 39.7774 33.8391C39.8584 33.8502 39.9467 33.8376 40.0176 33.8785C40.09 33.9205 40.1442 34.016 40.2066 34.088C40.2008 34.09 40.1938 34.0922 40.1869 34.0942ZM41.8289 30.974C41.8033 30.9304 41.7828 30.8963 41.7611 30.8606C41.7274 30.9015 41.6902 30.9467 41.6209 31.0307C41.6352 30.9325 41.643 30.88 41.6503 30.8275C41.6492 30.8275 41.6484 30.8275 41.6472 30.8286C41.6472 30.8275 41.6472 30.827 41.6472 30.8265C41.6375 30.8301 41.6302 30.8354 41.6228 30.8406C41.5384 30.8952 41.5864 31.0144 41.5829 31.1015C41.5748 31.2842 41.5829 31.468 41.5794 31.6517C41.579 31.6795 41.5546 31.7068 41.5395 31.7336C41.4857 31.8333 41.4667 31.9299 41.5624 32.0244C41.5302 32.0569 41.5051 32.0827 41.471 32.1168C41.4841 32.1509 41.5012 32.1961 41.5291 32.2701C41.5415 32.2144 41.5488 32.184 41.5554 32.1546C41.5651 32.1509 41.5756 32.1467 41.5856 32.143C41.5957 32.2076 41.6065 32.2722 41.6143 32.3231C41.5697 32.331 41.5082 32.331 41.5066 32.3436C41.4977 32.4249 41.5023 32.5094 41.5023 32.6018C41.4632 32.5887 41.4082 32.5693 41.34 32.5462C41.3482 32.5982 41.3548 32.6402 41.3637 32.6932C41.34 32.7037 41.3141 32.7142 41.2808 32.7278C41.4164 32.7383 41.3892 32.8969 41.4253 32.9982C41.3722 32.9483 41.3106 32.9089 41.2676 32.8465C41.2052 32.7556 41.1688 32.827 41.1243 32.8685C41.2397 32.9283 41.3315 33.0213 41.3838 33.1714C41.3749 33.1877 41.366 33.2039 41.3575 33.2192C41.2901 33.1515 41.2227 33.0843 41.1557 33.0165C41.1386 33.1499 41.0654 33.2087 41.0236 33.121C41.0112 33.0937 41.0181 33.0512 41.0108 33.0176C41.005 32.9945 40.9903 32.9745 40.9546 32.9651C40.9639 33.0454 40.981 33.1252 40.9802 33.2055C40.9794 33.2748 40.9593 33.3441 40.9461 33.4218C40.9213 33.4874 40.8589 33.574 40.8694 33.6407C40.8829 33.7268 40.8291 33.911 40.9844 33.8879C40.9263 33.9824 40.9263 33.9824 40.8101 33.8034C40.7935 33.8753 40.7799 33.9352 40.7617 34.0113C40.6776 33.9063 40.5975 33.8066 40.508 33.6942C40.508 33.7362 40.508 33.7929 40.508 33.8795C40.422 33.7184 40.3418 33.5693 40.262 33.4197C40.2512 33.4286 40.2399 33.4375 40.2287 33.4465C40.2585 33.5231 40.288 33.5992 40.3224 33.69C40.3023 33.7263 40.2752 33.7761 40.2477 33.826C40.2512 33.8344 40.2546 33.8428 40.2577 33.8512C40.2922 33.8255 40.3275 33.7998 40.3751 33.7641C40.4344 33.8727 40.4964 33.9866 40.5587 34.1005C40.5498 34.1089 40.5405 34.1179 40.5316 34.1257C40.4805 34.0481 40.4297 33.9698 40.3774 33.889C40.2612 33.9588 40.1725 33.8633 40.0962 33.7688C39.9533 33.5903 39.8084 33.6795 39.6566 33.7247C39.6027 33.7404 39.5407 33.7042 39.4695 33.689C39.4888 33.616 39.5004 33.5719 39.5152 33.5152C39.4559 33.5021 39.4063 33.4916 39.3525 33.4795C39.3389 33.52 39.3254 33.5614 39.3099 33.6087C39.2634 33.594 39.2227 33.5803 39.1619 33.5609C39.1871 33.6103 39.2029 33.6412 39.2212 33.6769C39.1057 33.6895 38.9116 33.5152 38.8543 33.3725C38.8047 33.2501 38.7428 33.1368 38.6854 33.0192C38.6761 33.0386 38.6661 33.0575 38.656 33.0769C38.6142 33.0984 38.5715 33.12 38.5154 33.1478C38.489 33.0942 38.4515 33.0176 38.4119 32.9378C38.4042 32.974 38.3976 33.006 38.3895 33.0423C38.3612 32.9798 38.3345 32.9231 38.2892 32.8244C38.2857 32.8675 38.283 32.9021 38.281 32.9341C38.2795 32.9514 38.2783 32.9677 38.2771 32.9824C38.274 33.0218 38.2713 33.0554 38.269 33.0885C38.2698 33.09 38.2709 33.0916 38.2721 33.0932L38.2686 33.0979C38.4712 33.1163 38.4743 33.1242 38.3686 33.3919C38.3383 33.3305 38.3108 33.2738 38.2795 33.2108C38.2504 33.2375 38.2206 33.2654 38.1869 33.2963C38.176 33.2696 38.1656 33.2444 38.1555 33.2197C38.195 33.1772 38.2318 33.1373 38.269 33.0974C38.269 33.0948 38.2694 33.0916 38.2694 33.089C38.2291 33.0181 38.1892 32.9467 38.1474 32.8717C38.1052 32.9997 38.0544 33.1515 37.9897 33.3473C37.9525 33.2543 37.939 33.2207 37.9254 33.1871C37.9134 33.1924 37.9014 33.1976 37.8894 33.2034C37.9022 33.2564 37.9146 33.3095 37.9285 33.3672C37.8921 33.385 37.8495 33.406 37.8077 33.427C37.808 33.437 37.808 33.447 37.808 33.457C37.8383 33.4596 37.8689 33.4622 37.8979 33.4648C37.9057 33.5557 37.6853 33.6008 37.557 33.5273C37.5508 33.7194 37.4765 33.7452 37.3579 33.6648C37.3599 33.6202 37.3622 33.5709 37.3645 33.5226C37.3583 33.5215 37.3521 33.52 37.3459 33.5184C37.3184 33.658 37.2905 33.7971 37.263 33.9404C37.2708 33.942 37.3018 33.9478 37.3401 33.9551C37.0887 34.1767 36.8156 34.1284 36.5495 34.1294C36.5429 34.047 36.5367 33.9635 36.5317 33.8969C36.4627 33.8858 36.4093 33.8748 36.355 33.8701C36.3117 33.8664 36.245 33.8969 36.2272 33.8685C36.1691 33.7725 36.0138 33.8869 36.0114 33.6795C36.0111 33.6633 35.9696 33.6475 35.9367 33.6234C35.9688 33.6019 35.9932 33.5824 36.0188 33.5693C36.0421 33.5572 36.0668 33.5504 36.0959 33.5226C35.8929 33.605 35.7225 33.5751 35.6214 33.2906C35.6504 33.2806 35.6814 33.2701 35.7043 33.2627C35.7043 33.1074 35.7004 32.9625 35.707 32.8192C35.7085 32.7882 35.7473 32.7635 35.7643 32.731C35.8046 32.6528 35.8426 32.5714 35.8821 32.4916C35.8755 32.4832 35.8693 32.4743 35.8631 32.4659C35.8131 32.479 35.7635 32.4984 35.7132 32.5031C35.6721 32.5063 35.6303 32.4926 35.5892 32.4869C35.5896 32.4727 35.5896 32.458 35.5896 32.4438C35.6113 32.4323 35.6334 32.4207 35.6551 32.4092C35.6539 32.4008 35.6527 32.3924 35.6512 32.3835C35.6198 32.3835 35.5884 32.3835 35.5063 32.3835C35.5939 32.2244 35.6605 32.1031 35.7263 31.9835C35.7093 31.9924 35.6857 32.0055 35.638 32.0312C35.652 31.9604 35.6682 31.91 35.671 31.858C35.6744 31.7908 35.6729 31.7215 35.6632 31.6559C35.6473 31.5414 35.6241 31.4291 35.6039 31.3168C35.6163 31.3131 35.6283 31.3094 35.6411 31.3057C35.5853 31.2774 35.5296 31.2496 35.4711 31.2202C35.5257 31.1057 35.6768 31.2354 35.6671 31.0559C35.6597 30.9152 35.7279 30.7288 35.5718 30.6517C35.7019 30.4569 35.5416 30.2853 35.5633 30.0879C35.7651 30.1997 36.0204 30.0853 36.1858 30.4244C36.1858 30.3414 36.1858 30.3162 36.1858 30.2396C36.2249 30.3315 36.2481 30.3866 36.2745 30.4496C36.3027 30.437 36.3326 30.4233 36.3756 30.4039C36.3593 30.6244 36.5046 30.5026 36.5735 30.5944C36.5685 30.5383 36.5654 30.5005 36.5596 30.4338C36.5999 30.4721 36.6235 30.4942 36.6467 30.5162C36.6556 30.5089 36.6653 30.5021 36.6742 30.4942C36.6583 30.4322 36.6425 30.3703 36.6339 30.3367C36.7792 30.3614 36.9365 30.3887 37.0937 30.4154C37.0872 30.3855 37.0806 30.3551 37.0744 30.3257C37.1569 30.2265 37.2371 30.122 37.3262 30.0338C37.3358 30.0238 37.3955 30.1052 37.4455 30.1587C37.4397 30.058 37.4354 29.9692 37.4304 29.88C37.4373 29.8774 37.4443 29.8747 37.4517 29.8716C37.4676 29.9572 37.4834 30.0427 37.504 30.1519C37.5245 30.1094 37.5381 30.0816 37.5582 30.0396C37.5749 30.0784 37.5896 30.1115 37.6078 30.1524C37.626 30.1152 37.645 30.0763 37.6655 30.0328C37.7279 30.0774 37.7883 30.1209 37.86 30.1729C37.8685 30.1 37.8754 30.0396 37.8844 29.9629C37.9459 30.0244 38.0025 30.08 38.0749 30.1519C38.0707 30.0774 38.0676 30.0254 38.0629 29.9461C38.0928 29.9944 38.1121 30.0249 38.1268 30.049C38.2799 29.9818 38.178 29.7818 38.2589 29.6228C38.2888 29.7976 38.3132 29.9414 38.3469 30.1414C38.3666 30.0616 38.3755 30.0265 38.3844 29.9908C38.3965 29.9997 38.4085 30.0086 38.4209 30.0175C38.429 30.0559 38.4364 30.0931 38.4445 30.1309C38.5739 30.1335 38.4859 29.9787 38.5417 29.9215C38.5545 29.944 38.5688 29.9713 38.5983 30.0244C38.6041 29.9519 38.6072 29.9099 38.6107 29.8669C38.6207 29.8648 38.6312 29.8627 38.6413 29.8606C38.6506 29.9409 38.6603 30.0217 38.6707 30.111C38.7273 30.058 38.7722 30.0175 38.8307 29.9629C38.8539 30.0023 38.8931 30.0695 38.933 30.1367C38.938 30.132 38.9426 30.1278 38.9473 30.1241C38.9314 30.0758 38.9151 30.0275 38.89 29.9535C38.9608 30.0039 39.012 30.0406 39.0678 30.0805C39.0612 30.0343 39.0565 29.9971 39.0515 29.9603C39.1057 30.0637 39.1274 30.2212 39.2591 30.1593C39.3013 30.1398 39.3323 30.0758 39.373 30.0265C39.3017 29.9152 39.1909 29.8559 39.2436 29.7178C39.2564 29.7288 39.2684 29.7414 39.2808 29.754C39.4148 29.8978 39.4966 30.1388 39.7023 30.1503C39.6701 30.1036 39.6376 30.0564 39.605 30.0091C39.6077 30.0002 39.6108 29.9918 39.6132 29.9834C39.7422 30.0569 39.8715 30.1293 40.0021 30.2044C40.0013 30.196 39.9986 30.1692 39.9928 30.0994C40.2488 30.3635 40.5324 30.4286 40.826 30.4391C40.8124 30.4212 40.7985 30.4034 40.7846 30.385C40.8369 30.3204 40.8888 30.2553 40.9407 30.1908C40.9535 30.2034 40.9658 30.2165 40.979 30.2296C40.9612 30.1997 40.9434 30.1708 40.9232 30.1383C41.0065 30.1167 41.0793 30.0979 41.1688 30.0753C41.1711 30.1036 41.1758 30.1493 41.1808 30.2065C41.1247 30.2102 41.0824 30.2133 41.0402 30.2165C41.0402 30.2317 41.041 30.248 41.0414 30.2627C41.0871 30.2574 41.1359 30.2637 41.1785 30.2443C41.2521 30.2097 41.3207 30.1309 41.3943 30.1241C41.4489 30.1183 41.5078 30.1976 41.5868 30.2548C41.5895 30.2522 41.6228 30.2233 41.6495 30.1992C41.6495 30.4076 41.6495 30.6175 41.6495 30.828C41.6511 30.8275 41.6519 30.827 41.653 30.8265C41.6526 30.827 41.6526 30.828 41.6526 30.8291C41.6929 30.816 41.7328 30.8034 41.7774 30.7892C41.7685 30.7325 41.7611 30.6895 41.7541 30.6464C41.7607 30.638 41.7669 30.6296 41.7735 30.6217C41.7929 30.6485 41.8258 30.6727 41.8289 30.7015C41.8335 30.7808 41.8289 30.8648 41.8289 30.974Z" fill="black"/>
<path d="M45.9086 28.0616C45.9009 28.0306 45.8935 27.9987 45.8792 27.9379C45.9555 27.9866 46.069 27.8803 46.0682 28.0998C46.0419 28.0699 46.0275 28.0532 46.0004 28.0223C46.0066 28.0883 46.0101 28.1354 46.0144 28.1836C45.9873 28.1847 45.9594 28.1852 45.9319 28.1857C45.9055 28.2025 45.8784 28.2198 45.8521 28.2371C45.9276 28.3445 46.0039 28.4508 46.0791 28.5567C46.1833 28.4519 46.1891 28.4325 46.1519 28.2764C46.1379 28.2182 46.1019 28.1674 46.0965 28.1098C46.0748 27.8714 46.0179 27.8017 45.8513 27.8205C45.8377 27.8216 45.8218 27.7833 45.8064 27.7624C45.7738 27.7959 45.7409 27.8305 45.6719 27.9033C45.7692 27.9672 45.8385 28.0144 45.9086 28.0616Z" fill="black"/>
<path d="M46.2561 28.9479C46.2572 28.9285 46.2596 28.8961 46.2619 28.8637C46.2526 28.8752 46.2425 28.8877 46.2332 28.8998C46.1987 28.8569 46.1666 28.8108 46.129 28.7732C46.1027 28.747 46.0701 28.7314 46.0399 28.7115C46.067 28.7837 46.0941 28.8558 46.1178 28.9191C46.1631 28.929 46.2096 28.9385 46.2561 28.9479Z" fill="black"/>
<path d="M46.0406 28.7114L46.0376 28.7041L46.0341 28.7062L46.0346 28.7077L46.0406 28.7114Z" fill="black"/>
<path d="M39.0443 19.6203C37.9807 20.0823 37.0227 20.7937 35.9079 20.9462C34.5102 21.1356 33.2182 20.0453 31.9637 19.2923C30.7091 18.5393 28.5205 17.4444 26.9489 17.5506C27.9941 16.6959 29.0819 15.941 30.2046 15.2915C30.2046 15.2915 30.3989 15.2915 30.4057 15.2915C30.825 15.4994 31.7489 15.2915 32.6114 15.1483C34.1951 14.8806 35.796 14.8543 37.3841 15.0698C38.9491 15.278 40.4784 15.832 41.9113 16.7098C42.7465 17.2365 43.5272 17.9525 44.3522 18.5208C42.5526 18.5309 40.7639 18.9014 39.0443 19.6203ZM46.2647 19.0197C45.2215 19.0197 42.5658 16.5296 40.9329 15.7258C39.3225 14.9741 37.6348 14.5703 35.9318 14.5292C35.2159 14.5015 34.5 14.52 33.7841 14.5847C32.8534 14.6724 31.4625 15.31 30.5421 14.9774C31.3364 8.90687 32.5637 3.53399 37.6125 2.65622C39.7125 2.29125 41.8738 2.38365 43.8749 3.40002C46.5817 4.78597 47.526 7.71957 47.826 11.3693C47.9999 13.4759 48.5078 19.0197 46.2647 19.0197ZM29.3625 18.3129C29.3625 18.3129 27.8796 17.6291 26.8978 17.8509C26.5833 17.9417 26.2928 18.1465 26.0575 18.4435C25.8221 18.7405 25.6507 19.1185 25.5614 19.5371C25.5547 19.5846 25.5566 19.6336 25.567 19.6799C25.5775 19.7261 25.5961 19.7682 25.6214 19.8024C25.6466 19.8366 25.6777 19.8619 25.7118 19.8761C25.7459 19.8902 25.7821 19.8928 25.8171 19.8836C26.1147 19.7984 26.3987 19.6419 26.6558 19.4216C26.9251 19.1768 28.5239 18.2205 29.3625 18.3129Z" fill="#FF7817" stroke="black" stroke-width="0.326702"/>
</svg>
