<svg width="47" height="40" viewBox="0 0 47 40" fill="none" xmlns="http://www.w3.org/2000/svg">
<path d="M24.2457 7.6987C22.9276 7.14953 21.5778 6.74607 20.2131 6.41632C20.9601 5.41146 21.9034 4.63024 22.7039 3.68309C22.9764 3.36091 22.8868 2.67613 22.4563 2.59148C20.581 2.2213 18.7038 2.41923 16.8148 2.43776C16.7642 2.43819 16.7136 2.44071 16.663 2.44113C16.7295 1.72898 16.6861 1.04294 16.3457 0.475233C16.2025 0.237707 15.9669 0.084832 15.7125 0.174957C14.1689 0.721602 12.6398 1.32889 11.1378 2.01157C10.8577 1.73235 10.5682 1.46492 10.2596 1.22066C10.1005 1.09516 9.85333 1.10358 9.69359 1.22066C8.13701 2.3607 6.71668 3.68941 5.22985 4.94231C3.6711 6.25628 2.05633 7.47591 0.501555 8.79704C0.373256 8.90612 0.302781 9.0472 0.274953 9.19503C0.112319 9.28936 -0.00658387 9.4734 0.000282873 9.75262C0.0714801 12.7819 0.367473 15.7977 0.280374 18.8312C0.265194 19.3593 0.731771 19.5665 1.09354 19.4061C1.68878 20.4809 2.09319 21.6828 2.65193 22.7845C2.65265 22.7879 2.65374 22.7896 2.65446 22.7929C2.66241 22.822 2.67361 22.8481 2.68373 22.8746C2.68554 22.8991 2.68915 22.9214 2.6906 22.9458C2.70614 23.1673 2.79794 23.3286 2.92154 23.4331C2.90961 23.9178 2.98515 24.4695 3.0708 24.9913C3.28042 26.2636 2.58832 28.7997 4.44234 28.4834C4.57606 28.4607 4.65051 28.3706 4.67581 28.2615C4.91289 29.634 5.32092 30.9366 5.81135 32.2304C6.47237 33.973 7.47527 35.634 7.96715 37.4521C8.20604 38.334 8.4218 39.095 9.21617 39.4155C10.2346 39.8261 11.5042 39.7015 12.5567 39.6202C13.3659 39.5583 14.0525 39.4067 14.6785 38.7749C15.4877 37.9583 15.9037 36.6115 16.2925 35.4879C16.7804 34.0804 17.2669 32.7383 17.8907 31.4007C18.4487 30.2034 18.908 29.0149 19.0956 27.7148C19.388 27.7536 19.6222 27.7081 19.9117 27.6121C20.0649 27.5624 20.1459 27.4116 20.1585 27.2347C20.2496 25.9465 20.7541 22.3865 19.0851 22.1545C19.4538 19.9393 20.5521 17.9519 21.4429 15.9552C21.5911 15.7864 21.6992 15.5556 21.7447 15.2603C22.7317 12.9327 23.9088 10.7128 24.4809 8.18049C24.5297 7.96234 24.4195 7.77072 24.2457 7.6987ZM19.6442 24.9875C19.564 24.7643 19.4707 24.5474 19.3652 24.3377C19.1458 23.9022 18.5643 24.296 18.7844 24.7331C18.9774 25.116 19.1195 25.5106 19.199 25.946C19.2431 26.1865 19.4205 26.2594 19.5803 26.2143C19.5571 26.4864 19.5322 26.7319 19.513 26.929C19.4017 26.9543 19.2875 26.9543 19.1722 26.9404C19.1813 26.7791 19.187 26.6169 19.1867 26.4514C19.1867 25.946 18.5145 25.946 18.5145 26.4514C18.517 29.22 16.9731 31.3598 16.1277 33.8286C15.4476 35.813 14.9195 38.5538 12.7937 38.8137C11.9224 38.9211 11.0344 38.9101 10.1627 38.8225C9.73552 38.7796 9.20858 38.724 8.94873 38.2712C8.68237 37.808 8.65816 37.2007 8.45469 36.7042C7.21181 33.674 5.58439 30.7163 5.21214 27.3228C5.15793 26.8288 4.48463 26.8224 4.53956 27.3228C4.56161 27.522 4.58799 27.7182 4.61726 27.9136C4.54534 27.789 4.42138 27.7014 4.26308 27.7283C3.86048 27.797 3.74772 27.3228 3.73326 26.769C3.78819 26.7239 3.83265 26.6544 3.85469 26.5554C4.00901 25.8627 4.22297 25.2015 4.49366 24.5596C4.68376 24.1073 4.1037 23.7102 3.91252 24.1646C3.83807 24.3406 3.76723 24.5188 3.70001 24.6986C3.63785 24.3722 3.56701 24.01 3.54677 23.6883C3.89626 23.6297 4.19514 23.236 3.98841 22.8089C4.06684 22.8001 4.15719 22.803 4.26308 22.8237C4.45138 22.8607 4.59088 22.7327 4.65196 22.5714C4.67798 22.544 4.70183 22.5108 4.71773 22.4695C4.8211 22.1962 4.91362 21.9182 4.99674 21.639C5.03252 21.5779 5.06252 21.5076 5.08023 21.4217C5.09974 21.3286 5.11601 21.2364 5.13444 21.1433C5.38236 20.1852 5.53162 19.1985 5.63788 18.2025C5.70438 17.8748 5.77774 17.5488 5.85075 17.2229C7.36324 16.0378 7.89089 14.0171 7.97691 11.9211C9.33869 11.8246 10.7128 11.9224 12.0735 11.9851C13.1288 12.0335 14.162 12.0516 15.2134 11.9337C15.972 11.8491 18.3048 11.294 18.4472 12.7318C18.5123 13.3841 18.513 14.0643 18.4949 14.7474C18.4913 14.8615 18.4874 14.9757 18.4848 15.0898C18.4603 15.7885 18.4223 16.4859 18.4144 17.1572C18.3934 18.9201 18.3674 20.6826 18.3648 22.4455C18.3645 22.6278 18.4733 22.7529 18.6023 22.8051C18.6558 22.8797 18.7385 22.9298 18.8506 22.9243C19.5044 22.8982 19.6536 23.9149 19.6442 24.9875Z" fill="black"/>
<path d="M11.4522 16.306C10.2827 16.2222 9.11133 16.2192 7.94001 16.2188C7.50632 16.2188 7.50632 17.0022 7.94001 17.0022C9.1117 17.0022 10.2827 17.0056 11.4522 17.0894C11.8859 17.1201 11.8826 16.3367 11.4522 16.306Z" fill="black"/>
<path d="M16.9076 16.306H13.0962C12.6625 16.306 12.6625 17.0894 13.0962 17.0894H16.9076C17.3413 17.089 17.3413 16.306 16.9076 16.306Z" fill="black"/>
<path d="M11.3922 19.9488C11.5668 19.8705 11.6748 19.6899 11.6271 19.4672C11.3532 18.1794 9.87828 18.5453 9.06114 18.6568C8.63576 18.7149 8.6307 19.4992 9.06114 19.4402C9.33544 19.4028 9.99357 19.2226 10.4652 19.287C10.4063 19.4474 10.4334 19.6377 10.6098 19.7349C10.9061 19.8987 11.0366 20.1079 11.3922 19.9488Z" fill="black"/>
<path d="M13.5451 18.6568C13.1114 18.664 13.111 19.447 13.5451 19.4402C13.7865 19.4364 14.7724 19.2765 15.4161 19.3278C15.3431 19.5269 15.3915 19.7892 15.6225 19.8616C15.8957 19.9471 16.1263 19.9471 16.3988 19.8616C16.5831 19.8044 16.6731 19.5876 16.634 19.38C16.3948 18.1091 14.2965 18.6446 13.5451 18.6568Z" fill="black"/>
<path d="M11.5122 28.9193C12.3926 29.2292 13.2375 29.3088 13.8349 28.3903C14.0977 27.9873 13.5126 27.5977 13.2542 27.9949C12.9256 28.4998 12.4164 28.4063 11.9589 28.2564C12.1436 25.5594 12.5827 22.8935 12.6105 20.1818C12.6159 19.676 11.9433 19.6764 11.9379 20.1818C11.909 22.9896 11.4366 25.7464 11.2657 28.5419C11.2545 28.7167 11.3767 28.8704 11.5122 28.9193Z" fill="black"/>
<path d="M15.1003 30.0057C14.1461 31.2682 12.0735 29.8698 10.8544 29.8908C10.4211 29.8992 10.4204 30.6822 10.8544 30.6742C11.9752 30.6553 13.4327 31.5263 14.5961 31.2316C14.5495 31.3436 14.501 31.4547 14.4501 31.565C14.2426 32.0087 14.8234 32.404 15.0305 31.9599C15.2553 31.4796 15.4288 30.974 15.6286 30.4802C15.7822 30.1017 15.3688 29.65 15.1003 30.0057Z" fill="black"/>
<path d="M12.2744 36.6839C11.9181 36.6839 11.5628 36.6907 11.2133 36.785C10.7916 36.8999 10.9705 37.6551 11.3922 37.5402C11.6817 37.461 11.9788 37.4674 12.2741 37.4674C12.7085 37.4678 12.7085 36.6839 12.2744 36.6839Z" fill="black"/>
<path d="M36.8077 17.6309C37.2851 17.6309 37.1812 18.5978 37.6378 19.5888C38.094 20.5794 38.7986 21.2201 40.318 20.99C41.8371 20.7607 42.117 19.6126 42.117 19.6126C42.117 19.6126 42.6148 17.897 42.7388 17.5219C42.8639 17.1473 43.071 17.22 43.071 17.1594L43.2062 16.1809C43.2062 16.1809 40.4684 15.359 37.4303 16.3617C37.4303 16.3617 36.9948 16.5066 36.8077 16.5066H36.4566C36.2698 16.5066 35.8344 16.3617 35.8344 16.3617C32.7959 15.359 30.0581 16.1809 30.0581 16.1809L30.1933 17.1594C30.1933 17.22 30.4004 17.1473 30.5255 17.5219C30.6495 17.8965 31.1473 19.6126 31.1473 19.6126C31.1473 19.6126 31.4272 20.7607 32.9463 20.99C34.4653 21.2201 35.1703 20.5794 35.6265 19.5888C36.0827 18.5978 35.9792 17.6309 36.4566 17.6309H36.8077Z" fill="black"/>
<path fill-rule="evenodd" clip-rule="evenodd" d="M29.9174 22.2657C29.8558 22.2739 29.7975 22.3121 29.7407 22.2232C29.72 22.1906 29.6283 22.2177 29.547 22.2177C29.6104 22.1786 29.6632 22.146 29.7055 22.1207C29.779 22.1705 29.8484 22.2181 29.9174 22.2657Z" fill="black"/>
<path d="M43.1961 21.958L43.192 21.9568L43.1926 21.9615L43.1961 21.958Z" fill="black"/>
<path d="M28.8906 28.2829C28.9281 28.3636 28.9656 28.4446 29.0057 28.5304C28.9656 28.4451 28.9285 28.3636 28.8906 28.2829Z" fill="black"/>
<path d="M29.9156 22.2583C29.9172 22.2619 29.9172 22.2656 29.9183 22.2698C29.9172 22.265 29.9172 22.2613 29.9156 22.2583Z" fill="black"/>
<path d="M29.9712 21.5771C29.9394 21.5679 29.916 21.5249 29.8688 21.4386C29.9156 21.5254 29.9394 21.5683 29.9712 21.5771Z" fill="black"/>
<path d="M29.9174 22.2666L29.9179 22.2671L29.9174 22.2661V22.2666Z" fill="black"/>
<path fill-rule="evenodd" clip-rule="evenodd" d="M42.8004 20.3137C42.8138 20.4183 42.8219 20.4799 42.8297 20.5415C42.8409 20.5423 42.8527 20.5428 42.8643 20.5432C42.8787 20.4618 42.8932 20.38 42.9073 20.2978C42.917 20.2982 42.927 20.2991 42.9363 20.2999C42.9329 20.3749 42.9444 20.4567 42.9225 20.5234C42.9006 20.5867 42.8438 20.6349 42.7789 20.7206C42.7867 20.5759 42.7922 20.4666 42.8004 20.3137Z" fill="black"/>
<path fill-rule="evenodd" clip-rule="evenodd" d="M43.384 22.2507C43.3038 22.1917 43.2229 22.1335 43.1434 22.0749C43.1609 22.0357 43.1776 21.9965 43.1947 21.9577L43.1924 21.9603C43.2559 22.0572 43.3201 22.1538 43.384 22.2507Z" fill="black"/>
<path d="M35.8159 36.8868L35.8098 36.8797C35.8082 36.8797 35.8071 36.8802 35.8054 36.8808C35.8082 36.8824 35.8126 36.8841 35.8159 36.8868Z" fill="black"/>
<path d="M37.6703 37.0726C37.6624 37.0763 37.6537 37.0826 37.6508 37.0801C37.6533 37.0826 37.6624 37.0763 37.6703 37.0726Z" fill="black"/>
<path d="M31.2574 34.8035C31.2565 34.799 31.2565 34.794 31.2565 34.789C31.256 34.794 31.2565 34.799 31.2574 34.8035Z" fill="black"/>
<path d="M29.7061 33.6282C29.6986 33.625 29.691 33.6213 29.6843 33.6167C29.6914 33.6213 29.699 33.625 29.7061 33.6282Z" fill="black"/>
<path d="M29.6837 33.6153C29.6775 33.6111 29.6722 33.6074 29.6665 33.6032C29.6722 33.6069 29.6775 33.6106 29.6837 33.6153Z" fill="black"/>
<path d="M31.3309 34.9824C31.3276 34.9893 31.3235 34.9962 31.3181 35.0031C31.3239 34.9957 31.328 34.9888 31.3309 34.9824Z" fill="black"/>
<path d="M31.2613 34.7667C31.2636 34.7617 31.2664 34.7572 31.2696 34.7522C31.2659 34.7572 31.2636 34.7617 31.2613 34.7667Z" fill="black"/>
<path d="M31.2564 34.7848C31.2569 34.7805 31.2577 34.7756 31.2595 34.7712C31.2573 34.7756 31.2569 34.78 31.2564 34.7848Z" fill="black"/>
<path d="M42.7024 35.0678C42.7033 35.0614 42.7038 35.0549 42.7043 35.0485C42.7024 35.0533 42.7 35.0587 42.6976 35.0635L42.7024 35.0678Z" fill="black"/>
<path d="M31.2913 34.7251C31.2998 34.7175 31.3094 34.7104 31.3207 34.7024C31.3094 34.7104 31.2998 34.718 31.2913 34.7251Z" fill="black"/>
<path d="M37.1664 36.8586C37.1655 36.8542 37.165 36.8498 37.1637 36.8455C37.1646 36.8498 37.165 36.8537 37.1664 36.8586Z" fill="black"/>
<path d="M41.6707 35.5243L41.666 35.5277V35.529L41.6707 35.5243Z" fill="black"/>
<path d="M37.0706 37.1108L37.0716 37.1098L37.0654 37.1072V37.1082L37.0706 37.1108Z" fill="black"/>
<path d="M37.1107 36.9222C37.1387 36.9278 37.1551 36.9254 37.1643 36.9182C37.1551 36.9258 37.1387 36.9278 37.1107 36.9222Z" fill="black"/>
<path d="M45.7234 31.6458C45.7209 31.6458 45.7178 31.6463 45.7152 31.6473C45.7178 31.6468 45.7209 31.6463 45.7234 31.6458Z" fill="black"/>
<path d="M31.3358 34.9661C31.3607 34.9132 31.3842 34.8652 31.4068 34.8179C31.3845 34.8647 31.3607 34.9137 31.3358 34.9661Z" fill="black"/>
<path d="M29.5334 33.2992C29.4915 33.3452 29.4507 33.3903 29.4103 33.435L29.4111 33.4345C29.4511 33.3898 29.4919 33.3452 29.5334 33.2992Z" fill="black"/>
<path d="M41.0858 35.9898H41.0873V35.9961H41.0858V35.9898Z" fill="black"/>
<path d="M42.6976 35.0617C42.6998 35.0573 42.702 35.0524 42.7038 35.0481C42.702 35.0524 42.7002 35.0568 42.6976 35.0617Z" fill="black"/>
<path d="M45.7152 31.6478C45.7168 31.6483 45.7178 31.6494 45.7193 31.6499L45.7234 31.6458C45.7209 31.6463 45.7178 31.6468 45.7152 31.6478Z" fill="black"/>
<path d="M29.4125 33.4333L29.4077 33.4346L29.4104 33.436L29.4125 33.4333Z" fill="black"/>
<path d="M37.0654 37.108L37.0673 37.1124L37.0703 37.1105L37.0654 37.108Z" fill="black"/>
<path d="M31.3184 35.0036C31.3236 34.9964 31.3275 34.9896 31.3307 34.9832C31.3339 34.9769 31.3358 34.9705 31.3374 34.9647C31.3303 34.9778 31.3248 34.99 31.3184 35.0036Z" fill="black"/>
<path fill-rule="evenodd" clip-rule="evenodd" d="M35.8102 36.6941C35.8563 36.6867 35.9015 36.679 35.9472 36.6716C35.9364 36.7101 35.926 36.7481 35.9119 36.8C35.9208 36.8 35.9041 36.8 35.883 36.8C35.8956 36.8675 35.9071 36.9306 35.916 36.9777C35.8852 36.9496 35.847 36.9146 35.8084 36.8792L35.8124 36.8848C35.8217 36.8562 35.8306 36.829 35.8399 36.8005C35.7323 36.8026 35.8332 36.7244 35.8102 36.6941Z" fill="black"/>
<path fill-rule="evenodd" clip-rule="evenodd" d="M41.0853 35.9941C41.102 35.9945 41.1302 35.9876 41.1336 35.9958C41.1774 36.0967 41.2617 36.1144 41.3418 36.1472C41.3604 36.1549 41.3667 36.2032 41.3827 36.2425C41.3307 36.2304 41.2932 36.2209 41.2271 36.2054C41.196 36.1567 41.1421 36.0735 41.0883 35.9902L41.0853 35.9941Z" fill="black"/>
<path fill-rule="evenodd" clip-rule="evenodd" d="M29.6664 33.9346C29.6542 33.7975 29.5825 33.7462 29.4749 33.7497C29.5057 33.6643 29.5057 33.6643 29.5966 33.7044C29.6835 33.7428 29.7114 33.8182 29.6664 33.9346Z" fill="black"/>
<path fill-rule="evenodd" clip-rule="evenodd" d="M45.7182 31.6493C45.7572 31.6808 45.7958 31.7128 45.8537 31.7604C45.7995 31.7894 45.7598 31.8106 45.7123 31.8352C45.7204 31.8737 45.7305 31.9204 45.7409 31.9667C45.6818 31.9446 45.6818 31.9446 45.7219 31.6458L45.7182 31.6493Z" fill="black"/>
<path fill-rule="evenodd" clip-rule="evenodd" d="M37.0669 37.112C37.1044 37.1465 37.0988 37.2624 37.1942 37.1922C37.1909 37.2512 37.1875 37.3051 37.1845 37.3582C37.1749 37.3616 37.1649 37.3642 37.1549 37.3676C37.1118 37.2896 37.0227 37.2379 37.0691 37.1094C37.0698 37.1094 37.0669 37.112 37.0669 37.112Z" fill="black"/>
<path fill-rule="evenodd" clip-rule="evenodd" d="M37.5364 37.0064C37.5888 37.108 37.64 37.2088 37.692 37.31C37.6188 37.2256 37.4726 37.1984 37.5364 37.0064Z" fill="black"/>
<path fill-rule="evenodd" clip-rule="evenodd" d="M45.52 32.3994C45.5612 32.4836 45.6028 32.5679 45.6303 32.6241C45.5004 32.5869 45.4929 32.5791 45.4833 32.4426C45.4955 32.4279 45.5078 32.4136 45.52 32.3994Z" fill="black"/>
<path fill-rule="evenodd" clip-rule="evenodd" d="M42.6976 35.0601C42.7117 35.0835 42.7254 35.1068 42.7391 35.1306C42.7362 35.1375 42.7325 35.1445 42.7295 35.151C42.6675 35.106 42.6063 35.061 42.5446 35.016C42.5509 34.9923 42.5691 34.9577 42.5617 34.9456C42.5276 34.8924 42.5283 34.8617 42.5899 34.8504L42.5851 34.8483C42.6237 34.92 42.6623 34.9923 42.7009 35.064L42.6976 35.0601Z" fill="black"/>
<path fill-rule="evenodd" clip-rule="evenodd" d="M29.4077 33.4336C29.4006 33.4919 29.3936 33.5501 29.3858 33.6079C29.3802 33.6049 29.3743 33.6023 29.3687 33.5998C29.3424 33.4798 29.3164 33.3603 29.2911 33.2403C29.303 33.2377 29.3149 33.2347 29.3271 33.2321C29.3375 33.2964 29.3457 33.3616 29.3598 33.4246C29.3613 33.4323 29.3921 33.4319 29.4092 33.4349L29.4077 33.4336Z" fill="black"/>
<path d="M29.4297 32.5813C29.42 32.5417 29.4092 32.4986 29.3988 32.4555C29.3896 32.4572 29.3806 32.459 29.3714 32.4611C29.3896 32.4193 29.4085 32.3779 29.44 32.3064C29.4271 32.4193 29.5577 32.5016 29.4297 32.5813Z" fill="black"/>
<path d="M30.6094 34.2151C30.5685 34.2074 30.531 34.2 30.4835 34.1914C30.5437 34.1376 30.596 34.0902 30.648 34.0432C30.6554 34.0505 30.6625 34.0574 30.6695 34.0643C30.6506 34.1134 30.6313 34.1621 30.6094 34.2151Z" fill="black"/>
<path d="M30.5652 33.8909C30.6009 33.8012 30.6313 33.7245 30.6651 33.6404C30.7026 33.6495 30.7379 33.6577 30.7731 33.6654C30.7575 33.7913 30.6829 33.8797 30.5652 33.8909Z" fill="black"/>
<path d="M31.1758 34.0591C31.1473 34.1022 31.1153 34.1414 31.0845 34.1828C31.0764 34.1362 31.0611 34.0897 31.0623 34.0436C31.0634 33.9996 31.0808 33.9561 31.0916 33.913C31.1016 33.916 31.1116 33.919 31.1216 33.922C31.1083 33.9673 31.0946 34.0121 31.0812 34.0574C31.0942 34.0703 31.1072 34.0832 31.1202 34.0957C31.1313 34.0561 31.1428 34.016 31.1539 33.9759C31.1651 33.9858 31.1762 33.9957 31.1874 34.0056C31.184 34.0237 31.1848 34.0457 31.1758 34.0591Z" fill="black"/>
<path d="M32.704 35.7668C32.6719 35.7594 32.6353 35.7515 32.5971 35.7428C32.5473 35.5852 32.6723 35.6476 32.7119 35.6026C32.7187 35.6105 32.7255 35.6183 32.7319 35.6258C32.7221 35.6742 32.7131 35.7222 32.704 35.7668Z" fill="black"/>
<path d="M33.1352 36.0373C33.0925 35.8906 33.0639 35.7599 33.2213 35.6831C33.1998 35.7327 33.1805 35.7784 33.1604 35.8246C33.2317 35.8669 33.2302 35.9191 33.1352 36.0373Z" fill="black"/>
<path d="M33.7359 36.0922C33.6661 36.0362 33.6494 35.95 33.6709 35.8625C33.6839 35.8082 33.8153 35.8104 33.8513 35.8496C33.8131 35.9297 33.7763 36.0069 33.7359 36.0922Z" fill="black"/>
<path d="M34.1709 36.1698C34.1569 36.1592 34.1426 36.1487 34.1278 36.1382C34.1369 36.0834 34.1456 36.0295 34.1543 35.9768C34.1981 35.9944 34.2294 36.0071 34.2914 36.0321C34.2445 36.0856 34.2079 36.1277 34.1709 36.1698Z" fill="black"/>
<path d="M36.4573 36.7061C36.4628 36.6958 36.468 36.6854 36.4736 36.6747C36.5382 36.7216 36.6028 36.7686 36.6748 36.8216C36.5286 36.916 36.5315 36.7346 36.4573 36.7061Z" fill="black"/>
<path d="M37.5234 36.6546C37.545 36.6222 37.5617 36.5733 37.5895 36.5621C37.6125 36.5534 37.6485 36.5893 37.6786 36.6053C37.6734 36.6183 37.6682 36.6313 37.6626 36.6438C37.6389 36.6425 37.6144 36.6408 37.5906 36.6399C37.5895 36.6464 37.5884 36.6533 37.5869 36.6598C37.611 36.6672 37.6396 36.668 37.6586 36.6836C37.6782 36.7 37.6894 36.7303 37.6886 36.7817C37.6341 36.7398 37.5784 36.697 37.5234 36.6546Z" fill="black"/>
<path d="M38.4845 36.8931C38.5231 36.8176 38.5439 36.7777 38.5669 36.733C38.6063 36.7751 38.646 36.8171 38.7072 36.8811C38.6215 36.8858 38.5654 36.8888 38.4845 36.8931Z" fill="black"/>
<path d="M40.2508 36.2536C40.2367 36.1753 40.2285 36.1295 40.2181 36.0698C40.2 36.104 40.1866 36.1278 40.1736 36.1516C40.0994 36.0084 40.1242 35.9518 40.2942 35.9198C40.2608 35.9613 40.2397 35.9877 40.2181 36.0141C40.341 36.0374 40.3522 36.0794 40.2508 36.2536Z" fill="black"/>
<path d="M40.3633 36.2427C40.3849 36.0888 40.4071 35.9344 40.429 35.78C40.4391 35.7813 40.4491 35.7831 40.4591 35.7844C40.4695 35.9456 40.5011 36.1112 40.3633 36.2427Z" fill="black"/>
<path d="M41.2877 35.8015C41.2662 35.7723 41.2506 35.7418 41.2279 35.7233C41.2083 35.7074 41.1797 35.7053 41.1559 35.6967C41.1622 35.6829 41.1708 35.6554 41.1756 35.6563C41.2109 35.6623 41.2483 35.6675 41.2799 35.6851C41.3055 35.6988 41.3245 35.7294 41.3512 35.7577C41.3293 35.7732 41.3074 35.7887 41.2877 35.8015Z" fill="black"/>
<path d="M43.0565 34.3583C43.0176 34.3096 42.9868 34.2721 42.9504 34.2273C42.9704 34.2316 42.9827 34.2346 43.0027 34.2389C42.9901 34.1924 42.9778 34.1484 42.9656 34.1049C42.979 34.0924 42.9916 34.0791 43.0049 34.0666C43.0231 34.1463 43.0428 34.226 43.0614 34.3066C43.0859 34.2868 43.1096 34.2678 43.1338 34.248C43.1096 34.2825 43.0851 34.3169 43.0565 34.3583Z" fill="black"/>
<path d="M44.6565 33.2025C44.6105 33.1632 44.5652 33.1238 44.508 33.075C44.5437 33.046 44.5689 33.0261 44.612 32.9907C44.6435 33.0655 44.6669 33.1225 44.6907 33.1788C44.6795 33.187 44.6677 33.1948 44.6565 33.2025Z" fill="black"/>
<path d="M45.2538 31.7703C45.0578 31.7828 45.0578 31.7828 45.0678 31.6613C44.9988 31.6445 44.9297 31.628 44.8599 31.6107C44.8614 31.5995 44.8636 31.5874 44.8655 31.5757C44.9041 31.5813 44.9427 31.5865 44.9839 31.5926C44.9746 31.5632 44.9665 31.5381 44.9475 31.4771C45.0626 31.5878 45.1532 31.6734 45.2538 31.7703Z" fill="black"/>
<path fill-rule="evenodd" clip-rule="evenodd" d="M35.8128 36.699C35.7779 36.699 35.7434 36.699 35.7286 36.699C35.7074 36.7412 35.6907 36.7731 35.674 36.805C35.6651 36.7429 35.6554 36.6808 35.6465 36.6205C35.684 36.6184 35.7412 36.6136 35.8091 36.6093C35.8102 36.6356 35.8117 36.6675 35.8128 36.699Z" fill="black"/>
<path d="M45.915 31.3517C45.9328 31.3581 45.9595 31.3344 46 31.3175C45.7906 31.2349 45.5779 31.2509 45.4688 31.0168C45.4937 31.0039 45.5152 30.993 45.5208 30.9905C45.4881 30.9563 45.4524 30.9195 45.4127 30.8784C45.3971 30.9091 45.3775 30.9515 45.3537 30.9909C45.3348 31.0225 45.3106 31.051 45.3043 31.0597C45.2405 30.8659 45.1818 30.6876 45.1217 30.5038C45.1195 30.5055 45.1362 30.493 45.1477 30.4839C45.1161 30.4692 45.0849 30.4549 45.0534 30.4402C45.0571 30.4294 45.0604 30.4181 45.0638 30.4073C45.0964 30.4177 45.1291 30.4281 45.1647 30.4398L45.148 30.3944L45.2538 30.2222L45.4001 30.1863C45.3938 30.1703 45.3938 30.1413 45.4023 30.13C45.448 30.0699 45.4981 30.0145 45.5453 29.9566C45.5709 29.925 45.6017 29.8956 45.618 29.8584C45.6767 29.7256 45.5015 29.6737 45.5349 29.5469C45.3845 29.4755 45.3507 29.3583 45.4402 29.203C45.389 29.1775 45.3452 29.1554 45.3092 29.1373C45.3281 29.1848 45.3459 29.2294 45.3634 29.274C45.2783 29.3107 45.3377 29.3704 45.3563 29.4046C45.4109 29.5054 45.3945 29.5902 45.3062 29.7148C45.2817 29.6421 45.2494 29.5919 45.2524 29.5456C45.2609 29.4223 45.1766 29.2372 45.0801 29.1827C45.05 29.1662 45.0125 29.1269 45.0103 29.0949C45.0062 29.0408 45.0281 28.9837 45.0408 28.9188C44.8663 28.9789 44.8808 28.7722 44.8113 28.6683C44.8199 28.6558 44.8292 28.6441 44.8381 28.6316C44.8793 28.6727 44.9212 28.7133 44.9628 28.7549C44.9498 28.69 44.9153 28.6411 44.8845 28.5905C44.8663 28.5606 44.8537 28.5273 44.8388 28.4953C44.8384 28.4953 44.8381 28.4953 44.8381 28.4953C44.8373 28.4953 44.8373 28.4957 44.8366 28.4962C44.8373 28.4962 44.8373 28.4957 44.8377 28.4953C44.8028 28.4789 44.7657 28.4668 44.7356 28.4421C44.7293 28.4373 44.7519 28.3586 44.7609 28.3586C44.8251 28.3586 44.8893 28.3703 44.955 28.4131C44.916 28.4404 44.877 28.4681 44.8377 28.4953C44.8381 28.4953 44.8381 28.4953 44.8381 28.4953C44.9183 28.4495 44.9984 28.4036 45.0538 28.3716C44.9921 28.3015 44.948 28.2518 44.8808 28.1752C44.9609 28.1536 45.0189 28.1384 45.0979 28.1172C45.033 28.0973 44.9899 28.0835 44.9569 28.0735C44.9569 28.0035 44.9569 27.9403 44.9569 27.8745C44.9829 27.8875 45.0107 27.9009 45.0378 27.9143C45.0248 27.9576 45.0148 27.9909 45.0022 28.0329C45.0653 28.0082 45.0653 28.0082 45.0564 27.7495C45.0181 27.7279 44.9888 27.7115 44.9591 27.6946C44.9777 27.6513 44.9962 27.6085 45.0196 27.5523C44.9565 27.493 44.8191 27.4623 44.8429 27.2914C44.8874 27.281 44.9286 27.2711 44.9402 27.2685C44.9528 27.1396 44.9632 27.0401 44.9751 26.9194C44.8147 26.8684 44.6224 26.8069 44.4301 26.7459C44.4305 26.7295 44.4308 26.7135 44.4308 26.6971C44.4824 26.6746 44.5329 26.6521 44.6016 26.6218C44.5597 26.5595 44.5155 26.4994 44.475 26.4353C44.4041 26.3229 44.4052 26.3216 44.4553 26.2126C44.4724 26.2593 44.488 26.3012 44.5032 26.3432C44.517 26.3285 44.5307 26.3138 44.5444 26.2982C44.5155 26.1961 44.6335 25.9915 44.4104 26.0404C44.3889 25.9582 44.3648 25.889 44.3555 25.8176C44.351 25.7865 44.3781 25.7497 44.39 25.716C44.403 25.7423 44.4149 25.7687 44.4279 25.7951C44.4457 25.8319 44.4639 25.8687 44.4854 25.9145C44.4854 25.7341 44.4854 25.5667 44.4854 25.3872C44.5225 25.4054 44.5611 25.4235 44.6324 25.4568C44.5934 25.414 44.5756 25.4023 44.5667 25.3842C44.511 25.2691 44.4568 25.1532 44.4034 25.0372C44.4015 25.0342 44.4041 25.0281 44.4056 25.0208C44.4286 25.0143 44.4524 25.0078 44.4758 25.0018C44.4498 24.9161 44.426 24.8413 44.4034 24.766C44.442 24.7413 44.478 24.7184 44.5233 24.6894C44.4847 24.6371 44.4494 24.5891 44.4204 24.5497C44.4435 24.525 44.468 24.4987 44.4921 24.4723C44.4691 24.448 44.4498 24.4165 44.4227 24.4C44.3659 24.3654 44.305 24.3386 44.2486 24.3101C44.2564 24.2443 44.2627 24.1933 44.2653 24.1734C44.1665 24.0972 44.0849 24.0341 43.9932 23.964C43.9917 23.9471 43.9876 23.909 43.9854 23.8805C44.0303 23.8541 44.0722 23.8299 44.1149 23.8057C44.1149 23.8057 44.1149 23.8057 44.1142 23.8057C43.9932 23.5643 43.8629 23.3346 43.6286 23.2217C43.6279 23.2217 43.6271 23.2212 43.6264 23.2208C43.6268 23.2212 43.6271 23.2221 43.6271 23.223C43.6253 23.2225 43.6238 23.2217 43.6223 23.2212C43.5856 23.3039 43.6884 23.454 43.5195 23.4739C43.5031 23.3363 43.2659 23.473 43.3116 23.2468C43.3454 23.2701 43.3881 23.2995 43.4304 23.3285C43.4389 23.3104 43.4482 23.2922 43.4571 23.274C43.3847 23.2199 43.3116 23.1659 43.2392 23.1118C43.244 23.1023 43.2485 23.0932 43.2529 23.0841C43.3758 23.13 43.4991 23.1754 43.6223 23.2212C43.6223 23.2204 43.6219 23.2199 43.6227 23.2191C43.6238 23.2195 43.6249 23.2199 43.626 23.2208C43.6219 23.2039 43.6182 23.1871 43.6112 23.1607C43.6806 23.1966 43.7426 23.2286 43.805 23.2602C43.7515 23.1512 43.5963 23.1416 43.6234 22.9461C43.6576 23.0054 43.6758 23.0625 43.7103 23.0923C43.7923 23.1628 43.7938 23.0988 43.7805 23.0266C43.8187 23.0266 43.8577 23.0266 43.8959 23.0266C43.8959 23.0266 43.8963 23.0266 43.8966 23.0266C43.8966 23.0266 43.8963 23.027 43.8959 23.0266C43.8955 23.0266 43.8952 23.0261 43.8952 23.0261C43.8603 22.9677 43.8254 22.9098 43.7901 22.8514C43.7901 22.8514 43.7931 22.8505 43.7934 22.8505C43.7727 22.8449 43.7463 22.8449 43.7281 22.8362C43.7214 22.8336 43.7166 22.8298 43.7133 22.825C43.6453 22.7303 43.5844 22.629 43.5173 22.5243C43.544 22.507 43.5729 22.4897 43.6283 22.4547C43.498 22.4296 43.3914 22.4097 43.3821 22.2531C43.3019 22.1939 43.221 22.1355 43.1416 22.0766C43.1271 22.0883 43.1126 22.1004 43.1 22.1108C43.0458 22.0386 42.992 21.9663 42.9352 21.891C43.0269 21.9153 43.1089 21.9369 43.1906 21.9581C43.185 21.9148 43.1798 21.8711 43.1735 21.8244C43.2173 21.8184 43.2489 21.8149 43.2797 21.8106C43.1575 21.6981 43.0376 21.5882 42.9177 21.4779C42.9255 21.4641 42.9329 21.4502 42.9407 21.436C42.9823 21.4446 43.0243 21.4537 43.0725 21.4637C43.041 21.4204 43.0154 21.3862 42.9712 21.3265C43.0859 21.3823 43.2544 21.3408 43.4018 21.2409C43.3702 21.2314 43.3424 21.2218 43.2871 21.205C43.5191 21.173 43.6323 20.9839 43.5403 20.8148C43.5121 20.8658 43.492 20.9221 43.4571 20.9601C43.3959 21.0267 43.3324 21.1072 43.2574 21.1362C43.0874 21.2006 42.9871 21.009 42.8487 20.951C42.8394 20.9471 42.8338 20.9281 42.8283 20.9151C42.7963 20.8407 42.764 20.7663 42.7347 20.6906C42.7228 20.6595 42.7117 20.6249 42.711 20.5916C42.708 20.4713 42.7098 20.3515 42.7098 20.2312C42.6939 20.2321 42.6787 20.2321 42.6627 20.2325C42.6627 20.3783 42.6627 20.5245 42.6627 20.6703C42.6553 20.6716 42.6482 20.6733 42.6408 20.6755C42.6285 20.6465 42.6163 20.6179 42.604 20.5894C42.6475 20.7828 42.5179 20.9247 42.5001 21.0973C42.4815 21.2694 42.4556 21.4399 42.4292 21.6432C42.3869 21.5908 42.3757 21.577 42.359 21.5558C42.3891 21.673 42.4162 21.7794 42.4381 21.8634C42.4155 21.9092 42.3999 21.9793 42.3769 21.9832C42.2458 22.0022 42.2889 22.2324 42.1474 22.2293C42.1508 22.257 42.1489 22.2882 42.1589 22.3124C42.1745 22.3496 42.1983 22.3829 42.2146 22.4106C42.202 22.4621 42.1033 22.4456 42.179 22.5434C42.2458 22.6299 42.169 22.7852 42.0717 22.8086C42.1044 22.9375 42.137 23.0664 42.1701 23.1957C42.1623 23.1983 42.1541 23.2013 42.1463 23.2035C42.1062 23.0997 42.0661 22.9954 42.0257 22.8899C41.9934 22.8899 41.9607 22.8899 41.9195 22.8899C41.9447 23.0166 41.9692 23.1403 41.9934 23.2632C42.0238 23.2589 42.0483 23.2554 42.0739 23.2515C42.0658 23.2835 42.0654 23.3255 42.0472 23.3454C41.9685 23.4302 41.9774 23.5076 42.0446 23.5937C42.0654 23.6205 42.0695 23.6651 42.081 23.7014C41.97 23.5781 41.7799 23.4933 41.9106 23.223C41.856 23.2377 41.8041 23.2511 41.7632 23.2615C41.7324 23.2156 41.6994 23.1663 41.6474 23.0884C41.6299 23.2922 41.6626 23.4094 41.8208 23.4419C41.7925 23.4501 41.7647 23.4579 41.7395 23.4652C41.7395 23.5344 41.7395 23.5985 41.7395 23.6949C41.6908 23.6318 41.6596 23.5911 41.6288 23.5509C41.6077 23.6071 41.6158 23.6607 41.6158 23.7144C41.6162 23.7499 41.6147 23.7944 41.5973 23.8173C41.5865 23.8316 41.5409 23.8221 41.5167 23.8087C41.4751 23.7849 41.4377 23.7503 41.3823 23.7079C41.4035 23.7923 41.4169 23.8459 41.4302 23.8991C41.4187 23.9034 41.4072 23.9069 41.3961 23.9112C41.3771 23.8814 41.3586 23.8515 41.3315 23.8096C41.3055 23.8909 41.2851 23.9536 41.2673 24.0077C41.2097 23.9709 41.1503 23.9328 41.0824 23.8892C41.1076 24.0362 41.1076 24.0362 41.0471 24.0639C41.0828 24.1587 41.1184 24.2534 41.1544 24.3486C41.1459 24.3542 41.137 24.3598 41.1288 24.3654C41.1154 24.3434 41.1024 24.3209 41.0783 24.2815C41.0783 24.3261 41.0783 24.352 41.0783 24.378C41.0705 24.381 41.062 24.3845 41.0542 24.3875C41.0408 24.3576 41.0286 24.3274 41.0156 24.2975C40.9866 24.3157 40.958 24.3343 40.9254 24.355C40.8894 24.269 40.8545 24.1829 40.8051 24.063C40.7925 24.1375 40.7884 24.1634 40.7772 24.2335C40.6458 23.8368 40.4042 23.5902 40.1822 23.3242C40.0704 23.4055 40.0612 23.2654 40.0203 23.1879C40.0107 23.197 40.0003 23.2057 39.9902 23.2143C40.0162 23.271 40.0426 23.3277 40.0849 23.4185C39.9966 23.3411 39.9353 23.2866 39.8618 23.2221C39.8555 23.306 39.8507 23.3804 39.844 23.4739C39.6803 23.3536 39.5336 23.2463 39.38 23.1339C39.3584 23.3121 39.498 23.3579 39.5448 23.4786C39.5091 23.4557 39.4746 23.4328 39.4394 23.4098C39.4735 23.5098 39.5058 23.6041 39.5377 23.6984C39.4891 23.6737 39.4709 23.6153 39.4434 23.6088C39.3644 23.5894 39.3577 23.5197 39.3439 23.4531C39.3131 23.3008 39.2968 23.2935 39.1839 23.3951C39.1565 23.3683 39.1286 23.3411 39.1004 23.3138C39.0993 23.3242 39.0986 23.3346 39.0975 23.345C39.0355 23.345 38.9731 23.345 38.9033 23.345C38.8833 23.4535 38.8057 23.3908 38.7793 23.3441C38.7218 23.2437 38.6412 23.2853 38.5718 23.2749C38.5113 23.2662 38.4474 23.2857 38.3609 23.2961C38.2915 23.3233 38.1946 23.3627 38.0732 23.4107C38.12 23.4401 38.1389 23.4522 38.1783 23.4769C38.1048 23.4817 38.0517 23.4843 37.9994 23.4886C37.9277 23.4951 37.8553 23.5037 37.7829 23.5115C37.6608 23.4951 37.5391 23.4791 37.3987 23.46C37.4396 23.553 37.473 23.6292 37.506 23.7053C37.4336 23.6733 37.3605 23.6413 37.2903 23.6106C37.2848 23.6854 37.2803 23.7473 37.2755 23.8122C37.2105 23.7749 37.1452 23.7243 37.1448 23.8424C37.0717 23.9086 37.0082 23.9666 36.9414 24.0267C36.9748 24.06 37.0112 24.0964 37.0605 24.1444C36.9659 24.1487 36.8753 24.0566 36.8259 24.2132C36.7821 24.1582 36.7409 24.1063 36.7075 24.0639C36.6537 24.0907 36.5991 24.118 36.5445 24.1452C36.5523 24.1496 36.5594 24.1539 36.5672 24.1582C36.5442 24.1954 36.5212 24.2318 36.5015 24.2633C36.4517 24.1933 36.4116 24.0868 36.3675 24.0847C36.3047 24.0821 36.239 24.1561 36.1637 24.2041C36.1948 24.1561 36.2182 24.1189 36.2424 24.0821C36.2323 24.0821 36.2223 24.0821 36.2127 24.0821C36.1967 23.9839 36.1807 23.8853 36.1644 23.7845C36.1874 23.7667 36.213 23.7473 36.239 23.7274C36.2368 23.7213 36.2338 23.7157 36.2312 23.7092C36.1629 23.7377 36.0954 23.7663 36.0245 23.7957C36.0348 23.5833 35.9554 23.5037 35.8099 23.5669C35.8013 23.422 35.6785 23.2554 35.8908 23.1464C35.8763 23.1365 35.8619 23.1265 35.8474 23.1166C35.6848 23.2338 35.5222 23.3514 35.3666 23.4639C35.3444 23.3047 35.2349 23.3545 35.1695 23.3463C35.0971 23.3367 35.0207 23.37 34.9713 23.3796C35.0296 23.2961 35.0997 23.1953 35.1755 23.0854C34.8421 23.1897 34.5147 23.2922 34.1869 23.3947C34.178 23.3865 34.1687 23.3787 34.1594 23.3705C34.1824 23.3246 34.2043 23.2792 34.227 23.2342C34.1316 23.0214 33.9148 22.9928 33.7733 23.0824C33.6657 23.1512 33.5536 23.2295 33.4734 23.3346C33.2837 23.5829 33.1122 23.8502 32.9333 24.1093C32.9114 24.1409 32.885 24.1682 32.8616 24.198C32.8553 24.1902 32.8494 24.1837 32.8434 24.1768C32.8768 24.089 32.911 24.0003 32.9451 23.9125C32.9318 23.9065 32.9192 23.9004 32.9062 23.8943C32.8512 24.0194 32.7959 24.1444 32.7413 24.2694L32.7439 24.2672C32.7443 24.2672 32.7447 24.2668 32.7447 24.2668C32.7443 24.2677 32.7439 24.269 32.7439 24.2703C32.7748 24.278 32.8059 24.2858 32.8371 24.2936C32.8256 24.3364 32.8152 24.3797 32.8019 24.4212C32.7859 24.4705 32.7666 24.5186 32.7491 24.5666C32.7228 24.5449 32.6968 24.5233 32.6704 24.5017C32.6946 24.4247 32.7191 24.3477 32.7436 24.2707C32.7425 24.2703 32.7417 24.2703 32.741 24.2703C32.6756 24.3317 32.6096 24.3931 32.5149 24.4835C32.5379 24.3092 32.5561 24.169 32.5717 24.0501C32.5227 24.1119 32.4644 24.185 32.4058 24.259C32.3968 24.2521 32.3872 24.2456 32.3783 24.2391C32.3876 24.176 32.3976 24.1137 32.4072 24.0509C32.415 24.0488 32.4236 24.047 32.4317 24.0444C32.4384 24.0682 32.4455 24.092 32.4525 24.1158C32.4618 24.0951 32.4722 24.0739 32.4815 24.0527C32.4525 24.0462 32.4009 24.0263 32.3976 24.0345C32.3638 24.115 32.33 24.1976 32.3126 24.2845C32.2996 24.3481 32.31 24.4186 32.31 24.4857C32.2955 24.4848 32.281 24.4848 32.2669 24.484C32.2669 24.3715 32.2669 24.2586 32.2669 24.1396C32.2361 24.147 32.2027 24.1548 32.1663 24.1634C32.1826 24.089 32.1975 24.0228 32.2116 23.9562C32.1968 23.9506 32.1823 23.9454 32.1671 23.9402C32.1414 24.0245 32.1158 24.1098 32.0906 24.1941C32.0702 24.1201 32.075 24.0501 32.0891 23.9822C32.1039 23.9121 32.1284 23.845 32.1485 23.7762C32.0988 23.8277 32.0594 23.8892 32.0416 23.9584C32.0241 24.0267 32.029 24.1028 32.0241 24.1686C31.9618 24.1353 31.9157 24.1106 31.9027 24.1037C31.9176 23.9969 31.9302 23.9013 31.9406 23.8269C31.8641 23.8602 31.8025 23.887 31.7409 23.9142C31.7316 23.8697 31.722 23.826 31.7127 23.7814C31.6986 23.7845 31.6841 23.7879 31.67 23.791C31.6685 23.6711 31.6585 23.553 31.6544 23.4215C31.6251 23.4825 31.5961 23.5431 31.5731 23.5907C31.5248 23.5907 31.4847 23.5907 31.4443 23.5907C31.6221 23.678 31.4142 23.7542 31.4335 23.8295C31.4257 23.7858 31.4183 23.7421 31.4105 23.6988C31.3968 23.7191 31.3845 23.7382 31.3715 23.7581C31.3567 23.7031 31.3556 23.63 31.3318 23.6179C31.164 23.5349 31.1855 23.3259 31.1284 23.1801C31.0879 23.0759 31.0656 22.9863 30.9992 22.9591C30.9216 22.6355 30.8496 22.3366 30.7739 22.0238C30.7683 22.0931 30.7642 22.1497 30.7597 22.206C30.7516 22.206 30.743 22.206 30.7352 22.2055C30.6992 21.9347 30.6647 21.6639 30.6317 21.4148C30.5745 21.3815 30.5203 21.3499 30.4665 21.3183C30.4787 21.3092 30.491 21.3001 30.5036 21.291C30.4958 21.2487 30.4939 21.2037 30.4795 21.1647C30.4446 21.0683 30.3985 20.9766 30.3666 20.8788C30.3395 20.7944 30.3388 20.6962 30.3039 20.6179C30.2352 20.4648 30.2534 20.3095 30.2456 20.1179C30.3284 20.2096 30.387 20.274 30.4546 20.3489C30.4 20.2143 30.351 20.0889 30.2957 19.9673C30.2879 19.95 30.2519 19.9505 30.2215 19.9405C30.1892 20.0218 30.135 20.098 30.135 20.1741C30.135 20.3013 30.1561 20.4345 30.1929 20.5539C30.263 20.7806 30.2697 20.7823 30.1324 20.8961C30.1647 21.1124 30.1944 21.3122 30.2244 21.5125C30.1736 21.5125 30.1402 21.5013 30.1183 21.5147C30.0986 21.5268 30.0811 21.5376 30.0659 21.5463C30.0203 21.5731 29.9928 21.5852 29.969 21.5787C29.9379 21.5696 29.9148 21.5272 29.8684 21.442C29.851 21.4589 29.8343 21.4753 29.812 21.4974C29.8053 21.4494 29.8012 21.4152 29.7949 21.3681C29.6643 21.6285 29.6743 21.7574 29.7949 21.9032C29.6702 22.0057 29.7882 22.0061 29.8332 22.0234C29.8332 22.0701 29.8332 22.1043 29.8332 22.1134C29.8948 22.0654 29.9609 22.0135 30.0269 21.9616C30.0351 21.9741 30.044 21.9871 30.0522 22.0001C29.998 22.0818 29.8747 22.119 29.9152 22.2613C29.9163 22.2639 29.9163 22.2665 29.9171 22.2696C29.9371 22.2436 29.9572 22.2172 29.9776 22.1913C30.0102 22.1484 30.0437 22.1043 30.0789 22.0585C30.0852 22.1311 30.0901 22.1921 30.0971 22.2734C30.057 22.2734 30.0132 22.2734 29.9731 22.2734C29.9063 22.3699 29.8276 22.4833 29.7459 22.6026C29.7823 22.5949 29.8127 22.5884 29.8618 22.5776C29.8272 22.6342 29.8053 22.6714 29.7827 22.7078C29.8072 22.7164 29.828 22.7233 29.8833 22.7419C29.6836 22.8259 29.5165 22.8959 29.3424 22.9686C29.3806 22.9721 29.4115 22.9742 29.4723 22.9799C29.4063 23.0383 29.3643 23.075 29.3276 23.107C29.3316 23.1269 29.3316 23.1352 29.3331 23.1356C29.3521 23.1412 29.3706 23.1451 29.3892 23.1494C29.329 23.3951 29.329 23.3951 29.1082 23.5889C29.1913 23.6348 29.2652 23.6763 29.345 23.7209C29.3547 23.823 29.2039 23.9337 29.3305 24.0276C29.2318 24.1409 29.3205 24.2919 29.267 24.4035C29.2826 24.3659 29.2979 24.3282 29.3164 24.2832C29.3495 24.2984 29.3758 24.3101 29.4282 24.3343C29.3888 24.2711 29.3665 24.2357 29.3283 24.1742C29.3962 24.1695 29.443 24.1669 29.5117 24.1625C29.4946 24.24 29.4816 24.2979 29.4686 24.3555C29.4905 24.3706 29.5143 24.3866 29.5228 24.3927C29.4954 24.4628 29.4731 24.5186 29.4512 24.5739C29.4419 24.5765 29.4322 24.5796 29.423 24.5826C29.4167 24.5099 29.4103 24.4368 29.4011 24.3287C29.384 24.4225 29.3714 24.484 29.3628 24.5462C29.3573 24.5869 29.3439 24.6453 29.3606 24.6652C29.3818 24.6894 29.4304 24.6821 29.4686 24.6886C29.4683 24.6942 29.4668 24.7085 29.4668 24.7232C29.466 24.8901 29.4571 24.8953 29.3157 24.8681C29.2826 24.8612 29.2307 24.8763 29.2125 24.904C29.1601 24.984 29.1215 25.0749 29.0781 25.1618C29.0729 25.1718 29.0744 25.1865 29.071 25.209C29.1122 25.199 29.1453 25.1908 29.2002 25.1774C29.1527 25.2868 29.1208 25.3785 29.0759 25.4607C29.0154 25.5719 29.0373 25.6338 29.1646 25.7467C29.2147 25.9699 29.2741 26.1641 29.1449 26.3354C29.2344 26.3307 29.3045 26.3268 29.3728 26.3229C29.3691 26.3583 29.3654 26.3938 29.3621 26.4332C29.2949 26.4271 29.2314 26.4215 29.1761 26.4163C29.1676 26.444 29.1668 26.4721 29.1542 26.486C29.0636 26.5885 29.0339 26.7048 29.0788 26.8463C29.0896 26.8805 29.0803 26.9224 29.0803 26.9609C29.0707 26.9605 29.0603 26.9596 29.0503 26.9588C29.0503 26.9112 29.0503 26.8627 29.0503 26.8152C29.0428 26.8113 29.0347 26.8074 29.0272 26.8039C28.9864 26.8731 28.9456 26.9415 28.907 27.0072C29.11 27.1768 28.9586 27.4117 29.0295 27.6059C29.0837 27.5847 29.1382 27.5631 29.2043 27.5371C29.1598 27.6314 29.126 27.711 29.0859 27.785C29.0451 27.8607 28.9975 27.9312 28.9511 28.0074C29.0484 27.9939 29.1416 27.981 29.2619 27.9641C29.1401 28.0337 29.0499 28.0852 28.9597 28.1367C29.0113 28.1302 29.0621 28.1237 29.1401 28.1142C29.0933 28.1609 29.0644 28.189 29.0232 28.2297C29.0588 28.2479 29.0863 28.2626 29.12 28.2799C29.1059 28.2942 29.0937 28.3162 29.0833 28.3154C29.0187 28.3084 28.9548 28.2959 28.8906 28.2855C28.9285 28.3664 28.9652 28.4477 29.0053 28.5338C28.9497 28.5753 28.8858 28.6234 28.8127 28.6783C28.8502 28.7055 28.8761 28.7246 28.8929 28.7371C28.8624 28.7942 28.8361 28.8453 28.8071 28.8985C28.8505 28.9387 28.8858 28.9707 28.9277 29.0092C28.8624 29.0892 28.8828 29.277 28.7154 29.213C28.7366 29.277 28.7574 29.3419 28.7793 29.4085C28.7269 29.4163 28.6842 29.4223 28.6367 29.4297C28.5922 29.3254 28.6664 29.2766 28.711 29.2151C28.6865 29.1978 28.6612 29.1814 28.6308 29.1611C28.6081 29.1978 28.5847 29.2363 28.5506 29.293C28.5235 29.1926 28.5027 29.1143 28.4815 29.036C28.4645 29.0451 28.447 29.0542 28.4299 29.0629C28.4708 29.1753 28.5116 29.2869 28.5487 29.3886C28.5057 29.4042 28.4626 29.4193 28.4299 29.4314C28.4607 29.4717 28.4971 29.4989 28.4956 29.5227C28.493 29.5569 28.463 29.588 28.4537 29.6045C28.522 29.6892 28.5892 29.7788 28.6627 29.8618C28.6968 29.9003 28.7399 29.941 28.7845 29.951C28.8476 29.9661 28.9159 29.9548 28.9819 29.9548C28.9849 29.9661 28.9883 29.9773 28.9909 29.989C28.8253 30.0262 28.8839 30.1724 28.8724 30.2949C28.8179 30.2814 28.764 30.2685 28.6961 30.2525L28.7774 30.4571L28.5239 30.3675L28.5317 30.589C28.5639 30.5734 28.597 30.5574 28.6189 30.5471C28.6668 30.5869 28.7061 30.6197 28.7466 30.653C28.7098 30.7854 28.6155 30.7742 28.5224 30.7958C28.3783 30.8287 28.4303 30.6305 28.339 30.6154C28.3141 30.6392 28.2892 30.6626 28.2488 30.7006C28.303 30.7763 28.3535 30.8464 28.4043 30.9165C28.4084 30.9221 28.4125 30.9277 28.4166 30.9334C28.4166 30.9334 28.4162 30.9329 28.4158 30.9325L28.4166 30.9334C28.4173 30.9338 28.4184 30.9351 28.4199 30.9355C28.4741 30.9135 28.5279 30.8914 28.5903 30.8654C28.604 30.9122 28.6155 30.9511 28.6282 30.9948C28.5847 31.0056 28.5461 31.0155 28.5123 31.0242C28.4793 30.9926 28.4492 30.9641 28.4195 30.9351C28.4188 30.9351 28.4184 30.9355 28.4181 30.9355C28.4177 30.9346 28.4173 30.9342 28.4166 30.9334C28.4299 30.9749 28.444 31.0164 28.447 31.0251C28.4982 31.0653 28.5569 31.0865 28.5628 31.1202C28.5788 31.2124 28.5665 31.3093 28.6775 31.3357C28.6994 31.3408 28.7136 31.4001 28.7262 31.4364C28.728 31.4421 28.7043 31.4663 28.6902 31.4711C28.6809 31.4741 28.6638 31.4585 28.6564 31.4464C28.6397 31.4187 28.6267 31.3884 28.6122 31.3586C28.5684 31.3932 28.525 31.4287 28.473 31.4698C28.5135 31.4667 28.5432 31.4641 28.5602 31.4633C28.5888 31.6696 28.4533 31.8565 28.5524 32.0555C28.5547 32.0602 28.5495 32.0706 28.5476 32.0784C28.5829 32.0321 28.5881 31.9763 28.6066 31.9274C28.6445 31.8292 28.6475 31.831 28.7329 31.8565C28.7113 31.8963 28.6894 31.9378 28.6675 31.9789C28.6723 31.9819 28.6768 31.9854 28.682 31.9884C28.6968 31.9655 28.7117 31.943 28.7451 31.8898C28.7577 31.9581 28.7626 31.9992 28.7726 32.0382C28.777 32.0537 28.7915 32.0715 28.8041 32.0762C28.8142 32.0793 28.829 32.0637 28.8416 32.0563C28.8665 32.0408 28.8914 32.0248 28.9166 32.0096C28.9207 32.0174 28.9248 32.0252 28.9285 32.033C28.9177 32.049 28.907 32.0646 28.8862 32.0948C28.9374 32.0948 28.9723 32.0948 29.0079 32.0948C29.0105 32.1039 29.0142 32.1126 29.0168 32.1217C28.9166 32.1948 28.8168 32.2683 28.7173 32.3405C28.8097 32.3851 28.8721 32.3271 28.9315 32.2428C28.956 32.2571 28.9816 32.2722 29.0124 32.2904C28.9912 32.3185 28.9756 32.3388 28.9519 32.3708C28.9886 32.3777 29.0116 32.3821 29.0421 32.3881C29.035 32.4539 29.0276 32.5209 29.0194 32.5958C29.1638 32.5157 29.0933 32.7385 29.1679 32.7541C29.1798 32.6875 29.1909 32.6286 29.2054 32.5504C29.3175 32.6797 29.3138 32.7013 29.1846 32.8506C29.2002 32.8748 29.2154 32.8973 29.2296 32.9219C29.2429 32.9457 29.2548 32.9713 29.2819 33.0253C29.2696 32.9341 29.2619 32.8787 29.2548 32.8233C29.2619 32.8211 29.2689 32.8186 29.276 32.816C29.3205 32.8718 29.3651 32.9276 29.4196 32.9955C29.4434 32.973 29.4738 32.944 29.5102 32.9098C29.5525 33.0461 29.4174 33.0284 29.3606 33.1188C29.4296 33.0989 29.4731 33.0863 29.5191 33.0725C29.5484 33.1477 29.5781 33.2243 29.6156 33.3212C29.5778 33.3126 29.5455 33.3056 29.5302 33.3026C29.4894 33.348 29.4493 33.3922 29.4103 33.4363C29.5436 33.3857 29.5856 33.5323 29.6631 33.6037C29.6643 33.6046 29.665 33.605 29.6657 33.6063C29.6702 33.6098 29.6743 33.6128 29.6791 33.6162C29.6802 33.6175 29.6824 33.6188 29.6836 33.6197C29.6899 33.624 29.6966 33.6275 29.7029 33.6305C29.7014 33.817 29.7337 33.849 29.8926 33.8178C29.9308 33.8105 29.9694 33.8109 30.0388 33.8057C29.9828 33.8442 29.9538 33.8641 29.9167 33.8901C30.0158 33.9074 30.1045 33.9152 30.1892 33.9407C30.2263 33.9515 30.2552 33.9995 30.2875 34.0307C30.2656 34.051 30.2437 34.0709 30.2252 34.0878C30.2252 34.118 30.2333 34.1578 30.2233 34.1898C30.2126 34.2227 30.1847 34.2487 30.1643 34.2777C30.1714 34.2837 30.1777 34.2898 30.184 34.2954C30.2575 34.1881 30.331 34.0808 30.4156 33.9567C30.4294 33.9991 30.4631 34.054 30.4513 34.0787C30.4253 34.1336 30.3752 34.173 30.3388 34.2136C30.3466 34.2149 30.3766 34.2193 30.4201 34.2257C30.3926 34.2543 30.3748 34.2725 30.3666 34.2807C30.3837 34.3188 30.3989 34.3534 30.4134 34.3858C30.3997 34.211 30.5314 34.3023 30.5983 34.2348C30.5875 34.3309 30.5793 34.4005 30.5693 34.487C30.6302 34.4161 30.6729 34.3663 30.723 34.3075C30.7493 34.4044 30.7672 34.471 30.7972 34.5822C30.854 34.4671 30.8997 34.3746 30.9409 34.2911C30.9676 34.3214 31.0036 34.362 31.0482 34.4131C31.0422 34.4572 31.0333 34.5225 31.0248 34.5913C31.0623 34.5675 31.1076 34.5554 31.1291 34.5225C31.2071 34.4022 31.2201 34.5117 31.2609 34.5601C31.2308 34.5623 31.2115 34.564 31.1811 34.5666C31.2349 34.6207 31.2765 34.6627 31.3188 34.7055C31.3084 34.7133 31.2995 34.7202 31.2917 34.7275C31.2891 34.7297 31.2869 34.7319 31.285 34.7345C31.2802 34.7392 31.2761 34.7436 31.2724 34.7483C31.2709 34.7509 31.2691 34.7531 31.268 34.7552C31.2654 34.7596 31.2631 34.7639 31.2613 34.7678C31.2602 34.7699 31.2594 34.7721 31.259 34.7743C31.2576 34.7782 31.2568 34.7825 31.2564 34.7864C31.2564 34.7881 31.2564 34.7903 31.2564 34.792C31.2564 34.7963 31.2564 34.8007 31.2572 34.8045C31.2576 34.8058 31.2579 34.8071 31.2583 34.8089C31.2594 34.8136 31.2613 34.8188 31.2639 34.824C31.2869 34.8703 31.3485 34.911 31.3359 34.9676C31.3604 34.9162 31.3834 34.8673 31.4057 34.821C31.4409 34.7466 31.4744 34.6769 31.5089 34.6047C31.5319 34.6484 31.5456 34.6748 31.5649 34.7111C31.5727 34.6583 31.5783 34.6216 31.5835 34.5848C31.5902 34.5857 31.5969 34.587 31.6039 34.5874C31.6299 34.6588 31.6559 34.7301 31.6815 34.8015C31.6919 34.8015 31.7027 34.802 31.7127 34.8024C31.7223 34.7284 31.7309 34.654 31.7416 34.5723C31.7576 34.6172 31.7717 34.6557 31.7854 34.6947C31.8125 34.7751 31.9592 34.792 31.8723 34.9369C31.8382 34.9945 31.8322 35.0753 31.8133 35.1454C31.7958 35.151 31.7788 35.1567 31.7617 35.1627C31.8192 35.2224 31.8768 35.2817 31.9321 35.3392C31.9321 35.3851 31.9321 35.443 31.9321 35.501C31.9692 35.3518 32.0728 35.3981 32.1567 35.3855C32.1567 35.4854 32.1548 35.5841 32.1585 35.6823C32.1589 35.6978 32.1823 35.7251 32.1964 35.726C32.2977 35.7303 32.2562 35.8034 32.2465 35.8358C32.3193 35.8146 32.3965 35.7973 32.4703 35.7692C32.5464 35.7402 32.5487 35.7766 32.5346 35.8458C32.5219 35.9102 32.5149 35.976 32.5052 36.0417C32.5127 36.0435 32.5201 36.0452 32.5271 36.0469C32.5439 36.0019 32.5606 35.9565 32.5925 35.8704C32.6188 35.9461 32.6326 35.9859 32.6389 36.0028C32.6782 35.9911 32.7209 35.9855 32.7584 35.9652C32.8041 35.9401 32.8449 35.9024 32.8869 35.8713C33.1315 36.1763 33.1226 36.1097 33.2503 35.9846C33.2503 36.034 33.2503 36.0742 33.2503 36.1265C33.274 36.1118 33.2882 36.1066 33.2986 36.0967C33.3115 36.0846 33.3212 36.0686 33.3312 36.0556C33.2158 35.8964 33.2113 35.8138 33.3019 35.6961C33.3409 35.767 33.3806 35.8393 33.4211 35.9124C33.4508 35.8817 33.4753 35.8566 33.5005 35.8311C33.5161 35.8657 33.5269 35.8869 33.5358 35.9094C33.5532 35.9522 33.5851 35.9963 33.5833 36.0383C33.5781 36.1559 33.6197 36.2005 33.714 36.1559C33.7789 36.1257 33.8431 36.0932 33.9074 36.0616C33.91 36.0686 33.9126 36.0759 33.9155 36.0828C33.8847 36.1144 33.8539 36.146 33.8112 36.1893C33.8528 36.1806 33.8788 36.1754 33.9096 36.1693C33.8554 36.3606 33.8524 36.4034 33.8728 36.4228C33.9122 36.3597 33.9512 36.297 33.9838 36.2442C34.0596 36.281 34.1238 36.3121 34.168 36.3337C34.2485 36.3108 34.1416 36.1464 34.2782 36.1957C34.2908 36.1421 34.3042 36.0885 34.3146 36.0443C34.4419 36.0201 34.4716 36.0919 34.462 36.2126C34.4772 36.162 34.4928 36.1114 34.5084 36.0595C34.609 36.1386 34.6171 36.1542 34.6613 36.2948C34.668 36.3151 34.6906 36.3376 34.7088 36.3428C34.8028 36.3688 34.8659 36.4298 34.897 36.5379C34.9037 36.56 34.9308 36.5738 34.9646 36.6067C34.9364 36.5422 34.9189 36.5024 34.9015 36.4626C34.9067 36.4583 34.9115 36.454 34.9163 36.4501C34.9397 36.4696 34.9642 36.4886 34.9965 36.515C34.9746 36.4276 34.9576 36.3567 34.939 36.2814C34.9917 36.2961 35.0452 36.3108 35.0968 36.3246C35.1105 36.3783 35.1242 36.4298 35.1324 36.4609C35.1729 36.4609 35.2178 36.4458 35.2319 36.4635C35.2779 36.5206 35.3169 36.5699 35.3811 36.614C35.4884 36.6867 35.5589 36.8312 35.6395 36.9385C35.7059 36.9164 35.7549 36.8996 35.8032 36.8831C35.7605 36.8567 35.7178 36.8308 35.6748 36.8052C35.5964 36.8338 35.5478 36.8312 35.5742 36.7053C35.5842 36.656 35.5307 36.576 35.6053 36.5582C35.667 36.5431 35.7449 36.5409 35.7976 36.5738C35.8674 36.6162 35.919 36.6487 35.9821 36.5673C35.9788 36.5916 35.9755 36.6158 35.9721 36.64C35.9799 36.6941 35.9977 36.7494 35.9929 36.8022C35.9814 36.9199 35.9784 36.9229 36.0801 36.9783C36.0181 36.7607 36.0222 36.6789 36.1054 36.6127C36.1072 36.6326 36.1113 36.6478 36.1095 36.6621C36.0976 36.7646 36.1767 36.81 36.2112 36.8831C36.3103 36.7871 36.3144 36.9342 36.3638 36.9649C36.396 36.9848 36.4261 37.0099 36.4859 37.0536C36.4636 36.9709 36.4528 36.929 36.4332 36.8554C36.5612 36.9766 36.7005 37.0289 36.7676 37.205C36.8627 37.0856 36.7517 36.9549 36.7959 36.8182C36.8126 36.8636 36.8222 36.9008 36.8385 36.9329C36.8571 36.9679 36.8768 37.0073 36.9046 37.0272C36.9172 37.0362 36.9302 37.044 36.9436 37.0514C36.9822 37.073 37.0234 37.0903 37.0631 37.1102C37.0442 37.0618 37.0249 37.0129 36.9989 36.9467C37.0424 36.9376 37.0776 36.9186 37.1088 36.9259C37.1348 36.932 37.15 36.9294 37.1585 36.9216C37.1593 36.9208 37.1597 36.9199 37.1604 36.9186C37.1619 36.9169 37.1641 36.9147 37.1649 36.9121C37.1656 36.9099 37.166 36.9073 37.166 36.9043C37.1667 36.903 37.1671 36.9013 37.1671 36.8996C37.1675 36.8961 37.1675 36.8918 37.1671 36.8874C37.1671 36.8866 37.1671 36.8857 37.1671 36.8844C37.1667 36.8805 37.166 36.8766 37.1656 36.8723C37.1652 36.8706 37.1652 36.8688 37.1649 36.8667C37.1645 36.8645 37.1641 36.8624 37.1637 36.8598C37.163 36.8559 37.1626 36.852 37.1615 36.8481C37.1344 36.839 37.1066 36.8325 37.0806 36.8208C37.0509 36.8078 37.0238 36.7897 36.9952 36.7758C36.9585 36.7581 36.9213 36.7417 36.885 36.7252C36.8935 36.7058 36.9017 36.6863 36.9102 36.6668C36.9941 36.7274 37.0776 36.7875 37.1615 36.8481H37.1623C37.1615 36.8282 37.16 36.8083 37.1589 36.794C37.2231 36.8191 37.2859 36.8438 37.3482 36.8675C37.3831 36.8805 37.424 36.8827 37.4526 36.9056C37.5209 36.9597 37.5832 37.0241 37.6489 37.083C37.6515 37.0856 37.6593 37.0791 37.6664 37.0752C37.6668 37.0752 37.6671 37.0743 37.6679 37.0743C37.6668 37.073 37.6664 37.0717 37.6656 37.0704C37.666 37.07 37.6668 37.0691 37.6668 37.0687C37.6389 36.9904 37.6114 36.9117 37.5832 36.8334C37.5925 36.8295 37.6018 36.8256 37.6103 36.8217C37.6567 36.8628 37.7024 36.9039 37.7636 36.9588C37.7302 36.9969 37.6987 37.0328 37.6668 37.0687C37.6679 37.0704 37.6682 37.0717 37.6682 37.0739C37.6682 37.0739 37.6682 37.0743 37.6679 37.0743C37.6909 37.1128 37.7143 37.1518 37.7429 37.1989C37.7588 37.1349 37.777 37.0609 37.7993 36.9701C37.9463 37.0843 37.9667 36.9545 37.9812 36.7862C38.038 36.8848 38.0751 36.9493 38.1274 37.0406C38.1323 36.9809 38.1338 36.9588 38.1375 36.9117C38.1854 36.948 38.2388 36.9657 38.2566 37.0051C38.3286 37.1708 38.4367 37.2616 38.5963 37.2681C38.5128 37.1915 38.427 37.1189 38.3472 37.038C38.3194 37.0099 38.3064 36.9623 38.2834 36.9177C38.4816 36.8848 38.6783 37.0211 38.7262 37.221C38.7337 37.2517 38.7006 37.2958 38.6861 37.3339C38.7073 37.3715 38.7273 37.4087 38.7481 37.4459C38.7559 37.4407 38.7637 37.4368 38.7711 37.4316C38.7711 37.3858 38.7711 37.3399 38.7711 37.2854C38.8164 37.3135 38.8487 37.3339 38.8814 37.3542C38.8376 37.2396 38.7838 37.1383 38.721 37.0458C38.6724 36.9744 38.6806 36.9177 38.7247 36.8563C38.7715 36.8879 38.8198 36.9082 38.8539 36.9463C38.9107 37.009 38.9983 37.0804 39.0009 37.1522C39.0058 37.2915 39.0759 37.2313 39.1242 37.2365C39.1483 37.2391 39.1743 37.2205 39.1865 37.2162C39.1817 37.1158 39.1765 37.0155 39.171 36.9078C39.142 36.9722 39.1179 37.028 39.0937 37.0834C39.0856 37.0786 39.077 37.0735 39.0681 37.0678C39.083 37.0272 39.1034 36.9869 39.1108 36.9437C39.1197 36.8939 39.1171 36.8416 39.119 36.8044C39.2003 36.8368 39.2909 36.8481 39.3514 36.9039C39.4067 36.9558 39.4293 37.0557 39.4817 37.166C39.5077 37.0609 39.5288 36.9774 39.5518 36.8844C39.5704 36.9233 39.5882 36.961 39.6064 36.999C39.6123 36.9973 39.6183 36.9952 39.6238 36.9934C39.6135 36.9458 39.6031 36.8978 39.5953 36.8615C39.6335 36.8165 39.671 36.7719 39.7085 36.7274C39.7089 36.7261 39.7092 36.7252 39.7096 36.7235C39.6929 36.727 39.6769 36.73 39.6677 36.7317C39.6602 36.6314 39.6509 36.5349 39.6476 36.4384C39.6469 36.4172 39.6613 36.3848 39.6769 36.3757C39.6933 36.3666 39.7285 36.3696 39.7382 36.3839C39.759 36.4138 39.7846 36.4579 39.7787 36.4895C39.7638 36.5699 39.7337 36.6461 39.7096 36.7235C39.71 36.7235 39.7111 36.7235 39.7118 36.7235C39.7111 36.7248 39.7096 36.7261 39.7085 36.7274C39.7252 36.7291 39.7426 36.7313 39.7601 36.7326C39.8169 36.7391 39.8767 36.7451 39.949 36.7529C39.9156 36.6175 39.8837 36.4908 39.8555 36.3753C39.9405 36.3489 40.0032 36.3294 40.0385 36.3186C40.0448 36.2407 40.0485 36.1875 40.053 36.1343C40.0656 36.1343 40.0779 36.1339 40.0908 36.1334C40.148 36.3086 40.2063 36.483 40.2638 36.6573C40.2713 36.6543 40.2783 36.6508 40.2857 36.6478C40.282 36.608 40.2787 36.5682 40.2746 36.5254C40.3069 36.534 40.331 36.5405 40.3552 36.5466C40.314 36.4752 40.2765 36.4116 40.2312 36.332C40.4487 36.2788 40.4231 36.5288 40.5586 36.6119C40.5237 36.5418 40.5022 36.4994 40.4695 36.4332C40.5144 36.4631 40.5374 36.4786 40.5627 36.496C40.5887 36.367 40.6106 36.2494 40.6388 36.1334C40.6417 36.1222 40.6948 36.111 40.6993 36.1196C40.7282 36.1698 40.7709 36.2265 40.7694 36.2801C40.7668 36.4034 40.8248 36.4337 40.9165 36.4514C40.9061 36.3917 40.8968 36.3394 40.8875 36.2874C40.8615 36.2931 40.8418 36.2965 40.8021 36.3048C40.8233 36.2589 40.8366 36.2312 40.8493 36.2027C40.8875 36.2416 40.9254 36.281 40.9836 36.3402C40.9573 36.1771 40.9346 36.0391 40.912 35.9011C40.9198 35.8999 40.9276 35.8986 40.9358 35.8968C40.9599 35.9634 40.984 36.0296 41.007 36.0928C41.0226 36.0725 41.0371 36.0556 41.049 36.0396C41.0609 36.0236 41.072 36.0102 41.0831 35.9967C41.088 35.9578 41.0932 35.9189 41.0984 35.88C41.1262 35.8994 41.154 35.9193 41.1737 35.9332C41.1986 35.896 41.2209 35.8306 41.2472 35.828C41.3326 35.8203 41.4198 35.8354 41.48 35.8402C41.5015 35.7718 41.5178 35.7186 41.5409 35.6459C41.5977 35.7376 41.6403 35.8051 41.6815 35.8726C41.6867 35.8696 41.6916 35.8661 41.6968 35.8626C41.6589 35.7865 41.621 35.7095 41.5928 35.6528C41.6181 35.61 41.6418 35.5689 41.6667 35.5274L41.6641 35.5304C41.6641 35.5304 41.6641 35.5304 41.6637 35.5309C41.6418 35.5477 41.6203 35.5642 41.6036 35.5767C41.5854 35.4954 41.5665 35.4123 41.5464 35.3215C41.6704 35.3397 41.6177 35.4703 41.6637 35.5309C41.6637 35.5304 41.6637 35.5304 41.6641 35.5304C41.6764 35.4565 41.6882 35.3825 41.7031 35.2938C41.7268 35.3518 41.7461 35.3981 41.7662 35.4465C41.8323 35.3877 41.8467 35.3448 41.7703 35.2899C41.7376 35.2661 41.7224 35.209 41.6997 35.1666C41.7057 35.1597 41.7116 35.1523 41.7176 35.1454C41.7892 35.1969 41.8612 35.2475 41.9329 35.299C41.9106 35.2462 41.8768 35.2107 41.8408 35.1792C41.8078 35.1498 41.7721 35.1242 41.7383 35.097C41.7454 35.0853 41.7521 35.074 41.7591 35.0624C41.7888 35.0797 41.8185 35.097 41.8649 35.1242C41.8464 35.0723 41.8345 35.0399 41.823 35.007C41.9574 34.9754 41.9574 34.9754 42.1998 35.3163C42.1957 35.2315 42.2013 35.1575 42.1868 35.0896C42.1716 35.0226 42.1285 34.9581 42.2332 34.9659C42.2332 34.93 42.2332 34.8941 42.2332 34.8487C42.3553 34.879 42.3408 34.9806 42.3386 35.0559C42.3969 35.1074 42.4463 35.151 42.4956 35.1947C42.4908 35.1342 42.4689 35.0797 42.447 35.0252C42.4318 34.9862 42.414 34.9451 42.4793 34.962C42.4492 34.9339 42.4199 34.9058 42.385 34.8716C42.4426 34.8076 42.5135 34.8132 42.5884 34.8534L42.5836 34.8513C42.6816 34.7808 42.6078 34.9399 42.6605 34.9248C42.6534 34.8353 42.6464 34.7401 42.6375 34.6242C42.7533 34.7051 42.751 34.7976 42.7251 34.9019C42.7132 34.9503 42.7084 35.0009 42.7013 35.0511C42.7622 34.9166 42.8231 34.7821 42.8817 34.6514C42.9107 34.6826 42.9522 34.728 42.9909 34.7691C42.9805 34.673 42.9697 34.5753 42.9593 34.4736C43.1052 34.3079 43.1876 34.4485 43.2622 34.5943C43.2923 34.548 43.3127 34.5169 43.3394 34.4762C43.2307 34.4278 43.2329 34.3417 43.3071 34.1994C43.3454 34.2617 43.3777 34.314 43.4096 34.3663C43.4051 34.3733 43.4007 34.3802 43.3966 34.3871C43.3651 34.3689 43.3339 34.3499 43.2841 34.3209C43.3487 34.4187 43.3999 34.4957 43.4508 34.5727C43.456 34.5692 43.4612 34.5658 43.4664 34.5623C43.4538 34.5273 43.4415 34.4927 43.4322 34.4676C43.4864 34.4784 43.5358 34.4879 43.6197 34.5048C43.4942 34.404 43.5614 34.3291 43.603 34.2361C43.6531 34.3382 43.6888 34.4529 43.8042 34.4161C43.7734 34.3586 43.7418 34.2989 43.7103 34.2383C43.7166 34.2301 43.7237 34.2219 43.7303 34.2136C43.7719 34.2413 43.8135 34.2686 43.8629 34.3019C43.8666 34.2526 43.8699 34.2132 43.8729 34.1743C43.8859 34.176 43.8989 34.1782 43.9122 34.1803C43.8889 34.3053 43.8658 34.4299 43.8421 34.5549C43.8666 34.5286 43.8673 34.4944 43.8799 34.4684C43.9371 34.3512 43.9193 34.179 44.0752 34.1297C44.0997 34.1219 44.1183 33.9705 44.1134 33.9688C43.9701 33.9082 44.1569 33.8092 44.0641 33.7374C44.1253 33.7404 44.1576 33.7421 44.1884 33.7439C44.1962 33.7914 44.2018 33.8304 44.2074 33.8693C44.2129 33.8689 44.2189 33.8689 44.2244 33.8689C44.2267 33.8395 44.2289 33.8096 44.2296 33.8018C44.3184 33.8243 44.4019 33.8451 44.4988 33.8689C44.4639 33.7884 44.4412 33.7356 44.413 33.6699C44.4802 33.6586 44.5248 33.6513 44.5641 33.6444C44.5047 33.6279 44.4487 33.6128 44.393 33.5972C44.3952 33.5834 44.3978 33.5695 44.4008 33.5552C44.5203 33.5431 44.6395 33.5306 44.7594 33.518C44.7256 33.5038 44.6914 33.4761 44.6588 33.4778C44.5934 33.4804 44.5801 33.4484 44.5968 33.3857C44.6053 33.3532 44.6205 33.3234 44.6335 33.2922C44.6465 33.3169 44.6558 33.3476 44.6744 33.364C44.7152 33.3995 44.7605 33.4268 44.8043 33.4575C44.8518 33.441 44.8986 33.4242 44.9732 33.3986C44.8926 33.3718 44.8284 33.3506 44.7638 33.3286C44.7661 33.3139 44.7687 33.2996 44.7713 33.2844C44.792 33.2788 44.8128 33.2728 44.8336 33.2667C44.8566 33.2602 44.88 33.2537 44.8889 33.2511C44.8745 33.1958 44.8629 33.1525 44.8514 33.1088C44.8188 33.143 44.7861 33.1776 44.7534 33.2118C44.7471 33.2083 44.7408 33.2053 44.7345 33.2023C44.7519 33.1421 44.756 33.0677 44.7898 33.0253C44.8295 32.9751 44.8611 33.0175 44.8663 33.0777C44.9049 33.0604 44.9431 33.0422 44.9817 33.0271C45.0025 33.0184 45.0359 33.0249 45.0448 33.0098C45.0905 32.9371 45.1265 32.8596 45.0927 32.7632C45.0816 32.7329 45.0831 32.6966 45.0786 32.6633C45.0872 32.6598 45.0957 32.6568 45.1042 32.6533C45.1228 32.6784 45.1406 32.7031 45.1588 32.7277C45.1673 32.6676 45.1466 32.6165 45.1454 32.5646C45.144 32.5054 45.1529 32.4426 45.1729 32.3894C45.1777 32.3769 45.2472 32.3964 45.2861 32.4037C45.3136 32.4093 45.3407 32.4197 45.3693 32.4284C45.3864 32.2787 45.1881 32.3293 45.2145 32.155C45.2267 32.0732 45.1369 31.9703 45.0953 31.8816C45.177 31.9439 45.262 31.9858 45.3195 32.0581C45.3934 32.1498 45.4439 32.2661 45.5052 32.3717C45.5148 32.3881 45.5256 32.4041 45.5453 32.4357C45.5453 32.2973 45.5453 32.1831 45.5453 32.078C45.5122 32.0421 45.4736 32.0018 45.4354 31.9607C45.4536 32.033 45.4127 32.036 45.3875 31.9992C45.3396 31.9305 45.3069 31.8474 45.2676 31.7708C45.2832 31.7583 45.2988 31.7462 45.3144 31.7341C45.337 31.7708 45.3585 31.808 45.383 31.8435C45.3986 31.8669 45.4172 31.8872 45.435 31.9093C45.4465 31.8928 45.4558 31.866 45.4699 31.863C45.5571 31.8422 45.549 31.7894 45.4974 31.7094C45.5753 31.6878 45.6447 31.6679 45.7145 31.6484C45.6388 31.6021 45.5634 31.5563 45.4866 31.5091C45.4896 31.5714 45.4925 31.6298 45.4955 31.6956C45.4294 31.5883 45.3723 31.497 45.3158 31.4057C45.334 31.4507 45.3518 31.4953 45.3697 31.5398C45.3641 31.5437 45.3589 31.5485 45.3533 31.5524C45.2906 31.4823 45.2282 31.4127 45.1696 31.3478C45.2138 31.3209 45.2509 31.2876 45.2925 31.2768C45.3144 31.2708 45.3444 31.3036 45.3704 31.3192C45.4279 31.3374 45.4859 31.3556 45.5668 31.3819C45.5401 31.3287 45.5252 31.2638 45.4888 31.2362C45.4357 31.1955 45.3678 31.1808 45.2869 31.1466C45.3207 31.125 45.3281 31.1163 45.3325 31.1181C45.5267 31.1959 45.7205 31.2764 45.915 31.3517ZM37.5636 23.56C37.6434 23.5677 37.7232 23.5747 37.8034 23.5824C37.8342 23.6149 37.8654 23.6469 37.8958 23.6798C37.8991 23.6806 37.9021 23.6819 37.9043 23.6824C37.9054 23.6841 37.9069 23.6867 37.908 23.6884C37.9496 23.7096 38.0023 23.7217 38.0261 23.7589C38.0658 23.8208 38.0844 23.9008 38.0888 23.9895C38.0287 23.8892 37.9682 23.7888 37.908 23.6884C37.9058 23.6876 37.9036 23.6871 37.9017 23.6863C37.8995 23.6841 37.898 23.6819 37.8958 23.6798C37.8813 23.6737 37.8624 23.6659 37.8602 23.6698C37.7974 23.7875 37.7521 23.6949 37.7028 23.6534C37.6545 23.6313 37.6066 23.6093 37.5584 23.5876C37.5602 23.5786 37.5621 23.569 37.5636 23.56ZM37.0353 28.0074C37.1051 28.0986 37.1745 28.1899 37.2443 28.2807C37.1533 28.2128 37.0167 28.1951 37.0353 28.0074ZM38.5124 28.2444C38.381 28.1834 38.2499 28.1229 38.1185 28.0619C38.1189 28.0528 38.1193 28.0437 38.12 28.0342C38.1976 28.0433 38.2822 28.0329 38.3502 28.0666C38.4196 28.1012 38.4716 28.18 38.5313 28.2392C38.5258 28.2409 38.5191 28.2427 38.5124 28.2444ZM40.086 25.6731C40.0615 25.6372 40.0418 25.6091 40.0211 25.5797C39.9888 25.6134 39.9531 25.6506 39.8867 25.7198C39.9004 25.639 39.9078 25.5957 39.9149 25.5524C39.9138 25.5524 39.913 25.5524 39.9119 25.5533C39.9119 25.5524 39.9119 25.552 39.9119 25.5516C39.9026 25.5546 39.8956 25.5589 39.8885 25.5633C39.8076 25.6082 39.8536 25.7064 39.8503 25.7782C39.8425 25.9288 39.8503 26.0802 39.847 26.2316C39.8466 26.2545 39.8232 26.277 39.8087 26.2991C39.7571 26.3813 39.7389 26.4609 39.8306 26.5387C39.7998 26.5655 39.7757 26.5867 39.743 26.6149C39.7556 26.643 39.772 26.6802 39.7987 26.7412C39.8106 26.6953 39.8176 26.6702 39.8239 26.646C39.8332 26.643 39.8432 26.6395 39.8529 26.6365C39.8625 26.6897 39.8729 26.7429 39.8804 26.7849C39.8377 26.7914 39.7786 26.7914 39.7772 26.8017C39.7686 26.8688 39.7731 26.9384 39.7731 27.0146C39.7356 27.0038 39.6829 26.9878 39.6175 26.9687C39.6253 27.0115 39.6316 27.0461 39.6402 27.0898C39.6175 27.0985 39.5927 27.1071 39.5607 27.1184C39.6907 27.127 39.6647 27.2577 39.6992 27.3412C39.6483 27.3001 39.5893 27.2676 39.5481 27.2162C39.4884 27.1413 39.4535 27.2001 39.4108 27.2343C39.5214 27.2836 39.6094 27.3602 39.6595 27.4839C39.6509 27.4973 39.6424 27.5107 39.6342 27.5233C39.5697 27.4675 39.5051 27.4121 39.4408 27.3563C39.4245 27.4662 39.3543 27.5146 39.3142 27.4424C39.3024 27.4199 39.3091 27.3849 39.302 27.3572C39.2964 27.3381 39.2823 27.3217 39.2482 27.3139C39.2571 27.3801 39.2734 27.4459 39.2727 27.512C39.2719 27.5691 39.2526 27.6262 39.24 27.6903C39.2162 27.7443 39.1565 27.8157 39.1665 27.8707C39.1795 27.9416 39.1279 28.0934 39.2768 28.0744C39.2211 28.1523 39.2211 28.1523 39.1097 28.0048C39.0937 28.064 39.0807 28.1133 39.0633 28.1761C38.9827 28.0895 38.9059 28.0074 38.8201 27.9148C38.8201 27.9494 38.8201 27.9961 38.8201 28.0675C38.7377 27.9347 38.6609 27.8118 38.5844 27.6885C38.574 27.6959 38.5633 27.7032 38.5525 27.7106C38.5811 27.7738 38.6093 27.8365 38.6423 27.9113C38.623 27.9412 38.597 27.9823 38.5707 28.0234C38.574 28.0303 38.5774 28.0372 38.5803 28.0441C38.6134 28.0229 38.6472 28.0017 38.6928 27.9723C38.7496 28.0619 38.809 28.1557 38.8688 28.2496C38.8602 28.2565 38.8513 28.2639 38.8428 28.2704C38.7938 28.2063 38.7452 28.1419 38.695 28.0753C38.5837 28.1328 38.4987 28.0541 38.4255 27.9762C38.2886 27.8291 38.1497 27.9027 38.0042 27.9399C37.9526 27.9528 37.8932 27.923 37.8249 27.9105C37.8435 27.8503 37.8546 27.814 37.8687 27.7673C37.8119 27.7565 37.7644 27.7478 37.7128 27.7379C37.6998 27.7712 37.6868 27.8053 37.6719 27.8443C37.6274 27.8322 37.5884 27.8209 37.5301 27.8049C37.5543 27.8456 37.5695 27.8711 37.5869 27.9005C37.4763 27.9109 37.2903 27.7673 37.2354 27.6496C37.1879 27.5488 37.1285 27.4554 37.0735 27.3585C37.0646 27.3745 37.055 27.3901 37.0453 27.4061C37.0052 27.4238 36.9644 27.4415 36.9106 27.4645C36.8853 27.4203 36.8493 27.3572 36.8115 27.2914C36.804 27.3213 36.7977 27.3477 36.7899 27.3775C36.7628 27.326 36.7372 27.2793 36.6938 27.198C36.6904 27.2335 36.6878 27.262 36.686 27.2884C36.6845 27.3027 36.6834 27.3161 36.6823 27.3282C36.6793 27.3606 36.6767 27.3883 36.6745 27.4156C36.6752 27.4169 36.6763 27.4182 36.6774 27.4195L36.6741 27.4234C36.8682 27.4385 36.8712 27.445 36.7699 27.6656C36.7409 27.615 36.7146 27.5683 36.6845 27.5164C36.6566 27.5384 36.6281 27.5614 36.5958 27.5869C36.5854 27.5648 36.5754 27.5441 36.5657 27.5237C36.6036 27.4887 36.6388 27.4558 36.6745 27.4229C36.6745 27.4208 36.6748 27.4182 36.6748 27.416C36.6362 27.3576 36.598 27.2988 36.5579 27.2369C36.5174 27.3425 36.4688 27.4675 36.4068 27.6288C36.3712 27.5523 36.3582 27.5246 36.3452 27.4969C36.3337 27.5012 36.3222 27.5056 36.3107 27.5103C36.3229 27.554 36.3348 27.5977 36.3482 27.6453C36.3133 27.66 36.2724 27.6773 36.2323 27.6946C36.2327 27.7028 36.2327 27.711 36.2327 27.7193C36.2617 27.7214 36.291 27.7236 36.3188 27.7257C36.3263 27.8006 36.115 27.8378 35.9922 27.7772C35.9862 27.9355 35.9149 27.9567 35.8013 27.8906C35.8032 27.8538 35.8054 27.8131 35.8077 27.7733C35.8017 27.7725 35.7958 27.7712 35.7898 27.7699C35.7635 27.8849 35.7368 27.9996 35.7104 28.1177C35.7178 28.119 35.7475 28.1237 35.7843 28.1298C35.5433 28.3123 35.2816 28.2725 35.0266 28.2734C35.0203 28.2055 35.0144 28.1367 35.0095 28.0818C34.9434 28.0727 34.8922 28.0636 34.8402 28.0597C34.7987 28.0567 34.7348 28.0818 34.7177 28.0584C34.6621 27.9792 34.5132 28.0735 34.511 27.9027C34.5106 27.8893 34.4709 27.8763 34.4393 27.8564C34.4701 27.8386 34.4935 27.8226 34.518 27.8118C34.5403 27.8019 34.5641 27.7963 34.5919 27.7733C34.3974 27.8412 34.234 27.8166 34.1371 27.5821C34.165 27.5739 34.1947 27.5652 34.2166 27.5592C34.2166 27.4311 34.2129 27.3118 34.2192 27.1937C34.2207 27.1681 34.2578 27.1478 34.2741 27.121C34.3127 27.0565 34.3491 26.9895 34.387 26.9237C34.3807 26.9168 34.3747 26.9095 34.3688 26.9025C34.3209 26.9133 34.2734 26.9294 34.2251 26.9332C34.1858 26.9358 34.1457 26.9246 34.1063 26.9198C34.1067 26.9082 34.1067 26.896 34.1067 26.8844C34.1275 26.8748 34.1487 26.8653 34.1694 26.8558C34.1683 26.8489 34.1672 26.842 34.1657 26.8346C34.1357 26.8346 34.1056 26.8346 34.0269 26.8346C34.1108 26.7035 34.1746 26.6036 34.2377 26.505C34.2214 26.5123 34.1988 26.5232 34.1531 26.5444C34.1665 26.486 34.1821 26.4444 34.1847 26.4016C34.188 26.3462 34.1865 26.2891 34.1772 26.2351C34.162 26.1408 34.1397 26.0482 34.1204 25.9556C34.1323 25.9526 34.1438 25.9495 34.1561 25.9465C34.1026 25.9232 34.0492 25.9002 33.9931 25.876C34.0455 25.7817 34.1902 25.8886 34.181 25.7406C34.1739 25.6247 34.2392 25.4711 34.0896 25.4075C34.2144 25.247 34.0607 25.1056 34.0815 24.9429C34.2749 25.0351 34.5195 24.9408 34.678 25.2202C34.678 25.1519 34.678 25.1311 34.678 25.0679C34.7155 25.1436 34.7378 25.1891 34.763 25.241C34.7901 25.2306 34.8187 25.2193 34.8599 25.2033C34.8443 25.385 34.9835 25.2847 35.0496 25.3604C35.0448 25.3141 35.0418 25.2829 35.0363 25.228C35.0749 25.2596 35.0975 25.2777 35.1198 25.2959C35.1283 25.2899 35.1376 25.2842 35.1461 25.2777C35.1309 25.2267 35.1157 25.1757 35.1075 25.148C35.2467 25.1683 35.3975 25.1908 35.5482 25.2129C35.5419 25.1882 35.5355 25.1631 35.5296 25.1389C35.6087 25.0571 35.6855 24.971 35.7709 24.8984C35.7802 24.8902 35.8374 24.9572 35.8852 25.0013C35.8797 24.9183 35.8756 24.8452 35.8708 24.7716C35.8774 24.7695 35.8841 24.7673 35.8912 24.7647C35.9064 24.8352 35.9216 24.9057 35.9413 24.9957C35.961 24.9607 35.974 24.9377 35.9933 24.9031C36.0092 24.9351 36.0233 24.9624 36.0408 24.9961C36.0582 24.9654 36.0764 24.9334 36.0961 24.8975C36.1559 24.9343 36.2138 24.9702 36.2825 25.013C36.2906 24.9529 36.2973 24.9031 36.3058 24.84C36.3649 24.8906 36.4191 24.9364 36.4885 24.9957C36.4844 24.9343 36.4814 24.8914 36.477 24.8261C36.5056 24.8659 36.5241 24.891 36.5382 24.9109C36.6849 24.8555 36.5872 24.6907 36.6648 24.5597C36.6934 24.7037 36.7168 24.8222 36.7491 24.987C36.768 24.9213 36.7766 24.8923 36.7851 24.8629C36.7966 24.8703 36.8081 24.8776 36.82 24.885C36.8278 24.9165 36.8348 24.9473 36.8426 24.9784C36.9666 24.9806 36.8824 24.8529 36.9358 24.8058C36.9481 24.8244 36.9618 24.8469 36.99 24.8906C36.9956 24.8309 36.9985 24.7963 37.0019 24.7608C37.0115 24.7591 37.0216 24.7573 37.0312 24.7556C37.0401 24.8218 37.0494 24.8884 37.0594 24.962C37.1136 24.9183 37.1567 24.885 37.2127 24.84C37.235 24.8724 37.2725 24.9278 37.3107 24.9832C37.3156 24.9793 37.32 24.9758 37.3245 24.9728C37.3093 24.933 37.2937 24.8932 37.2695 24.8322C37.3375 24.8737 37.3865 24.904 37.4399 24.9369C37.4336 24.8988 37.4292 24.8681 37.4243 24.8378C37.4763 24.923 37.4971 25.0528 37.6233 25.0018C37.6638 24.9858 37.6935 24.933 37.7325 24.8923C37.6642 24.8006 37.558 24.7517 37.6085 24.638C37.6207 24.647 37.6322 24.6574 37.6441 24.6678C37.7726 24.7863 37.8509 24.9849 38.048 24.9944C38.0172 24.9559 37.986 24.917 37.9548 24.878C37.9574 24.8707 37.9604 24.8638 37.9626 24.8568C38.0862 24.9174 38.2102 24.9771 38.3353 25.039C38.3346 25.032 38.332 25.01 38.3264 24.9524C38.5718 25.17 38.8435 25.2237 39.1249 25.2323C39.1119 25.2176 39.0986 25.2029 39.0852 25.1878C39.1353 25.1346 39.1851 25.0809 39.2348 25.0277C39.2471 25.0381 39.2589 25.0489 39.2716 25.0597C39.2545 25.0351 39.2374 25.0113 39.2181 24.9845C39.2979 24.9667 39.3677 24.9511 39.4535 24.9325C39.4557 24.9559 39.4601 24.9935 39.465 25.0407C39.4111 25.0437 39.3707 25.0463 39.3302 25.0489C39.3302 25.0615 39.331 25.0749 39.3313 25.087C39.3751 25.0827 39.4219 25.0878 39.4627 25.0718C39.5333 25.0433 39.599 24.9784 39.6695 24.9728C39.7219 24.968 39.7783 25.0333 39.854 25.0805C39.8566 25.0783 39.8885 25.0545 39.9141 25.0346C39.9141 25.2064 39.9141 25.3794 39.9141 25.5529C39.9156 25.5524 39.9164 25.552 39.9175 25.5516C39.9171 25.552 39.9171 25.5529 39.9171 25.5537C39.9557 25.5429 39.994 25.5325 40.0367 25.5209C40.0281 25.4741 40.0211 25.4387 40.0144 25.4032C40.0207 25.3963 40.0266 25.3894 40.0329 25.3829C40.0515 25.4049 40.0831 25.4248 40.086 25.4486C40.0905 25.5139 40.086 25.5832 40.086 25.6731Z" fill="black"/>
<path d="M43.9958 23.2731C43.9883 23.2476 43.9813 23.2213 43.9676 23.1712C44.0407 23.2114 44.1495 23.1237 44.1487 23.3046C44.1235 23.28 44.1097 23.2662 44.0837 23.2407C44.0897 23.2951 44.093 23.334 44.0971 23.3737C44.0711 23.3746 44.0444 23.375 44.018 23.3754C43.9928 23.3893 43.9668 23.4035 43.9416 23.4178C44.014 23.5063 44.0871 23.5939 44.1591 23.6811C44.259 23.5948 44.2645 23.5788 44.2289 23.4501C44.2155 23.4022 44.181 23.3603 44.1758 23.3128C44.155 23.1164 44.1005 23.059 43.9408 23.0745C43.9278 23.0754 43.9126 23.0439 43.8978 23.0266C43.8666 23.0542 43.835 23.0827 43.769 23.1427C43.8621 23.1954 43.9286 23.2343 43.9958 23.2731Z" fill="black"/>
<path d="M44.3287 24.0035C44.3298 23.9876 44.3321 23.9608 44.3343 23.9341C44.3254 23.9436 44.3157 23.9539 44.3068 23.9639C44.2738 23.9285 44.243 23.8906 44.207 23.8596C44.1817 23.838 44.1505 23.8251 44.1216 23.8087C44.1476 23.8682 44.1736 23.9277 44.1962 23.9798C44.2396 23.988 44.2842 23.9957 44.3287 24.0035Z" fill="black"/>
<path d="M44.1225 23.8086L44.1195 23.8026L44.1161 23.8043L44.1165 23.8056L44.1225 23.8086Z" fill="black"/>
<path d="M37.4175 16.317C36.3981 16.6977 35.4801 17.284 34.4118 17.4096C33.0723 17.5657 31.8341 16.6673 30.6319 16.0467C29.4296 15.4262 27.3322 14.5239 25.8261 14.6115C26.8277 13.9072 27.8702 13.2851 28.9461 12.7499C28.9461 12.7499 29.1323 12.7499 29.1388 12.7499C29.5407 12.9212 30.426 12.7499 31.2526 12.6318C32.7703 12.4113 34.3045 12.3895 35.8264 12.5671C37.3262 12.7387 38.7918 13.1953 40.165 13.9186C40.9654 14.3526 41.7136 14.9427 42.5042 15.411C40.7796 15.4193 39.0655 15.7246 37.4175 16.317ZM44.337 15.8221C43.3373 15.8221 40.7923 13.7701 39.2274 13.1077C37.6841 12.4883 36.0667 12.1555 34.4347 12.1217C33.7486 12.0989 33.0625 12.1141 32.3764 12.1674C31.4846 12.2397 30.1516 12.7651 29.2695 12.491C30.0307 7.48855 31.2069 3.06098 36.0453 2.33765C38.0578 2.03689 40.1291 2.11303 42.0468 2.95058C44.6408 4.09268 45.5458 6.51014 45.8333 9.51769C45.9999 11.2537 46.4867 15.8221 44.337 15.8221ZM28.1391 15.2396C28.1391 15.2396 26.718 14.6762 25.7771 14.8589C25.4756 14.9338 25.1973 15.1025 24.9718 15.3473C24.7462 15.592 24.5819 15.9035 24.4964 16.2485C24.4899 16.2876 24.4917 16.328 24.5017 16.3661C24.5118 16.4043 24.5296 16.4389 24.5538 16.4671C24.578 16.4953 24.6078 16.5161 24.6405 16.5278C24.6732 16.5395 24.7078 16.5416 24.7414 16.534C25.0266 16.4638 25.2987 16.3349 25.5451 16.1533C25.8032 15.9516 27.3354 15.1635 28.1391 15.2396Z" fill="#FF7817" stroke="black" stroke-width="0.326702"/>
</svg>
