<?xml version="1.0" standalone="no"?>
<!DOCTYPE svg PUBLIC "-//W3C//DTD SVG 20010904//EN"
 "http://www.w3.org/TR/2001/REC-SVG-20010904/DTD/svg10.dtd">
<svg version="1.0" xmlns="http://www.w3.org/2000/svg"
 width="784.000000pt" height="784.000000pt" viewBox="0 0 784.000000 784.000000"
 preserveAspectRatio="xMidYMid meet">
<metadata>
Created by potrace 1.14, written by Peter Selinger 2001-2017
</metadata>
<g transform="translate(0.000000,784.000000) scale(0.100000,-0.100000)"
fill="#000000" stroke="none">
<path d="M2620 7753 c-14 -5 -29 -11 -115 -48 -141 -61 -338 -152 -477 -222
l-167 -83 -77 80 c-43 44 -87 83 -98 86 -55 13 -88 -16 -626 -549 -184 -183
-376 -370 -426 -417 -50 -47 -144 -134 -210 -195 -264 -246 -365 -349 -371
-378 -3 -16 -12 -31 -19 -34 -34 -13 -39 -140 -19 -563 24 -509 26 -578 31
-970 2 -232 8 -375 15 -392 16 -38 55 -61 93 -55 28 4 34 1 43 -21 6 -15 25
-63 43 -107 18 -44 36 -89 41 -100 4 -11 31 -81 58 -155 28 -74 64 -168 80
-209 17 -41 31 -82 31 -93 0 -10 8 -35 17 -56 19 -43 18 -38 27 -162 3 -52 8
-106 12 -120 3 -14 7 -70 10 -125 6 -123 6 -102 3 -218 -1 -53 1 -100 4 -104
4 -3 2 -12 -4 -20 -7 -8 -7 -13 -2 -13 6 0 9 -10 8 -22 -3 -32 26 -137 49
-174 10 -17 33 -38 51 -46 44 -19 125 -16 141 6 11 16 13 16 18 -1 2 -10 7
-34 10 -53 6 -35 11 -62 21 -110 3 -14 7 -36 10 -50 4 -20 30 -128 51 -210 7
-28 41 -145 46 -160 3 -8 16 -51 29 -95 12 -44 26 -84 31 -90 4 -5 8 -19 8
-30 0 -12 3 -25 8 -29 4 -4 8 -12 8 -17 1 -5 3 -11 4 -14 1 -3 3 -8 5 -12 2
-11 14 -40 36 -92 11 -24 19 -48 19 -52 0 -5 9 -31 21 -57 93 -209 216 -565
244 -705 14 -65 50 -179 71 -222 47 -94 108 -139 239 -176 83 -23 452 -16 546
11 17 5 34 9 38 8 8 -2 57 18 99 40 39 20 116 91 154 142 42 56 113 206 151
320 46 136 88 270 92 293 16 77 179 566 255 762 83 215 94 246 124 346 27 87
65 249 72 304 2 17 6 39 8 50 3 11 5 22 5 25 1 3 20 6 44 7 85 4 127 34 133
98 19 198 25 538 11 662 -18 167 -67 263 -159 311 -21 10 -36 21 -33 23 2 3 7
20 10 39 20 123 76 345 97 384 6 11 10 22 9 24 -5 7 76 240 100 283 7 13 11
24 10 24 -3 0 1 12 86 225 40 102 73 190 73 197 0 7 4 13 9 13 10 0 51 101 51
126 0 9 6 30 14 47 24 55 61 162 58 170 -1 4 2 7 8 7 5 0 10 6 10 13 0 6 23
71 51 142 65 167 109 290 160 440 47 138 48 144 49 150 0 3 6 21 14 40 8 19
13 35 11 35 -3 0 0 12 6 28 6 15 13 36 15 47 2 11 15 64 29 118 13 54 27 118
31 143 10 73 -6 88 -171 159 -16 7 -46 20 -65 28 -73 32 -411 147 -433 147 -7
0 -18 4 -26 9 -11 7 -7 18 19 56 31 45 165 214 209 265 40 46 56 64 106 130
28 36 54 68 58 71 17 12 34 83 31 123 -7 71 -36 99 -114 111 -25 4 -47 8 -50
10 -28 17 -421 24 -765 13 l-101 -3 -1 105 c-1 122 -6 155 -35 230 -31 83 -78
121 -128 103z m319 -2262 c53 -15 120 -75 127 -115 3 -16 9 -36 13 -45 8 -16
7 -417 -3 -896 -3 -132 -6 -419 -7 -638 l-3 -398 29 -29 c17 -16 46 -32 65
-35 31 -5 71 -39 71 -62 1 -4 5 -13 9 -18 25 -30 52 -285 30 -285 -6 0 -10 6
-9 13 4 24 -40 105 -60 112 -26 8 -58 -9 -66 -36 -8 -23 0 -77 17 -118 6 -14
12 -28 12 -31 1 -3 4 -9 7 -15 7 -11 20 -67 25 -102 6 -59 36 -106 60 -96 11
4 13 -7 8 -58 -5 -68 -12 -82 -42 -84 -16 -1 -18 6 -17 49 1 90 -24 132 -73
119 -28 -7 -39 -47 -46 -163 -5 -95 -13 -166 -21 -205 -20 -100 -31 -146 -59
-255 -6 -20 -36 -111 -43 -130 -8 -20 -8 -20 -18 -55 -4 -16 -12 -36 -18 -43
-5 -6 -6 -12 -2 -12 4 0 3 -6 -2 -12 -5 -7 -20 -42 -32 -78 -12 -36 -26 -74
-31 -85 -25 -54 -125 -323 -136 -365 -2 -8 -17 -60 -35 -115 -17 -55 -32 -110
-35 -122 -13 -67 -99 -348 -124 -408 -5 -11 -19 -45 -32 -75 -21 -52 -66 -136
-87 -163 -47 -59 -91 -102 -134 -130 -27 -17 -52 -32 -56 -33 -3 0 -25 -6 -47
-12 -75 -22 -236 -29 -395 -18 -122 9 -186 22 -222 48 -65 45 -74 66 -117 260
-10 47 -26 102 -34 122 -8 20 -15 39 -15 42 1 4 -12 41 -31 89 -4 11 -13 36
-20 55 -7 19 -16 44 -21 55 -5 11 -36 94 -69 185 -34 91 -73 194 -87 230 -14
36 -32 85 -40 110 -8 25 -17 52 -20 60 -4 8 -7 18 -8 23 -2 4 -4 9 -5 12 -1 3
-3 8 -4 13 -1 4 -14 43 -28 87 -30 91 -71 225 -73 240 -1 6 -3 12 -4 15 -2 3
-4 12 -6 20 -1 8 -7 33 -13 55 -6 22 -13 51 -16 65 -3 14 -11 48 -16 75 -19
88 -37 187 -46 260 -3 28 -7 59 -9 70 -1 11 -3 33 -4 48 -1 36 -43 79 -68 70
-34 -12 -49 -32 -46 -60 2 -16 6 -47 9 -71 l5 -43 -25 16 c-14 9 -30 14 -36
10 -18 -11 -57 22 -69 57 -15 45 -16 126 -3 163 6 17 21 73 33 125 12 52 37
139 54 194 36 107 36 149 3 178 -25 21 -24 21 -48 8 -10 -5 -26 -32 -35 -60
-19 -58 -35 -73 -36 -33 0 15 -2 37 -5 48 -2 11 -6 39 -8 62 -4 35 -2 43 14
48 35 11 63 64 63 117 l0 48 34 -4 c30 -3 37 1 59 34 13 20 26 45 29 56 2 10
14 51 25 89 12 39 30 113 41 165 10 52 21 106 23 120 3 13 8 42 11 65 3 22 8
47 10 55 2 8 7 43 10 77 4 35 9 75 11 90 1 16 6 57 10 93 3 36 8 74 10 85 3
11 7 36 10 55 12 78 26 108 74 160 28 30 63 75 77 100 14 25 29 47 32 50 5 5
43 78 46 90 1 3 9 22 18 43 60 139 108 370 123 593 3 49 8 91 10 93 10 10 273
14 419 7 39 -2 131 -7 205 -11 269 -15 530 -8 640 16 25 6 70 13 100 16 30 2
56 6 57 7 7 7 144 -3 182 -13z"/>
<path d="M1353 4642 c-59 -3 -75 -20 -79 -80 -3 -37 23 -72 54 -73 9 0 116 -2
237 -5 121 -2 252 -6 292 -8 45 -2 78 1 88 8 20 14 25 71 11 103 -18 39 -17
39 -329 47 -115 3 -212 7 -215 8 -4 2 -31 2 -59 0z"/>
<path d="M2169 4618 c-41 -15 -48 -117 -10 -138 20 -10 671 -12 688 -2 18 11
31 53 27 86 -6 60 -2 59 -359 60 -180 1 -335 -2 -346 -6z"/>
<path d="M1670 4188 c-36 -4 -84 -9 -107 -12 -37 -4 -113 -35 -89 -36 5 0 3
-7 -4 -15 -11 -13 -10 -89 1 -100 10 -9 59 -13 65 -4 3 5 9 7 13 5 4 -3 25 -1
48 4 93 21 161 21 148 0 -13 -21 10 -63 51 -91 59 -40 78 -43 113 -13 33 28
41 55 28 99 -39 132 -118 180 -267 163z"/>
<path d="M2398 4184 c-2 -2 -29 -6 -59 -10 -92 -10 -104 -13 -116 -31 -18 -23
-16 -84 2 -110 15 -22 14 -22 130 -8 28 3 87 7 133 10 l82 4 0 -33 c0 -53 27
-78 89 -82 64 -3 96 10 111 45 18 45 -5 125 -46 162 -49 43 -87 53 -206 55
-64 1 -118 0 -120 -2z"/>
<path d="M2019 3929 c-17 -15 -23 -32 -25 -77 -1 -31 -5 -129 -9 -217 -3 -88
-8 -182 -10 -210 -2 -27 -7 -86 -10 -130 -5 -80 -11 -145 -19 -240 -3 -27 -8
-81 -11 -120 -4 -38 -8 -90 -11 -115 -2 -25 -7 -79 -10 -120 -3 -41 -7 -95 -9
-120 -26 -321 -26 -374 0 -394 61 -45 209 -65 272 -36 71 32 143 117 143 168
0 26 -41 72 -61 68 -8 -1 -38 -26 -67 -55 -53 -53 -53 -53 -105 -47 -63 6 -98
16 -92 25 2 4 7 52 10 107 3 54 7 119 10 144 11 124 17 189 20 225 7 91 16
193 21 236 3 26 7 73 9 105 8 114 15 186 21 195 3 5 0 9 -6 9 -6 0 -8 5 -5 10
8 13 12 59 21 255 12 249 11 298 -3 321 -19 31 -48 35 -74 13z"/>
<path d="M1785 1974 c-9 -7 -20 -28 -25 -47 -13 -58 20 -96 84 -97 39 0 192
-36 211 -50 6 -4 33 -13 60 -19 28 -7 57 -16 65 -19 8 -3 22 -7 30 -8 8 -1 33
-6 55 -11 22 -6 68 -9 103 -7 44 2 62 -1 62 -10 0 -7 -3 -16 -7 -20 -21 -20
-18 -95 4 -117 35 -34 56 -28 81 23 39 79 110 303 105 331 -5 27 -37 67 -54
67 -5 0 -30 -22 -56 -50 -46 -50 -85 -69 -155 -76 -22 -2 -44 -7 -49 -10 -5
-3 -9 0 -9 7 0 7 -3 10 -6 7 -9 -10 -187 37 -264 69 -8 3 -18 7 -22 8 -5 2
-10 4 -13 5 -3 1 -8 3 -12 4 -5 2 -26 7 -48 14 -63 17 -121 20 -140 6z"/>
<path d="M1934 661 c-2 -2 -11 -5 -21 -6 -10 -1 -30 -6 -44 -12 -45 -19 -48
-106 -5 -136 6 -4 32 -5 57 -1 25 3 70 7 99 9 59 4 67 9 79 51 11 38 -10 93
-36 96 -37 3 -125 3 -129 -1z"/>
<path d="M6348 7395 c-2 -2 -46 -5 -98 -8 -52 -4 -115 -9 -140 -12 -25 -3 -59
-8 -75 -10 -17 -2 -49 -8 -70 -14 -22 -6 -49 -12 -60 -14 -59 -11 -224 -86
-300 -135 -110 -72 -256 -224 -320 -332 -6 -10 -16 -24 -22 -32 -29 -35 -135
-264 -172 -371 -44 -127 -100 -332 -126 -462 -9 -44 -19 -89 -21 -100 -16 -78
-23 -129 -19 -133 2 -3 0 -12 -4 -21 -5 -9 -12 -40 -15 -70 -4 -30 -9 -64 -11
-75 -2 -12 -7 -39 -10 -61 -3 -22 -8 -58 -11 -80 -8 -56 -12 -87 -13 -112 -1
-15 -6 -20 -19 -17 -9 3 -45 -13 -80 -35 -34 -23 -65 -41 -67 -41 -8 0 -197
-131 -270 -186 -149 -114 -195 -154 -176 -154 8 0 -4 -12 -25 -26 -34 -23 -65
-54 -92 -89 -32 -42 -72 -158 -66 -192 6 -36 41 -66 68 -58 12 3 26 7 31 9 21
6 50 20 55 25 3 3 32 24 64 46 141 95 295 164 376 169 25 1 36 7 38 20 3 14
10 16 30 11 34 -8 268 -121 303 -146 14 -10 29 -16 33 -12 3 3 6 1 6 -5 0 -6
-11 -14 -25 -18 -25 -6 -25 -9 -20 -63 13 -121 16 -134 39 -152 20 -16 29 -39
52 -129 2 -8 12 -49 23 -90 10 -41 31 -122 46 -180 15 -58 37 -121 49 -141 69
-116 183 -184 325 -193 167 -10 285 61 360 218 46 95 64 157 107 366 7 33 31
70 47 71 6 1 26 2 42 4 46 5 73 -18 90 -79 9 -29 17 -62 19 -72 3 -17 14 -74
22 -111 4 -21 36 -118 43 -128 3 -5 6 -12 7 -15 3 -15 19 -47 30 -60 7 -8 12
-19 12 -23 0 -5 19 -30 41 -57 87 -104 242 -141 396 -96 6 2 22 6 38 11 15 4
27 12 27 18 0 6 3 7 6 4 13 -13 100 61 137 118 21 32 62 131 65 155 0 5 14 77
18 93 1 4 2 8 4 10 1 1 3 9 5 17 1 8 18 71 36 140 24 90 40 132 58 149 13 14
25 39 27 56 1 16 5 58 9 92 l7 62 -38 10 c-73 19 -90 22 -184 35 -99 14 -376
16 -398 2 -6 -4 -12 -2 -12 3 0 6 8 11 18 12 9 0 24 2 32 4 42 11 130 28 155
30 11 2 47 6 80 9 33 4 69 9 81 11 11 2 72 4 135 6 100 3 119 1 149 -16 19
-11 49 -26 65 -34 17 -7 37 -17 46 -21 25 -13 121 -5 154 12 50 27 92 73 124
141 64 133 85 289 84 597 -1 186 -6 282 -28 520 -3 36 -7 88 -10 115 -2 28 -5
50 -5 50 -1 0 -3 11 -6 25 -2 14 -7 39 -10 55 -3 17 -5 37 -6 45 -1 40 -62
276 -94 364 -50 137 -133 288 -193 353 -12 12 -21 24 -21 27 0 6 -83 88 -122
121 -120 103 -365 209 -553 241 -16 3 -41 7 -55 10 -14 2 -68 7 -120 10 -52 3
-103 7 -112 8 -9 2 -18 3 -20 1z m-393 -1999 c85 -14 152 -28 197 -41 25 -7
49 -11 52 -8 3 4 6 1 6 -5 0 -15 -5 -15 -63 3 -26 8 -50 14 -52 14 -3 0 -18 2
-33 6 -80 17 -259 29 -427 29 -188 -1 -252 -4 -282 -15 -14 -5 -23 -5 -23 1 0
10 5 12 53 15 15 1 30 5 33 8 8 7 488 1 539 -7z m305 -78 c0 -5 -9 -4 -20 2
-11 6 -20 12 -20 14 0 2 9 2 20 -1 11 -3 20 -9 20 -15z m69 -14 c12 -12 -8
-10 -34 2 l-30 14 30 -6 c16 -3 32 -8 34 -10z m96 -34 c117 -50 145 -64 145
-72 0 -5 4 -7 8 -4 4 2 19 -5 32 -16 l25 -20 -27 16 c-16 9 -28 13 -28 10 0
-4 -8 -1 -17 7 -21 17 -62 37 -155 74 -38 16 -68 30 -68 32 0 6 36 -6 85 -27z
m614 -388 c20 -16 45 -34 56 -40 11 -6 15 -12 9 -12 -6 0 -35 18 -64 40 -29
22 -50 40 -46 40 5 0 25 -13 45 -28z m112 -83 c19 -16 20 -18 4 -10 -34 17
-51 31 -39 31 7 0 22 -9 35 -21z"/>
<path d="M5041 3902 c-12 -23 -12 -56 1 -100 5 -18 6 -41 2 -50 -12 -27 -12
-35 -4 -86 6 -43 5 -49 -11 -53 -11 -3 -19 -10 -19 -16 0 -5 -9 0 -19 12 -26
29 -35 12 -26 -47 9 -59 13 -66 31 -51 18 15 18 0 0 -24 -9 -12 -16 -14 -21
-8 -8 13 -25 14 -25 2 0 -16 34 -18 53 -3 30 26 29 6 -1 -26 -21 -23 -29 -39
-26 -60 3 -24 -2 -30 -32 -41 -19 -7 -32 -17 -29 -22 4 -5 2 -9 -4 -9 -5 0 -9
-13 -9 -29 1 -16 -9 -42 -21 -59 -20 -29 -21 -31 -3 -36 16 -6 18 -15 15 -66
-2 -37 0 -60 6 -60 6 0 8 7 5 15 -4 10 -2 13 8 10 18 -7 17 -53 -2 -65 -12 -8
-13 -13 -2 -30 17 -28 15 -40 -8 -40 -22 0 -57 -56 -38 -62 8 -3 7 -14 -2 -39
-11 -30 -10 -40 3 -65 9 -17 14 -48 13 -71 -3 -34 1 -43 18 -51 l21 -11 -21 0
c-21 -1 -44 -37 -44 -69 0 -10 -5 -23 -11 -29 -7 -7 -8 -20 -3 -34 5 -13 9
-40 9 -59 1 -21 6 -34 13 -33 15 4 15 0 -3 -44 -18 -41 -18 -46 -6 -38 5 3 12
1 16 -5 3 -5 -2 -10 -12 -10 -10 0 -14 -4 -8 -8 18 -13 14 -42 -6 -42 -17 0
-18 -3 -8 -21 7 -13 7 -24 2 -28 -14 -8 -24 -69 -14 -76 5 -3 7 -14 4 -26 -4
-14 -12 -19 -24 -16 -21 6 -44 -17 -34 -33 3 -5 2 -10 -4 -10 -5 0 -9 -10 -8
-22 2 -26 45 -90 56 -84 4 3 13 1 21 -5 10 -6 11 -9 3 -9 -7 0 -13 -11 -13
-25 0 -15 -6 -25 -15 -25 -8 0 -12 -6 -9 -14 4 -10 0 -13 -14 -10 -13 4 -19 0
-19 -12 0 -9 8 -19 18 -21 11 -3 15 -11 12 -24 -6 -23 -53 -27 -53 -4 0 8 -4
15 -10 15 -13 0 -13 -16 2 -39 7 -11 19 -16 30 -13 10 2 18 -1 18 -7 0 -6 -8
-11 -17 -11 -13 0 -14 -3 -5 -12 7 -7 12 -18 12 -26 0 -8 8 -21 18 -28 16 -13
16 -13 -3 -14 -18 0 -20 -7 -22 -62 -1 -47 1 -58 9 -44 9 17 11 17 29 -3 11
-12 24 -21 30 -21 5 0 9 -6 7 -12 -1 -7 4 -37 11 -66 12 -48 15 -51 27 -35 16
22 19 1 4 -27 -7 -13 -7 -21 2 -26 7 -4 8 -3 4 4 -4 7 -2 12 3 12 6 0 11 -4
11 -10 0 -5 7 -10 16 -10 14 0 15 -2 3 -17 -8 -9 -9 -14 -3 -10 14 8 26 -17
18 -38 -6 -14 -18 -19 -37 -16 -5 1 -5 -3 -2 -9 4 -6 13 -9 20 -7 14 6 42 -23
47 -50 2 -10 13 -19 26 -21 12 -2 22 -8 22 -13 0 -5 9 -9 20 -9 14 0 20 -7 20
-22 1 -22 1 -22 14 -5 8 11 17 14 20 8 4 -5 2 -12 -4 -16 -19 -12 -11 -37 10
-30 15 5 18 2 15 -15 -3 -18 -2 -20 10 -10 14 11 19 7 16 -12 -3 -18 21 -6 26
12 6 24 23 17 23 -10 0 -13 5 -17 20 -13 15 4 19 2 14 -10 -3 -8 -1 -18 5 -21
6 -4 8 -13 5 -20 -3 -8 -1 -17 4 -20 6 -3 15 7 20 24 8 21 16 28 26 24 9 -3
13 -11 9 -18 -4 -6 -1 -6 9 2 13 10 17 10 23 -5 5 -10 7 -22 5 -28 -10 -37
-10 -75 -1 -75 6 0 11 -6 11 -14 0 -9 7 -13 20 -11 16 3 20 -2 20 -26 0 -38
20 -60 43 -47 13 7 17 5 17 -10 0 -25 28 -36 47 -20 12 10 18 9 28 -5 7 -10
22 -20 34 -22 20 -4 21 -1 15 31 -4 22 -2 34 5 34 6 0 11 -7 11 -16 0 -8 5
-12 10 -9 6 4 15 -8 21 -25 9 -23 16 -30 33 -28 17 2 20 -2 19 -20 -2 -15 1
-21 8 -16 7 4 20 7 30 8 11 1 20 6 21 11 4 24 27 36 48 25 11 -6 20 -14 20
-19 0 -12 44 -55 58 -59 10 -2 10 3 2 18 -7 13 -7 20 -1 20 12 0 80 -68 97
-96 12 -21 34 -30 34 -15 0 6 -7 11 -15 11 -9 0 -15 9 -15 25 0 26 9 29 48 19
16 -5 22 -14 22 -35 0 -16 4 -29 8 -29 5 0 8 12 7 27 -1 16 0 21 2 13 3 -8 19
-26 36 -40 28 -22 30 -23 24 -5 -5 14 2 10 23 -13 30 -33 34 -33 30 3 -2 19
-1 19 17 3 24 -22 34 -23 27 -3 -4 10 0 15 11 15 9 0 13 5 10 10 -4 7 3 8 22
4 35 -9 36 -9 39 -37 1 -12 3 -25 3 -29 1 -5 6 -8 12 -8 8 0 8 5 -1 15 -9 11
-9 15 -1 15 7 0 9 10 6 28 -5 23 -5 24 5 9 7 -10 9 -25 6 -33 -3 -8 -1 -14 4
-14 6 0 10 7 10 16 0 8 5 12 10 9 6 -3 14 4 18 16 8 19 9 20 15 5 4 -10 11
-15 15 -12 5 3 14 -5 20 -19 6 -13 21 -29 34 -36 l23 -12 -20 24 c-11 13 -24
27 -30 31 -5 4 -2 10 9 14 26 10 59 -27 58 -65 -1 -27 1 -29 14 -17 12 12 12
18 -1 43 -16 31 -19 53 -7 53 12 0 42 -39 42 -55 0 -8 9 -15 21 -15 12 0 17 4
14 11 -10 15 -17 69 -10 69 17 0 45 -22 45 -35 0 -8 4 -15 9 -15 14 0 31 58
31 102 0 25 4 37 11 33 5 -4 7 -19 4 -35 -4 -20 -2 -29 11 -34 23 -9 25 -5 15
32 -8 26 -6 34 8 44 10 7 20 20 23 28 3 8 9 -4 13 -27 4 -24 12 -43 17 -43 6
0 8 9 5 20 -7 26 10 36 18 11 9 -29 35 -14 35 20 0 32 17 39 26 12 16 -48 16
-48 26 -23 5 14 7 33 4 42 -2 11 1 18 10 18 8 0 14 7 14 15 0 9 13 18 31 22
17 3 33 12 36 19 3 8 9 12 13 9 5 -3 7 14 5 37 -3 24 -1 39 3 33 16 -22 32
-15 26 11 -6 21 -4 25 7 19 11 -6 11 -5 2 5 -9 9 -9 15 0 25 10 11 15 10 30
-2 9 -9 17 -22 17 -30 0 -8 4 -12 9 -8 6 3 8 15 6 26 -5 25 4 51 16 43 5 -3 9
-13 9 -24 0 -10 6 -20 14 -23 12 -5 12 0 5 26 -5 18 -9 33 -9 34 0 1 7 0 15
-3 8 -4 15 -14 15 -24 0 -11 5 -22 10 -25 12 -8 12 -3 1 27 -4 13 -5 32 0 43
7 17 8 16 8 -7 1 -16 5 -28 11 -28 5 0 9 3 9 8 -3 20 2 32 15 32 8 0 12 9 11
25 -4 33 12 41 36 19 18 -17 19 -16 15 14 -2 18 1 32 6 32 6 0 8 -9 5 -19 -3
-12 1 -22 10 -25 22 -9 23 -8 23 14 0 25 8 25 27 3 13 -16 13 -16 7 7 -3 14
-3 22 1 18 11 -10 62 28 62 46 0 9 -4 16 -8 16 -4 0 -5 9 -2 19 4 18 7 18 38
5 33 -13 34 -13 31 9 -1 13 -6 28 -10 35 -4 7 -4 12 1 11 23 -4 33 3 34 24 0
12 3 16 6 10 2 -7 14 -13 26 -13 20 0 20 0 1 15 -19 14 -19 14 1 15 18 1 18 2
4 13 -18 14 -14 38 5 31 18 -7 39 22 33 46 -3 11 -1 20 5 20 6 0 8 9 5 20 -3
13 2 25 16 35 13 9 18 18 12 23 -11 8 -36 72 -28 72 9 0 31 -26 47 -58 21 -40
24 -40 21 -1 -1 17 -12 39 -24 50 -11 11 -21 25 -21 31 0 9 3 9 12 0 17 -17
25 -15 31 8 6 23 27 27 27 5 0 -8 5 -15 10 -15 17 0 11 15 -15 38 -24 21 -30
20 -25 -3 1 -5 -10 3 -25 19 -15 17 -24 35 -20 44 4 12 8 13 17 4 7 -7 19 -12
28 -12 11 1 8 7 -10 22 -20 17 -21 20 -5 14 45 -18 49 -18 27 -1 -13 9 -21 23
-18 31 8 20 -11 27 -22 7 -8 -13 -12 -4 -22 40 -7 31 -17 57 -22 57 -9 0 -6 5
38 53 53 60 57 71 40 111 -8 20 -20 36 -26 36 -6 0 -8 -4 -5 -10 3 -5 1 -18
-4 -27 -8 -14 -11 -15 -11 -3 -3 38 -12 64 -30 90 -11 15 -16 30 -13 34 4 3 0
12 -9 19 -24 19 -30 47 -10 48 10 0 12 3 5 6 -7 2 -13 11 -13 19 0 8 -4 14
-10 14 -5 0 -10 5 -10 11 0 7 10 9 26 5 23 -6 24 -5 13 16 -9 16 -9 23 0 26 6
2 8 9 4 15 -12 20 -12 35 2 41 10 4 11 11 1 38 -6 18 -15 39 -19 46 -5 7 -3
28 3 48 16 46 10 58 -39 74 -41 13 -51 25 -29 32 9 3 9 12 -2 37 -7 19 -9 36
-4 39 13 10 17 42 4 42 -13 0 -30 41 -23 54 3 4 9 2 14 -5 8 -13 15 67 9 96
-11 54 -16 107 -9 110 13 9 3 57 -15 70 -9 7 -16 18 -16 25 0 7 -12 26 -26 43
-19 23 -22 32 -12 38 10 7 9 15 -6 43 -10 19 -28 45 -40 58 l-21 23 -3 -28
c-2 -18 -7 -25 -15 -20 -7 4 -16 8 -21 8 -5 0 -11 6 -14 14 -3 10 1 12 14 8
14 -5 13 -2 -6 15 l-25 21 25 -7 c65 -18 73 -15 48 14 -11 12 -11 13 1 3 10
-9 16 -9 26 0 10 10 8 18 -12 41 -13 16 -27 42 -30 57 -3 16 -9 29 -13 29 -4
0 -15 18 -25 40 -14 30 -21 37 -31 29 -9 -8 -15 -5 -23 9 -9 17 -8 19 8 15 31
-8 33 24 3 55 -26 26 -26 28 -9 45 10 10 21 16 24 14 10 -11 63 51 63 74 -1
23 -1 23 -12 4 -26 -49 -58 -50 -100 -2 -22 25 -22 26 -2 66 13 25 14 35 5 44
-9 9 -10 7 -5 -7 5 -13 4 -17 -4 -12 -7 4 -10 -1 -7 -14 2 -11 0 -22 -6 -25
-5 -4 -9 2 -10 12 -2 29 -30 -68 -35 -121 -3 -27 -9 -57 -15 -67 -5 -10 -5
-20 0 -23 12 -8 2 -53 -15 -67 -8 -6 -14 -18 -14 -25 0 -8 -5 -14 -11 -14 -7
0 -8 -5 -3 -12 19 -28 1 -123 -22 -114 -11 4 -12 -3 -8 -32 3 -20 11 -40 16
-43 7 -4 6 -9 -2 -14 -7 -4 -9 -19 -5 -38 l6 -32 -15 25 c-9 14 -15 35 -16 46
0 18 -17 34 -36 34 -10 0 -3 -29 10 -39 15 -12 10 -55 -5 -45 -5 3 -10 0 -10
-5 -1 -6 -3 -15 -4 -21 -1 -5 -3 -13 -4 -16 0 -4 -8 -1 -16 6 -11 9 -15 10
-15 1 0 -7 -6 -19 -14 -26 -10 -11 -16 -11 -26 -2 -10 10 -12 8 -7 -5 4 -10 2
-18 -3 -18 -6 0 -6 -9 0 -24 5 -13 6 -26 4 -29 -10 -9 -44 5 -44 19 0 8 -4 14
-9 14 -5 0 -15 15 -22 33 -18 45 -76 124 -91 124 -7 0 -22 4 -32 9 -16 6 -18
4 -13 -9 9 -24 -7 -21 -41 8 -31 26 -48 33 -36 14 14 -24 22 -80 11 -76 -6 2
-14 14 -17 28 -5 21 -12 24 -47 24 -23 0 -45 3 -49 8 -17 17 -120 -5 -108 -24
6 -10 -19 -13 -78 -11 -32 2 -38 -1 -38 -18 0 -11 -6 -19 -12 -17 -7 1 -12 -4
-11 -10 2 -7 -2 -13 -7 -13 -16 0 -51 -40 -45 -50 3 -5 -3 -14 -14 -19 -15 -8
-20 -7 -26 7 -6 15 -8 14 -24 -7 -16 -21 -19 -22 -25 -6 -3 10 -12 15 -21 11
-11 -4 -16 5 -21 34 -5 29 -10 37 -22 33 -11 -5 -14 -2 -9 10 4 11 -3 23 -21
36 -25 18 -26 22 -15 51 l12 31 -44 -35 c-35 -29 -44 -33 -49 -20 -4 10 -13
13 -26 9 -22 -7 -26 6 -10 35 9 17 4 16 -53 -7 -78 -32 -115 -39 -99 -21 15
19 -11 51 -43 51 -34 0 -69 -39 -126 -137 -24 -42 -50 -76 -57 -76 -10 0 -12
-8 -8 -27 3 -16 1 -35 -5 -43 -8 -12 -10 -9 -6 13 5 31 0 34 -20 10 -13 -16
-14 -14 -11 18 3 33 2 35 -14 25 -10 -6 -18 -14 -18 -18 0 -5 -5 -8 -11 -8 -5
0 -7 5 -4 11 4 6 0 16 -8 22 -8 7 -17 21 -20 32 -4 15 -5 13 -6 -7 -1 -38 -21
-35 -21 3 0 18 -4 28 -10 24 -16 -10 -35 17 -34 47 1 22 -2 26 -12 17 -8 -6
-14 -21 -14 -33 -1 -20 -2 -19 -24 7 -12 15 -28 51 -36 80 -7 29 -16 54 -20
57 -5 3 -11 21 -14 40 -3 19 -8 46 -12 60 -3 14 -6 33 -6 43 1 9 -3 15 -9 12
-5 -4 -10 4 -10 17 -1 13 -3 32 -4 43 -2 11 -5 34 -6 50 -2 17 -8 33 -13 37
-5 3 -11 12 -12 20 -1 7 -11 48 -23 90 -12 43 -21 90 -21 104 0 22 2 24 15 14
13 -11 13 -8 3 21 -14 44 -15 44 -27 21z m1279 -701 c0 -18 -18 -21 -30 -6
-10 13 -9 15 9 15 11 0 21 -4 21 -9z m40 -49 c0 -15 -2 -15 -10 -2 -13 20 -13
33 0 25 6 -3 10 -14 10 -23z m-230 -178 c0 -13 5 -24 10 -24 20 0 25 2 23 11
-4 13 11 11 25 -3 10 -10 15 -10 22 2 7 11 10 11 10 2 0 -7 5 -10 11 -7 5 4
18 0 28 -9 15 -14 20 -14 29 -3 7 8 7 18 2 27 -20 31 -9 32 16 2 25 -30 54
-46 38 -21 -3 6 8 3 25 -5 17 -9 31 -13 31 -10 0 4 8 0 18 -8 16 -15 49 -29
81 -34 18 -3 51 18 51 32 0 15 28 26 35 14 4 -6 1 -10 -6 -10 -7 0 -10 -2 -7
-5 3 -3 17 0 32 6 38 18 65 -9 61 -62 -2 -37 8 -53 18 -26 3 6 6 1 6 -12 1
-18 -3 -22 -18 -18 -16 4 -19 -1 -19 -42 0 -25 -2 -72 -5 -103 -3 -32 -2 -60
3 -63 11 -7 -12 -55 -26 -55 -12 0 -12 -29 0 -48 4 -6 3 -12 -3 -12 -5 0 -13
5 -16 10 -4 6 -11 8 -16 4 -6 -3 -2 -12 10 -21 12 -8 21 -19 21 -25 0 -7 -4
-7 -13 0 -13 11 -60 5 -53 -7 2 -3 -2 -29 -9 -56 -9 -37 -9 -52 -1 -57 6 -5 2
-8 -10 -8 -12 0 -27 7 -34 15 -14 16 -34 10 -24 -7 11 -17 -48 1 -61 18 -10
14 -37 20 -60 14 -25 -6 -44 1 -39 15 8 19 -6 19 -32 0 -19 -13 -23 -12 -44 7
-12 11 -26 34 -32 49 -10 29 -38 41 -38 17 0 -7 -10 -1 -21 14 -17 23 -24 26
-40 18 -10 -6 -19 -20 -19 -31 0 -11 -7 -22 -15 -25 -8 -3 -17 -14 -20 -25 -4
-10 -15 -19 -25 -19 -10 0 -22 -5 -25 -10 -4 -6 -10 -8 -15 -5 -11 7 -33 -32
-25 -45 8 -13 -37 -30 -81 -30 -27 0 -34 4 -34 20 0 15 -7 20 -28 20 -31 0
-75 27 -67 41 4 5 0 9 -8 9 -40 0 -50 68 -22 138 8 18 10 33 4 33 -5 1 -15 2
-21 3 -17 1 -22 34 -9 49 12 16 6 126 -8 140 -15 15 -14 28 2 25 14 -3 15 40
3 115 l-7 48 32 -6 c17 -3 51 -19 75 -36 l44 -30 21 20 c17 16 26 18 42 10 20
-11 23 -9 47 32 7 12 22 16 60 14 28 -1 50 2 50 8 0 5 7 4 15 -3 11 -9 15 -9
15 -1 0 7 5 9 10 6 10 -6 13 3 13 37 0 10 4 15 8 12 5 -3 9 -16 9 -30z m20
-527 c0 -22 -11 -27 -26 -12 -19 19 -18 25 6 25 11 0 20 -6 20 -13z m275 -127
c8 -13 2 -13 -29 1 -14 7 -23 16 -20 20 6 10 39 -5 49 -21z m-215 5 c0 -12
-19 -12 -23 0 -4 9 -1 12 9 8 7 -3 14 -7 14 -8z m-1410 -229 c0 -8 -4 -18 -10
-21 -5 -3 -10 3 -10 14 0 12 5 21 10 21 6 0 10 -6 10 -14z m1381 -1443 c13
-16 12 -17 -3 -4 -10 7 -18 15 -18 17 0 8 8 3 21 -13z"/>
<path d="M6444 2383 c1 -32 26 -49 26 -18 0 8 -4 15 -9 15 -5 0 -12 8 -14 18
-2 9 -4 2 -3 -15z"/>
<path d="M7122 3835 c0 -16 2 -22 5 -12 2 9 2 23 0 30 -3 6 -5 -1 -5 -18z"/>
<path d="M7316 3301 c-11 -17 18 -30 36 -17 10 7 15 16 11 19 -9 10 -41 8 -47
-2z"/>
<path d="M7352 3254 c-11 -12 -10 -19 7 -40 19 -24 29 -23 25 4 -1 6 -2 21 -3
32 -1 24 -11 25 -29 4z"/>
<path d="M7375 3140 c3 -5 14 -10 23 -10 15 0 15 2 2 10 -20 13 -33 13 -25 0z"/>
<path d="M5405 3119 c-4 -6 -5 -12 -2 -15 2 -3 7 2 10 11 7 17 1 20 -8 4z"/>
<path d="M5480 3119 c0 -5 5 -7 10 -4 6 3 10 8 10 11 0 2 -4 4 -10 4 -5 0 -10
-5 -10 -11z"/>
<path d="M4751 2134 c0 -11 3 -14 6 -6 3 7 2 16 -1 19 -3 4 -6 -2 -5 -13z"/>
<path d="M7572 2105 c0 -16 2 -22 5 -12 2 9 2 23 0 30 -3 6 -5 -1 -5 -18z"/>
<path d="M7645 1710 c3 -5 11 -10 16 -10 6 0 7 5 4 10 -3 6 -11 10 -16 10 -6
0 -7 -4 -4 -10z"/>
<path d="M4806 1525 c-3 -8 -1 -15 4 -15 13 0 22 18 11 24 -5 3 -11 -1 -15 -9z"/>
<path d="M7590 1481 c0 -6 5 -13 10 -16 6 -3 10 1 10 9 0 9 -4 16 -10 16 -5 0
-10 -4 -10 -9z"/>
<path d="M4926 1241 c-3 -5 1 -11 9 -15 9 -3 15 0 15 9 0 16 -16 20 -24 6z"/>
<path d="M7326 1123 c-6 -14 -5 -15 5 -6 7 7 10 15 7 18 -3 3 -9 -2 -12 -12z"/>
<path d="M6870 781 c0 -13 28 -33 33 -23 3 4 -3 13 -14 20 -10 7 -19 8 -19 3z"/>
<path d="M5950 665 c0 -9 6 -12 15 -9 10 4 15 0 15 -15 0 -12 4 -21 8 -21 15
0 9 34 -7 47 -21 17 -31 16 -31 -2z"/>
<path d="M6190 561 c0 -6 5 -13 10 -16 6 -3 10 1 10 9 0 9 -4 16 -10 16 -5 0
-10 -4 -10 -9z"/>
</g>
</svg>
